<?xml version="1.0" encoding="iso-8859-1"?>
<!-- Generator: Adobe Illustrator 19.0.0, SVG Export Plug-In . SVG Version: 6.00 Build 0)  -->
<svg version="1.1" id="Capa_1" xmlns="http://www.w3.org/2000/svg" xmlns:xlink="http://www.w3.org/1999/xlink" x="0px" y="0px"
	 viewBox="0 0 511.999 511.999" style="enable-background:new 0 0 511.999 511.999;" xml:space="preserve">
<ellipse style="fill:#D8D8E4;" cx="256" cy="358.38" rx="246" ry="123.46"/>
<g>
	<polygon style="fill:#72D8FF;" points="256,30.033 88.912,126.533 88.912,319.531 256,416.03 423.088,319.531 423.088,126.533 	"/>
	<polygon style="fill:#72D8FF;" points="88.912,319.531 255.828,415.93 255.828,223.032 88.912,126.632 	"/>
</g>
<polygon style="fill:#C9F3FF;" points="88.912,126.533 256,223.032 423.088,126.533 256,30.033 "/>
<polygon style="fill:#4DBAF6;" points="88.912,319.531 256,416.03 423.088,319.531 256,223.032 "/>
<path d="M214.803,470.21C103.747,460.609,20,412.588,20,358.509c0-12.642,4.524-25.143,13.447-37.155
	c3.293-4.434,2.369-10.697-2.065-13.991c-4.434-3.291-10.697-2.367-13.991,2.065C5.851,324.965,0,341.478,0,358.509
	c0,32.966,22.535,64.417,63.455,88.561c38.583,22.766,91.722,38.061,149.626,43.066c0.293,0.025,0.584,0.038,0.873,0.038
	c5.133,0,9.501-3.931,9.952-9.14C224.38,475.532,220.306,470.686,214.803,470.21z"/>
<path d="M258.5,471.965l-0.596,0.002c-5.523,0.03-9.976,4.531-9.946,10.054c0.03,5.505,4.501,9.946,9.999,9.946
	c0.018,0,0.037,0,0.055,0l0.487-0.002c5.523,0,10-4.478,10-10S264.023,471.965,258.5,471.965z"/>
<path d="M498.665,315.302c5.365-0.18,9.662-4.575,9.662-9.983c0-5.522-4.477-10-10-10h-20.145c-5.523,0-10,4.478-10,10v20.145
	c0,5.522,4.477,10,10,10c2.851,0,5.417-1.199,7.238-3.113c4.37,8.575,6.579,17.34,6.579,26.159
	c0,54.09-83.767,102.112-194.849,111.706c-5.502,0.476-9.578,5.321-9.103,10.823c0.45,5.21,4.818,9.141,9.952,9.141
	c0.288,0,0.579-0.013,0.872-0.038c57.915-5.002,111.064-20.295,149.658-43.062c40.929-24.146,63.47-55.601,63.47-88.57
	C512,343.633,507.514,329.112,498.665,315.302z"/>
<path d="M246,133.369c0,5.522,4.477,10,10,10c5.523,0,10-4.478,10-10v-21.828c0-5.522-4.477-10-10-10s-10,4.478-10,10V133.369z"/>
<path d="M83.912,328.099L251,424.568c1.547,0.894,3.273,1.34,5,1.34c1.727,0,3.453-0.446,5-1.34l167.088-96.469
	c3.094-1.786,5-5.088,5-8.66V126.502c0-3.572-1.906-6.874-5-8.66L261,21.373c-3.094-1.787-6.906-1.787-10,0L83.912,117.842
	c-3.094,1.786-5,5.088-5,8.66v192.937C78.912,323.011,80.817,326.313,83.912,328.099z M256,68.729c5.523,0,10-4.478,10-10V47.354
	l137.093,79.151L266,205.744v-19.563c0-5.522-4.477-10-10-10s-10,4.478-10,10v19.563l-137.093-79.239L246,47.354v11.375
	C246,64.251,250.477,68.729,256,68.729z M413.088,302.119l-9.458-5.46c-4.783-2.76-10.898-1.122-13.66,3.66
	c-2.762,4.783-1.123,10.898,3.66,13.66l9.457,5.46L266,398.587V240.291l17.254,9.961c1.575,0.909,3.294,1.342,4.991,1.342
	c3.456,0,6.817-1.794,8.669-5.002c2.762-4.783,1.123-10.898-3.66-13.66l-17.172-9.914l137.006-79.189V302.119z M235.918,223.018
	l-17.172,9.914c-4.783,2.762-6.422,8.877-3.66,13.66c1.852,3.208,5.213,5.002,8.669,5.002c1.696,0,3.416-0.433,4.991-1.342
	L246,240.291v158.296l-137.088-79.148l9.457-5.46c4.783-2.762,6.422-8.877,3.66-13.66c-2.761-4.783-8.877-6.423-13.66-3.66
	l-9.458,5.46v-158.29L235.918,223.018z"/>
<path d="M328.99,276.658l18.904,10.914c1.575,0.909,3.294,1.342,4.991,1.342c3.456,0,6.817-1.794,8.669-5.002
	c2.762-4.783,1.123-10.898-3.66-13.66l-18.904-10.914c-4.784-2.761-10.898-1.122-13.66,3.66
	C322.568,267.781,324.208,273.897,328.99,276.658z"/>
<path d="M159.115,288.914c1.696,0,3.416-0.433,4.991-1.342l18.904-10.914c4.783-2.762,6.422-8.877,3.66-13.66
	s-8.877-6.422-13.66-3.66l-18.904,10.914c-4.783,2.762-6.422,8.877-3.66,13.66C152.298,287.12,155.659,288.914,159.115,288.914z"/>
<g>
</g>
<g>
</g>
<g>
</g>
<g>
</g>
<g>
</g>
<g>
</g>
<g>
</g>
<g>
</g>
<g>
</g>
<g>
</g>
<g>
</g>
<g>
</g>
<g>
</g>
<g>
</g>
<g>
</g>
</svg>
