<?xml version="1.0" encoding="iso-8859-1"?>
<!-- Generator: Adobe Illustrator 19.0.0, SVG Export Plug-In . SVG Version: 6.00 Build 0)  -->
<svg version="1.1" id="Capa_1" xmlns="http://www.w3.org/2000/svg" xmlns:xlink="http://www.w3.org/1999/xlink" x="0px" y="0px"
	 viewBox="0 0 511.999 511.999" style="enable-background:new 0 0 511.999 511.999;" xml:space="preserve">
<path style="fill:#7D9BFF;" d="M77.248,479.749H20.749c-5.937,0-10.75-4.813-10.75-10.75V310.504c0-5.937,4.813-10.75,10.75-10.75
	h56.498c5.937,0,10.75,4.813,10.75,10.75v158.495C87.997,474.936,83.185,479.749,77.248,479.749z"/>
<path style="fill:#FFEFD5;" d="M494.612,395.524l-0.944-0.943c-9.78-9.78-25.149-11.18-36.535-3.328l-55.065,41.412
	c-2.874,2.657-6.633,4.294-11.189,4.294l10.2-3.55l0.989-0.744c8.627-7.974,9.284-25.136-0.385-34.806l0,0
	c-3.751-3.751-8.838-5.858-14.142-5.858h-74.858c-7.957,0-15.587-3.161-21.212-8.787l-53.181-53.431
	c-9.377-9.377-22.093-14.645-35.354-14.645H87.997v142.194l0,0l41.455,25.107c21.124,12.795,45.351,19.558,70.048,19.558h167.479
	c26.167,0,51.54-8.987,71.874-25.456l53.798-43.575C504.288,423.542,505.2,406.113,494.612,395.524z"/>
<polygon style="fill:#62CD4D;" points="256.06,10.001 124.132,83.096 124.132,229.286 256.06,302.381 387.989,229.286 
	387.989,83.096 "/>
<polygon style="fill:#A0E557;" points="124.132,229.291 255.924,302.311 255.924,156.195 124.132,83.176 "/>
<polygon style="fill:#D8FB93;" points="124.064,83.096 255.992,156.19 387.921,83.096 255.992,10.001 "/>
<path d="M119.15,238.033l131.928,73.096c1.508,0.835,3.177,1.253,4.847,1.253c1.669,0,3.339-0.418,4.847-1.253L392.7,238.033
	c3.18-1.762,5.153-5.111,5.153-8.747V83.096c0-3.633-1.971-6.98-5.147-8.744l-39.045-21.67c-4.828-2.68-10.917-0.939-13.596,3.891
	c-2.681,4.829-0.938,10.917,3.891,13.597l23.277,12.92L255.925,144.76L144.63,83.096L255.93,21.429l24.407,13.492
	c4.836,2.673,10.918,0.919,13.59-3.915c2.672-4.833,0.919-10.917-3.914-13.589L260.762,1.249c-3.016-1.667-6.673-1.665-9.685,0.005
	L119.15,74.349c-3.18,1.762-5.153,5.111-5.153,8.747v146.191C113.997,232.922,115.971,236.271,119.15,238.033z M133.996,100.068
	l111.929,62.014v123.326l-111.929-62.014V100.068z M265.924,285.409V162.082l111.93-62.015v123.327L265.924,285.409z"/>
<path d="M316.841,53.755c2.641,0,5.21-1.07,7.07-2.93c1.87-1.87,2.93-4.44,2.93-7.07s-1.06-5.21-2.93-7.07
	c-1.86-1.86-4.43-2.93-7.07-2.93c-2.63,0-5.2,1.07-7.069,2.93c-1.86,1.86-2.931,4.44-2.931,7.07s1.07,5.21,2.931,7.07
	C311.64,52.684,314.211,53.755,316.841,53.755z"/>
<path d="M335.141,159.487c-10.249-6.372-22.826-6.989-33.648-1.649l-7.873,3.884c-3.414,1.685-5.576,5.161-5.576,8.968v68.824
	c0,3.457,1.785,6.668,4.721,8.493c1.61,1.001,3.442,1.507,5.279,1.507c1.512,0,3.026-0.342,4.425-1.032l17.342-8.557
	c19.552-9.649,31.698-29.186,31.698-50.99C351.509,176.867,345.39,165.858,335.141,159.487z M310.961,221.988l-2.917,1.439v-46.521
	l2.298-1.134c4.648-2.293,9.84-2.039,14.241,0.698c4.402,2.737,6.927,7.28,6.927,12.463
	C331.509,203.068,323.635,215.735,310.961,221.988z"/>
<path d="M501.682,388.454l-0.943-0.943c-13.195-13.195-33.922-15.082-49.283-4.489c-0.113,0.078-0.225,0.158-0.334,0.24
	l-33.189,24.959c-1.367-6.577-4.48-12.731-9.18-17.431c-5.666-5.667-13.2-8.788-21.213-8.788h-74.858
	c-5.343,0-10.365-2.08-14.125-5.841l-53.198-53.448c-11.333-11.332-26.399-17.572-42.426-17.572H97.268
	c-2.374-8.845-10.438-15.386-20.02-15.386H20.749C9.309,289.755,0,299.064,0,310.505v41.82c0,5.522,4.478,10,10,10s10-4.478,10-10
	v-41.82c0-0.413,0.337-0.75,0.75-0.75h56.498c0.413,0,0.75,0.337,0.75,0.75V469c0,0.413-0.337,0.75-0.75,0.75H20.749
	c-0.413,0-0.75-0.337-0.75-0.75v-38.011c0-5.522-4.478-10-10-10s-10,4.478-10,10V469c0,11.441,9.309,20.749,20.749,20.749h56.498
	c9.498,0,17.506-6.422,19.959-15.147l27.064,16.392c22.689,13.741,48.703,21.004,75.228,21.004h167.478
	c28.364,0,56.125-9.832,78.169-27.686l53.798-43.575c7.745-6.273,12.486-15.58,13.007-25.532
	C512.473,405.251,508.73,395.501,501.682,388.454z M491.98,414.159c-0.229,4.366-2.226,8.286-5.622,11.038l-53.798,43.575
	c-18.493,14.979-41.784,23.227-65.581,23.227H199.5c-22.872,0-45.304-6.263-64.867-18.111l-36.636-22.189V325.138h104.936
	c10.685,0,20.728,4.161,28.267,11.699l53.198,53.448C291.953,397.84,301.998,402,312.682,402h74.858c2.632,0,5.209,1.067,7.071,2.93
	c4.584,4.584,4.954,12.137,2.976,16.915c-0.589,1.423-1.283,2.439-2.001,3.18l-0.519,0.39c-0.287,0.216-0.558,0.446-0.815,0.685
	c-1.421,0.853-2.749,0.858-3.374,0.858H276.565c-6.91,0-13.624-1.991-19.416-5.76l-32.074-20.86l-0.116-0.076
	c-4.621-3.03-10.82-1.736-13.846,2.882c-3.028,4.618-1.737,10.817,2.881,13.845l32.25,20.976c9.046,5.884,19.53,8.994,30.321,8.994
	h114.314c6.713,0,12.765-2.343,17.523-6.546l54.561-41.032c7.398-4.995,17.309-4.055,23.634,2.271l0.943,0.943
	C490.632,405.686,492.209,409.793,491.98,414.159z"/>
<path d="M49.039,348.288c2.539,0,5.079-0.961,7.028-2.886c3.929-3.882,3.967-10.214,0.086-14.143l-0.08-0.081
	c-3.883-3.93-10.213-3.966-14.143-0.086c-3.929,3.882-3.967,10.214-0.086,14.143l0.08,0.081
	C43.882,347.296,46.46,348.288,49.039,348.288z"/>
<path d="M10,398.655c2.63,0,5.21-1.061,7.069-2.931c1.86-1.859,2.931-4.439,2.931-7.069c0-2.63-1.07-5.21-2.931-7.07
	c-1.859-1.86-4.439-2.93-7.069-2.93s-5.21,1.069-7.07,2.93S0,386.026,0,388.656c0,2.64,1.069,5.21,2.93,7.069
	C4.79,397.594,7.37,398.655,10,398.655z"/>
<path d="M211.528,197.144c4.332-4.692,6.799-10.861,6.799-17.46c0-9.384-5.228-17.791-13.644-21.943l-25.43-12.546
	c-4.952-2.443-10.949-0.408-13.392,4.544c-2.443,4.953-0.409,10.949,4.544,13.393l25.43,12.546c1.537,0.758,2.491,2.293,2.491,4.007
	c0,2.911-1.916,4.416-2.739,4.928c-0.823,0.513-3.019,1.563-5.631,0.275l-15.365-7.582c-4.953-2.444-10.948-0.41-13.393,4.542
	c-2.443,4.953-0.41,10.949,4.543,13.393l2.131,1.051c0.008,0.004,0.014,0.008,0.022,0.012l27.94,13.785
	c1.537,0.758,2.491,2.293,2.491,4.007c0,2.911-1.915,4.416-2.739,4.928c-0.823,0.513-3.019,1.563-5.631,0.275l-15.365-7.582
	c-4.953-2.445-10.948-0.41-13.393,4.542c-2.443,4.953-0.41,10.949,4.543,13.393l15.365,7.582c3.638,1.795,7.542,2.686,11.434,2.686
	c4.723,0,9.426-1.312,13.606-3.911c7.627-4.741,12.18-12.933,12.18-21.913C218.327,207.621,215.836,201.612,211.528,197.144z"/>
<g>
</g>
<g>
</g>
<g>
</g>
<g>
</g>
<g>
</g>
<g>
</g>
<g>
</g>
<g>
</g>
<g>
</g>
<g>
</g>
<g>
</g>
<g>
</g>
<g>
</g>
<g>
</g>
<g>
</g>
</svg>
