<?xml version="1.0" encoding="iso-8859-1"?>
<!-- Generator: Adobe Illustrator 19.0.0, SVG Export Plug-In . SVG Version: 6.00 Build 0)  -->
<svg version="1.1" id="Capa_1" xmlns="http://www.w3.org/2000/svg" xmlns:xlink="http://www.w3.org/1999/xlink" x="0px" y="0px"
	 viewBox="0 0 512 512" style="enable-background:new 0 0 512 512;" xml:space="preserve">
<g>
	<rect x="10" y="10.009" style="fill:#ADE5FF;" width="55.998" height="55.998"/>
	<rect x="445.998" y="10.009" style="fill:#ADE5FF;" width="55.998" height="55.998"/>
	<rect x="10" y="445.997" style="fill:#ADE5FF;" width="55.998" height="55.998"/>
	<rect x="445.998" y="445.997" style="fill:#ADE5FF;" width="55.998" height="55.998"/>
</g>
<polygon style="fill:#B3B6C3;" points="323.975,380.012 380.006,323.982 380.006,131.987 188.011,131.987 131.98,188.017 "/>
<rect x="131.976" y="188.014" style="fill:#EDF2FA;" width="191.995" height="191.995"/>
<path style="fill:#4DBAF6;" d="M232.281,501.993V455.24h-34.163l57.875-100.243l57.875,100.243h-34.192v46.753H232.281z"/>
<path d="M65.998,0.007H10c-5.522,0-10,4.477-10,10v55.998c0,5.523,4.478,10,10,10h55.998c5.522,0,10-4.477,10-10V10.006
	C75.998,4.483,71.52,0.007,65.998,0.007z M55.998,56.005H19.999V20.006h35.999V56.005z"/>
<path d="M502,0.007h-55.998c-5.522,0-10,4.477-10,10v55.998c0,5.523,4.478,10,10,10H502c5.522,0,10-4.477,10-10V10.006
	C512,4.483,507.522,0.007,502,0.007z M492.001,56.005h-35.999V20.006h35.999V56.005z"/>
<path d="M65.998,435.995H10c-5.522,0-10,4.478-10,10v55.998c0,5.522,4.478,10,10,10h55.998c5.522,0,10-4.478,10-10v-55.998
	C75.998,440.471,71.52,435.995,65.998,435.995z M55.998,491.993H19.999v-35.999h35.999V491.993z"/>
<path d="M502,435.995h-55.998c-5.522,0-10,4.478-10,10v18.509H362.99c-5.522,0-10,4.478-10,10s4.478,10,10,10h73.012v17.491
	c0,5.522,4.478,10,10,10H502c5.522,0,10-4.478,10-10v-55.998C512,440.471,507.522,435.995,502,435.995z M492.001,491.993h-35.999
	v-35.999h35.999V491.993z"/>
<path d="M279.66,48.005c5.522,0,10-4.477,10-10s-4.478-10-10-10H106.997c-5.522,0-10,4.477-10,10s4.478,10,10,10H279.66z"/>
<path d="M323.97,48.005c2.641,0,5.221-1.07,7.08-2.93c1.86-1.86,2.92-4.44,2.92-7.07c0-2.63-1.06-5.21-2.92-7.07
	c-1.859-1.86-4.439-2.93-7.08-2.93c-2.63,0-5.21,1.07-7.069,2.93c-1.86,1.86-2.92,4.44-2.92,7.07c0,2.63,1.06,5.21,2.92,7.07
	C318.761,46.935,321.341,48.005,323.97,48.005z"/>
<path d="M359.657,48.005h30.332c5.522,0,10-4.477,10-10s-4.478-10-10-10h-30.332c-5.522,0-10,4.477-10,10
	S354.135,48.005,359.657,48.005z"/>
<path d="M162.829,464.503h-51.165c-5.522,0-10,4.478-10,10s4.478,10,10,10h51.165c5.522,0,10-4.478,10-10
	S168.35,464.503,162.829,464.503z"/>
<path d="M481.067,101.774c-1.86-1.87-4.431-2.93-7.07-2.93c-2.63,0-5.2,1.06-7.07,2.93c-1.859,1.86-2.93,4.43-2.93,7.07
	c0,2.63,1.07,5.21,2.93,7.07c1.87,1.86,4.44,2.93,7.07,2.93c2.64,0,5.21-1.07,7.07-2.93c1.87-1.87,2.939-4.44,2.939-7.07
	C484.006,106.214,482.937,103.634,481.067,101.774z"/>
<path d="M484.001,147.617c0-5.523-4.478-10-10-10s-10,4.477-10,10v193.955c0,5.522,4.478,10,10,10s10-4.478,10-10V147.617z"/>
<path d="M474.001,373.996c-5.522,0-10,4.478-10,10v21.999c0,5.522,4.478,10,10,10s10-4.478,10-10v-21.999
	C484.001,378.473,479.523,373.996,474.001,373.996z"/>
<path d="M37.999,118.843c2.63,0,5.21-1.07,7.069-2.93c1.86-1.86,2.931-4.44,2.931-7.07c0-2.64-1.07-5.21-2.931-7.07
	c-1.859-1.86-4.439-2.93-7.069-2.93s-5.21,1.07-7.07,2.93s-2.93,4.43-2.93,7.07c0,2.63,1.069,5.21,2.93,7.07
	C32.789,117.773,35.369,118.843,37.999,118.843z"/>
<path d="M27.999,341.571c0,5.522,4.478,10,10,10s10-4.478,10-10V147.616c0-5.523-4.478-10-10-10s-10,4.477-10,10V341.571z"/>
<path d="M27.999,405.995c0,5.522,4.478,10,10,10s10-4.478,10-10v-21.999c0-5.522-4.478-10-10-10s-10,4.478-10,10V405.995z"/>
<path d="M387.076,331.053c1.875-1.876,2.929-4.419,2.929-7.071V131.988c0-5.523-4.478-10-10-10H188.011
	c-2.652,0-5.195,1.054-7.071,2.929l-56.029,56.029c-0.192,0.192-0.351,0.37-0.492,0.542c-1.515,1.753-2.437,4.031-2.437,6.53
	v191.995c0,5.522,4.478,10,10,10h59.513c5.522,0,10-4.478,10-10s-4.478-10-10-10H141.98V198.018h171.995v171.995h-37.767
	l-11.556-20.015c-1.786-3.094-5.088-5-8.66-5s-6.874,1.906-8.66,5l-57.875,100.243c-1.786,3.094-1.786,6.906,0,10
	c1.786,3.094,5.088,5,8.66,5h24.162v36.753c0,5.522,4.478,10,10,10h47.396c5.522,0,10-4.478,10-10v-36.753h24.192
	c3.572,0,6.874-1.906,8.66-5c1.786-3.094,1.786-6.906,0-10l-34.773-60.228h36.22c2.759,0,5.256-1.117,7.065-2.924
	c0.002-0.002,0.004-0.003,0.006-0.005L387.076,331.053z M279.676,445.24c-5.522,0-10,4.478-10,10v36.753H242.28V455.24
	c0-5.522-4.478-10-10-10h-16.843l40.555-70.244l40.556,70.244H279.676z M333.975,355.87V192.159l36.03-36.031v163.711
	L333.975,355.87z M192.153,141.987h163.711l-36.031,36.031h-163.71L192.153,141.987z"/>
<path d="M188.725,312.014c-7.719,0-13.999-6.28-13.999-13.999c0-5.522-4.478-10-10-10s-10,4.478-10,10
	c0,18.746,15.252,33.998,33.998,33.998s33.998-15.252,33.998-33.998c0-16.323-11.563-29.996-26.928-33.259l11.673-11.672
	c2.859-2.86,3.716-7.161,2.168-10.898c-1.548-3.737-5.194-6.173-9.239-6.173h-32.831c-5.522,0-10,4.477-10,10
	c0,5.523,4.478,10,10,10h8.689l-10.934,10.933c-2.859,2.86-3.716,7.161-2.168,10.898c1.548,3.736,5.194,6.173,9.239,6.173h16.333
	c7.719,0,13.999,6.28,13.999,13.999S196.444,312.014,188.725,312.014z"/>
<path d="M253.229,332.013c26.466,0,47.999-21.531,47.999-47.999c0-26.464-21.529-47.997-47.994-48l-10.002-0.001h-0.001
	c-2.651,0-5.195,1.054-7.07,2.929c-1.876,1.875-2.93,4.419-2.93,7.071v76c0,5.522,4.478,10,10,10H253.229z M253.231,256.015
	L253.231,256.015c15.438,0.002,27.997,12.563,27.997,28s-12.561,27.997-27.997,27.999L253.231,256.015L253.231,256.015z"/>
<g>
</g>
<g>
</g>
<g>
</g>
<g>
</g>
<g>
</g>
<g>
</g>
<g>
</g>
<g>
</g>
<g>
</g>
<g>
</g>
<g>
</g>
<g>
</g>
<g>
</g>
<g>
</g>
<g>
</g>
</svg>
