<?xml version="1.0" encoding="iso-8859-1"?>
<!-- Generator: Adobe Illustrator 19.0.0, SVG Export Plug-In . SVG Version: 6.00 Build 0)  -->
<svg version="1.1" id="Layer_1" xmlns="http://www.w3.org/2000/svg" xmlns:xlink="http://www.w3.org/1999/xlink" x="0px" y="0px"
	 viewBox="0 0 512 512" style="enable-background:new 0 0 512 512;" xml:space="preserve">
<polygon style="fill:#016EF1;" points="258.457,122.744 109.368,208.821 109.368,380.135 257.489,466.214 406.578,380.137 
	406.578,208.824 "/>
<polygon style="fill:#2487FF;" points="257.489,466.214 109.368,380.135 109.368,208.821 257.489,294.9 "/>
<polygon style="fill:#59A4FF;" points="257.489,294.9 109.368,208.821 258.457,122.744 406.578,208.824 "/>
<polygon style="fill:#016EF1;" points="406.578,208.824 406.578,380.137 257.489,466.214 257.489,294.9 "/>
<polygon style="fill:#004FAE;" points="497.634,329.753 512,338.047 511.885,317.595 476.579,317.597 491.762,326.362 
	260.431,461.095 260.431,67.348 282.456,67.348 257.489,42.381 232.523,67.348 254.547,67.348 254.547,461.095 20.598,324.838 
	35.306,316.29 0,316.292 0.115,336.74 14.746,328.238 257.489,469.619 "/>
<g>
</g>
<g>
</g>
<g>
</g>
<g>
</g>
<g>
</g>
<g>
</g>
<g>
</g>
<g>
</g>
<g>
</g>
<g>
</g>
<g>
</g>
<g>
</g>
<g>
</g>
<g>
</g>
<g>
</g>
</svg>
