<?xml version="1.0" encoding="iso-8859-1"?>
<!-- Generator: Adobe Illustrator 19.0.0, SVG Export Plug-In . SVG Version: 6.00 Build 0)  -->
<svg version="1.1" id="Capa_1" xmlns="http://www.w3.org/2000/svg" xmlns:xlink="http://www.w3.org/1999/xlink" x="0px" y="0px"
	 viewBox="0 0 512 512" style="enable-background:new 0 0 512 512;" xml:space="preserve">
<rect x="10" y="10" style="fill:#99BBFF;" width="492" height="368"/>
<rect x="10" y="10" style="fill:#FFFFFF;" width="492" height="296.17"/>
<polygon style="fill:#62CD4D;" points="406,53.927 363.063,77.717 363.063,125.296 406,149.086 448.937,125.296 448.937,77.717 "/>
<polygon style="fill:#A0E557;" points="363.063,125.296 405.956,149.061 405.956,101.506 363.063,77.741 "/>
<polygon style="fill:#D8FB93;" points="363.063,77.717 406,101.506 448.937,77.717 406,53.927 "/>
<polygon style="fill:#62CD4D;" points="406,275.205 448.937,251.416 448.937,203.837 406,180.047 363.063,203.837 363.063,251.416 
	"/>
<polygon style="fill:#A0E557;" points="448.937,203.837 406.044,180.071 406.044,227.626 448.937,251.391 "/>
<polygon style="fill:#D8FB93;" points="448.937,251.416 406,227.626 363.063,251.416 406,275.205 "/>
<polygon style="fill:#62CD4D;" points="146,47.232 50,102.675 50,213.562 146,269.005 242,213.562 242,102.675 "/>
<polygon style="fill:#A0E557;" points="50,213.562 145.901,268.948 145.901,158.118 50,102.732 "/>
<polygon style="fill:#D8FB93;" points="50,102.675 146,158.118 242,102.675 146,47.232 "/>
<rect x="207" y="378.17" style="fill:#EDF2FA;" width="96" height="83.77"/>
<rect x="154.67" y="461.94" style="fill:#7D9BFF;" width="202.67" height="40.06"/>
<path d="M502,0H10C4.478,0,0,4.477,0,10v368c0,5.523,4.478,10,10,10h48.621c5.522,0,10-4.477,10-10s-4.478-10-10-10H20v-51.833h472
	V368H132.899c-5.522,0-10,4.477-10,10s4.478,10,10,10H197v63.938h-42.333c-5.522,0-10,4.477-10,10V502c0,5.523,4.478,10,10,10
	h202.666c5.522,0,10-4.477,10-10v-40.063c0-5.523-4.478-10-10-10H313V388h189c5.522,0,10-4.477,10-10V10C512,4.477,507.522,0,502,0z
	 M347.333,492H164.667v-20.063h182.666V492z M293,451.938h-76V388h76V451.938z M20,296.167V20h472v276.167H20z"/>
<path d="M95.76,368c-2.63,0-5.21,1.07-7.07,2.93c-1.859,1.86-2.93,4.44-2.93,7.07s1.07,5.21,2.93,7.07
	c1.86,1.86,4.44,2.93,7.07,2.93s5.21-1.07,7.07-2.93c1.859-1.86,2.93-4.44,2.93-7.07s-1.07-5.21-2.93-7.07
	C100.97,369.07,98.39,368,95.76,368z"/>
<path d="M263.069,349.23c1.86-1.87,2.931-4.44,2.931-7.08c0-2.63-1.07-5.21-2.931-7.07c-1.859-1.86-4.439-2.93-7.069-2.93
	s-5.21,1.07-7.07,2.93s-2.93,4.44-2.93,7.07c0,2.64,1.069,5.21,2.93,7.08c1.86,1.86,4.44,2.93,7.07,2.93
	S261.21,351.09,263.069,349.23z"/>
<path d="M146,116.604c5.522,0,10-4.477,10-10V94.062c0-5.523-4.478-10-10-10s-10,4.477-10,10v12.542
	C136,112.126,140.478,116.604,146,116.604z"/>
<path d="M247,93.998l-96-55.426c-3.094-1.786-6.906-1.786-10,0L45,93.998c-3.094,1.786-5,5.087-5,8.66v110.851
	c0,3.573,1.906,6.874,5,8.66l96,55.426c1.547,0.893,3.273,1.34,5,1.34s3.453-0.447,5-1.34l96-55.426c3.094-1.786,5-5.087,5-8.66
	V102.658C252,99.085,250.094,95.784,247,93.998z M72.712,200.396c-2.581-4.472-8.096-6.194-12.712-4.141v-76.27l65.957,38.123
	l-3.488,2.014c-4.783,2.761-6.422,8.877-3.66,13.66c1.852,3.208,5.213,5.001,8.67,5.001c1.696,0,3.415-0.432,4.99-1.341l3.531-2.039
	v76.211l-66.058-38.139C74.028,210.504,75.294,204.868,72.712,200.396z M146,73.719c5.249,0,9.546-4.047,9.959-9.19l66.048,38.133
	L156,140.813v-3.867c0-5.523-4.478-10-10-10s-10,4.477-10,10v3.867l-66.007-38.152l66.048-38.133
	C136.454,69.672,140.751,73.719,146,73.719z M156,175.404l3.531,2.039c1.575,0.91,3.294,1.341,4.99,1.341
	c3.456,0,6.818-1.793,8.67-5.001c2.762-4.783,1.123-10.899-3.66-13.66l-3.488-2.014L232,119.985v76.27
	c-4.617-2.052-10.13-0.331-12.712,4.141s-1.316,10.108,2.77,13.08L156,251.614V175.404z"/>
<path d="M206.67,181.564l-10.861-6.271c-4.784-2.762-10.898-1.122-13.66,3.66c-2.762,4.783-1.123,10.899,3.66,13.66l10.861,6.271
	c1.575,0.909,3.294,1.341,4.99,1.341c3.456,0,6.817-1.793,8.67-5.001C213.092,190.442,211.453,184.326,206.67,181.564z"/>
<path d="M90.34,200.226c1.696,0,3.416-0.432,4.99-1.341l10.861-6.271c4.783-2.761,6.422-8.877,3.66-13.66
	c-2.761-4.782-8.877-6.421-13.66-3.66l-10.861,6.271c-4.783,2.761-6.422,8.877-3.66,13.66
	C83.522,198.433,86.883,200.226,90.34,200.226z"/>
<path d="M310,73c-5.522,0-10,4.477-10,10v192.181c0,5.523,4.478,10,10,10s10-4.477,10-10V83C320,77.477,315.522,73,310,73z"/>
<path d="M310,38.29c-2.63,0-5.21,1.06-7.07,2.92c-1.86,1.86-2.93,4.44-2.93,7.08c0,2.63,1.069,5.21,2.93,7.07s4.44,2.93,7.07,2.93
	s5.21-1.07,7.069-2.93c1.86-1.86,2.931-4.44,2.931-7.07c0-2.64-1.07-5.21-2.931-7.08C315.21,39.35,312.63,38.29,310,38.29z"/>
<path d="M452.847,195.609l-42-23.271c-3.016-1.671-6.678-1.671-9.693,0l-42,23.271c-3.18,1.762-5.153,5.111-5.153,8.747v46.541
	c0,3.636,1.974,6.985,5.153,8.747l42,23.27c1.508,0.835,3.178,1.253,4.847,1.253s3.339-0.417,4.847-1.253l42-23.27
	c3.18-1.762,5.153-5.111,5.153-8.747v-46.541C458,200.72,456.026,197.371,452.847,195.609z M438,233.923l-22-12.189v-23.676
	l22,12.189V233.923z M396,198.058v23.676l-22,12.189v-23.676L396,198.058z M406,262.734l-21.366-11.838L406,239.058l21.366,11.838
	L406,262.734z"/>
<path d="M452.847,70.528l-42-23.271c-3.016-1.671-6.678-1.671-9.693,0l-42,23.271c-3.18,1.762-5.153,5.111-5.153,8.747v46.541
	c0,3.636,1.974,6.985,5.153,8.747l42,23.27c1.508,0.835,3.178,1.253,4.847,1.253s3.339-0.417,4.847-1.253l42-23.27
	c3.18-1.762,5.153-5.111,5.153-8.747V79.275C458,75.639,456.026,72.29,452.847,70.528z M406,67.437l21.366,11.838L406,91.113
	l-21.366-11.838L406,67.437z M374,96.248l22,12.189v23.676l-22-12.189V96.248z M416,132.113v-23.676l22-12.189v23.676L416,132.113z"
	/>
<g>
</g>
<g>
</g>
<g>
</g>
<g>
</g>
<g>
</g>
<g>
</g>
<g>
</g>
<g>
</g>
<g>
</g>
<g>
</g>
<g>
</g>
<g>
</g>
<g>
</g>
<g>
</g>
<g>
</g>
</svg>
