<?xml version="1.0" encoding="iso-8859-1"?>
<!-- Generator: Adobe Illustrator 19.0.0, SVG Export Plug-In . SVG Version: 6.00 Build 0)  -->
<svg version="1.1" id="Capa_1" xmlns="http://www.w3.org/2000/svg" xmlns:xlink="http://www.w3.org/1999/xlink" x="0px" y="0px"
	 viewBox="0 0 512 512" style="enable-background:new 0 0 512 512;" xml:space="preserve">
<path style="fill:#FEDB41;" d="M507.488,365.498L264.395,125.503c-2.401-2.401-5.402-3.9-8.401-4.2c-4.501-0.601-9,0.601-12.599,4.2
	L4.501,365.498c-9.6,9.3-2.701,25.498,10.499,25.498h481.99c6,0,11.7-3.6,13.801-9.3
	C513.188,375.997,511.989,369.697,507.488,365.498z"/>
<path style="fill:#FCBF29;" d="M510.79,381.697c-2.1,5.7-7.8,9.3-13.801,9.3H255.995V121.303c2.999,0.3,6,1.8,8.401,4.2
	l243.093,239.995C511.989,369.697,513.188,375.997,510.79,381.697z"/>
<path style="fill:#4DBAEE;" d="M358.291,337.897l-7.2,26.699l-95.097,64.599l-0.601,0.3l-86.997-56.799l-14.7-34.8
	c1.5-1.5,2.399-3.3,3.898-4.499l89.998-59.999c2.401-1.8,5.402-2.401,8.401-2.401c2.999,0,6,0.601,8.401,2.401l89.998,59.999
	C355.893,334.597,356.792,336.397,358.291,337.897z"/>
<g>
	<path style="fill:#1BA9EF;" d="M354.393,333.398c1.5,1.199,2.399,2.999,3.898,4.499l-7.2,26.699l-95.097,64.599V270.999
		c2.999,0,6,0.601,8.401,2.401L354.393,333.398z"/>
	<path style="fill:#1BA9EF;" d="M360.992,345.998v90.998c0,5.099-2.401,9.6-6.599,12.599l-89.998,59.999h-0.901
		c0,0.3-0.3,0.601-0.3,0.601c-2.401,1.199-4.799,1.8-7.2,1.8c-2.401,0-4.799-0.601-7.2-1.8c0,0-0.3-0.3-0.3-0.601h-0.901
		l-89.998-59.999c-4.199-2.999-6.599-7.5-6.599-12.599v-90.998c0-2.701,0.901-6.301,2.701-8.101l102.297,68.1l102.297-68.1
		C360.091,339.697,360.992,343.297,360.992,345.998z"/>
</g>
<path style="fill:#1689FC;" d="M360.992,345.998v90.998c0,5.099-2.401,9.6-6.599,12.599l-89.998,59.999h-0.901
	c0,0.3-0.3,0.601-0.3,0.601c-2.401,1.199-4.799,1.8-7.2,1.8V405.997l102.297-68.1C360.091,339.697,360.992,343.297,360.992,345.998z
	"/>
<path style="fill:#57555C;" d="M320.193,79.803l-20.101,60.999c-1.8,6-7.5,10.201-14.099,10.201h-59.999
	c-6.599,0-12.299-4.2-14.099-10.201l-20.101-60.999c-2.699-7.798,1.5-16.5,9.6-18.898h109.198
	C318.694,63.303,322.892,72.004,320.193,79.803z"/>
<path style="fill:#3C3A41;" d="M285.994,151.002h-29.999V60.904h54.599c8.101,2.399,12.299,11.1,9.6,18.898l-20.101,60.999
	C298.293,146.801,292.593,151.002,285.994,151.002z"/>
<path style="fill:#787780;" d="M496.989,0.006H15c-8.401,0-15,6.599-15,15c0,41.399,33.599,74.998,74.998,74.998h361.992
	c41.399,0,74.998-33.599,74.998-74.998C511.989,6.604,505.39,0.006,496.989,0.006z"/>
<path style="fill:#57555C;" d="M511.989,15.005c0,41.399-33.599,74.998-74.998,74.998H255.995V0.006h240.995
	C505.39,0.006,511.989,6.604,511.989,15.005z"/>
<g>
</g>
<g>
</g>
<g>
</g>
<g>
</g>
<g>
</g>
<g>
</g>
<g>
</g>
<g>
</g>
<g>
</g>
<g>
</g>
<g>
</g>
<g>
</g>
<g>
</g>
<g>
</g>
<g>
</g>
</svg>
