<?xml version="1.0" encoding="iso-8859-1"?>
<!-- Generator: Adobe Illustrator 19.0.0, SVG Export Plug-In . SVG Version: 6.00 Build 0)  -->
<svg version="1.1" id="Capa_1" xmlns="http://www.w3.org/2000/svg" xmlns:xlink="http://www.w3.org/1999/xlink" x="0px" y="0px"
	 viewBox="0 0 512.001 512.001" style="enable-background:new 0 0 512.001 512.001;" xml:space="preserve">
<polygon style="fill:#E5F8D2;" points="186.929,325.123 186.929,412.307 97.221,501.984 97.221,414.799 "/>
<polygon style="fill:#C1EE92;" points="186.924,325.128 99.709,325.128 10.001,414.804 97.216,414.804 "/>
<polygon style="fill:#BDEFEC;" points="397.75,132.676 465.794,104.199 502.001,10.017 407.788,46.222 379.312,114.247 "/>
<path style="fill:#F9C587;" d="M386.496,478.862c-14.939-14.939-17.922-38.107-7.255-56.342l11.674-19.96
	c47.201-80.689,34.021-183.197-32.053-249.314c-66.119-66.075-168.627-79.255-249.315-32.055l-19.96,11.676
	c-18.235,10.667-41.404,7.683-56.343-7.256c-14.685-14.686-17.826-37.582-7.635-55.678c5.696-10.115,18.512-13.699,28.629-8.003
	c10.114,5.697,13.699,18.512,8.003,28.629c-0.974,1.731-0.674,3.922,0.731,5.327c1.429,1.429,3.646,1.715,5.39,0.695l19.96-11.676
	c97.14-56.823,220.538-40.983,300.168,38.515c0.015,0.015,0.032,0.032,0.047,0.047l0.105,0.105c0.015,0.015,0.032,0.032,0.047,0.047
	c79.5,79.63,95.339,203.029,38.515,300.167l-11.674,19.96c-1.021,1.746-0.736,3.961,0.693,5.39c1.405,1.405,3.596,1.706,5.327,0.731
	c10.116-5.695,22.93-2.112,28.629,8.003c5.695,10.116,2.112,22.933-8.003,28.629C424.077,496.689,401.182,493.547,386.496,478.862z"
	/>
<path d="M509.071,2.946c-2.792-2.793-6.968-3.681-10.657-2.264l-94.213,36.205c-2.547,0.979-4.584,2.956-5.638,5.473l-23.33,55.735
	c-32.788-26.479-71.476-44.464-113.293-52.467c-5.435-1.039-10.663,2.518-11.701,7.941c-1.037,5.424,2.519,10.662,7.941,11.7
	c46.87,8.969,89.484,31.523,123.241,65.224l0.019,0.019c0.008,0.008,0.015,0.016,0.023,0.023l0.105,0.105
	c0.004,0.004,0.009,0.008,0.013,0.013l0.018,0.018c0.003,0.004,0.007,0.007,0.01,0.011c76.28,76.405,91.479,194.857,36.962,288.054
	l-11.676,19.962c-3.313,5.667-2.386,12.865,2.256,17.509c4.566,4.564,11.682,5.539,17.301,2.373
	c5.299-2.98,12.03-1.097,15.012,4.196c2.981,5.296,1.099,12.029-4.196,15.01c-14.201,7.998-32.175,5.533-43.702-5.995
	c-11.726-11.725-14.067-29.91-5.694-44.223l11.674-19.959c49.49-84.601,35.669-192.106-33.616-261.437
	c-69.325-69.28-176.832-83.101-261.432-33.614l-19.961,11.675c-14.312,8.373-32.498,6.032-44.223-5.695
	c-11.526-11.526-13.991-29.497-5.994-43.702c2.98-5.295,9.715-7.178,15.007-4.197c5.296,2.983,7.18,9.716,4.198,15.012
	c-3.167,5.625-2.189,12.74,2.373,17.301c4.644,4.644,11.843,5.571,17.51,2.256l19.96-11.675
	c24.321-14.228,50.674-23.934,78.322-28.85c5.438-0.967,9.062-6.159,8.095-11.595c-0.967-5.438-6.157-9.057-11.595-8.094
	c-29.982,5.331-58.554,15.854-84.919,31.277l-8.347,4.883c0.308-11.143-5.412-22.098-15.782-27.938
	c-7.222-4.065-15.592-5.076-23.569-2.844c-7.979,2.231-14.613,7.436-18.678,14.655c-12.381,21.99-8.565,49.81,9.278,67.655
	L144.75,251.258c1.953,1.953,4.512,2.929,7.071,2.929s5.119-0.977,7.071-2.929c3.905-3.905,3.905-10.236,0-14.142l-88.095-88.095
	c8.219-0.679,16.37-3.155,23.839-7.524l19.96-11.675c73.851-43.199,166.932-33.22,229.893,23.574L182.756,315.129H99.708
	c-2.651,0-5.194,1.053-7.069,2.928L2.931,407.733c-2.861,2.86-3.718,7.161-2.17,10.897s5.194,6.174,9.238,6.174h77.222v77.181
	c0,4.044,2.437,7.689,6.172,9.237c1.238,0.513,2.537,0.762,3.826,0.762c2.602,0,5.159-1.016,7.072-2.928l89.708-89.677
	c1.876-1.875,2.93-4.419,2.93-7.072V329.24l161.706-161.707c56.863,62.966,66.871,156.095,23.649,229.979L370.61,417.47
	c-4.37,7.469-6.847,15.62-7.525,23.838L250.897,329.121c-3.906-3.905-10.235-3.905-14.142,0c-3.905,3.905-3.905,10.236,0,14.142
	l144.611,144.611c0.509,0.509,1.061,0.948,1.641,1.324c10.352,8.701,23.335,13.239,36.441,13.238c9.471,0,19.003-2.365,27.633-7.225
	c14.903-8.391,20.201-27.343,11.81-42.249c-5.843-10.368-16.746-16.082-27.938-15.78l4.884-8.347
	c54.488-93.148,44.737-209.567-21.92-292.085l55.739-23.327c2.518-1.053,4.495-3.089,5.474-5.636l36.206-94.182
	C512.752,9.917,511.865,5.74,509.071,2.946z M103.848,335.127h58.91l-54.462,54.462l-15.221,15.215H34.147L103.848,335.127z
	 M176.929,408.165l-69.709,69.684v-58.907l0.909-0.909c0.019-0.018,0.039-0.034,0.058-0.052l15.595-15.595l53.147-53.129V408.165z
	 M457.995,96.623L409.068,117.1l44.311-44.311c3.905-3.905,3.905-10.236,0-14.142c-3.906-3.905-10.235-3.905-14.142,0
	l-44.394,44.394l20.52-49.019l69.236-26.606L457.995,96.623z"/>
<path d="M215.217,61.024l0.122,0.001c0.041,0,0.081,0,0.122,0c5.467,0,9.93-4.399,9.995-9.88c0.066-5.522-4.357-10.052-9.879-10.118
	c-0.015,0-0.121-0.001-0.136-0.001c-0.036,0-0.071,0-0.108,0c-5.467,0-9.93,4.399-9.995,9.88
	C205.272,56.428,209.695,60.958,215.217,61.024z"/>
<path d="M183.805,276.169c1.86-1.86,2.93-4.44,2.93-7.07c0-2.63-1.069-5.21-2.93-7.07c-1.87-1.86-4.44-2.93-7.07-2.93
	c-2.64,0-5.21,1.07-7.08,2.93c-1.859,1.86-2.92,4.44-2.92,7.07c0,2.63,1.061,5.21,2.92,7.07c1.87,1.86,4.44,2.93,7.08,2.93
	C179.364,279.098,181.935,278.029,183.805,276.169z"/>
<g>
</g>
<g>
</g>
<g>
</g>
<g>
</g>
<g>
</g>
<g>
</g>
<g>
</g>
<g>
</g>
<g>
</g>
<g>
</g>
<g>
</g>
<g>
</g>
<g>
</g>
<g>
</g>
<g>
</g>
</svg>
