<svg height="480pt" viewBox="0 0 480 480" width="480pt" xmlns="http://www.w3.org/2000/svg"><path d="m424 408v32c0 9.03125-3.816406 17.640625-10.507812 23.707031-6.691407 6.066407-15.632813 9.023438-24.621094 8.140625-16.695313-2.066406-29.144532-16.386718-28.871094-33.207031v-46.640625h-304v-312h368zm0 0" fill="#ffdaaa"/><path d="m112 32v24h336v320h24v-344zm0 0" fill="#ff9811"/><path d="m80 56v24h344v328h24v-352zm0 0" fill="#ffb655"/><path d="m360 24c0-8.835938-7.164062-16-16-16h-32c-8.835938 0-16 7.164062-16 16v32h64zm0 0" fill="#ed1c24"/><path d="m360 88v-32h-64v32zm0 0" fill="#2488ff"/><path d="m328 280-32 24 32 48 32-48zm0 0" fill="#939598"/><path d="m328 280 32 24v-216h-32zm0 0" fill="#ffcd00"/><path d="m328 88h-32v216l32-24zm0 0" fill="#ed1c24"/><path d="m360 438.632812v-46.632812h-352v48c0 17.671875 14.328125 32 32 32h352l.097656-.183594c-1.082031 0-2.128906.136719-3.203125 0-16.695312-2.054687-29.15625-16.363281-28.894531-33.183594zm0 0" fill="#ff7956"/><path d="m104 208h192v80h-192zm0 0" fill="#ffcd00"/><path d="m56 160v232h208c-114.96875 0-208-103.769531-208-232zm0 0" fill="#ffc477"/><g fill="#231f20"><path d="m384 88h32v352c-.003906 6.761719-2.851562 13.210938-7.847656 17.769531-4.410156 4.03125-10.175782 6.257813-16.152344 6.230469h-.246094c-.714844 0-1.425781-.046875-2.144531-.113281-12.582031-1.691407-21.886719-12.5625-21.609375-25.253907v-54.632812h-304v-296h208v-16h-224v312h-48v56c.0273438 22.082031 17.917969 39.972656 40 40h352c22.089844 0 40-17.910156 40-40v-368h-48zm-344 376c-13.253906 0-24-10.746094-24-24v-40h336v38.632812c0 9.152344 2.976562 18.054688 8.480469 25.367188zm0 0"/><path d="m80 48h192v16h-192zm0 0"/><path d="m112 24h160v16h-160zm0 0"/><path d="m384 64h56v344h16v-360h-72zm0 0"/><path d="m384 24v16h80v336h16v-352zm0 0"/><path d="m368 306.398438v-282.398438c0-13.253906-10.746094-24-24-24h-32c-13.253906 0-24 10.746094-24 24v282.398438l40 60zm-61.144531-.566407 21.144531-15.832031 21.144531 15.855469-21.144531 31.746093zm45.144531-17.832031-16-12v-180h16zm-48-264c0-4.417969 3.582031-8 8-8h32c4.417969 0 8 3.582031 8 8v24h-48zm0 40h48v16h-48zm16 32v180l-16 12v-192zm0 0"/><path d="m128 136h16v16h-16zm0 0"/><path d="m160 136h96v16h-96zm0 0"/><path d="m128 168h16v16h-16zm0 0"/><path d="m160 168h96v16h-96zm0 0"/><path d="m272 216v-16h-176v96h176v-16h-160v-64zm0 0"/><path d="m96 312h16v16h-16zm0 0"/><path d="m128 312h144v16h-144zm0 0"/></g></svg>