<svg height="512" viewBox="0 0 60 56" width="512" xmlns="http://www.w3.org/2000/svg"><g id="Page-1" fill="none" fill-rule="evenodd"><g id="019---Arrows" fill-rule="nonzero"><path id="Shape" d="m13 7h27v-3.87c-.0003054-.76678888.4378182-1.46624999 1.1278617-1.80062292s1.5105144-.24478628 2.1121383.23062292l13.77 10.87c.4827037.3779486.7647173.9569355.7647173 1.57s-.2820136 1.1920514-.7647173 1.57l-13.77 10.87c-.6016239.4754092-1.4220948.5649958-2.1121383.2306229s-1.1281671-1.033834-1.1278617-1.8006229v-3.87h-37c-1.10320187-.0032948-1.9967052-.8967981-2-2v-10c.0032948-1.10320187.89679813-1.9967052 2-2z" fill="#f44335"/><path id="Shape" d="m57.01 12.43-13.77-10.87c-.8211097-.65147379-2.0077671-.54973524-2.706.232l13.476 10.638c.4827037.3779486.7647173.9569355.7647173 1.57s-.2820136 1.1920514-.7647173 1.57l-13.476 10.638c.698473.7812548 1.8847355.8829595 2.706.232l13.77-10.87c.4827037-.3779486.7647173-.9569355.7647173-1.57s-.2820136-1.1920514-.7647173-1.57z" fill="#c81e1e"/><path id="Shape" d="m52 35h5c1.1032019.0032948 1.9967052.8967981 2 2v10c-.0032948 1.1032019-.8967981 1.9967052-2 2h-37v3.87c.0003054.7667889-.4378182 1.46625-1.1278617 1.8006229s-1.5105144.2447863-2.1121383-.2306229l-13.77-10.87c-.48270373-.3779486-.76471728-.9569355-.76471728-1.57s.28201355-1.1920514.76471728-1.57l13.77-10.87c.6016239-.4754092 1.4220948-.5649958 2.1121383-.2306229s1.1281671 1.033834 1.1278617 1.8006229v3.87z" fill="#60a917"/><g fill="#549414"><path id="Shape" d="m17 31.13v3.87h3.0000002l-.0000002-3.87c.0003054-.7667889-.4378182-1.46625-1.1278617-1.8006229s-1.5105144-.2447863-2.1121383.2306229l-.294.232c.342962.3610403.5341288.8400311.534 1.338z"/><path id="Shape" d="m17 52.87c.0001288.4979689-.191038.9769597-.534 1.338l.294.232c.6016239.4754092 1.4220948.5649958 2.1121383.2306229s1.1281671-1.033834 1.1278617-1.8006229l.0000002-3.87h-3.0000002z"/><path id="Shape" d="m57 35h-3c1.1032019.0032948 1.9967052.8967981 2 2v10c-.0032948 1.1032019-.8967981 1.9967052-2 2h3c1.1032019-.0032948 1.9967052-.8967981 2-2v-10c-.0032948-1.1032019-.8967981-1.9967052-2-2z"/></g><path id="Shape" d="m55 46h-3c-.5522847 0-1-.4477153-1-1s.4477153-1 1-1h2v-2c0-.5522847.4477153-1 1-1s1 .4477153 1 1v3c0 .5522847-.4477153 1-1 1z" fill="#f5f5f5"/><path id="Shape" d="m8 18h-3c-.55228475 0-1-.4477153-1-1v-3c0-.5522847.44771525-1 1-1s1 .4477153 1 1v2h2c.55228475 0 1 .4477153 1 1s-.44771525 1-1 1z" fill="#f5f5f5"/><path id="Shape" d="m3 22h36v2.87c-.0001551 1.1498109.6568853 2.1985582 1.6915748 2.7000387s2.2649788.3674608 3.1674252-.3450387l13.768-10.868c.7237279-.5673464 1.1464712-1.4359001 1.1464712-2.3555s-.4227433-1.7881536-1.1464712-2.3555l-13.765-10.869c-.9021311-.71411926-2.1332122-.84937774-3.1688716-.34816288s-1.6934262 1.55059489-1.6931284 2.70116288v2.87h-26c-.5522847 0-1 .44771525-1 1s.4477153 1 1 1h27c.5522847 0 1-.44771525 1-1v-3.87c-.0001527-.38339444.2189091-.733125.5639309-.90031146.3450217-.16718646.7552571-.12239314 1.0560691.11531146l13.773 10.872c.2416571.1883472.3829517.4776133.3829517.784s-.1412946.5956528-.3829517.784l-13.775 10.872c-.3011152.2367013-.7109766.280618-1.0554053.1130868-.3444288-.1675312-.5629096-.5170754-.5625947-.9000868v-3.87c0-.5522847-.4477153-1-1-1h-37c-.55228475 0-1-.4477153-1-1v-10c0-.55228475.44771525-1 1-1h5c.55228475 0 1-.44771525 1-1s-.44771525-1-1-1h-5c-1.65685425 0-3 1.34314575-3 3v10c0 1.6568542 1.34314575 3 3 3z" fill="#000"/><path id="Shape" d="m57 34h-5c-.5522847 0-1 .4477153-1 1s.4477153 1 1 1h5c.5522847 0 1 .4477153 1 1v10c0 .5522847-.4477153 1-1 1h-37c-.5522847 0-1 .4477153-1 1v3.87c.0001527.3833944-.2189091.733125-.5639309.9003115-.3450217.1671864-.7552571.1223931-1.0560691-.1153115l-13.773-10.872c-.24165713-.1883472-.38295172-.4776133-.38295172-.784s.14129459-.5956528.38295172-.784l13.775-10.872c.3011152-.2367013.7109766-.280618 1.0554053-.1130868.3444288.1675312.5629096.5170754.5625947.9000868v3.87c0 .5522847.4477153 1 1 1h27c.5522847 0 1-.4477153 1-1s-.4477153-1-1-1h-26v-2.87c.0001551-1.1498109-.6568853-2.1985582-1.6915748-2.7000387s-2.2649788-.3674608-3.1674252.3450387l-13.768 10.868c-.72372787.5673464-1.14647116 1.4359001-1.14647116 2.3555s.42274329 1.7881536 1.14647116 2.3555l13.765 10.869c.9021311.7141193 2.1332122.8493777 3.1688716.3481629 1.0356594-.5012149 1.6934262-1.5505949 1.6931284-2.7011629v-2.87h36c1.6568542 0 3-1.3431458 3-3v-10c0-1.6568542-1.3431458-3-3-3z" fill="#000"/></g></g></svg>