<svg height="512" viewBox="0 0 64 64" width="512" xmlns="http://www.w3.org/2000/svg"><path d="m60 11h-56a2.006 2.006 0 0 0 -2 2v38a2.006 2.006 0 0 0 2 2h56a2.006 2.006 0 0 0 2-2v-38a2.006 2.006 0 0 0 -2-2zm-2 38h-52v-10.15l15-13.85 15.79 14.58h.01l8.2-7.58 13 12z" fill="#e0e0e2"/><path d="m58 44v5h-11l-10.2-9.42 8.2-7.58z" fill="#4e901e"/><path d="m58 15v29l-13-12-8.2 7.58h-.01l-15.79-14.58-15 13.85v-23.85z" fill="#1a6fb0"/><path d="m47 49h-41v-10.15l15-13.85 15.79 14.58h.01z" fill="#91cc04"/><circle cx="41" cy="24" fill="#ffeb99" r="4"/><path d="m60 10h-56a3 3 0 0 0 -3 3v38a3 3 0 0 0 3 3h56a3 3 0 0 0 3-3v-38a3 3 0 0 0 -3-3zm1 41a1 1 0 0 1 -1 1h-56a1 1 0 0 1 -1-1v-38a1 1 0 0 1 1-1h56a1 1 0 0 1 1 1z"/><path d="m58 14h-52a1 1 0 0 0 -1 1v34a1 1 0 0 0 1 1h52a1 1 0 0 0 1-1v-34a1 1 0 0 0 -1-1zm-1 2v25.716l-11.322-10.451a1 1 0 0 0 -1.356 0l-7.53 6.951-15.114-13.951a1 1 0 0 0 -1.356 0l-13.322 12.297v-20.562zm-50 32v-8.716l14-12.923 23.442 21.639zm40.391 0-9.125-8.423 6.734-6.216 12 11.077v3.562z"/><path d="m41 29a5 5 0 1 0 -5-5 5.006 5.006 0 0 0 5 5zm0-8a3 3 0 1 1 -3 3 3 3 0 0 1 3-3z"/><path d="m15 45h-6a1 1 0 0 0 0 2h6a1 1 0 0 0 0-2z"/><path d="m19 45h-1a1 1 0 0 0 0 2h1a1 1 0 0 0 0-2z"/></svg>