<svg height="476pt" viewBox="-3 0 476 476" width="476pt" xmlns="http://www.w3.org/2000/svg"><path d="m233.6875 116.535156c-66.402344 0-120.234375 53.828125-120.234375 120.230469 0 66.40625 53.828125 120.234375 120.234375 120.234375 66.402344 0 120.230469-53.828125 120.230469-120.230469-.074219-66.375-53.859375-120.160156-120.230469-120.234375zm0 220.464844c-55.355469 0-100.234375-44.875-100.234375-100.230469 0-55.359375 44.878906-100.234375 100.234375-100.234375s100.230469 44.875 100.230469 100.234375c-.0625 55.328125-44.898438 100.167969-100.230469 100.230469zm0 0"/><path d="m386.832031 69.480469-28.960937 28.960937c-3.90625 3.90625-3.90625 10.238282 0 14.144532 3.902344 3.902343 10.234375 3.902343 14.140625 0l28.960937-28.964844c3.90625-3.902344 3.90625-10.234375 0-14.140625-3.902344-3.90625-10.234375-3.90625-14.140625 0zm0 0"/><path d="m95.359375 360.949219-28.960937 28.964843c-3.90625 3.902344-3.90625 10.234376 0 14.140626s10.238281 3.90625 14.140624 0l28.964844-28.960938c3.90625-3.90625 3.90625-10.238281 0-14.144531-3.90625-3.902344-10.238281-3.90625-14.144531 0zm0 0"/><path d="m231.839844 63.136719c5.519531 0 10-4.480469 10-10v-43.136719c0-5.523438-4.480469-10-10-10-5.523438 0-10 4.476562-10 10v43.136719c0 5.519531 4.476562 10 10 10zm0 0"/><path d="m231.839844 412.863281c-5.523438 0-10 4.480469-10 10v43.136719c0 5.523438 4.476562 10 10 10 5.519531 0 10-4.476562 10-10v-43.136719c0-5.519531-4.480469-10-10-10zm0 0"/><path d="m80.542969 69.480469c-3.90625-3.90625-10.238281-3.90625-14.144531 0s-3.90625 10.238281 0 14.140625l28.960937 28.964844c3.90625 3.902343 10.238281 3.902343 14.144531 0 3.90625-3.90625 3.90625-10.238282 0-14.144532zm0 0"/><path d="m372.011719 360.949219c-3.90625-3.90625-10.238281-3.90625-14.144531 0-3.902344 3.90625-3.902344 10.238281 0 14.144531l28.964843 28.960938c3.90625 3.90625 10.234375 3.90625 14.140625 0s3.90625-10.238282 0-14.144532zm0 0"/><path d="m46.972656 228h-36.972656c-5.523438 0-10 4.476562-10 10s4.476562 10 10 10h36.972656c5.523438 0 10-4.476562 10-10s-4.476562-10-10-10zm0 0"/><path d="m459.839844 228h-43.136719c-5.523437 0-10 4.476562-10 10s4.476563 10 10 10h43.136719c5.519531 0 10-4.476562 10-10s-4.480469-10-10-10zm0 0"/></svg>