<?xml version="1.0" encoding="iso-8859-1"?>
<!-- Generator: Adobe Illustrator 19.0.0, SVG Export Plug-In . SVG Version: 6.00 Build 0)  -->
<svg version="1.1" id="Layer_1" xmlns="http://www.w3.org/2000/svg" xmlns:xlink="http://www.w3.org/1999/xlink" x="0px" y="0px"
	 viewBox="0 0 509.287 509.287" style="enable-background:new 0 0 509.287 509.287;" xml:space="preserve">
<circle style="fill:#71D456;" cx="254.644" cy="254.644" r="254.644"/>
<path style="fill:#DEDEDF;" d="M131.899,477.754c24.413,13.563,51.539,23.057,80.021,27.804V54.591h-80.021V477.754z"/>
<path style="fill:#4F5565;" d="M214.633,101.383h-85.785c-4.069,0-7.46,3.391-7.46,7.46v200.731c0,4.069,3.391,7.46,7.46,7.46
	h85.785c4.069,0,7.46-3.391,7.46-7.46V108.842C222.432,104.773,219.041,101.383,214.633,101.383z"/>
<g>
	<polygon style="fill:#646B79;" points="350.601,246.506 305.166,305.166 222.432,305.166 222.432,246.506 	"/>
	<polygon style="fill:#646B79;" points="350.601,171.91 305.166,113.25 222.432,113.25 222.432,171.91 	"/>
</g>
<circle style="fill:#FBD303;" cx="350.601" cy="209.208" r="37.298"/>
<g>
	<rect x="131.899" y="328.562" style="fill:#646B79;" width="30.517" height="6.103"/>
	<rect x="131.899" y="352.297" style="fill:#646B79;" width="15.258" height="6.103"/>
	<rect x="131.899" y="378.744" style="fill:#646B79;" width="30.517" height="6.103"/>
	<rect x="131.899" y="402.14" style="fill:#646B79;" width="15.258" height="6.103"/>
	<rect x="131.899" y="428.588" style="fill:#646B79;" width="30.517" height="6.103"/>
	<rect x="131.899" y="452.323" style="fill:#646B79;" width="15.258" height="6.103"/>
	<path style="fill:#646B79;" d="M146.14,484.874h16.275v-6.103h-28.821C137.664,480.805,141.732,482.84,146.14,484.874z"/>
	<rect x="131.899" y="63.746" style="fill:#646B79;" width="30.517" height="6.103"/>
	<rect x="131.899" y="87.481" style="fill:#646B79;" width="15.258" height="6.103"/>
</g>
<g>
</g>
<g>
</g>
<g>
</g>
<g>
</g>
<g>
</g>
<g>
</g>
<g>
</g>
<g>
</g>
<g>
</g>
<g>
</g>
<g>
</g>
<g>
</g>
<g>
</g>
<g>
</g>
<g>
</g>
</svg>
