<?xml version="1.0"?>
<svg xmlns="http://www.w3.org/2000/svg" xmlns:xlink="http://www.w3.org/1999/xlink" version="1.1" id="Capa_1" x="0px" y="0px" viewBox="0 0 51.123 51.123" style="enable-background:new 0 0 51.123 51.123;" xml:space="preserve" width="512px" height="512px" class=""><g><path d="M45.123,0H6C2.691,0,0,2.692,0,6v39.123c0,3.309,2.691,6,6,6h39.123c3.309,0,6-2.691,6-6V6C51.123,2.692,48.432,0,45.123,0z   M49.123,45.123c0,2.206-1.794,4-4,4H6c-2.206,0-4-1.794-4-4V6c0-2.206,1.794-4,4-4h39.123c2.206,0,4,1.794,4,4V45.123z   M41.16,13.192L25.036,38.99c-0.146,0.233-0.382,0.396-0.651,0.451c-0.065,0.013-0.131,0.02-0.197,0.02  c-0.206,0-0.408-0.063-0.578-0.184l-13.376-9.479c-0.451-0.319-0.557-0.943-0.238-1.394c0.319-0.45,0.943-0.558,1.394-0.238  l12.512,8.867l15.562-24.899c0.293-0.469,0.91-0.611,1.378-0.318C41.31,12.107,41.452,12.724,41.16,13.192z" data-original="#000000" class="active-path" data-old_color="#000000" fill="#00FF1D"/></g> </svg>
