<?xml version="1.0"?>
<svg xmlns="http://www.w3.org/2000/svg" viewBox="0 0 64 64" width="512" height="512"><path d="m42.78 33h-21.56l-13.22 28h48z" fill="#27ae60"/><g fill="#fecd0d"><circle cx="32" cy="49.5" r="2"/><circle cx="28.375" cy="38.5" r="2"/><circle cx="46.375" cy="52.25" r="2"/><circle cx="19" cy="53.5" r="2"/></g><path d="m56.9043 60.57324-16.9043-35.79785v-16.77539h.29492c.97217 0 1.70508-.94238 1.70508-2.19238v-1.61524c0-1.25-.73291-2.19238-1.70508-2.19238h-16.58935c-.97217 0-1.70557.94238-1.70557 2.19238v1.61524c0 1.25.7334 2.19238 1.70557 2.19238h.29443v16.77539l-16.9043 35.79785a1 1 0 0 0 .9043 1.42676h48a1 1 0 0 0 .9043-1.42676zm-32.9043-56.38086a.95005.95005 0 0 1 .01855-.19238h15.9629a.95005.95005 0 0 1 .01855.19238v1.61524a.95005.95005 0 0 1 -.01855.19238h-15.9629a.95005.95005 0 0 1 -.01855-.19238zm1.9043 21.23438a.99808.99808 0 0 0 .0957-.42676v-17h12v17a.99808.99808 0 0 0 .0957.42676l3.10401 6.57324h-18.39942zm-16.32617 34.57324 12.2777-26h20.28834l12.27771 26z"/><path d="m32 46.5a3 3 0 1 0 3 3 3.00328 3.00328 0 0 0 -3-3zm0 4a1 1 0 1 1 1-1 1.001 1.001 0 0 1 -1 1z"/><path d="m31.375 38.5a3 3 0 1 0 -3 3 3.00328 3.00328 0 0 0 3-3zm-3 1a1 1 0 1 1 1-1 1.001 1.001 0 0 1 -1 1z"/><path d="m46.375 55.25a3 3 0 1 0 -3-3 3.00328 3.00328 0 0 0 3 3zm0-4a1 1 0 1 1 -1 1 1.001 1.001 0 0 1 1-1z"/><path d="m19 50.5a3 3 0 1 0 3 3 3.00328 3.00328 0 0 0 -3-3zm0 4a1 1 0 1 1 1-1 1.001 1.001 0 0 1 -1 1z"/></svg>
