<?xml version="1.0" encoding="iso-8859-1"?>
<!-- Generator: Adobe Illustrator 19.0.0, SVG Export Plug-In . SVG Version: 6.00 Build 0)  -->
<svg version="1.1" id="Capa_1" xmlns="http://www.w3.org/2000/svg" xmlns:xlink="http://www.w3.org/1999/xlink" x="0px" y="0px"
	 viewBox="0 0 512 512" style="enable-background:new 0 0 512 512;" xml:space="preserve">
<path style="fill:#556684;" d="M477.559,328.037l-94.534-23.564L379,299.217V175.08l4.018-6.188l94.51-23.564
	c13.427-3.349,26.471,6.807,26.471,20.646v141.418C504,321.23,490.986,331.386,477.559,328.037z"/>
<path style="fill:#959CB3;" d="M383,336.488C383,360.519,363.519,380,339.488,380H51.512C27.481,380,8,360.519,8,336.488V136.512
	C8,112.481,27.481,93,51.512,93h287.976C363.519,93,383,112.481,383,136.512V336.488z"/>
<path style="fill:#8A94B2;" d="M339.566,93H259.62v0.127C259.62,212.28,163.028,309,43.875,309H8v27.57
	C8,360.601,27.507,380,51.538,380h288.028C363.597,380,383,360.601,383,336.57V136.795C383,112.764,363.597,93,339.566,93z"/>
<polygon style="fill:#425775;" points="406.143,163.183 386.752,168.047 382.857,174.313 382.857,299.997 386.752,305.318 
	406.143,310.183 "/>
<circle style="fill:#FFD2D1;" cx="326.38" cy="149.58" r="16.05"/>
<path style="fill:#737E9B;" d="M298.679,419H72.223C65.789,419,61,413.501,61,407.067V380h249v27.067
	C310,413.501,305.113,419,298.679,419z"/>
<rect x="61" y="380" style="fill:#556684;" width="249" height="19"/>
<path d="M326.381,125.499c-13.277,0-24.078,10.801-24.078,24.078s10.801,24.078,24.078,24.078s24.078-10.801,24.078-24.078
	S339.658,125.499,326.381,125.499z M326.381,157.603c-4.426,0-8.026-3.6-8.026-8.026s3.6-8.026,8.026-8.026s8.026,3.6,8.026,8.026
	S330.807,157.603,326.381,157.603z"/>
<path d="M500.736,142.881c-7.158-5.593-16.32-7.539-25.132-5.34l-58.142,14.503c-4.3,1.073-6.917,5.429-5.845,9.73
	c1.073,4.301,5.435,6.921,9.73,5.845l58.142-14.503c3.984-0.994,8.154-0.114,11.391,2.415c3.238,2.529,5.12,6.336,5.12,10.444
	v141.418c0,4.108-1.883,7.914-5.12,10.443c-3.238,2.529-7.448,3.408-11.431,2.415L391,298.203V168.892v-32.098
	C391,108.377,367.985,85,339.566,85H51.538C23.12,85,0,108.377,0,136.795V336.57C0,364.988,23.12,388,51.538,388H53v19.067
	C53,417.917,61.374,427,72.223,427h226.455c10.85,0,19.321-9.083,19.321-19.933V388h21.566c28.42,0,51.435-23.012,51.435-51.43
	v-21.824l84.551,21.077c2.377,0.593,4.803,0.885,7.184,0.885c6.449-0.001,12.76-2.14,17.988-6.224
	c7.159-5.592,11.277-14.009,11.277-23.093V165.974C512,156.89,507.894,148.473,500.736,142.881z M375,336.57
	c0,19.567-15.866,35.43-35.434,35.43h-29.237h-181.34c-4.433,0-8.026,3.567-8.026,8s3.593,8,8.026,8H302v19.067
	c0,1.999-1.323,3.933-3.321,3.933H72.223c-1.999,0-3.223-1.935-3.223-3.933V388h17.283h6.988c4.433,0,8.026-3.567,8.026-8
	s-3.593-8-8.026-8h-6.988h-25.71h-9.035C31.971,372,16,356.137,16,336.57V136.795C16,117.228,31.971,101,51.538,101h288.028
	C359.134,101,375,117.228,375,136.795v32.098v135.581V336.57z"/>
<g>
</g>
<g>
</g>
<g>
</g>
<g>
</g>
<g>
</g>
<g>
</g>
<g>
</g>
<g>
</g>
<g>
</g>
<g>
</g>
<g>
</g>
<g>
</g>
<g>
</g>
<g>
</g>
<g>
</g>
</svg>
