<?xml version="1.0" encoding="iso-8859-1"?>
<!-- Generator: Adobe Illustrator 19.0.0, SVG Export Plug-In . SVG Version: 6.00 Build 0)  -->
<svg version="1.1" id="Capa_1" xmlns="http://www.w3.org/2000/svg" xmlns:xlink="http://www.w3.org/1999/xlink" x="0px" y="0px"
	 viewBox="0 0 512.001 512.001" style="enable-background:new 0 0 512.001 512.001;" xml:space="preserve">
<polygon style="fill:#E6E6E6;" points="191.772,400.058 176.771,479.799 335.228,479.799 320.227,400.058 "/>
<polygon style="fill:#DBDBDB;" points="191.772,400.058 176.771,479.799 201.772,479.799 216.773,400.058 "/>
<path style="fill:#666666;" d="M477.352,402.058H34.648c-14.494,0-26.286-11.792-26.286-26.285V33.785
	C8.362,19.292,20.154,7.5,34.648,7.5h442.704c14.493,0,26.285,11.792,26.285,26.285v341.989
	C503.636,390.267,491.845,402.058,477.352,402.058z"/>
<path style="fill:#5A5B5B;" d="M35.364,375.774V33.785C35.364,19.292,47.156,7.5,61.65,7.5H34.648
	C20.154,7.5,8.362,19.292,8.362,33.785v341.989c0,14.493,11.792,26.285,26.286,26.285H61.65
	C47.156,402.058,35.364,390.267,35.364,375.774z"/>
<path style="fill:#F9F6ED;" d="M476.635,324.95V39.214c0-2.602-2.11-4.712-4.712-4.712H40.076c-2.603,0-4.712,2.109-4.712,4.712
	V324.95H476.635z"/>
<path style="fill:#F4EEE1;" d="M65.078,34.502H40.076c-2.603,0-4.712,2.109-4.712,4.712V324.95h25.002V39.214
	C60.366,36.612,62.476,34.502,65.078,34.502z"/>
<path style="fill:#CCCCCC;" d="M503.636,375.774V324.95H8.362v50.824c0,14.493,11.792,26.285,26.286,26.285h442.704
	C491.845,402.058,503.636,390.267,503.636,375.774z"/>
<path style="fill:#B3B3B3;" d="M34.648,402.058H61.65c-14.494,0-26.286-11.792-26.286-26.285V324.95H8.362v50.824
	C8.362,390.267,20.154,402.058,34.648,402.058z"/>
<path style="fill:#E6E6E6;" d="M471.923,34.502H40.076c-2.603,0-4.712,2.109-4.712,4.712v51.53h441.271v-51.53
	C476.635,36.612,474.526,34.502,471.923,34.502z"/>
<path style="fill:#DBDBDB;" d="M60.366,39.214c0-2.602,2.109-4.711,4.711-4.712H40.076c-2.603,0-4.712,2.109-4.712,4.712v51.53
	h25.002V39.214z"/>
<path style="fill:#CCCCCC;" d="M361.006,491.149c0-7.373-5.977-13.351-13.351-13.351H164.344c-7.373,0-13.351,5.977-13.351,13.351
	c0,7.372,5.977,13.351,13.351,13.351h183.312C355.028,504.5,361.006,498.522,361.006,491.149z"/>
<g>
	<path style="fill:#B3B3B3;" d="M189.495,491.149c0-7.373,5.977-13.351,13.351-13.351h-38.502c-7.373,0-13.351,5.977-13.351,13.351
		c0,7.372,5.977,13.351,13.351,13.351h38.502C195.473,504.5,189.495,498.522,189.495,491.149z"/>
	<circle style="fill:#B3B3B3;" cx="255.995" cy="363.502" r="13.351"/>
</g>
<path style="fill:#A2A2A3;" d="M255.999,363.504c-2.469-4.277-2.292-9.347,0.006-13.34c-2.271-0.003-4.573,0.561-6.681,1.778
	c-6.385,3.686-8.574,11.852-4.886,18.237c3.686,6.385,11.852,8.574,18.237,4.886c2.108-1.217,3.748-2.928,4.88-4.897
	C262.949,370.162,258.47,367.781,255.999,363.504z"/>
<path style="fill:#666666;" d="M205.312,166l-58.827-27.756c-2.177-1.027-4.732-1.058-6.981,0L80.679,166
	c-2.863,1.351-4.689,4.232-4.689,7.398c0,13.271,0,53.786,0,67.069c0,3.165,1.826,6.047,4.689,7.398
	c62.307,29.393,58.84,27.775,59.245,27.939c2.111,0.855,4.491,0.794,6.563-0.183l58.826-27.757c5.929-2.797,4.506-9.446,4.689-10.35
	c0-23.287,0-41.953,0-64.117C210.002,170.232,208.176,167.351,205.312,166z"/>
<path style="fill:#5A5B5B;" d="M167.61,225.747c0-3.165,1.827-6.047,4.689-7.397l37.703-17.789c0-8.838,0-17.679,0-27.162
	c0-3.165-1.826-6.047-4.69-7.398l-58.827-27.756c-2.177-1.027-4.732-1.058-6.981,0L80.679,166c-2.863,1.351-4.689,4.232-4.689,7.398
	c0,13.271,0,53.786,0,67.069c0,3.165,1.826,6.047,4.689,7.398c62.307,29.393,58.84,27.775,59.245,27.939
	c2.111,0.855,4.491,0.794,6.563-0.183l21.123-9.967C167.61,250.269,167.61,233.436,167.61,225.747z"/>
<path style="fill:#A2DAF9;" d="M146.486,138.244c-2.072-0.977-4.452-1.039-6.562-0.183c-0.403,0.163,1.262-0.605-59.245,27.939
	c-2.496,1.178-4.203,3.519-4.6,6.197c0.397,2.678,2.104,5.019,4.6,6.197c62.307,29.393,58.846,27.777,59.245,27.939
	c2.11,0.855,4.49,0.794,6.562-0.183l58.827-27.756c2.496-1.178,4.203-3.519,4.6-6.197c-0.397-2.678-2.104-5.019-4.6-6.197
	L146.486,138.244z"/>
<path style="fill:#70B5E8;" d="M80.679,178.395c-2.496-1.178-4.203-3.519-4.6-6.197c0.015-0.1-0.089-3.642-0.089,68.269
	c0,3.165,1.826,6.047,4.689,7.398c61.85,28.798,58.718,28.53,62.317,28.53v-69.47C139.43,206.925,143.078,207.449,80.679,178.395z"
	/>
<circle style="fill:#A2DAF9;" cx="296.858" cy="201.782" r="13.351"/>
<path style="fill:#89D0EF;" d="M296.859,201.779c-2.469-4.277-2.292-9.347,0.006-13.34c-2.271-0.003-4.573,0.561-6.681,1.778
	c-6.385,3.686-8.574,11.852-4.886,18.237c3.686,6.385,11.852,8.574,18.237,4.886c2.108-1.217,3.748-2.928,4.88-4.897
	C303.808,208.438,299.329,206.056,296.859,201.779z"/>
<circle style="fill:#A2DAF9;" cx="402.814" cy="143.779" r="13.351"/>
<path style="fill:#89D0EF;" d="M402.818,143.776c-2.469-4.277-2.292-9.347,0.006-13.34c-2.271-0.003-4.573,0.561-6.681,1.778
	c-6.385,3.687-8.574,11.852-4.886,18.237c3.686,6.385,11.852,8.574,18.237,4.886c2.108-1.217,3.748-2.928,4.88-4.897
	C409.767,150.434,405.288,148.053,402.818,143.776z"/>
<circle style="fill:#A2DAF9;" cx="402.814" cy="259.786" r="13.351"/>
<path style="fill:#89D0EF;" d="M402.818,259.783c-2.469-4.277-2.292-9.347,0.006-13.34c-2.271-0.003-4.573,0.561-6.681,1.778
	c-6.385,3.686-8.574,11.852-4.886,18.237c3.686,6.385,11.852,8.574,18.237,4.886c2.108-1.217,3.748-2.928,4.88-4.897
	C409.767,266.441,405.288,264.06,402.818,259.783z"/>
<path style="fill:#5DABDB;" d="M101.08,187.941c-5.868-2.761-12.622-5.923-20.401-9.547c-2.496-1.178-4.203-3.519-4.6-6.197
	c0.015-0.1-0.09-3.642-0.09,68.269c0,3.165,1.826,6.047,4.689,7.398c7.782,3.623,14.534,6.785,20.401,9.548
	C101.08,239.906,101.08,202.668,101.08,187.941z"/>
<path style="fill:#89D0EF;" d="M101.08,186.549c0-3.56,2.054-6.801,5.274-8.322l62.437-29.46l-22.305-10.525
	c-2.072-0.977-4.452-1.039-6.562-0.183c-0.403,0.163,1.262-0.605-59.245,27.939c-2.496,1.178-4.203,3.519-4.6,6.197
	c0.397,2.678,2.104,5.019,4.6,6.197c7.781,3.671,14.536,6.857,20.401,9.625C101.08,187.502,101.08,187.01,101.08,186.549z"/>
<path d="M235.149,363.504c0,11.497,9.355,20.851,20.851,20.851s20.851-9.355,20.851-20.851s-9.355-20.851-20.851-20.851
	C244.504,342.653,235.149,352.007,235.149,363.504z M261.85,363.504c0,3.226-2.624,5.85-5.85,5.85c-3.226,0-5.85-2.624-5.85-5.85
	c0-3.225,2.624-5.85,5.85-5.85C259.226,357.655,261.85,360.279,261.85,363.504z"/>
<path d="M67.189,55.387c-0.96-0.19-1.96-0.19-2.931,0c-8.918,1.9-7.449,14.861,1.471,14.861
	C74.544,70.248,76.184,57.265,67.189,55.387z"/>
<path d="M80.289,62.738c0,1.913,0.722,3.802,2.19,5.31c4.405,4.282,11.586,1.898,12.66-3.84c0.503-2.4-0.27-4.991-2.05-6.77
	C88.611,52.961,80.289,55.833,80.289,62.738z"/>
<path d="M104.55,57.437c-4.701,4.703-1.39,12.801,5.3,12.801c6.667,0,10.002-8.098,5.301-12.801
	C113.761,56.047,107.483,54.506,104.55,57.437z"/>
<path d="M443.678,70.243c4.143,0,7.5-3.358,7.5-7.5s-3.357-7.5-7.5-7.5H135.933c-4.142,0-7.5,3.358-7.5,7.5s3.358,7.5,7.5,7.5
	H443.678z"/>
<path d="M443.678,136.275h-21.427c-6.885-17.773-31.987-17.754-38.865,0H255.999c-4.143,0-7.5,3.358-7.5,7.5
	c0,4.142,3.357,7.5,7.5,7.5h127.386c6.885,17.773,31.987,17.754,38.865,0h21.427c4.143,0,7.5-3.358,7.5-7.5
	C451.178,139.633,447.821,136.275,443.678,136.275z M402.818,149.626c-3.226,0-5.85-2.624-5.85-5.85s2.624-5.85,5.85-5.85
	c3.226,0,5.85,2.624,5.85,5.85C408.669,147.002,406.045,149.626,402.818,149.626z"/>
<path d="M443.678,194.279H316.292c-6.885-17.773-31.987-17.754-38.865,0h-21.427c-4.143,0-7.5,3.358-7.5,7.5
	c0,4.142,3.357,7.5,7.5,7.5h21.427c6.885,17.773,31.987,17.754,38.865,0h127.386c4.143,0,7.5-3.358,7.5-7.5
	C451.178,197.637,447.821,194.279,443.678,194.279z M296.86,207.63c-3.226,0-5.85-2.624-5.85-5.85s2.624-5.85,5.85-5.85
	c3.226,0,5.85,2.624,5.85,5.85S300.085,207.63,296.86,207.63z"/>
<path d="M443.678,252.282h-21.427c-6.885-17.772-31.987-17.753-38.865,0H255.999c-4.143,0-7.5,3.358-7.5,7.5
	c0,4.143,3.357,7.5,7.5,7.5h127.386c6.885,17.771,31.986,17.756,38.865,0h21.427c4.143,0,7.5-3.357,7.5-7.5
	C451.178,255.639,447.821,252.282,443.678,252.282z M402.818,265.632c-3.226,0-5.85-2.624-5.85-5.85c0-3.226,2.624-5.849,5.85-5.849
	c3.226,0,5.85,2.623,5.85,5.849C408.669,263.008,406.045,265.632,402.818,265.632z"/>
<polygon points="208.512,159.217 208.513,159.217 208.513,159.217 "/>
<path d="M211.397,160.987c-1.397-1.089-2.768-1.708-2.885-1.77l0,0c-64.615-29.911-61.653-31.514-71.391-28.114
	c-0.102,0.048-60.136,28.21-61.814,29.363l0.001,0.002c-0.008,0.006-0.017,0.011-0.025,0.017l-0.001-0.001
	c-4.183,3.074-6.793,7.54-6.793,12.914v67.069c0,6.038,3.528,11.606,8.99,14.181c64.901,30.611,59.568,28.291,62.067,28.853
	c9.167,2.053,9.745-1.976,68.966-28.853c5.462-2.576,8.991-8.143,8.991-14.182c-0.059-70.363,0.148-67.195-0.167-69.333
	C217.333,171.121,214.517,163.39,211.397,160.987z M200.869,172.197c-60.496,28.519-57.555,27.249-57.948,27.215
	c-0.329-0.038,2.451,1.18-57.8-27.214c56.153-26.239,57.249-27.603,58.165-27.17v-0.001L200.869,172.197z M83.489,240.468v-52.452
	l52.006,24.537v52.883C80.928,239.513,83.489,241.295,83.489,240.468z M150.496,265.435v-52.883l52.005-24.537v52.453
	C202.501,241.293,204.947,239.568,150.496,265.435z"/>
<path d="M34.648,409.559H182.64l-12.03,60.74h-6.266c-11.497,0-20.851,9.354-20.851,20.851c0,11.497,9.355,20.851,20.851,20.851
	h183.312c11.497,0,20.851-9.355,20.851-20.851c0-11.497-9.354-20.851-20.851-20.851h-6.266l-12.03-60.739h55.958
	c4.143,0,7.5-3.357,7.5-7.5s-3.357-7.5-7.5-7.5c-42.416,0-298.277,0-350.668,0c-10.358,0-18.785-8.427-18.785-18.784v-43.323
	c52.965,0,426.543,0,480.273,0v43.323c0,10.358-8.427,18.784-18.784,18.784h-57.032c-4.143,0-7.5,3.357-7.5,7.5s3.357,7.5,7.5,7.5
	h57.032c18.629,0,33.785-15.156,33.785-33.785V160.458c0-4.142-3.357-7.5-7.5-7.5s-7.5,3.358-7.5,7.5v156.992h-12.001
	c0-12.166,0-274.275,0-278.236c0-5.892-4.194-10.824-9.755-11.964c-1.611-0.331-434.692-0.425-436.762,0
	c-5.559,1.14-9.755,6.071-9.755,11.964c0,3.961,0,266.07,0,278.236H15.865V33.785c-0.002-10.358,8.425-18.784,18.783-18.784h442.704
	c10.358,0,18.784,8.427,18.784,18.784v91.671c0,4.142,3.357,7.5,7.5,7.5s7.5-3.358,7.5-7.5V33.785
	C511.137,15.156,495.981,0,477.352,0H34.648C16.019,0,0.862,15.156,0.862,33.785v341.989
	C0.862,394.403,16.019,409.559,34.648,409.559z M353.505,491.149c0,3.226-2.624,5.85-5.85,5.85H164.344
	c-3.226,0-5.85-2.624-5.85-5.85c0-3.226,2.624-5.85,5.85-5.85c5.573,0,159.1,0,183.312,0
	C350.881,485.299,353.505,487.924,353.505,491.149z M314.067,409.559l12.03,60.739H185.903l12.03-60.739H314.067z M42.865,98.245
	h82.63c4.143,0,7.5-3.358,7.5-7.5s-3.357-7.5-7.5-7.5h-82.63V42.003h426.27v41.241H160.497c-4.142,0-7.5,3.358-7.5,7.5
	s3.358,7.5,7.5,7.5h308.638v219.204H42.865V98.245z"/>
<g>
</g>
<g>
</g>
<g>
</g>
<g>
</g>
<g>
</g>
<g>
</g>
<g>
</g>
<g>
</g>
<g>
</g>
<g>
</g>
<g>
</g>
<g>
</g>
<g>
</g>
<g>
</g>
<g>
</g>
</svg>
