<svg height="480pt" viewBox="0 0 480 480" width="480pt" xmlns="http://www.w3.org/2000/svg"><path d="m472 24v432c-.027344 8.824219-7.175781 15.972656-16 16h-432c-3.832031.023438-7.535156-1.375-10.398438-3.921875-3.558593-3-5.609374-7.421875-5.601562-12.078125v-432c.027344-8.824219 7.175781-15.972656 16-16h432c8.824219.027344 15.972656 7.175781 16 16zm0 0" fill="#acabb1"/><path d="m472 55.839844v400.160156c-.027344 8.824219-7.175781 15.972656-16 16h-432c-3.832031.023438-7.535156-1.375-10.398438-3.921875 102.636719-35.597656 385.039063-155.117187 458.398438-412.238281zm0 0" fill="#898890"/><g fill="#ffb655"><path d="m240 160c-26.714844 0-49.710938 18.875-54.921875 45.078125s8.816406 52.4375 33.5 62.660156c24.683594 10.222657 53.148437 1.585938 67.988281-20.628906 14.84375-22.214844 11.925782-51.820313-6.964844-70.710937-10.496093-10.515626-24.746093-16.414063-39.601562-16.398438zm0 0"/><path d="m423.601562 176.398438c-18.890624-18.890626-48.496093-21.808594-70.710937-6.964844-22.214844 14.839844-30.851563 43.304687-20.628906 67.988281 10.222656 24.683594 36.457031 38.710937 62.660156 33.5s45.078125-28.207031 45.078125-54.921875c.015625-14.855469-5.882812-29.105469-16.398438-39.601562zm0 0"/><path d="m96 160c-26.714844 0-49.710938 18.875-54.921875 45.078125s8.816406 52.4375 33.5 62.660156c24.683594 10.222657 53.148437 1.585938 67.988281-20.628906 14.84375-22.214844 11.925782-51.820313-6.964844-70.710937-10.496093-10.515626-24.746093-16.414063-39.601562-16.398438zm0 0"/></g><path d="m40 56h112v64h-112zm0 0" fill="#ffde55"/><path d="m184 56h112v64h-112zm0 0" fill="#ffde55"/><path d="m328 56h112v64h-112zm0 0" fill="#ffde55"/><path d="m72 304v120h48v-120zm0 0" fill="#5aaae7"/><path d="m168 296c-13.253906 0-24 10.746094-24 24s10.746094 24 24 24 24-10.746094 24-24-10.746094-24-24-24zm0 0" fill="#ff6243"/><path d="m224 328h32v32h-32zm0 0" fill="#e6e7e8"/><path d="m224 392h32v32h-32zm0 0" fill="#ff5023"/><path d="m368 328h32v32h-32zm0 0" fill="#e6e7e8"/><path d="m368 392h32v32h-32zm0 0" fill="#ff5023"/><path d="m456 0h-432c-13.253906 0-24 10.746094-24 24v432c0 13.253906 10.746094 24 24 24h432c13.253906 0 24-10.746094 24-24v-432c0-13.253906-10.746094-24-24-24zm8 456c0 4.417969-3.582031 8-8 8h-432c-4.417969 0-8-3.582031-8-8v-432c0-4.417969 3.582031-8 8-8h432c4.417969 0 8 3.582031 8 8zm0 0"/><path d="m240 152c-35.347656 0-64 28.652344-64 64s28.652344 64 64 64 64-28.652344 64-64c-.039062-35.328125-28.671875-63.960938-64-64zm0 112c-23.398438-.042969-43.359375-16.933594-47.28125-40h15.28125v-16h-15.28125c1.203125-7.125 4.007812-13.882812 8.203125-19.769531l10.789063 10.800781 11.3125-11.3125-10.792969-10.796875c5.886719-4.195313 12.644531-7 19.769531-8.203125v15.28125h16v-15.28125c7.125 1.203125 13.882812 4.007812 19.769531 8.203125l-10.792969 10.796875 11.3125 11.3125 10.789063-10.800781c4.195313 5.886719 7 12.644531 8.203125 19.769531h-15.28125v16h15.28125c-3.921875 23.066406-23.882812 39.957031-47.28125 40zm0 0"/><path d="m232 208h16v40h-16zm0 0"/><path d="m384 152c-35.347656 0-64 28.652344-64 64s28.652344 64 64 64 64-28.652344 64-64c-.039062-35.328125-28.671875-63.960938-64-64zm0 112c-23.398438-.042969-43.359375-16.933594-47.28125-40h15.28125v-16h-15.28125c1.203125-7.125 4.007812-13.882812 8.203125-19.769531l10.789063 10.800781 11.3125-11.3125-10.792969-10.796875c5.886719-4.195313 12.644531-7 19.769531-8.203125v15.28125h16v-15.28125c7.125 1.203125 13.882812 4.007812 19.769531 8.203125l-10.792969 10.796875 11.3125 11.3125 10.789063-10.800781c4.195313 5.886719 7 12.644531 8.203125 19.769531h-15.28125v16h15.28125c-3.921875 23.066406-23.882812 39.957031-47.28125 40zm0 0"/><path d="m376 208h16v40h-16zm0 0"/><path d="m160 216c0-35.347656-28.652344-64-64-64s-64 28.652344-64 64 28.652344 64 64 64c35.328125-.039062 63.960938-28.671875 64-64zm-111.28125 8h15.28125v-16h-15.28125c1.203125-7.125 4.007812-13.882812 8.203125-19.769531l10.789063 10.800781 11.3125-11.3125-10.792969-10.796875c5.886719-4.195313 12.644531-7 19.769531-8.203125v15.28125h16v-15.28125c7.125 1.203125 13.882812 4.007812 19.769531 8.203125l-10.792969 10.796875 11.3125 11.3125 10.789063-10.800781c4.195313 5.886719 7 12.644531 8.203125 19.769531h-15.28125v16h15.28125c-3.882812 23.085938-23.871094 39.992188-47.28125 39.992188s-43.398438-16.90625-47.28125-39.992188zm0 0"/><path d="m88 208h16v40h-16zm0 0"/><path d="m40 128h112c4.417969 0 8-3.582031 8-8v-64c0-4.417969-3.582031-8-8-8h-112c-4.417969 0-8 3.582031-8 8v64c0 4.417969 3.582031 8 8 8zm8-64h96v48h-96zm0 0"/><path d="m296 48h-112c-4.417969 0-8 3.582031-8 8v64c0 4.417969 3.582031 8 8 8h112c4.417969 0 8-3.582031 8-8v-64c0-4.417969-3.582031-8-8-8zm-8 64h-96v-48h96zm0 0"/><path d="m440 48h-112c-4.417969 0-8 3.582031-8 8v64c0 4.417969 3.582031 8 8 8h112c4.417969 0 8-3.582031 8-8v-64c0-4.417969-3.582031-8-8-8zm-8 64h-96v-48h96zm0 0"/><path d="m168 288c-9.910156 0-19.261719 4.59375-25.320312 12.4375-6.058594 7.84375-8.140626 18.050781-5.640626 27.640625l-9.039062 5.019531v-29.097656c0-4.417969-3.582031-8-8-8h-48c-4.417969 0-8 3.582031-8 8v120c0 4.417969 3.582031 8 8 8h48c4.417969 0 8-3.582031 8-8v-72.609375l16.839844-9.34375c10.050781 10.574219 25.980468 13.011719 38.734375 5.925781 12.75-7.082031 19.097656-21.894531 15.429687-36.015625-3.664062-14.117187-16.417968-23.972656-31.003906-23.957031zm-56 128h-32v-104h32v29.976562l-19.878906 11.03125 7.757812 13.984376 12.121094-6.71875zm56-80c-8.835938 0-16-7.164062-16-16s7.164062-16 16-16 16 7.164062 16 16-7.164062 16-16 16zm0 0"/><path d="m256 320h-32c-4.417969 0-8 3.582031-8 8v32c0 4.417969 3.582031 8 8 8h32c4.417969 0 8-3.582031 8-8v-32c0-4.417969-3.582031-8-8-8zm-8 32h-16v-16h16zm0 0"/><path d="m256 384h-32c-4.417969 0-8 3.582031-8 8v32c0 4.417969 3.582031 8 8 8h32c4.417969 0 8-3.582031 8-8v-32c0-4.417969-3.582031-8-8-8zm-8 32h-16v-16h16zm0 0"/><path d="m400 320h-32c-4.417969 0-8 3.582031-8 8v32c0 4.417969 3.582031 8 8 8h32c4.417969 0 8-3.582031 8-8v-32c0-4.417969-3.582031-8-8-8zm-8 32h-16v-16h16zm0 0"/><path d="m400 384h-32c-4.417969 0-8 3.582031-8 8v32c0 4.417969 3.582031 8 8 8h32c4.417969 0 8-3.582031 8-8v-32c0-4.417969-3.582031-8-8-8zm-8 32h-16v-16h16zm0 0"/></svg>