<?xml version="1.0" encoding="iso-8859-1"?>
<!-- Generator: Adobe Illustrator 19.0.0, SVG Export Plug-In . SVG Version: 6.00 Build 0)  -->
<svg version="1.1" id="Capa_1" xmlns="http://www.w3.org/2000/svg" xmlns:xlink="http://www.w3.org/1999/xlink" x="0px" y="0px"
	 viewBox="0 0 512 512" style="enable-background:new 0 0 512 512;" xml:space="preserve">
<polygon style="fill:#72D8FF;" points="256.096,41.996 70.157,149.023 70.157,363.077 256.096,470.103 442.035,363.077 
	442.035,149.023 "/>
<polygon style="fill:#ADE5FF;" points="70.157,363.084 255.904,470 255.904,256.057 70.157,149.14 "/>
<g>
	<polygon style="fill:#C9F3FF;" points="70.061,149.023 256,256.05 441.939,149.023 256,41.996 	"/>
	<polygon style="fill:#C9F3FF;" points="70.061,363.002 256,470.029 441.939,363.002 256,255.975 	"/>
</g>
<g>
	<circle style="fill:#FEDA9B;" cx="255.998" cy="41.996" r="31.997"/>
	<circle style="fill:#FEDA9B;" cx="255.998" cy="470" r="31.997"/>
	<circle style="fill:#FEDA9B;" cx="70.664" cy="362.999" r="31.997"/>
	<circle style="fill:#FEDA9B;" cx="441.332" cy="148.997" r="31.997"/>
	<circle style="fill:#FEDA9B;" cx="441.332" cy="362.999" r="31.997"/>
	<circle style="fill:#FEDA9B;" cx="70.664" cy="148.997" r="31.997"/>
	<circle style="fill:#FEDA9B;" cx="256.018" cy="256.008" r="31.997"/>
</g>
<path d="M481.898,352.133c-2.903-10.835-9.852-19.892-19.567-25.501c-3.526-2.036-7.229-3.489-10.999-4.411V189.787
	c3.808-0.939,7.508-2.404,10.999-4.419c20.054-11.578,26.951-37.313,15.372-57.368c-5.609-9.715-14.665-16.664-25.5-19.567
	c-10.836-2.903-22.153-1.414-31.868,4.196c-3.491,2.016-6.617,4.483-9.335,7.311L296.317,53.727c1.086-3.726,1.68-7.659,1.68-11.731
	C297.996,18.839,279.157,0,256,0s-41.996,18.839-41.996,41.996c0,4.072,0.594,8.005,1.68,11.731L101.001,119.94
	c-2.718-2.829-5.844-5.296-9.335-7.311c-9.715-5.609-21.033-7.099-31.868-4.196c-10.835,2.904-19.891,9.852-25.5,19.567
	c-11.579,20.055-4.683,45.79,15.372,57.368c3.487,2.013,7.182,3.477,10.985,4.417v132.441c-3.765,0.923-7.463,2.374-10.985,4.408
	c-9.715,5.609-16.665,14.666-19.567,25.501c-2.904,10.836-1.414,22.153,4.196,31.867c5.609,9.715,14.665,16.665,25.5,19.567
	c3.619,0.97,7.289,1.449,10.937,1.449c7.277,0,14.459-1.909,20.93-5.646c3.491-2.016,6.618-4.483,9.335-7.311l114.682,66.212
	c-1.086,3.726-1.68,7.659-1.68,11.731c0,23.157,18.839,41.996,41.996,41.996s41.996-18.839,41.996-41.996
	c0-4.072-0.594-8.005-1.68-11.731l114.679-66.215c2.718,2.83,5.845,5.298,9.338,7.314c6.471,3.736,13.653,5.646,20.93,5.646
	c3.647,0,7.32-0.479,10.937-1.449c10.835-2.903,19.892-9.853,25.5-19.567C483.311,374.286,484.801,362.969,481.898,352.133z
	 M430.334,129.947c3.39-1.957,7.151-2.957,10.964-2.957c1.911,0,3.834,0.251,5.729,0.759c5.676,1.521,10.419,5.161,13.357,10.249
	c6.064,10.505,2.453,23.985-8.052,30.05c-5.089,2.939-11.017,3.719-16.693,2.198s-10.419-5.161-13.358-10.249v-0.001l0,0
	C416.217,149.492,419.83,136.012,430.334,129.947z M256,19.998c12.13,0,21.998,9.868,21.998,21.998S268.13,63.994,256,63.994
	c-12.13,0-21.998-9.868-21.998-21.998S243.87,19.998,256,19.998z M225.704,71.034c5.437,5.671,12.44,9.822,20.311,11.75v66.214
	c0,5.523,4.477,9.999,9.999,9.999c5.523,0,9.999-4.477,9.999-9.999V82.777c7.86-1.931,14.853-6.079,20.283-11.743l114.724,66.235
	c-0.083,0.287-0.175,0.57-0.253,0.859c-2.02,7.538-1.908,15.308,0.232,22.61l-114.654,66.212
	c-5.254-5.504-11.925-9.484-19.461-11.503c-10.837-2.905-22.153-1.414-31.868,4.196c-3.526,2.036-6.635,4.517-9.319,7.319
	L111,160.738c2.14-7.302,2.252-15.072,0.233-22.61c-0.078-0.29-0.169-0.573-0.253-0.859L225.704,71.034z M236.963,267.012
	c-6.064-10.505-2.453-23.985,8.052-30.05c3.39-1.958,7.151-2.957,10.963-2.957c1.911,0,3.834,0.251,5.73,0.759
	c5.676,1.521,10.419,5.161,13.357,10.249c6.064,10.505,2.453,23.986-8.052,30.05C256.509,281.128,243.028,277.516,236.963,267.012z
	 M51.617,137.999c2.938-5.089,7.681-8.728,13.357-10.249c1.896-0.508,3.818-0.759,5.729-0.759c3.812,0,7.574,1,10.964,2.957
	c5.089,2.938,8.728,7.681,10.249,13.357c1.521,5.676,0.741,11.603-2.198,16.693c-2.939,5.09-7.682,8.728-13.357,10.249
	c-5.677,1.521-11.604,0.741-16.693-2.198C49.164,161.984,45.552,148.504,51.617,137.999z M81.667,382.052
	c-5.09,2.938-11.019,3.719-16.693,2.198c-5.676-1.521-10.419-5.162-13.357-10.25c-2.938-5.089-3.719-11.017-2.198-16.692
	c1.521-5.677,5.161-10.42,10.249-13.358c10.504-6.064,23.985-2.452,30.049,8.052c2.938,5.089,3.719,11.018,2.198,16.693
	C90.395,374.372,86.756,379.114,81.667,382.052z M110.98,374.73c0.083-0.287,0.175-0.569,0.253-0.859
	c2.02-7.537,1.908-15.307-0.232-22.609l76.86-44.365c4.783-2.762,6.422-8.876,3.662-13.659c-2.761-4.784-8.877-6.419-13.659-3.662
	l-76.876,44.374c-5.607-5.851-12.705-9.837-20.334-11.708V189.77c0.294-0.072,0.59-0.128,0.884-0.206
	c7.537-2.02,14.211-6.001,19.464-11.506l114.717,66.235c-3.085,10.613-2.024,22.413,3.926,32.718
	c5.949,10.303,15.639,17.118,26.371,19.753v132.453c-7.871,1.928-14.874,6.079-20.311,11.749L110.98,374.73z M256,492.002
	c-12.13,0-21.998-9.868-21.998-21.998s9.868-21.998,21.998-21.998c12.13,0,21.998,9.868,21.998,21.998S268.13,492.002,256,492.002z
	 M286.296,440.966c-5.431-5.664-12.423-9.812-20.283-11.743V296.787c3.77-0.922,7.473-2.369,10.999-4.405
	c17.072-9.857,24.598-29.969,19.32-48.106L411,178.059c5.254,5.505,11.927,9.486,19.464,11.506c0.289,0.077,0.58,0.132,0.87,0.203
	v132.479c-7.624,1.872-14.718,5.858-20.321,11.705l-85.175-49.173c-4.783-2.76-10.898-1.122-13.659,3.66
	c-2.762,4.783-1.123,10.898,3.66,13.659L401,351.262c-2.14,7.302-2.252,15.072-0.232,22.61c0.077,0.288,0.168,0.569,0.251,0.854
	L286.296,440.966z M460.383,374.001c-2.938,5.089-7.682,8.728-13.357,10.25c-5.677,1.521-11.604,0.74-16.693-2.198
	c-5.089-2.938-8.728-7.682-10.249-13.357c-1.521-5.677-0.74-11.604,2.198-16.693c4.071-7.049,11.479-10.994,19.088-10.994
	c3.729,0,7.507,0.948,10.961,2.942c5.089,2.938,8.728,7.682,10.249,13.358C464.102,362.984,463.321,368.912,460.383,374.001z"/>
<path d="M256.014,195.495c2.63,0,5.21-1.07,7.069-2.93s2.93-4.44,2.93-7.069s-1.07-5.21-2.93-7.069c-1.86-1.86-4.44-2.93-7.069-2.93
	c-2.63,0-5.21,1.07-7.069,2.93c-1.86,1.86-2.93,4.44-2.93,7.069s1.07,5.21,2.93,7.069
	C250.804,194.425,253.383,195.495,256.014,195.495z"/>
<g>
</g>
<g>
</g>
<g>
</g>
<g>
</g>
<g>
</g>
<g>
</g>
<g>
</g>
<g>
</g>
<g>
</g>
<g>
</g>
<g>
</g>
<g>
</g>
<g>
</g>
<g>
</g>
<g>
</g>
</svg>
