<?xml version="1.0" encoding="iso-8859-1"?>
<!-- Generator: Adobe Illustrator 19.0.0, SVG Export Plug-In . SVG Version: 6.00 Build 0)  -->
<svg version="1.1" id="Capa_1" xmlns="http://www.w3.org/2000/svg" xmlns:xlink="http://www.w3.org/1999/xlink" x="0px" y="0px"
	 viewBox="0 0 512 512" style="enable-background:new 0 0 512 512;" xml:space="preserve">
<rect x="10" y="10" style="fill:#ADE5FF;" width="88" height="492"/>
<rect x="98" y="414" style="fill:#4DBAF6;" width="404" height="88"/>
<polygon style="fill:#FFC66C;" points="328,53.85 208,123.154 208,261.762 328,331.066 448,261.762 448,123.154 "/>
<polygon style="fill:#FEDA9B;" points="208,261.762 327.876,330.995 327.876,192.458 208,123.226 "/>
<polygon style="fill:#FFEFD5;" points="208,123.154 328,192.458 448,123.154 328,53.85 "/>
<path d="M502,404H108V10c0-5.523-4.477-10-10-10H10C4.477,0,0,4.477,0,10v492c0,5.523,4.477,10,10,10h301c5.523,0,10-4.477,10-10
	s-4.477-10-10-10H108v-68h42.667v31c0,5.523,4.477,10,10,10s10-4.477,10-10v-31h27.667v14.212c0,5.523,4.477,10,10,10
	s10-4.477,10-10V424H246v31c0,5.523,4.477,10,10,10c5.523,0,10-4.477,10-10v-31h27.667v14.212c0,5.523,4.477,10,10,10
	s10-4.477,10-10V424h27.667v31c0,5.523,4.477,10,10,10s10-4.477,10-10v-31H389v14.212c0,5.523,4.477,10,10,10s10-4.477,10-10V424
	h27.667v31c0,5.523,4.477,10,10,10s10-4.477,10-10v-31H492v68H392c-5.523,0-10,4.477-10,10s4.477,10,10,10h110
	c5.523,0,10-4.477,10-10v-88C512,408.477,507.523,404,502,404z M20,20h68v35.333H57c-5.523,0-10,4.477-10,10s4.477,10,10,10h31V103
	H73.788c-5.523,0-10,4.477-10,10s4.477,10,10,10H88v27.667H57c-5.523,0-10,4.477-10,10s4.477,10,10,10h31v27.667H73.788
	c-5.523,0-10,4.477-10,10s4.477,10,10,10H88V246H57c-5.523,0-10,4.477-10,10c0,5.523,4.477,10,10,10h31v27.667H73.788
	c-5.523,0-10,4.477-10,10s4.477,10,10,10H88v27.667H57c-5.523,0-10,4.477-10,10s4.477,10,10,10h31V389H73.788
	c-5.523,0-10,4.477-10,10s4.477,10,10,10H88v27.667H57c-5.523,0-10,4.477-10,10s4.477,10,10,10h31V492H20V20z"/>
<path d="M351.33,492c-2.63,0-5.21,1.07-7.07,2.93c-1.86,1.86-2.93,4.44-2.93,7.07s1.07,5.21,2.93,7.07s4.44,2.93,7.07,2.93
	s5.21-1.07,7.07-2.93s2.93-4.44,2.93-7.07s-1.07-5.21-2.93-7.07C356.54,493.07,353.96,492,351.33,492z"/>
<path d="M318,128.064c0,5.523,4.477,10,10,10s10-4.477,10-10v-15.677c0-5.523-4.477-10-10-10s-10,4.477-10,10V128.064z"/>
<path d="M203,270.356l120,69.282c1.547,0.893,3.273,1.34,5,1.34s3.453-0.447,5-1.34l120-69.282c3.094-1.786,5-5.087,5-8.66V123.132
	c0-3.573-1.906-6.874-5-8.66L333,45.19c-3.094-1.786-6.906-1.786-10,0l-120,69.282c-3.094,1.786-5,5.087-5,8.66v138.564
	C198,265.269,199.906,268.57,203,270.356z M328,319.432l-100-57.735l2.565-1.481c4.783-2.761,6.422-8.877,3.66-13.66
	c-2.761-4.783-8.878-6.422-13.66-3.66l-2.565,1.48V140.46l89.944,51.987l-8.108,4.681c-4.783,2.761-6.422,8.877-3.66,13.66
	c1.852,3.208,5.213,5.001,8.669,5.001c1.696,0,3.416-0.432,4.991-1.341l8.164-4.714V244c0,5.523,4.477,10,10,10s10-4.477,10-10
	v-34.265l8.164,4.714c1.575,0.909,3.294,1.341,4.991,1.341c3.456,0,6.817-1.793,8.669-5.001c2.762-4.783,1.123-10.899-3.66-13.66
	l-8.108-4.681L438,140.46v103.916l-2.565-1.481c-4.782-2.76-10.898-1.123-13.66,3.66s-1.123,10.899,3.66,13.66l2.565,1.481
	L328,319.432z M328,84.459c5.523,0,10-4.477,10-10V71.17l90.006,51.965L338,175.159v-9.166c0-5.523-4.477-10-10-10s-10,4.477-10,10
	v9.166l-90.006-52.023L318,71.17v3.289C318,79.982,322.477,84.459,328,84.459z"/>
<path d="M328,271.84c-2.63,0-5.21,1.07-7.07,2.93c-1.86,1.86-2.93,4.44-2.93,7.07s1.07,5.21,2.93,7.07
	c1.86,1.86,4.44,2.93,7.07,2.93s5.21-1.07,7.07-2.93c1.86-1.86,2.93-4.44,2.93-7.07s-1.07-5.21-2.93-7.07
	C333.21,272.91,330.63,271.84,328,271.84z"/>
<path d="M402.588,223.931l-13.577-7.838c-4.783-2.761-10.898-1.123-13.66,3.66s-1.123,10.899,3.66,13.66l13.577,7.838
	c1.575,0.909,3.294,1.341,4.991,1.341c3.456,0,6.817-1.793,8.669-5.001C409.01,232.808,407.371,226.692,402.588,223.931z"/>
<path d="M266.989,216.092l-13.577,7.838c-4.783,2.761-6.422,8.877-3.66,13.66c1.852,3.208,5.213,5.001,8.669,5.001
	c1.696,0,3.416-0.432,4.991-1.341l13.577-7.838c4.783-2.761,6.422-8.877,3.66-13.66S271.771,213.33,266.989,216.092z"/>
<g>
</g>
<g>
</g>
<g>
</g>
<g>
</g>
<g>
</g>
<g>
</g>
<g>
</g>
<g>
</g>
<g>
</g>
<g>
</g>
<g>
</g>
<g>
</g>
<g>
</g>
<g>
</g>
<g>
</g>
</svg>
