<?xml version="1.0" encoding="iso-8859-1"?>
<!-- Generator: Adobe Illustrator 19.0.0, SVG Export Plug-In . SVG Version: 6.00 Build 0)  -->
<svg version="1.1" id="Capa_1" xmlns="http://www.w3.org/2000/svg" xmlns:xlink="http://www.w3.org/1999/xlink" x="0px" y="0px"
	 viewBox="0 0 512 512" style="enable-background:new 0 0 512 512;" xml:space="preserve">
<polygon style="fill:#62CD4D;" points="256.001,165.257 119.769,240.737 119.769,396.037 256,475.108 392.232,396.037 
	392.232,240.737 "/>
<polygon style="fill:#A0E557;" points="119.769,393.455 255.86,475.03 255.86,316.217 119.769,240.814 "/>
<polygon style="fill:#D8FB93;" points="119.769,237.683 256.001,316.217 392.232,237.683 256.001,159.15 "/>
<path d="M248.93,250.805c1.86,1.86,4.44,2.93,7.07,2.93c2.63,0,5.21-1.07,7.07-2.93s2.93-4.44,2.93-7.07s-1.07-5.21-2.93-7.07
	c-1.86-1.86-4.44-2.93-7.07-2.93c-2.63,0-5.21,1.07-7.07,2.93s-2.93,4.44-2.93,7.07C246.001,246.365,247.07,248.945,248.93,250.805z
	"/>
<path d="M119.231,327.154c2.64,0,5.21-1.06,7.07-2.92c1.87-1.87,2.93-4.45,2.93-7.08c0-2.63-1.06-5.2-2.93-7.07
	c-1.86-1.86-4.44-2.92-7.07-2.92c-2.63,0-5.21,1.06-7.07,2.92c-1.86,1.87-2.93,4.44-2.93,7.07s1.07,5.21,2.93,7.08
	C114.022,326.094,116.601,327.154,119.231,327.154z"/>
<path d="M340.311,354.204l-15.474-8.934c-4.782-2.76-10.898-1.123-13.66,3.66c-2.762,4.783-1.123,10.899,3.66,13.66l15.474,8.934
	c1.575,0.909,3.294,1.341,4.991,1.341c3.456,0,6.817-1.793,8.669-5.001C346.733,363.081,345.094,356.965,340.311,354.204z"/>
<path d="M176.699,372.866c1.696,0,3.416-0.432,4.991-1.341l15.474-8.934c4.783-2.761,6.422-8.877,3.66-13.66
	c-2.762-4.783-8.877-6.422-13.66-3.66l-15.474,8.934c-4.783,2.761-6.422,8.877-3.66,13.66
	C169.882,371.072,173.243,372.866,176.699,372.866z"/>
<path d="M511.657,456.735l-12.343-46.064c-1.43-5.334-6.909-8.501-12.248-7.071c-5.334,1.429-8.5,6.913-7.071,12.248l6.048,22.572
	l-83.277-48.081V238.112c0-3.573-1.906-6.874-5-8.66L266,153.377V61.018l16.777,16.778c1.953,1.953,4.512,2.929,7.071,2.929
	s5.119-0.976,7.071-2.929c3.905-3.905,3.905-10.237,0-14.143l-33.722-33.722c-3.905-3.905-10.237-3.905-14.143,0l-33.722,33.722
	c-3.905,3.905-3.905,10.237,0,14.143c3.905,3.906,10.237,3.905,14.143,0l16.523-16.524v92.105l-131.767,76.075
	c-3.094,1.786-5,5.087-5,8.66v40.837c0,5.523,4.477,10,10,10s10-4.477,10-10v-23.51l106.702,61.673l-11.336,6.545
	c-4.783,2.761-6.422,8.877-3.66,13.66c1.852,3.208,5.213,5.001,8.669,5.001c1.696,0,3.416-0.432,4.991-1.341l11.401-6.582v123.284
	l-106.701-61.603l0.153-0.088c0.327-0.189,0.636-0.396,0.933-0.615l3.868-2.233c4.783-2.761,6.422-8.877,3.66-13.66
	c-2.762-4.783-8.877-6.422-13.66-3.66l-5.02,2.898v-26.717c0-5.523-4.477-10-10-10s-10,4.477-10,10v38.34l-83.277,48.081
	l6.048-22.572c1.43-5.335-1.736-10.818-7.071-12.248c-5.335-1.429-10.819,1.736-12.248,7.071l-12.34,46.063
	c-1.43,5.335,1.736,10.818,7.071,12.248l46.064,12.343c0.867,0.232,1.738,0.343,2.595,0.343c4.415,0,8.456-2.947,9.653-7.414
	c1.43-5.335-1.736-10.818-7.071-12.248l-22.919-6.141l83.563-48.246L251,483.658c1.547,0.893,3.273,1.34,5,1.34
	c1.727,0,3.453-0.447,5-1.34l131.701-76.037l83.563,48.246l-22.919,6.141c-5.334,1.429-8.5,6.913-7.071,12.248
	c1.197,4.468,5.237,7.414,9.653,7.414c0.856,0,1.728-0.111,2.595-0.343l46.064-12.343
	C509.92,467.553,513.086,462.07,511.657,456.735z M256.001,211.871c5.523,0,10-4.477,10-10v-25.4l106.772,61.645L266.001,299.83
	v-12.868c0-5.523-4.477-10-10-10c-5.523,0-10,4.477-10,10v12.868l-106.772-61.713l106.772-61.645v25.4
	C246.001,207.394,250.478,211.871,256.001,211.871z M266.001,457.678V334.394l11.401,6.582c1.575,0.909,3.294,1.341,4.991,1.341
	c3.456,0,6.817-1.793,8.669-5.001c2.762-4.783,1.123-10.899-3.66-13.66l-11.336-6.545l106.702-61.673v123.277l-5.02-2.898
	c-4.784-2.76-10.898-1.122-13.66,3.66c-2.762,4.783-1.123,10.899,3.66,13.66l3.868,2.233c0.297,0.219,0.606,0.426,0.933,0.615
	l0.153,0.088L266.001,457.678z"/>
<g>
</g>
<g>
</g>
<g>
</g>
<g>
</g>
<g>
</g>
<g>
</g>
<g>
</g>
<g>
</g>
<g>
</g>
<g>
</g>
<g>
</g>
<g>
</g>
<g>
</g>
<g>
</g>
<g>
</g>
</svg>
