<?xml version="1.0"?>
<svg xmlns="http://www.w3.org/2000/svg" xmlns:xlink="http://www.w3.org/1999/xlink" version="1.1" id="Capa_1" x="0px" y="0px" viewBox="0 0 384 384" style="enable-background:new 0 0 384 384;" xml:space="preserve" width="512px" height="512px" class=""><g><path style="fill:#4D5578" d="M368,112v200c0,17.68-14.32,32-32,32H48c-17.68,0-32-14.32-32-32V48c0-17.68,14.32-32,32-32h60.24  c12.08,0,23.2,6.88,28.64,17.68L160,80h176C353.68,80,368,94.32,368,112z" data-original="#4DD0E1" class="" data-old_color="#4DD0E1"/><path style="fill:#FF7043;" d="M368,112v40H16V48c0-17.672,14.328-32,32-32h60.24c12.08,0,23.2,6.88,28.64,17.68L160,80h176  C353.672,80,368,94.328,368,112z" data-original="#FF7043" class=""/><g>
	<path style="fill:#000002" d="M336,64H169.896l-18.728-37.52C143.064,10.392,126.208,0,108.24,0H48C21.528,0,0,21.528,0,48v264   c0,26.472,21.528,48,48,48h40c8.832,0,16-7.168,16-16s-7.168-16-16-16H48c-8.824,0-16-7.176-16-16V168h272c8.832,0,16-7.168,16-16   s-7.168-16-16-16H32V48c0-8.824,7.176-16,16-16h60.24c6,0,11.632,3.488,14.328,8.824l23.12,46.32C148.392,92.568,153.936,96,160,96   h176c8.824,0,16,7.176,16,16v200c0,8.824-7.176,16-16,16h-39.52c-8.832,0-16,7.168-16,16s7.168,16,16,16H336   c26.472,0,48-21.528,48-48V112C384,85.528,362.472,64,336,64z" data-original="#012E52" class="active-path" data-old_color="#000003"/>
	<path style="fill:#000002" d="M192,200c-8.832,0-16,7.168-16,16v113.376l-20.688-20.688c-6.248-6.248-16.376-6.248-22.624,0   c-6.248,6.248-6.248,16.376,0,22.624l48,48C183.816,382.44,187.904,384,192,384c4.096,0,8.184-1.56,11.312-4.688l48-48   c6.248-6.248,6.248-16.376,0-22.624s-16.376-6.248-22.624,0L208,329.376V216C208,207.168,200.832,200,192,200z" data-original="#012E52" class="active-path" data-old_color="#000003"/>
</g></g> </svg>
