<?xml version="1.0" encoding="iso-8859-1"?>
<!-- Generator: Adobe Illustrator 19.0.0, SVG Export Plug-In . SVG Version: 6.00 Build 0)  -->
<svg version="1.1" id="Capa_1" xmlns="http://www.w3.org/2000/svg" xmlns:xlink="http://www.w3.org/1999/xlink" x="0px" y="0px"
	 viewBox="0 0 512 512" style="enable-background:new 0 0 512 512;" xml:space="preserve">
<rect x="194.01" y="462" style="fill:#7D9BFF;" width="178.05" height="40"/>
<rect x="243.04" y="408" style="fill:#EDF2FA;" width="80" height="53.996"/>
<rect x="62.13" y="350.01" style="fill:#99BBFF;" width="439.87" height="57.99"/>
<rect x="62.13" y="95" style="fill:#C9F3FF;" width="439.87" height="255.01"/>
<polygon style="fill:#B3B6C3;" points="121.115,10 10.115,71.5 10.115,194.499 121.115,255.999 232.115,194.499 232.115,71.5 "/>
<polygon style="fill:#D8D8E4;" points="10.115,194.503 121,255.939 121,133.003 10.115,71.567 "/>
<polygon style="fill:#EDF2FA;" points="10.057,71.499 121.057,132.999 232.057,71.499 121.057,10 "/>
<path d="M502,84.998H242V71.5c0-3.633-1.971-6.98-5.147-8.743L206.45,45.882c-4.827-2.681-10.916-0.939-13.596,3.891
	c-2.681,4.829-0.938,10.916,3.891,13.596l14.635,8.123L121,121.567L30.634,71.5l90.372-50.07l14.128,7.81
	c4.833,2.672,10.918,0.919,13.59-3.914s0.92-10.918-3.914-13.59L125.838,1.248c-3.014-1.664-6.671-1.663-9.685,0.005l-111,61.5
	C1.974,64.514,0,67.864,0,71.5v123c0,3.636,1.974,6.985,5.153,8.747l111,61.5C117.661,265.582,119.33,266,121,266
	s3.339-0.418,4.847-1.253l111-61.5c3.18-1.762,5.153-5.111,5.153-8.747v-89.502h250v235H74v-70.002c0-5.522-4.478-10-10-10
	s-10,4.478-10,10V408c0,5.522,4.478,10,10,10h168.964v33.996h-39.025c-5.522,0-10,4.478-10,10V502c0,5.522,4.478,10,10,10h178.05
	c5.522,0,10-4.478,10-10v-40.004c0-5.522-4.478-10-10-10h-39.024V418H502c5.522,0,10-4.478,10-10V94.998
	C512,89.475,507.522,84.998,502,84.998z M20,88.473l91,50.419v100.135l-91-50.418V88.473z M131,239.025V138.891l91-50.419v100.135
	L131,239.025z M361.988,492h-158.05v-20.004h158.05V492z M312.964,451.996h-60V418h60V451.996z M74,398v-38.002h418V398H74z"/>
<path d="M282.06,369c-2.63,0-5.2,1.069-7.069,2.93c-1.86,1.87-2.931,4.44-2.931,7.07c0,2.64,1.07,5.21,2.931,7.08
	c1.869,1.859,4.439,2.93,7.069,2.93c2.641,0,5.221-1.07,7.07-2.93c1.87-1.87,2.93-4.44,2.93-7.08c0-2.63-1.06-5.21-2.93-7.07
	C287.28,370.069,284.7,369,282.06,369z"/>
<path d="M172.26,48.398c2.63,0,5.2-1.069,7.07-2.93c1.859-1.87,2.93-4.439,2.93-7.07c0-2.63-1.07-5.21-2.93-7.069
	c-1.87-1.86-4.44-2.931-7.07-2.931s-5.21,1.07-7.08,2.931c-1.86,1.859-2.92,4.43-2.92,7.069c0,2.631,1.06,5.21,2.92,7.07
	C167.05,47.33,169.62,48.398,172.26,48.398z"/>
<path style="fill:#FE8F8D;" d="M420.043,246.503L420.043,246.503c-11.046,0-20-8.954-20-20v-8c0-11.046,8.954-20,20-20l0,0
	c11.046,0,20,8.954,20,20v8C440.043,237.548,431.089,246.503,420.043,246.503z"/>
<path style="fill:#4DBAF6;" d="M348.066,302.01L348.066,302.01c-11.046,0-20-8.954-20-20v-8c0-11.046,8.954-20,20-20l0,0
	c11.046,0,20,8.954,20,20v8C368.066,293.055,359.111,302.01,348.066,302.01z"/>
<path style="fill:#FEDA9B;" d="M348.066,190.009L348.066,190.009c-11.046,0-20-8.954-20-20v-8c0-11.046,8.954-20,20-20l0,0
	c11.046,0,20,8.954,20,20v8C368.066,181.054,359.111,190.009,348.066,190.009z"/>
<path d="M458.99,268.009h-81.528c-2.788-13.677-14.909-24-29.396-24s-26.609,10.323-29.396,24h-49.002c-5.522,0-10,4.478-10,10
	s4.478,10,10,10h49.002c2.787,13.677,14.908,24,29.396,24s26.609-10.323,29.396-24h81.528c5.522,0,10-4.478,10-10
	S464.513,268.009,458.99,268.009z M358.065,282.009c0,5.514-4.486,10-10,10s-10-4.486-10-10v-8c0-5.514,4.486-10,10-10
	s10,4.486,10,10V282.009z"/>
<path d="M458.99,212.008h-9.551c-2.788-13.677-14.909-24-29.396-24s-26.609,10.323-29.396,24h-120.98c-5.522,0-10,4.478-10,10
	s4.478,10,10,10h120.979c2.788,13.677,14.909,24,29.396,24s26.609-10.323,29.396-24h9.551c5.522,0,10-4.478,10-10
	S464.513,212.008,458.99,212.008z M430.043,226.008c0,5.514-4.486,10-10,10s-10-4.486-10-10v-8c0-5.514,4.486-10,10-10
	s10,4.486,10,10V226.008z"/>
<path d="M269.667,176.008h49.002c2.787,13.677,14.908,24,29.396,24s26.609-10.323,29.396-24h81.528c5.522,0,10-4.478,10-10
	s-4.478-10-10-10h-81.528c-2.788-13.677-14.909-24-29.396-24s-26.609,10.323-29.396,24h-49.002c-5.522,0-10,4.478-10,10
	S264.145,176.008,269.667,176.008z M338.065,162.008c0-5.514,4.486-10,10-10s10,4.486,10,10v8c0,5.514-4.486,10-10,10
	s-10-4.486-10-10V162.008z"/>
<g>
</g>
<g>
</g>
<g>
</g>
<g>
</g>
<g>
</g>
<g>
</g>
<g>
</g>
<g>
</g>
<g>
</g>
<g>
</g>
<g>
</g>
<g>
</g>
<g>
</g>
<g>
</g>
<g>
</g>
</svg>
