<?xml version="1.0" encoding="iso-8859-1"?>
<!-- Generator: Adobe Illustrator 19.0.0, SVG Export Plug-In . SVG Version: 6.00 Build 0)  -->
<svg version="1.1" id="Capa_1" xmlns="http://www.w3.org/2000/svg" xmlns:xlink="http://www.w3.org/1999/xlink" x="0px" y="0px"
	 viewBox="0 0 512 512" style="enable-background:new 0 0 512 512;" xml:space="preserve">
<rect x="10" y="10" style="fill:#99BBFF;" width="492" height="368"/>
<rect x="10" y="10" style="fill:#FFFFFF;" width="492" height="296.17"/>
<rect x="207" y="378.17" style="fill:#EDF2FA;" width="96" height="83.77"/>
<rect x="154.67" y="461.94" style="fill:#7D9BFF;" width="202.67" height="40.06"/>
<polygon style="fill:#FE8F8D;" points="186.852,50 118.013,145.053 254.692,145.053 "/>
<rect x="118.01" y="145.05" style="fill:#D8D8E4;" width="136.68" height="121.95"/>
<rect x="165.85" y="191" style="fill:#FFFFFF;" width="41" height="76"/>
<g>
	<circle style="fill:#ADE5FF;" cx="254.69" cy="145.05" r="20"/>
	<circle style="fill:#ADE5FF;" cx="118.01" cy="145.05" r="20"/>
	<circle style="fill:#ADE5FF;" cx="118.01" cy="267" r="20"/>
	<circle style="fill:#ADE5FF;" cx="254.69" cy="267" r="20"/>
	<circle style="fill:#ADE5FF;" cx="186.85" cy="50" r="20"/>
</g>
<polygon style="fill:#4DBAF6;" points="414.154,251.199 377.883,214.928 404.409,188.401 281.741,155.533 314.61,278.201 
	341.113,251.697 377.384,287.968 "/>
<path d="M502,0H10C4.478,0,0,4.477,0,10v368c0,5.523,4.478,10,10,10h48.621c5.522,0,10-4.477,10-10s-4.478-10-10-10H20v-51.833h472
	V368H132.899c-5.522,0-10,4.477-10,10s4.478,10,10,10H197v63.938h-42.333c-5.522,0-10,4.477-10,10V502c0,5.523,4.478,10,10,10
	h202.666c5.522,0,10-4.477,10-10v-40.063c0-5.523-4.478-10-10-10H313V388h189c5.522,0,10-4.477,10-10V10C512,4.477,507.522,0,502,0z
	 M347.333,492H164.667v-20.063h182.666V492z M293,451.938h-76V388h76V451.938z M186.853,60c-5.514,0-10-4.486-10-10s4.486-10,10-10
	s10,4.486,10,10S192.366,60,186.853,60z M177.633,78.545c2.906,0.941,6.003,1.455,9.219,1.455c2.915,0,5.731-0.426,8.398-1.205
	l34.903,49.03c-1.556,2.21-2.823,4.636-3.742,7.227h-80.119c-0.919-2.591-2.185-5.017-3.741-7.227L177.633,78.545z M274.589,167.478
	l30.362,113.311c0.925,3.451,3.62,6.146,7.071,7.071c3.452,0.926,7.133-0.063,9.659-2.588l19.432-19.432l29.199,29.2
	c0.42,0.42,0.878,0.792,1.359,1.127H261.693c13.175-3.163,22.998-15.036,22.998-29.167c0-13.053-8.382-24.179-20.044-28.295
	c0.025-0.288,0.044-0.577,0.044-0.872v-64.501C268.373,172.027,271.725,170.022,274.589,167.478z M370.812,221.999l29.2,29.2
	l-22.628,22.627l-29.199-29.2c-1.876-1.875-4.419-2.929-7.071-2.929s-5.195,1.054-7.071,2.929l-14.255,14.255l-23.903-89.207
	l89.207,23.903l-14.279,14.279C366.906,211.762,366.906,218.093,370.812,221.999z M226.412,257h-50.059v-56h20v21.79
	c0,5.523,4.478,10,10,10s10-4.477,10-10V191c0-5.523-4.478-10-10-10h-40c-5.522,0-10,4.477-10,10v66h-10.06
	c-3.023-8.524-9.794-15.284-18.324-18.295c0.025-0.288,0.044-0.577,0.044-0.872v-64.501c8.509-3.018,15.262-9.771,18.28-18.28
	h80.119c3.018,8.509,9.771,15.262,18.28,18.28v64.501c0,0.294,0.019,0.584,0.044,0.872C236.206,241.716,229.435,248.476,226.412,257
	z M254.691,257c5.514,0,10,4.486,10,10s-4.486,10-10,10s-10-4.486-10-10S249.178,257,254.691,257z M254.691,155.053
	c-5.514,0-10-4.486-10-10s4.486-10,10-10s10,4.486,10,10S260.205,155.053,254.691,155.053z M128.013,145.053c0,5.514-4.486,10-10,10
	s-10-4.486-10-10s4.486-10,10-10S128.013,139.539,128.013,145.053z M118.013,257c5.514,0,10,4.486,10,10s-4.486,10-10,10
	s-10-4.486-10-10S112.499,257,118.013,257z M146.292,277h80.119c3.365,9.486,11.372,16.788,21.278,19.167H125.015
	C134.921,293.788,142.928,286.486,146.292,277z M383.096,296.167c0.481-0.335,0.939-0.707,1.359-1.127l36.77-36.77
	c3.905-3.905,3.905-10.237,0-14.142l-29.199-29.2l19.455-19.455c2.526-2.526,3.513-6.208,2.588-9.66
	c-0.925-3.451-3.62-6.146-7.071-7.071l-122.329-32.778c0.009-0.304,0.023-0.606,0.023-0.912c0-16.542-13.458-30-30-30
	c-2.862,0-5.629,0.411-8.252,1.164l-34.961-49.112c3.383-4.856,5.375-10.751,5.375-17.105c0-16.542-13.458-30-30-30
	s-30,13.458-30,30c0,6.043,1.802,11.67,4.888,16.384l-35.475,49.833c-2.624-0.752-5.391-1.164-8.253-1.164
	c-16.542,0-30,13.458-30,30c0,13.036,8.361,24.152,20,28.28v64.501c0,0.294,0.019,0.584,0.044,0.872
	C96.395,242.821,88.013,253.947,88.013,267c0,14.131,9.823,26.003,22.998,29.167H20V20h166.853H492v276.167H383.096z"/>
<path d="M95.76,368c-2.63,0-5.21,1.07-7.07,2.93c-1.859,1.86-2.93,4.44-2.93,7.07s1.07,5.21,2.93,7.07
	c1.86,1.86,4.44,2.93,7.07,2.93s5.21-1.07,7.07-2.93c1.859-1.86,2.93-4.44,2.93-7.07s-1.07-5.21-2.93-7.07
	C100.97,369.07,98.39,368,95.76,368z"/>
<path d="M263.069,349.22c1.86-1.86,2.931-4.43,2.931-7.07c0-2.63-1.07-5.21-2.931-7.07c-1.859-1.86-4.439-2.93-7.069-2.93
	s-5.21,1.07-7.07,2.93s-2.93,4.44-2.93,7.07c0,2.64,1.069,5.21,2.93,7.07c1.86,1.87,4.44,2.93,7.07,2.93
	S261.21,351.09,263.069,349.22z"/>
<g>
</g>
<g>
</g>
<g>
</g>
<g>
</g>
<g>
</g>
<g>
</g>
<g>
</g>
<g>
</g>
<g>
</g>
<g>
</g>
<g>
</g>
<g>
</g>
<g>
</g>
<g>
</g>
<g>
</g>
</svg>
