<?xml version="1.0" encoding="iso-8859-1"?>
<!-- Generator: Adobe Illustrator 19.0.0, SVG Export Plug-In . SVG Version: 6.00 Build 0)  -->
<svg version="1.1" id="Capa_1" xmlns="http://www.w3.org/2000/svg" xmlns:xlink="http://www.w3.org/1999/xlink" x="0px" y="0px"
	 viewBox="0 0 480 480" style="enable-background:new 0 0 480 480;" xml:space="preserve">
<path style="fill:#EBE5DD;" d="M59.314,351.314L136,428h64l56-56L136,252l-76.686,76.686
	C53.065,334.935,53.065,345.065,59.314,351.314z"/>
<polyline style="fill:#5AAAE7;" points="280,188 240,148 136,252 256,372 360,268 320,228 "/>
<g>
	<rect x="232" y="420" style="fill:#A38563;" width="248" height="16"/>
	<rect y="420" style="fill:#A38563;" width="104" height="16"/>
</g>
<path style="fill:#FFB398;" d="M192,180v-72h104v56l-30.059,30.059c-18.745,18.745-18.745,49.137,0,67.882L280,276l80-80l0,0h88V52
	H144v160h16C177.673,212,192,197.673,192,180z"/>
<g>
	
		<rect x="206.057" y="300.003" transform="matrix(-0.7071 0.7071 -0.7071 -0.7071 627.4921 356.0898)" style="fill:#1E81CE;" width="67.88" height="16"/>
	
		<rect x="154.773" y="243.998" transform="matrix(-0.7071 0.7071 -0.7071 -0.7071 519.6616 288.7454)" style="fill:#1E81CE;" width="90.512" height="16"/>
</g>
<g>
	<rect x="320" y="356" style="fill:#D4C8B8;" width="16" height="16"/>
	<rect x="352" y="324" style="fill:#D4C8B8;" width="16" height="16"/>
	<rect x="416" y="324" style="fill:#D4C8B8;" width="16" height="16"/>
	<rect x="352" y="388" style="fill:#D4C8B8;" width="16" height="16"/>
	<rect x="416" y="388" style="fill:#D4C8B8;" width="16" height="16"/>
	<rect x="288" y="388" style="fill:#D4C8B8;" width="16" height="16"/>
	<rect x="384" y="356" style="fill:#D4C8B8;" width="16" height="16"/>
	<rect x="416" y="260" style="fill:#D4C8B8;" width="16" height="16"/>
	<rect x="384" y="292" style="fill:#D4C8B8;" width="16" height="16"/>
</g>
<g>
	<path style="fill:#FE946F;" d="M168,84v24v104c13.255,0,24-10.745,24-24v-80h104V84H168z"/>
	<polygon style="fill:#FE946F;" points="280,276 264,260 360,164 448,164 448,196 360,196 	"/>
</g>
<path style="fill:#D4C8B8;" d="M72,316l80,80h32l48-48l24,24l-56,56h-64l-76.686-76.686c-6.248-6.248-6.248-16.379,0-22.627L72,316z
	"/>
<rect x="222.464" y="291.03" transform="matrix(-0.7071 0.7071 -0.7071 -0.7071 723.1006 316.4854)" style="fill:#1E81CE;" width="147.081" height="33.944"/>
<g>
	
		<rect x="100.707" y="307.999" transform="matrix(-0.7071 0.7071 -0.7071 -0.7071 414.6734 460.2344)" style="fill:#FFFFFF;" width="22.624" height="16"/>
	
		<rect x="122.763" y="252.003" transform="matrix(-0.7071 0.7071 -0.7071 -0.7071 470.676 325.0447)" style="fill:#FFFFFF;" width="90.512" height="16"/>
</g>
<path d="M365.656,273.656c3.125-3.125,3.125-8.188,0-11.313L335.313,232l28-28H448c4.422,0,8-3.582,8-8V52c0-4.418-3.578-8-8-8H144
	c-4.422,0-8,3.582-8,8v160c0,4.418,3.578,8,8,8h12.688l-26.344,26.344l-76.688,76.684c-4.531,4.535-7.031,10.563-7.031,16.973
	s2.5,12.438,7.031,16.969l76.688,76.688c1.5,1.5,3.531,2.344,5.656,2.344h64c2.125,0,4.156-0.844,5.656-2.344l56-56L365.656,273.656
	z M152,60h288v128h-80c-2.125,0-4.156,0.844-5.656,2.344L280,264.688l-8.406-8.402c-15.594-15.598-15.594-40.973,0-56.57
	l30.063-30.059c1.5-1.5,2.344-3.535,2.344-5.656v-56c0-4.418-3.578-8-8-8H192c-4.422,0-8,3.582-8,8v72c0,13.234-10.766,24-24,24h-8
	V60z M200,116h88v44.688l-12.001,11.999l-30.343-30.343c-3.125-3.125-8.188-3.125-11.313,0L200,176.688V116z M240,159.313
	l24.686,24.686l-4.405,4.404c-21.828,21.836-21.828,57.359,0,79.195l14.063,14.059c1.563,1.563,3.609,2.344,5.656,2.344
	s4.094-0.781,5.656-2.344L324,243.313L348.688,268L256,360.688L227.313,332l42.344-42.344l-11.313-11.313L216,320.688L179.313,284
	l58.344-58.344l-11.313-11.313L168,272.688L147.313,252L240,159.313z M196.688,420h-57.375l-74.344-74.344c0,0,0,0,0-0.004
	c-1.516-1.508-2.344-3.516-2.344-5.652s0.828-4.145,2.344-5.656L136,263.313L244.688,372L196.688,420z"/>
<rect x="232" y="420" width="248" height="16"/>
<rect y="420" width="104" height="16"/>
<rect x="320" y="356" width="16" height="16"/>
<rect x="352" y="324" width="16" height="16"/>
<rect x="416" y="324" width="16" height="16"/>
<rect x="352" y="388" width="16" height="16"/>
<rect x="416" y="388" width="16" height="16"/>
<rect x="288" y="388" width="16" height="16"/>
<rect x="384" y="356" width="16" height="16"/>
<rect x="416" y="260" width="16" height="16"/>
<rect x="384" y="292" width="16" height="16"/>
<g>
</g>
<g>
</g>
<g>
</g>
<g>
</g>
<g>
</g>
<g>
</g>
<g>
</g>
<g>
</g>
<g>
</g>
<g>
</g>
<g>
</g>
<g>
</g>
<g>
</g>
<g>
</g>
<g>
</g>
</svg>
