<?xml version="1.0" encoding="iso-8859-1"?>
<!-- Generator: Adobe Illustrator 19.0.0, SVG Export Plug-In . SVG Version: 6.00 Build 0)  -->
<svg version="1.1" id="Capa_1" xmlns="http://www.w3.org/2000/svg" xmlns:xlink="http://www.w3.org/1999/xlink" x="0px" y="0px"
	 viewBox="0 0 480 480" style="enable-background:new 0 0 480 480;" xml:space="preserve">
<circle style="fill:#F7EC2F;" cx="240" cy="240" r="232"/>
<path style="fill:#ED4720;" d="M240,160l-80,64h32v80h96v-80h32L240,160z"/>
<path d="M240,0C107.664,0,0,107.664,0,240s107.664,240,240,240s240-107.664,240-240S372.336,0,240,0z M240,464
	C116.488,464,16,363.512,16,240S116.488,16,240,16s224,100.488,224,224S363.512,464,240,464z"/>
<path d="M327.544,226.648c1.128-3.208,0.104-6.776-2.544-8.896l-37-29.6V152h-16v23.352l-27-21.6c-2.92-2.336-7.08-2.336-10,0
	l-80,64c-2.648,2.12-3.672,5.688-2.544,8.896S156.6,232,160,232h24v72c0,4.416,3.576,8,8,8h96c4.424,0,8-3.584,8-8v-72h24
	C323.4,232,326.424,229.856,327.544,226.648z M280,224v72h-80v-72c0-4.416-3.576-8-8-8h-9.192L240,170.248L297.192,216H288
	C283.576,216,280,219.584,280,224L280,224z"/>
<path d="M317.656,173.656l59.152-59.152l-3.504,31.52l15.904,1.768l5.656-50.912c0.264-2.416-0.576-4.824-2.296-6.536
	c-1.72-1.72-4.136-2.584-6.536-2.296l-50.912,5.656l1.768,15.896l24.976-2.776l-55.512,55.512L317.656,173.656z"/>
<path d="M161.144,306.344l-54.52,54.52l2.992-26.888l-15.904-1.768l-5.656,50.912c-0.264,2.416,0.576,4.824,2.296,6.536
	C91.848,391.168,93.888,392,96,392c0.296,0,0.584-0.016,0.88-0.048l50.912-5.656l-1.768-15.896l-29.608,3.288l56.024-56.024
	L161.144,306.344z"/>
<path d="M136.232,248v-16H62.808L85,214.248l-10-12.496l-40,32c-1.896,1.52-3,3.816-3,6.248s1.104,4.728,3,6.248l40,32l10-12.496
	L62.808,248L136.232,248z"/>
<path d="M248,417.192V328h-16v89.192L214.248,395l-12.496,9.992l32,40c1.52,1.904,3.816,3.008,6.248,3.008s4.728-1.104,6.248-3
	l32-40l-12.496-9.992L248,417.192z"/>
<path d="M370.392,336.88l2.776,24.968l-55.512-55.512l-11.312,11.312l59.152,59.152l-31.528-3.504l-1.768,15.896l50.912,5.656
	c0.296,0.032,0.584,0.048,0.88,0.048c2.112,0,4.152-0.832,5.656-2.344c1.72-1.72,2.56-4.128,2.296-6.536l-5.656-50.912
	L370.392,336.88z"/>
<path d="M445,233.752l-40-32l-10,12.496L417.192,232H344v16h73.192L395,265.752l10,12.496l40-32c1.896-1.52,3-3.816,3-6.248
	S446.896,235.272,445,233.752L445,233.752z"/>
<path d="M232,62.808V136h16V62.808L265.752,85l12.496-9.992l-32-40c-3.048-3.8-9.456-3.8-12.496,0l-32,40L214.248,85L232,62.808z"/>
<path d="M109.608,143.12l-2.776-24.968l55.512,55.512l11.312-11.312L114.504,103.2l31.528,3.504l1.768-15.896l-50.912-5.656
	c-2.416-0.288-4.824,0.576-6.536,2.296s-2.56,4.128-2.296,6.536l5.656,50.912L109.608,143.12z"/>
<g>
</g>
<g>
</g>
<g>
</g>
<g>
</g>
<g>
</g>
<g>
</g>
<g>
</g>
<g>
</g>
<g>
</g>
<g>
</g>
<g>
</g>
<g>
</g>
<g>
</g>
<g>
</g>
<g>
</g>
</svg>
