<?xml version="1.0" encoding="iso-8859-1"?>
<!-- Generator: Adobe Illustrator 19.0.0, SVG Export Plug-In . SVG Version: 6.00 Build 0)  -->
<svg version="1.1" id="Capa_1" xmlns="http://www.w3.org/2000/svg" xmlns:xlink="http://www.w3.org/1999/xlink" x="0px" y="0px"
	 viewBox="0 0 512 512" style="enable-background:new 0 0 512 512;" xml:space="preserve">
<g>
	<circle style="fill:#79E59B;" cx="445.489" cy="40" r="30"/>
	<path style="fill:#79E59B;" d="M415.438,152.51h0.01c34.53,8.87,60.04,40.2,60.04,77.49c0,44.18-35.82,80-80,80s-80-35.82-80-80
		c-44.18,0-80-35.82-80-80c0-11.05-8.95-20-20-20h-39.37v-0.62l-0.63-19.38c0-33.14,26.86-60,60-60c7.19,0,13.99,1.47,20.38,3.79
		c-0.12-1.26-0.38-2.49-0.38-3.79c0-22.09,17.91-40,40-40s40,17.91,40,40c0,7.5-2.18,14.44-5.79,20.2
		c24.37-1.71,46.63,7.5,62.36,23.23c14.48,14.48,23.43,34.48,23.43,56.57C415.488,150.84,415.478,151.68,415.438,152.51z"/>
	<path style="fill:#79E59B;" d="M312.638,473.72c6.02,13.25-3.66,28.28-18.21,28.28H56.548c-14.55,0-24.23-15.03-18.21-28.28
		l74.66-151.96l0.49,0.24h124l0.49-0.24L312.638,473.72z"/>
</g>
<g>
	<path style="fill:#D4E9FF;" d="M135.488,170c-11.05,0-20-8.95-20-20c0-11.04,8.96-20,20-20c4.394,0,75.586,0,80,0
		c11.05,0,20,8.95,20,20c0,11.04-8.96,20-20,20v106l22.49,45.76l-0.49,0.24h-124l-0.49-0.24l22.49-45.76V170z"/>
	<path style="fill:#D4E9FF;" d="M175.488,362c11.05,0,20,8.95,20,20s-8.95,20-20,20s-20-8.95-20-20S164.438,362,175.488,362z"/>
</g>
<path d="M355.488,140c5.52,0,10-4.48,10-10c0-5.52-4.48-10-10-10s-10,4.48-10,10S349.968,140,355.488,140z"/>
<path d="M315.488,180c5.52,0,10-4.48,10-10c0-5.52-4.48-10-10-10s-10,4.48-10,10C305.488,175.52,309.968,180,315.488,180z"/>
<path d="M275.488,120c5.52,0,10-4.48,10-10s-4.48-10-10-10s-10,4.48-10,10S269.968,120,275.488,120z"/>
<path d="M235.488,472c5.52,0,10-4.48,10-10s-4.48-10-10-10s-10,4.48-10,10S229.968,472,235.488,472z"/>
<path d="M56.547,512h237.881c21.831,0,36.333-22.563,27.314-42.416c-0.042-0.092-0.085-0.183-0.129-0.273
	c-0.075-0.152-96.05-195.482-96.126-195.635v-95.379c1.379-0.487,2.721-1.074,4.015-1.76c10.451,33.795,40.294,59.153,76.483,62.966
	C310.745,284.68,349.069,320,395.488,320c49.626,0,90-40.374,90-90c0-38.506-24.371-72.394-60.141-84.928
	c-1.19-22.188-10.387-42.881-26.217-58.713c-14.805-14.804-34.194-23.862-54.784-25.912c0.757-3.409,1.143-6.911,1.143-10.447
	c0-27.57-22.43-50-50-50c-24.474,0-44.897,17.675-49.176,40.93c-3.645-0.619-7.26-0.93-10.824-0.93c-38.598,0-70,31.402-70,70
	c0,0.108,0.002,0.217,0.005,0.325l0.314,9.675h-30.319c-16.575,0-30,13.424-30,30c0,13.036,8.361,24.152,20,28.28v95.396
	c-0.778,1.583-96.058,195.496-96.126,195.635c-0.044,0.09-0.087,0.182-0.129,0.273C20.203,489.462,34.744,512,56.547,512z
	 M185.488,109.845C185.573,82.347,207.97,60,235.488,60c5.506,0,11.056,1.043,16.967,3.19c6.895,2.502,14.064-3.042,13.368-10.349
	C264.008,33.965,278.85,20,295.488,20c16.542,0,30,13.458,30,30c0,5.291-1.475,10.439-4.264,14.89
	c-1.998,3.188-2.037,7.229-0.101,10.456c1.937,3.227,5.498,5.087,9.274,4.83c20.35-1.429,40.244,5.98,54.589,20.325
	c27.473,27.473,27.197,71.802,0,98.998c-3.905,3.905-3.905,10.237,0,14.143c3.906,3.905,10.236,3.905,14.143,0
	c13.094-13.094,21.692-29.65,24.914-47.585C448.926,177.141,465.488,202,465.488,230c0,38.598-31.402,70-70,70s-70-31.402-70-70
	c0-5.523-4.478-10-10-10c-38.598,0-70-31.402-70-70c0-16.542-13.458-30-30-30h-29.67L185.488,109.845z M135.488,140h80
	c5.514,0,10,4.486,10,10c0,5.522-4.479,10-10,10h-20c-5.522,0-10,4.477-10,10c0,5.523,4.478,10,10,10h10v96
	c0,1.529,0.351,3.039,1.025,4.411L222.038,312h-93.102l15.526-31.589c0.675-1.372,1.025-2.881,1.025-4.411v-96h10
	c5.522,0,10-4.477,10-10c0-5.523-4.478-10-10-10h-20c-5.514,0-10-4.486-10-10C125.488,144.478,129.967,140,135.488,140z
	 M47.39,477.972L119.108,332h112.759l71.718,145.972c2.91,6.609-1.902,14.028-9.157,14.028H56.547
	C49.297,492,44.478,484.584,47.39,477.972z"/>
<path d="M175.488,412c16.542,0,30-13.458,30-30s-13.458-30-30-30s-30,13.458-30,30S158.946,412,175.488,412z M175.488,372
	c5.514,0,10,4.486,10,10s-4.486,10-10,10s-10-4.486-10-10S169.974,372,175.488,372z"/>
<path d="M445.488,80c22.056,0,40-17.944,40-40s-17.944-40-40-40s-40,17.944-40,40S423.432,80,445.488,80z M445.488,20
	c11.028,0,20,8.972,20,20s-8.972,20-20,20s-20-8.972-20-20S434.459,20,445.488,20z"/>
<path d="M135.488,472h60c5.522,0,10-4.477,10-10s-4.478-10-10-10h-60c-5.522,0-10,4.477-10,10S129.965,472,135.488,472z"/>
<g>
</g>
<g>
</g>
<g>
</g>
<g>
</g>
<g>
</g>
<g>
</g>
<g>
</g>
<g>
</g>
<g>
</g>
<g>
</g>
<g>
</g>
<g>
</g>
<g>
</g>
<g>
</g>
<g>
</g>
</svg>
