<?xml version="1.0"?>
<svg xmlns="http://www.w3.org/2000/svg" xmlns:xlink="http://www.w3.org/1999/xlink" version="1.1" id="Capa_1" x="0px" y="0px" viewBox="0 0 512 512" style="enable-background:new 0 0 512 512;" xml:space="preserve" width="512px" height="512px"><g><g>
	<path d="M256,238.933c-9.412,0-17.067,7.654-17.067,17.067c0,9.412,7.654,17.067,17.067,17.067   c9.412,0,17.067-7.654,17.067-17.067C273.067,246.588,265.412,238.933,256,238.933 M256,290.133   c-18.825,0-34.133-15.309-34.133-34.133c0-18.825,15.309-34.133,34.133-34.133c18.825,0,34.133,15.309,34.133,34.133   C290.133,274.825,274.825,290.133,256,290.133" data-original="#F0C419" class="active-path" data-old_color="#F0C419" fill="#E70000"/>
	<path d="M503.467,153.6c-4.71,0-8.533-3.814-8.533-8.533V85.333H435.2c-4.71,0-8.533-3.814-8.533-8.533   s3.823-8.533,8.533-8.533h68.267c4.71,0,8.533,3.814,8.533,8.533v68.267C512,149.786,508.177,153.6,503.467,153.6" data-original="#F0C419" class="active-path" data-old_color="#F0C419" fill="#E70000"/>
	<path d="M8.533,153.6c-4.71,0-8.533-3.814-8.533-8.533V76.8c0-4.719,3.823-8.533,8.533-8.533H76.8   c4.71,0,8.533,3.814,8.533,8.533s-3.823,8.533-8.533,8.533H17.067v59.733C17.067,149.786,13.244,153.6,8.533,153.6" data-original="#F0C419" class="active-path" data-old_color="#F0C419" fill="#E70000"/>
	<path d="M76.8,443.733H8.533c-4.71,0-8.533-3.814-8.533-8.533v-68.267c0-4.719,3.823-8.533,8.533-8.533   s8.533,3.814,8.533,8.533v59.733H76.8c4.71,0,8.533,3.814,8.533,8.533C85.333,439.919,81.51,443.733,76.8,443.733" data-original="#F0C419" class="active-path" data-old_color="#F0C419" fill="#E70000"/>
	<path d="M503.467,443.733H435.2c-4.71,0-8.533-3.814-8.533-8.533c0-4.719,3.823-8.533,8.533-8.533h59.733   v-59.733c0-4.719,3.823-8.533,8.533-8.533c4.71,0,8.533,3.814,8.533,8.533V435.2C512,439.919,508.177,443.733,503.467,443.733" data-original="#F0C419" class="active-path" data-old_color="#F0C419" fill="#E70000"/>
	<path d="M435.2,375.467h-34.133c-4.71,0-8.533-3.814-8.533-8.533c0-4.719,3.823-8.533,8.533-8.533h25.6   v-25.6c0-4.719,3.823-8.533,8.533-8.533s8.533,3.814,8.533,8.533v34.133C443.733,371.652,439.91,375.467,435.2,375.467" data-original="#F0C419" class="active-path" data-old_color="#F0C419" fill="#E70000"/>
	<path d="M435.2,187.733c-4.71,0-8.533-3.814-8.533-8.533v-25.6h-25.6c-4.71,0-8.533-3.814-8.533-8.533   c0-4.719,3.823-8.533,8.533-8.533H435.2c4.71,0,8.533,3.814,8.533,8.533V179.2C443.733,183.919,439.91,187.733,435.2,187.733" data-original="#F0C419" class="active-path" data-old_color="#F0C419" fill="#E70000"/>
	<path d="M76.8,187.733c-4.71,0-8.533-3.814-8.533-8.533v-34.133c0-4.719,3.823-8.533,8.533-8.533h34.133   c4.71,0,8.533,3.814,8.533,8.533c0,4.719-3.823,8.533-8.533,8.533h-25.6v25.6C85.333,183.919,81.51,187.733,76.8,187.733" data-original="#F0C419" class="active-path" data-old_color="#F0C419" fill="#E70000"/>
	<path d="M110.933,375.467H76.8c-4.71,0-8.533-3.814-8.533-8.533V332.8c0-4.719,3.823-8.533,8.533-8.533   s8.533,3.814,8.533,8.533v25.6h25.6c4.71,0,8.533,3.814,8.533,8.533C119.467,371.652,115.644,375.467,110.933,375.467" data-original="#F0C419" class="active-path" data-old_color="#F0C419" fill="#E70000"/>
	<path d="M256,170.667c-4.71,0-8.533-3.814-8.533-8.533V128c0-4.719,3.823-8.533,8.533-8.533   c4.71,0,8.533,3.814,8.533,8.533v34.133C264.533,166.852,260.71,170.667,256,170.667" data-original="#F0C419" class="active-path" data-old_color="#F0C419" fill="#E70000"/>
	<path d="M256,392.533c-4.71,0-8.533-3.814-8.533-8.533v-34.133c0-4.719,3.823-8.533,8.533-8.533   c4.71,0,8.533,3.814,8.533,8.533V384C264.533,388.719,260.71,392.533,256,392.533" data-original="#F0C419" class="active-path" data-old_color="#F0C419" fill="#E70000"/>
	<path d="M452.267,264.533h-34.133c-4.71,0-8.533-3.814-8.533-8.533c0-4.719,3.823-8.533,8.533-8.533h34.133   c4.71,0,8.533,3.814,8.533,8.533C460.8,260.719,456.977,264.533,452.267,264.533" data-original="#F0C419" class="active-path" data-old_color="#F0C419" fill="#E70000"/>
	<path d="M93.867,264.533H59.733c-4.71,0-8.533-3.814-8.533-8.533c0-4.719,3.823-8.533,8.533-8.533h34.133   c4.71,0,8.533,3.814,8.533,8.533C102.4,260.719,98.577,264.533,93.867,264.533" data-original="#F0C419" class="active-path" data-old_color="#F0C419" fill="#E70000"/>
</g></g> </svg>
