<?xml version="1.0" encoding="iso-8859-1"?>
<!-- Generator: Adobe Illustrator 19.0.0, SVG Export Plug-In . SVG Version: 6.00 Build 0)  -->
<svg version="1.1" id="Capa_1" xmlns="http://www.w3.org/2000/svg" xmlns:xlink="http://www.w3.org/1999/xlink" x="0px" y="0px"
	 viewBox="0 0 512 512" style="enable-background:new 0 0 512 512;" xml:space="preserve">
<polygon style="fill:#FFB954;" points="112.063,118.16 185.208,44 330.333,44 260.779,118 "/>
<path style="fill:#FFC66C;" d="M347.952,30l-87.173,88H50c-22.091,0-40,17.909-40,40v284c0,22.091,17.909,40,40,40h412
	c22.091,0,40-17.909,40-40V30H347.952z"/>
<polygon style="fill:#B3B6C3;" points="319.937,428 375.968,371.968 375.968,179.968 183.968,179.968 127.937,236 "/>
<rect x="127.94" y="236" style="fill:#FFFFFF;" width="192" height="192"/>
<path d="M174,472c-2.63,0-5.21,1.07-7.07,2.93S164,479.37,164,482s1.069,5.21,2.93,7.07S171.37,492,174,492s5.21-1.07,7.069-2.93
	c1.86-1.86,2.931-4.44,2.931-7.07s-1.07-5.21-2.931-7.07C179.21,473.07,176.63,472,174,472z"/>
<path d="M502,20H347.952c-2.669,0-5.227,1.066-7.104,2.962L329.914,34H185.208c-2.676,0-5.24,1.073-7.119,2.978L108.038,108H50
	c-27.57,0-50,22.43-50,50v284c0,27.57,22.43,50,50,50h77.938c5.522,0,10-4.477,10-10s-4.478-10-10-10H50c-16.542,0-30-13.458-30-30
	V158c0-16.542,13.458-30,30-30h60.31c0.58,0.103,1.166,0.16,1.753,0.16c0.584,0,1.167-0.058,1.743-0.16h146.973
	c2.669,0,5.227-1.066,7.104-2.962L352.122,40H492v402c0,16.542-13.458,30-30,30H213c-5.522,0-10,4.477-10,10s4.478,10,10,10h249
	c27.57,0,50-22.43,50-50V30C512,24.477,507.522,20,502,20z M256.609,108H136.128l53.262-54h120.711L256.609,108z"/>
<path d="M454,289.46c-5.522,0-10,4.477-10,10v0.297c0,5.523,4.478,10,10,10s10-4.477,10-10v-0.297
	C464,293.938,459.522,289.46,454,289.46z"/>
<path d="M454.001,335.667c-5.522,0-10,4.477-10,10v76.846c0,5.523,4.478,10,10,10s10-4.477,10-10v-76.846
	C464.001,340.144,459.523,335.667,454.001,335.667z"/>
<path d="M191.753,312.742l11.673-11.672c2.859-2.86,3.715-7.162,2.168-10.898c-1.548-3.737-5.194-6.173-9.239-6.173h-32.832
	c-5.522,0-10,4.477-10,10s4.478,10,10,10h8.689l-10.933,10.933c-2.859,2.86-3.715,7.162-2.168,10.898
	c1.548,3.737,5.194,6.173,9.239,6.173h16.332c7.719,0,13.999,6.28,13.999,13.999s-6.28,13.999-13.999,13.999
	s-13.999-6.28-13.999-13.999c0-5.523-4.478-10-10-10s-10,4.477-10,10c0,18.747,15.252,33.999,33.999,33.999
	s33.999-15.252,33.999-33.999C218.682,329.678,207.119,316.005,191.753,312.742z"/>
<path d="M249.193,284l-10.001-0.001h-0.001c-2.651,0-5.195,1.054-7.07,2.929c-1.876,1.875-2.93,4.419-2.93,7.071v76.002
	c0,5.523,4.478,10,10,10h9.997c26.468,0,48.001-21.533,48.001-48C297.189,305.535,275.658,284.002,249.193,284z M249.191,360.001
	V304c15.438,0.001,27.998,12.563,27.998,28C277.189,347.439,264.63,360,249.191,360.001z"/>
<path d="M117.937,428c0,5.523,4.478,10,10,10h192c0.329,0,0.658-0.017,0.986-0.05c0.15-0.015,0.297-0.043,0.445-0.064
	c0.174-0.025,0.348-0.045,0.521-0.08c0.17-0.034,0.336-0.08,0.503-0.123c0.149-0.038,0.299-0.07,0.446-0.115
	c0.165-0.05,0.324-0.112,0.485-0.17c0.146-0.053,0.294-0.101,0.439-0.161c0.151-0.062,0.295-0.136,0.442-0.205
	c0.149-0.07,0.3-0.136,0.446-0.215c0.139-0.075,0.271-0.159,0.407-0.24c0.145-0.087,0.292-0.169,0.434-0.263
	c0.144-0.096,0.279-0.203,0.417-0.307c0.123-0.092,0.25-0.178,0.37-0.277c0.22-0.181,0.43-0.374,0.634-0.573
	c0.031-0.031,0.066-0.057,0.097-0.088l56.032-56.032c1.875-1.875,2.929-4.419,2.929-7.071v-192c0-5.523-4.478-10-10-10h-192
	c-2.652,0-5.195,1.054-7.071,2.929l-56.032,56.032l0,0c-1.81,1.81-2.929,4.31-2.929,7.071L117.937,428L117.937,428z M137.937,246
	h172v172h-172L137.937,246L137.937,246z M329.937,403.858V240.143l36.032-36.032v163.715L329.937,403.858z M188.111,189.968h163.715
	L315.794,226H152.079L188.111,189.968z"/>
<g>
</g>
<g>
</g>
<g>
</g>
<g>
</g>
<g>
</g>
<g>
</g>
<g>
</g>
<g>
</g>
<g>
</g>
<g>
</g>
<g>
</g>
<g>
</g>
<g>
</g>
<g>
</g>
<g>
</g>
</svg>
