<?xml version="1.0"?>
<svg xmlns="http://www.w3.org/2000/svg" xmlns:xlink="http://www.w3.org/1999/xlink" version="1.1" id="Layer_1" x="0px" y="0px" viewBox="0 0 503.467 503.467" style="enable-background:new 0 0 503.467 503.467;" xml:space="preserve" width="512px" height="512px" class=""><g><g transform="translate(1 1)">
	<path style="fill:#FFFFFF" d="M464.067,105.667H71.533C52.76,105.667,37.4,121.88,37.4,139.8V447c0,0,0,17.067-17.067,17.067   S3.267,447,3.267,447V37.4c0-17.92,15.36-34.133,34.133-34.133h76.8L148.333,37.4H447c18.773,0,34.133,15.36,34.133,34.133v37.547   l-0.853,0.853C476.013,107.373,470.04,105.667,464.067,105.667L464.067,105.667z" data-original="#AAB1BA" class="" data-old_color="#FF5249"/>
	<polygon style="fill:#FF5249" points="156.867,378.733 378.733,378.733 378.733,225.133 156.867,225.133  " data-original="#F2EDDA" class="" data-old_color="#F2EDDA"/>
	<path style="fill:#4D5578" d="M156.867,378.733h221.867v-153.6H156.867V378.733z M20.333,464.067C37.4,464.067,37.4,447,37.4,447   V139.8c0-17.92,15.36-34.133,34.133-34.133h392.533c5.973,0,11.947,1.707,16.213,4.267C490.52,115.907,498.2,127,498.2,139.8   v324.267c0,19.627-15.36,34.133-34.133,34.133H37.4c0,0-17.067,0-17.067-17.067V464.067z" data-original="#FFD0A1" class="" data-old_color="#1B2547"/>
</g><path style="fill:#1" d="M465.067,503.467H38.4c-2.56,0-4.267-1.707-4.267-4.267c0-2.56,1.707-4.267,4.267-4.267h426.667  c17.067,0,29.867-12.8,29.867-29.867V140.8c0-16.213-13.653-29.867-29.867-29.867H72.533c-16.213,0-29.867,13.653-29.867,29.867V448  c0,7.68-4.267,21.333-21.333,21.333S0,455.68,0,448V38.4C0,17.92,17.92,0,38.4,0h76.8c0.853,0,2.56,0.853,3.413,0.853l33.28,33.28  h296.96c20.48,0,38.4,17.92,38.4,38.4V76.8c0,2.56-1.707,4.267-4.267,4.267s-4.267-1.707-4.267-4.267v-4.267  c0-16.213-13.653-29.867-29.867-29.867H150.186c-0.853,0-2.56-0.853-3.413-0.853l-33.28-33.28H38.4  C22.187,8.533,8.533,22.187,8.533,38.4V448c0,1.707,0.853,12.8,12.8,12.8s12.8-11.093,12.8-12.8V140.8c0-20.48,17.92-38.4,38.4-38.4  h392.533c21.333,0,38.4,17.067,38.4,38.4v324.267C503.467,486.4,486.4,503.467,465.067,503.467z M379.733,384H157.867  c-2.56,0-4.267-1.707-4.267-4.267v-153.6c0-2.56,1.707-4.267,4.267-4.267h221.867c2.56,0,4.267,1.707,4.267,4.267v153.6  C384,382.293,382.293,384,379.733,384z M162.133,375.467h213.333V230.4H162.133V375.467z M328.533,332.8H209.067  c-2.56,0-4.267-1.707-4.267-4.267c0-2.56,1.707-4.267,4.267-4.267h119.467c2.56,0,4.267,1.707,4.267,4.267  C332.8,331.093,331.093,332.8,328.533,332.8z M294.4,281.6h-85.333c-2.56,0-4.267-1.707-4.267-4.267s1.707-4.267,4.267-4.267H294.4  c2.56,0,4.267,1.707,4.267,4.267S296.96,281.6,294.4,281.6z M448,76.8H72.533c-2.56,0-4.267-1.707-4.267-4.267  c0-2.56,1.707-4.267,4.267-4.267H448c2.56,0,4.267,1.707,4.267,4.267C452.267,75.093,450.56,76.8,448,76.8z" data-original="#51565F" class="active-path" data-old_color="#000000"/></g> </svg>
