<?xml version="1.0" encoding="iso-8859-1"?>
<!-- Generator: Adobe Illustrator 19.0.0, SVG Export Plug-In . SVG Version: 6.00 Build 0)  -->
<svg version="1.1" id="Capa_1" xmlns="http://www.w3.org/2000/svg" xmlns:xlink="http://www.w3.org/1999/xlink" x="0px" y="0px"
	 viewBox="0 0 512 512" style="enable-background:new 0 0 512 512;" xml:space="preserve">
<path style="fill:#303C42;" d="M256.005,64C139.484,64,36.818,139.844,0.526,252.74c-0.688,2.115-0.688,4.406,0,6.521
	C36.818,372.156,139.484,448,256.005,448s219.188-75.844,255.479-188.74c0.687-2.115,0.687-4.406,0-6.521
	C475.193,139.844,372.526,64,256.005,64z"/>
<path style="fill:#FAFAFA;" d="M256.005,426.667c-106.104,0-199.75-68.438-234.104-170.667
	c34.354-102.229,128-170.667,234.104-170.667S455.755,153.771,490.109,256C455.755,358.229,362.109,426.667,256.005,426.667z"/>
<g>
	<circle style="fill:#303C42;" cx="256" cy="256" r="128"/>
	<circle style="fill:#303C42;" cx="256" cy="256" r="128"/>
</g>
<circle style="fill:#BBDEFB;" cx="256" cy="256" r="106.667"/>
<circle style="opacity:0.4;fill:#FFFFFF;enable-background:new    ;" cx="213.333" cy="202.667" r="32"/>
<linearGradient id="SVGID_1_" gradientUnits="userSpaceOnUse" x1="-34.583" y1="634.3584" x2="-28.3324" y2="628.1129" gradientTransform="matrix(21.3333 0 0 -21.3333 996.3333 13791.667)">
	<stop  offset="0" style="stop-color:#000000;stop-opacity:0.1"/>
	<stop  offset="1" style="stop-color:#000000;stop-opacity:0"/>
</linearGradient>
<path style="fill:url(#SVGID_1_);" d="M350.134,169.526l-0.016,0.014c20.965,22.802,33.887,53.113,33.887,86.46
	c0,70.583-57.417,128-128,128c-33.94,0-64.75-13.367-87.682-34.999l-0.059,0.057l77.184,77.184c3.517,0.151,7.01,0.424,10.557,0.424
	c92.533,0,175.563-52.069,218.082-133.188L350.134,169.526z"/>
<path style="fill:#303C42;" d="M508.875,493.792L18.208,3.125c-4.167-4.167-10.917-4.167-15.083,0s-4.167,10.917,0,15.083
	l490.667,490.667c2.083,2.083,4.813,3.125,7.542,3.125c2.729,0,5.458-1.042,7.542-3.125
	C513.042,504.708,513.042,497.958,508.875,493.792z"/>
<linearGradient id="SVGID_2_" gradientUnits="userSpaceOnUse" x1="-49.0071" y1="641.1545" x2="-20.399" y2="627.8145" gradientTransform="matrix(21.3333 0 0 -21.3333 996.3333 13791.667)">
	<stop  offset="0" style="stop-color:#FFFFFF;stop-opacity:0.2"/>
	<stop  offset="1" style="stop-color:#FFFFFF;stop-opacity:0"/>
</linearGradient>
<path style="fill:url(#SVGID_2_);" d="M508.875,493.792l-96.699-96.699c45.548-33.126,80.945-80.707,99.309-137.832
	c0.687-2.115,0.687-4.406,0-6.521C475.193,139.844,372.526,64,256.005,64c-49.965,0-97.332,14.03-138.06,38.862L18.208,3.125
	c-4.167-4.167-10.917-4.167-15.083,0s-4.167,10.917,0,15.083l96.703,96.703C54.284,148.038,18.889,195.617,0.526,252.74
	c-0.688,2.115-0.688,4.406,0,6.521C36.818,372.156,139.484,448,256.005,448c49.962,0,97.326-14.027,138.053-38.858l99.733,99.733
	c2.083,2.083,4.813,3.125,7.542,3.125c2.729,0,5.458-1.042,7.542-3.125C513.042,504.708,513.042,497.958,508.875,493.792z"/>
<g>
</g>
<g>
</g>
<g>
</g>
<g>
</g>
<g>
</g>
<g>
</g>
<g>
</g>
<g>
</g>
<g>
</g>
<g>
</g>
<g>
</g>
<g>
</g>
<g>
</g>
<g>
</g>
<g>
</g>
</svg>
