<?xml version="1.0"?>
<svg xmlns="http://www.w3.org/2000/svg" height="512px" viewBox="0 -9 464.00994 464" width="512px" class=""><g><path d="m419.964844 368.015625h36.371094v69.609375h-72.75v-69.609375zm0 0" fill="#00acea" data-original="#00ACEA" class="" data-old_color="#00acea" style="fill:#1300EA"/><path d="m419.964844 77.996094h-36.378906v-69.609375h72.75v69.609375zm0 0" fill="#00acea" data-original="#00ACEA" class="" data-old_color="#00acea" style="fill:#1300EA"/><path d="m419.964844 77.996094v290.019531h-36.378906v34.800781h-303.160157v-34.800781h-36.378906v-290.019531h36.378906v-34.800782h303.160157v34.800782zm-61.789063 239.71875v-189.417969h-252.339843v189.417969zm0 0" fill="#00efd1" data-original="#00EFD1" class="active-path" data-old_color="#00efd1" style="fill:#FFFFFF"/><path d="m358.175781 221.644531v96.070313h-252.339843v-43.949219l61.300781-42.589844c10.640625-7.328125 24.847656-6.722656 34.828125 1.480469l39.691406 33.128906c9.207031 7.578125 22.117188 8.742188 32.527344 2.929688zm0 0" fill="#00acea" data-original="#00ACEA" class="" data-old_color="#00acea" style="fill:#1300EA"/><path d="m358.175781 128.296875v93.347656l-83.992187 47.070313c-10.410156 5.8125-23.320313 4.648437-32.527344-2.929688l-39.691406-33.128906c-9.980469-8.203125-24.1875-8.808594-34.828125-1.480469l-61.300781 42.589844v-145.46875zm-101.699219 89.007813c13.308594 0 24.109376-10.320313 24.109376-23.058594 0-12.742188-10.800782-23.050782-24.109376-23.050782-13.3125 0-24.121093 10.320313-24.121093 23.050782 0 12.730468 10.800781 23.058594 24.121093 23.058594zm0 0" fill="#fedb41" data-original="#FEDB41" class=""/><path d="m280.585938 194.246094c0 12.738281-10.800782 23.058594-24.109376 23.058594-13.3125 0-24.121093-10.320313-24.121093-23.058594 0-12.742188 10.800781-23.050782 24.121093-23.050782 13.320313 0 24.109376 10.320313 24.109376 23.050782zm0 0" fill="#fedb41" data-original="#FEDB41" class=""/><path d="m44.046875 368.015625h36.378906v69.609375h-72.75v-69.609375zm0 0" fill="#00acea" data-original="#00ACEA" class="" data-old_color="#00acea" style="fill:#1300EA"/><path d="m80.425781 43.195312v34.800782h-72.75v-69.609375h72.75zm0 0" fill="#00acea" data-original="#00ACEA" class="" data-old_color="#00acea" style="fill:#1300EA"/><g fill="#083863"><path d="m456.335938.00390625h-72.75c-4.417969 0-7.582032 3.96093775-7.582032 8.38281275v26.617187h-288v-26.617187c0-4.421875-3.160156-8.38281275-7.578125-8.38281275h-72.75c-4.417969 0-7.67187475 3.96093775-7.67187475 8.38281275v69.609375c-.07421875 2.085937.69921875 4.117187 2.14453175 5.625 1.445312 1.507812 3.4375 2.367187 5.527343 2.382812h28.328125v274h-28.328125c-2.089843.015625-4.082031.875-5.527343 2.386719-1.445313 1.507813-2.2187505 3.535156-2.14453175 5.625v69.609375c0 4.417969 3.25390575 8.378906 7.67187475 8.378906h72.75c4.417969 0 7.578125-3.960937 7.578125-8.378906v-26.621094h288v26.621094c0 4.417969 3.164063 8.378906 7.582032 8.378906h72.75c4.417968 0 7.667968-3.960937 7.667968-8.378906v-69.609375c.074219-2.089844-.695312-4.117187-2.140625-5.625-1.445312-1.511719-3.4375-2.371094-5.527343-2.386719h-28.332032v-274h28.332032c2.089843-.015625 4.082031-.875 5.527343-2.382812 1.445313-1.507813 2.214844-3.539063 2.140625-5.625v-69.609375c0-4.421875-3.25-8.38281275-7.667968-8.38281275zm-440.332032 15.99999975h56v54h-56zm56 414h-56v-54h56zm376 0h-56v-54h56zm-36-70h-28.417968c-4.417969 0-7.582032 3.59375-7.582032 8.011719v26.988281h-288v-26.988281c0-4.417969-3.160156-8.011719-7.578125-8.011719h-28.421875v-274h28.421875c4.417969 0 7.578125-3.589844 7.578125-8.007812v-26.992188h288v26.992188c0 4.417968 3.164063 8.007812 7.582032 8.007812h28.417968zm36-290h-56v-54h56zm0 0" data-original="#083863" class="" style="fill:#0003F3" data-old_color="#083863"/><path d="m366.003906 128.003906c0-4.417968-3.582031-8-8-8h-252c-4.417968 0-8 3.582032-8 8v189c0 4.417969 3.582032 8 8 8h252c4.417969 0 8-3.582031 8-8zm-16 8v80.953125l-79.800781 44.773438c-7.496094 4.238281-16.828125 3.40625-23.460937-2.085938l-39.714844-33.171875c-12.734375-10.421875-30.820313-11.183594-44.382813-1.867187l-48.640625 33.859375v-122.460938zm-236 174v-32.054687l57.753906-40.1875c7.675782-5.265625 17.90625-4.84375 25.125 1.035156l39.710938 33.164063c11.6875 9.734374 28.179688 11.21875 41.421875 3.734374l71.988281-40.394531v74.703125zm0 0" data-original="#083863" class="" style="fill:#0003F3" data-old_color="#083863"/><path d="m256.476562 225.304688c17.703126 0 32.109376-13.933594 32.109376-31.058594 0-17.128906-14.402344-31.050782-32.109376-31.050782-17.710937 0-32.121093 13.929688-32.121093 31.050782s14.410156 31.058594 32.121093 31.058594zm0-46.109376c8.882813 0 16.109376 6.75 16.109376 15.050782 0 8.296875-7.226563 15.058594-16.109376 15.058594-8.882812 0-16.121093-6.753907-16.121093-15.058594 0-8.304688 7.230469-15.050782 16.121093-15.050782zm0 0" data-original="#083863" class="" style="fill:#0003F3" data-old_color="#083863"/></g></g> </svg>
