<svg height="512pt" viewBox="0 0 512 512" width="512pt" xmlns="http://www.w3.org/2000/svg"><path d="m80 16v96h-32v-96c0-8.832031 7.167969-16 16-16s16 7.167969 16 16zm0 0" fill="#b0b4b9"/><path d="m272 16v96h-32v-96c0-8.832031 7.167969-16 16-16s16 7.167969 16 16zm0 0" fill="#b0b4b9"/><path d="m464 16v96h-32v-96c0-8.832031 7.167969-16 16-16s16 7.167969 16 16zm0 0" fill="#b0b4b9"/><path d="m48 64h32v48h-32zm0 0" fill="#9da2a5"/><path d="m64 352c-35.296875 0-64-28.703125-64-64v-192h128v192c0 35.296875-28.703125 64-64 64zm0 0" fill="#e76e54"/><path d="m240 64h32v48h-32zm0 0" fill="#9da2a5"/><path d="m256 352c-35.296875 0-64-28.703125-64-64v-192h128v192c0 35.296875-28.703125 64-64 64zm0 0" fill="#e76e54"/><path d="m432 64h32v48h-32zm0 0" fill="#9da2a5"/><g fill="#57565c"><path d="m48 336h32v112h-32zm0 0"/><path d="m240 336h32v112h-32zm0 0"/><path d="m432 336h32v112h-32zm0 0"/><path d="m48 480h32v32h-32zm0 0"/></g><path d="m48 128h32v32h-32zm0 0" fill="#fff"/><path d="m240 128h32v32h-32zm0 0" fill="#fff"/><path d="m432 128h32v32h-32zm0 0" fill="#fff"/><path d="m240 480h32v32h-32zm0 0" fill="#57565c"/><path d="m432 480h32v32h-32zm0 0" fill="#57565c"/><path d="m48 336h32v46.558594c-5.121094.960937-10.558594 1.441406-16 1.441406s-10.878906-.480469-16-1.441406zm0 0" fill="#2d2d30"/><path d="m0 288c0 35.296875 28.703125 64 64 64s64-28.703125 64-64v-48h-128zm0 0" fill="#d7dee2"/><path d="m240 336h32v46.558594c-5.121094.960937-10.558594 1.441406-16 1.441406s-10.878906-.480469-16-1.441406zm0 0" fill="#2d2d30"/><path d="m192 288c0 35.296875 28.703125 64 64 64s64-28.703125 64-64v-48h-128zm0 0" fill="#d7dee2"/><path d="m432 336h32v46.558594c-5.121094.960937-10.558594 1.441406-16 1.441406s-10.878906-.480469-16-1.441406zm0 0" fill="#2d2d30"/><path d="m448 352c-35.296875 0-64-28.703125-64-64v-192h128v192c0 35.296875-28.703125 64-64 64zm0 0" fill="#e76e54"/><path d="m384 240v48c0 35.296875 28.703125 64 64 64s64-28.703125 64-64v-48zm0 0" fill="#d7dee2"/><path d="m432 128h32v32h-32zm0 0" fill="#fff"/><path d="m64 320c-35.296875 0-64-28.703125-64-64v32c0 35.296875 28.703125 64 64 64s64-28.703125 64-64v-32c0 35.296875-28.703125 64-64 64zm0 0" fill="#bfc9d1"/><path d="m256 320c-35.296875 0-64-28.703125-64-64v32c0 35.296875 28.703125 64 64 64s64-28.703125 64-64v-32c0 35.296875-28.703125 64-64 64zm0 0" fill="#bfc9d1"/><path d="m448 320c-35.296875 0-64-28.703125-64-64v32c0 35.296875 28.703125 64 64 64s64-28.703125 64-64v-32c0 35.296875-28.703125 64-64 64zm0 0" fill="#bfc9d1"/></svg>