<svg height="503pt" viewBox="0 0 503.86683 503" width="503pt" xmlns="http://www.w3.org/2000/svg"><path d="m495.472656 310.992188v50.359374c-.011718 4.628907-3.761718 8.378907-8.394531 8.394532h-30.96875c-.558594 1.683594-1.203125 3.335937-1.933594 4.949218-4.007812 9.804688-9.5625 18.898438-16.449219 26.945313l15.445313 26.773437c1.128906 1.925782 1.449219 4.21875.878906 6.378907-.566406 2.160156-1.972656 4.003906-3.902343 5.121093l-43.644532 25.179688c-3.167968 1.84375-7.175781 1.363281-9.820312-1.175781-.640625-.546875-1.179688-1.199219-1.597656-1.929688l-15.441407-26.773437c-12.210937 2.238281-24.722656 2.238281-36.933593 0l-6.042969 10.492187-9.398438 16.28125c-1.101562 1.925781-2.921875 3.335938-5.066406 3.917969-2.140625.582031-4.425781.289062-6.347656-.8125l-14.941407-8.644531-28.707031-16.535157c-1.929687-1.117187-3.335937-2.960937-3.902343-5.121093-.566407-2.160157-.25-4.453125.882812-6.378907l15.441406-26.773437c-8.066406-9.390625-14.300781-20.207031-18.378906-31.894531h-30.972656c-4.628906-.015625-8.378906-3.765625-8.394532-8.394532v-24.84375l.589844-.589843 14.6875-14.769531c18.609375 11.117187 39.230469 18.449218 60.683594 21.570312 3.066406 27.703125 25.207031 49.417969 52.960938 51.953125 1.765624.167969 3.609374.253906 5.375.253906 15.585937.011719 30.535156-6.175781 41.554687-17.195312 11.023437-11.023438 17.210937-25.972657 17.199219-41.558594-.019532-5.976563-.925782-11.917969-2.6875-17.628906 7.199218-4.5 14.019531-9.582031 20.394531-15.191407 4.707031-3.976562 9.136719-8.265624 13.261719-12.839843 2.027344 3.894531 3.765625 7.9375 5.207031 12.085937h30.96875c4.632813.011719 8.382813 3.761719 8.394531 8.394532zm0 0" fill="#37474f"/><path d="m470.292969 312.25v53.550781c.003906 1.367188-.3125 2.71875-.921875 3.945313-1.523438 3.011718-4.601563 4.921875-7.976563 4.949218h-32.902343c-4.335938 12.429688-10.96875 23.933594-19.554688 33.910157l16.367188 28.453125c1.207031 2.035156 1.550781 4.46875.953124 6.753906-.601562 2.289062-2.09375 4.238281-4.144531 5.417969l-25.429687 14.6875c-.640625-.546875-1.179688-1.199219-1.597656-1.929688l-15.441407-26.773437c-12.210937 2.238281-24.722656 2.238281-36.933593 0l-6.042969 10.492187c-2.9375.25-5.957031 7.972657-9.0625 7.972657-6.714844 0-2.015625 9.566406-8.394531 8.394531l-18.296876-5.625-28.707031-16.535157c-1.929687-1.117187-3.335937-2.960937-3.902343-5.121093-.566407-2.160157-.25-4.453125.882812-6.378907l15.441406-26.773437c-8.066406-9.390625-14.300781-20.207031-18.378906-31.894531h-30.972656c-4.628906-.015625-8.378906-3.765625-8.394532-8.394532v-24.84375l16.789063-17.125c12.085937 4.703126 45.492187 23.25 58.753906 25.183594 3.355469 31.222656 0 16.785156 25.179688 41.964844 7.179687 7.183594 19.808593 12.507812 28.199219 8.140625 1.765624.167969 3.609374.253906 5.375.253906 15.585937.011719 30.535156-6.175781 41.554687-17.195312 11.023437-11.023438 17.210937-25.972657 17.199219-41.558594-.019532-5.976563-.925782-11.917969-2.6875-17.628906 7.199218-4.5 14.019531-9.582031 20.394531-15.191407h23.753906c4.902344.035157 8.867188 3.996094 8.898438 8.898438zm0 0" fill="#607d8b"/><path d="m84.195312 143.121094c-.011718 15.585937 6.175782 30.539062 17.195313 41.558594 11.019531 11.019531 25.972656 17.207031 41.558594 17.195312 6.21875.023438 12.398437-.96875 18.296875-2.9375 2.863281 22.199219 10.261718 43.570312 21.738281 62.785156l-6.546875 6.546875-15.023438-26.105469c-12.207031 2.238282-24.722656 2.238282-36.929687 0l-15.445313 26.777344c-1.101562 1.925782-2.921874 3.335938-5.0625 3.917969-2.140624.582031-4.425781.289063-6.351562-.8125l-43.648438-25.183594c-1.929687-1.117187-3.335937-2.960937-3.902343-5.121093-.566407-2.15625-.25-4.453126.882812-6.375l15.445313-26.777344c-8.070313-9.386719-14.304688-20.207032-18.382813-31.894532h-30.972656c-4.628906-.011718-8.378906-3.761718-8.394531-8.394531v-50.359375c.015625-4.628906 3.765625-8.378906 8.394531-8.394531h30.972656c4.078125-11.6875 10.3125-22.503906 18.382813-31.894531l-15.445313-26.773438c-1.132812-1.925781-1.449219-4.21875-.882812-6.378906.566406-2.160156 1.972656-4.003906 3.902343-5.121094l43.648438-25.179687c1.925781-1.101563 4.210938-1.394531 6.351562-.8125 2.140626.582031 3.960938 1.992187 5.0625 3.917969l15.445313 26.773437c12.207031-2.238281 24.722656-2.238281 36.929687 0l15.445313-26.773437c1.101563-1.925782 2.921875-3.335938 5.0625-3.917969s4.425781-.289063 6.351563.8125l43.226562 24.929687c-21.636719 15.035156-39.386719 35-51.789062 58.25-10.386719-8.449218-23.375-13.042968-36.761719-13.011718-15.585938-.011719-30.539063 6.175781-41.558594 17.195312-11.019531 11.023438-17.207031 25.972656-17.195313 41.558594zm0 0" fill="#607d8b"/><path d="m327.605469 8.828125c-4.449219 0-8.730469.167969-13.011719.503906h-.082031c-.023438-.023437-.054688-.039062-.085938-.039062s-.0625.015625-.082031.039062c-87.003906 6.984375-154.179688 79.410157-154.609375 166.691407v.671874c.042969 29.90625 8.066406 59.261719 23.25 85.027344 25.65625 43.730469 69.714844 73.503906 119.859375 80.996094 3.859375.585938 7.804688 1.089844 11.835938 1.425781h.417968c4.113282.253907 8.308594.421875 12.507813.421875 31.753906.074219 62.863281-8.957031 89.640625-26.023437 12.460937-7.746094 23.785156-17.179688 33.65625-28.03125 45.261718-48.96875 57.230468-120.089844 30.492187-181.175781-26.738281-61.082032-87.109375-100.539063-153.789062-100.507813zm-12.675781 300.988281c-4.699219-.503906-9.316407-1.175781-13.933594-2.097656-22.964844-4.664062-44.300782-15.285156-61.859375-30.804688-2.097657-1.847656-4.195313-3.777343-6.210938-5.792968-36.792969-36.726563-49.066406-91.402344-31.492187-140.328125 17.574218-48.929688 61.828125-83.300781 113.582031-88.222657h.167969c34.003906-3.246093 67.972656 6.566407 95.011718 27.445313v.082031c4.433594 3.417969 8.636719 7.121094 12.589844 11.082032 21.886719 21.832031 35.527344 50.574218 38.609375 81.332031l.503907 6.796875c1.976562 37.945312-12.238282 74.949218-39.113282 101.8125-1.257812 1.261718-2.433594 2.433594-3.777344 3.609375-28.019531 25.96875-65.796874 38.734375-103.824218 35.085937zm0 0" fill="#f57c00"/><path d="m470.042969 169.058594c-3.742188-84.992188-70.589844-153.679688-155.449219-159.726563h-.082031c-.023438-.023437-.054688-.039062-.085938-.039062s-.0625.015625-.082031.039062c-87.003906 6.984375-154.179688 79.410157-154.609375 166.691407v.671874c.042969 29.90625 8.066406 59.261719 23.25 85.027344 25.65625 43.730469 69.714844 73.503906 119.859375 80.996094 3.859375.585938 7.804688 1.089844 11.835938 1.425781h.417968c27.378906-2.042969 53.824219-10.835937 76.96875-25.601562 12.457032-7.746094 23.785156-17.179688 33.65625-28.03125 28.703125-30.945313 44.625-71.609375 44.570313-113.816407 0-2.601562-.082031-5.121093-.25-7.636718zm-47.257813 102.0625c-1.257812 1.261718-2.433594 2.433594-3.777344 3.609375-28.019531 25.96875-65.796874 38.734375-103.824218 35.085937h-.253906c-13.070313 1.1875-26.246094.480469-39.113282-2.097656-22.324218-4.535156-22.492187-14.859375-40.539062-30.804688-2.097656-1.847656-4.199219-3.777343-6.210938-5.792968-25.210937-25.152344-39.347656-59.320313-39.28125-94.929688.027344-5.667968.394532-11.328125 1.089844-16.953125 3.683594-29.546875 17.121094-57.019531 38.191406-78.058593 29.292969-29.210938 47.589844-42.136719 85.949219-38.609376h.167969c34.003906-3.246093 67.972656 6.566407 95.011718 27.445313v.082031c4.433594 3.417969 8.636719 7.121094 12.589844 11.082032 21.886719 21.832031 35.527344 50.574218 38.609375 81.332031l.503907 6.796875c1.976562 37.945312-12.238282 74.949218-39.113282 101.8125zm0 0" fill="#ff9801"/><path d="m419.007812 274.730469c-31.726562 29.363281-75.65625 41.640625-118.011718 32.988281 9.691406-21.597656 28.480468-37.773438 51.277344-44.144531 22.800781-6.375 47.25-2.285157 66.734374 11.15625zm0 0" fill="#707070"/><path d="m422.785156 271.121094c-1.257812 1.261718-2.433594 2.433594-3.777344 3.609375-19.484374-13.441407-43.933593-17.53125-66.734374-11.15625-22.796876 6.371093-41.585938 22.546875-51.277344 44.144531-22.964844-4.664062-44.300782-15.285156-61.859375-30.804688 5.027343-9.15625 10.988281-17.761718 17.796875-25.683593l-23.839844-41.378907c-1.734375-2.972656-2.210938-6.511718-1.328125-9.832031.878906-3.324219 3.050781-6.160156 6.027344-7.878906l67.402343-38.945313c2.96875-1.707031 6.496094-2.164062 9.804688-1.265624 3.304688.898437 6.121094 3.074218 7.820312 6.046874l23.835938 41.382813c18.867188-3.46875 38.210938-3.46875 57.078125 0l23.835937-41.382813c1.699219-2.972656 4.515626-5.148437 7.820313-6.046874 3.308594-.894532 6.835937-.441407 9.804687 1.265624l16.199219 9.316407c4.140625 40.167969-10.042969 80.066406-38.609375 108.609375zm0 0" fill="#37474f"/><path d="m461.394531 162.511719-16.199219-9.316407c-2.96875-1.707031-6.496093-2.160156-9.804687-1.265624-3.304687.898437-6.121094 3.074218-7.820313 6.046874l-23.835937 41.382813c-18.867187-3.46875-38.210937-3.46875-57.078125 0l-23.835938-41.382813c-1.699218-2.972656-4.515624-5.148437-7.820312-6.046874-3.308594-.898438-6.835938-.441407-9.804688 1.265624l-67.402343 38.945313c-2.976563 1.71875-5.148438 4.554687-6.027344 7.878906-.882813 3.320313-.40625 6.859375 1.328125 9.832031l23.839844 41.378907c-6.808594 7.921875-12.769532 16.527343-17.796875 25.683593-2.097657-1.847656-4.195313-3.777343-6.210938-5.792968-29.371093-29.367188-43.472656-70.6875-38.1875-111.882813l23.5 6.796875c3.316407.855469 6.839844.355469 9.785157-1.394531 2.945312-1.75 5.074218-4.597656 5.910156-7.921875l12.003906-46.164062c9.535156-.855469 18.972656-2.570313 28.199219-5.121094 9.207031-2.558594 18.167969-5.929688 26.777343-10.070313l33.992188 33.574219c5.082031 5.011719 13.261719 4.972656 18.296875-.085938l54.644531-55.394531c.984375-.964843 1.78125-2.101562 2.347656-3.359375 4.433594 3.417969 8.636719 7.121094 12.589844 11.082032 21.886719 21.832031 35.527344 50.574218 38.609375 81.332031zm0 0" fill="#02a9f4"/><path d="m410.195312 70.015625v.082031c-.566406 1.257813-1.363281 2.394532-2.347656 3.359375l-54.644531 55.394531c-5.035156 5.058594-13.214844 5.097657-18.296875.085938l-33.992188-33.574219c-8.609374 4.140625-17.570312 7.511719-26.777343 10.070313-9.226563 2.550781-18.664063 4.265625-28.199219 5.121094l-12.003906 46.164062c-.835938 3.324219-2.964844 6.171875-5.910156 7.921875-2.945313 1.75-6.46875 2.25-9.785157 1.394531l-23.5-6.796875c6.023438-47.839843 37.253907-88.769531 81.800781-107.21875 44.550782-18.449219 95.574219-11.578125 133.65625 17.996094zm0 0" fill="#37474f"/><path d="m161.667969 401.722656-71.179688 71.175782-59.339843-59.339844 1.425781-1.34375 69.75-69.832032c6.566406-6.546874 17.1875-6.546874 23.753906 0l24.425781 24.425782 11.164063 11.160156c6.546875 6.566406 6.546875 17.191406 0 23.753906zm0 0" fill="#0377bc"/><path d="m146.390625 383.679688-71.175781 71.175781-42.640625-42.640625 69.75-69.832032c6.566406-6.546874 17.1875-6.546874 23.753906 0l24.425781 24.425782c1.976563 5.945312.378906 12.5-4.113281 16.871094zm0 0" fill="#02a9f4"/><path d="m90.488281 472.898438-17.792969 17.796874c-3.132812 3.179688-7.410156 4.972657-11.875 4.972657-4.464843 0-8.746093-1.792969-11.878906-4.972657l-35.671875-35.589843c-1.695312-1.671875-2.988281-3.710938-3.777343-5.957031-2.339844-6.160157-.863282-13.121094 3.777343-17.796876l17.878907-17.792968zm0 0" fill="#545c60"/><path d="m74.792969 457.203125-16.785157 16.703125c-3.132812 3.183594-7.414062 4.972656-11.878906 4.972656s-8.742187-1.789062-11.875-4.972656l-24.761718-24.757812c-2.339844-6.160157-.863282-13.121094 3.777343-17.796876l17.878907-17.792968zm0 0" fill="#7f8e94"/><path d="m126.058594 342.359375 35.609375-35.605469 35.609375 35.605469-35.609375 35.609375zm0 0" fill="#545c60"/><path d="m242.160156 321.148438-15.277344 15.359374-5.875 5.875c-6.566406 6.546876-17.1875 6.546876-23.753906 0l-4.699218-4.699218-30.886719-30.972656c-3.144531-3.136719-4.910157-7.394532-4.910157-11.835938s1.765626-8.699219 4.910157-11.835938l21.316406-21.316406c14.3125 24.546875 34.6875 45.011719 59.175781 59.425782zm0 0" fill="#d84315"/><path d="m226.882812 311.664062-15.277343 15.359376-5.875 5.875c-3.464844 3.46875-8.292969 5.222656-13.175781 4.785156l-30.886719-30.972656c-3.144531-3.136719-4.910157-7.394532-4.910157-11.835938s1.765626-8.699219 4.910157-11.835938l15.945312-15.945312c13.207031 18.066406 29.972657 33.234375 49.269531 44.570312zm0 0" fill="#ff5722"/><path d="m419.933594 336.171875c.011718 15.585937-6.175782 30.535156-17.199219 41.558594-11.019531 11.019531-25.96875 17.207031-41.554687 17.195312-4.234376-.019531-8.453126-.46875-12.589844-1.34375-23.910156-5.246093-42.042969-24.785156-45.496094-49.015625-.082031-.589844-.164062-1.261718-.25-1.847656 3.859375.585938 7.804688 1.089844 11.835938 1.425781h.417968c4.113282.253907 8.308594.421875 12.507813.421875 23.023437.035156 45.800781-4.710937 66.894531-13.933594 7.898438-3.410156 15.503906-7.449218 22.746094-12.089843 1.761718 5.710937 2.667968 11.652343 2.6875 17.628906zm0 0" fill="#707070"/><path d="m394.753906 336.171875c0 27.601563-19.207031 51.488281-46.164062 57.410156-23.910156-5.246093-42.042969-24.785156-45.496094-49.015625 3.863281 0 7.722656-.167968 11.585938-.421875h.417968c4.113282.253907 8.308594.421875 12.507813.421875 23.023437.035156 45.800781-4.710937 66.894531-13.933594.167969 1.84375.253906 3.691407.253906 5.539063zm0 0" fill="#9e9e9e"/><path d="m159.734375 176.695312c-.003906 7.441407.5 14.871094 1.511719 22.242188-5.898438 1.96875-12.078125 2.960938-18.296875 2.9375-1.375.003906-2.75-.082031-4.113281-.25-31.558594-2.191406-55.707032-29-54.597657-60.617188 1.109375-31.613281 27.074219-56.664062 58.710938-56.640624 1.484375 0 2.972656.082031 4.449219.253906 11.832031.792968 23.128906 5.25 32.3125 12.757812-13.160157 24.363282-20.027344 51.625-19.976563 79.316406zm0 0" fill="#707070"/><path d="m137.578125 180.390625c-.003906 7.09375.414063 14.1875 1.257813 21.234375-31.558594-2.191406-55.707032-29-54.597657-60.617188 1.109375-31.613281 27.074219-56.664062 58.710938-56.640624 1.484375 0 2.972656.082031 4.449219.253906 4.417968 2.078125 8.5625 4.699218 12.335937 7.804687-14.625 27.007813-22.246094 57.25-22.15625 87.964844zm0 0" fill="#9e9e9e"/><path d="m300.988281 316.109375c-2.839843-.003906-5.488281-1.449219-7.035156-3.835937-1.542969-2.382813-1.777344-5.390626-.617187-7.988282 10.707031-23.875 31.476562-41.757812 56.679687-48.800781s52.234375-2.519531 73.769531 12.347656c3.808594 2.640625 4.757813 7.867188 2.121094 11.679688-2.640625 3.808593-7.871094 4.757812-11.679688 2.117187-17.433593-12.019531-39.304687-15.671875-59.699218-9.972656-20.390625 5.703125-37.195313 20.167969-45.867188 39.488281-1.355468 3.023438-4.359375 4.96875-7.671875 4.964844zm0 0"/><path d="m327.605469 352.957031c-97.347657 0-176.261719-78.914062-176.261719-176.261719 0-97.347656 78.914062-176.261718 176.261719-176.261718 97.347656 0 176.261719 78.914062 176.261719 176.261718-.109376 97.300782-78.960938 176.152344-176.261719 176.261719zm0-335.738281c-88.078125 0-159.476563 71.402344-159.476563 159.476562 0 88.078126 71.398438 159.476563 159.476563 159.476563 88.074219 0 159.472656-71.398437 159.472656-159.476563-.097656-88.035156-71.4375-159.375-159.472656-159.476562zm0 0"/><path d="m327.867188 318.796875c-68.039063-.042969-126.574219-48.144531-139.804688-114.882813-13.234375-66.738281 22.519531-133.53125 85.390625-159.535156 62.875-26 135.363281-3.96875 173.132813 52.621094 37.769531 56.589844 30.308593 131.984375-17.824219 180.070312-26.742188 26.777344-63.050781 41.792969-100.894531 41.726563zm0-268.464844c-60.035157.039063-111.683594 42.480469-123.359376 101.371094-11.675781 58.886719 19.871094 117.820313 75.351563 140.765625 55.476563 22.941406 119.433594 3.5 152.761719-46.433594s26.742187-116.457031-15.730469-158.886718c-23.59375-23.625-55.632813-36.875-89.023437-36.816407zm0 0"/><path d="m90.464844 481.320312c-2.226563 0-4.363282-.882812-5.933594-2.460937l-59.351562-59.351563c-2.175782-2.109374-3.042969-5.226562-2.277344-8.15625.769531-2.929687 3.058594-5.21875 5.988281-5.988281s6.046875.101563 8.15625 2.273438l59.351563 59.355469c2.402343 2.398437 3.121093 6.007812 1.820312 9.144531-1.296875 3.136719-4.359375 5.183593-7.753906 5.183593zm0 0"/><path d="m60.785156 504.027344c-6.675781.011718-13.082031-2.640625-17.800781-7.363282l-35.609375-35.613281c-4.722656-4.722656-7.375-11.125-7.375-17.804687 0-6.679688 2.652344-13.082032 7.375-17.804688l89.023438-89.023437c9.964843-9.507813 25.644531-9.507813 35.609374 0l35.617188 35.609375c9.820312 9.839844 9.820312 25.769531 0 35.609375l-89.027344 89.027343c-4.722656 4.726563-11.132812 7.375-17.8125 7.363282zm-5.933594-19.234375c3.28125 3.277343 8.59375 3.277343 11.875 0l89.027344-89.023438c3.269532-3.28125 3.269532-8.589843 0-11.875l-35.617187-35.609375c-3.320313-3.167968-8.546875-3.167968-11.867188 0l-89.027343 89.027344c-1.574219 1.574219-2.457032 3.707031-2.457032 5.933594 0 2.222656.882813 4.359375 2.457032 5.929687zm0 0"/><path d="m161.6875 386.355469c-2.226562 0-4.363281-.882813-5.933594-2.460938l-35.617187-35.609375c-3.277344-3.277344-3.277344-8.589844 0-11.867187l35.617187-35.609375c3.277344-3.277344 8.589844-3.277344 11.867188 0l35.605468 35.609375c3.277344 3.277343 3.277344 8.589843 0 11.867187l-35.601562 35.609375c-1.574219 1.578125-3.710938 2.460938-5.9375 2.460938zm-23.746094-44.003907 23.746094 23.742188 23.734375-23.742188-23.734375-23.738281zm0 0"/><path d="m209.164062 355.644531c-6.664062.011719-13.0625-2.605469-17.804687-7.289062l-35.632813-35.71875c-4.714843-4.710938-7.359374-11.105469-7.359374-17.769531 0-6.664063 2.652343-13.054688 7.367187-17.765626l21.3125-21.316406 6.191406 5.683594 5.882813 5.984375-21.515625 21.519531c-3.253907 3.261719-3.253907 8.542969 0 11.804688l35.589843 35.679687c1.570313 1.582031 3.710938 2.472657 5.941407 2.46875 2.230469-.003906 4.367187-.894531 5.933593-2.480469l21.140626-21.21875c3.285156-3.191406 8.519531-3.160156 11.769531.070313 3.246093 3.226563 3.304687 8.464844.132812 11.765625l-21.171875 21.253906c-4.71875 4.710938-11.113281 7.347656-17.777344 7.328125zm0 0"/><path d="m361.179688 403.320312c-34.503907.136719-63.4375-26.019531-66.773438-60.363281-.378906-4.566406 2.976562-8.597656 7.539062-9.050781 4.5625-.449219 8.640626 2.839844 9.164063 7.394531 2.710937 26.6875 25.867187 46.558594 52.65625 45.191407 26.785156-1.367188 47.796875-23.5 47.773437-50.320313-.011718-5.214844-.816406-10.398437-2.386718-15.371094-1.277344-4.386719 1.191406-8.988281 5.550781-10.355469 4.363281-1.363281 9.011719 1.007813 10.464844 5.339844 2.085937 6.59375 3.148437 13.46875 3.15625 20.386719-.039063 37.066406-30.078125 67.105469-67.144531 67.148437zm0 0"/><path d="m239.128906 285.308594c-2.964844-.003906-5.710937-1.574219-7.21875-4.128906-1.507812-2.550782-1.554687-5.710938-.125-8.3125 4.34375-7.910157 9.351563-15.433594 14.96875-22.5l-20.929687-36.328126c-2.84375-4.890624-3.628907-10.714843-2.175781-16.1875 1.453124-5.46875 5.023437-10.136718 9.921874-12.972656l67.425782-38.949218c4.910156-2.824219 10.738281-3.578126 16.207031-2.097657 5.476563 1.460938 10.132813 5.066407 12.917969 10.003907l20.910156 36.300781c16.023438-2.359375 32.304688-2.359375 48.328125 0l20.941406-36.347657c2.785157-4.914062 7.429688-8.503906 12.886719-9.957031 5.445312-1.480469 11.257812-.734375 16.15625 2.066407l16.238281 9.335937c2.601563 1.492187 4.207031 4.257813 4.210938 7.257813.007812 3-1.585938 5.773437-4.179688 7.277343-2.59375 1.507813-5.792969 1.511719-8.390625.019531l-16.207031-9.316406c-1.046875-.597656-2.289063-.753906-3.449219-.4375-1.140625.300782-2.109375 1.054688-2.6875 2.085938l-23.867187 41.425781c-1.777344 3.066406-5.28125 4.695313-8.773438 4.070313-17.878906-3.273438-36.203125-3.273438-54.082031 0-3.484375.609374-6.984375-1.011719-8.769531-4.070313l-23.835938-41.378906c-.582031-1.050781-1.5625-1.820313-2.722656-2.132813-1.175781-.320312-2.429687-.152344-3.484375.460938l-67.351562 38.910156c-1.046876.601562-1.808594 1.601562-2.117188 2.769531s-.136719 2.414063.476562 3.453125l23.851563 41.410156c1.789063 3.089844 1.417969 6.972657-.917969 9.667969-6.421875 7.480469-12.050781 15.609375-16.792968 24.25-1.476563 2.6875-4.296876 4.355469-7.363282 4.351563zm0 0"/><path d="m221.488281 174.84375c-1.796875-.003906-3.589843-.230469-5.335937-.675781l-23.75-6.871094c-2.90625-.8125-5.152344-3.121094-5.882813-6.046875-.730469-2.929688.164063-6.023438 2.347657-8.105469 2.183593-2.085937 5.316406-2.835937 8.203124-1.96875l23.503907 6.796875c1.09375.226563 2.230469.027344 3.179687-.554687 1.023438-.609375 1.757813-1.601563 2.042969-2.753907l12.015625-46.21875c.890625-3.429687 3.839844-5.929687 7.367188-6.25 9.035156-.8125 17.980468-2.4375 26.722656-4.851562 8.726562-2.425781 17.222656-5.617188 25.386718-9.546875 3.195313-1.527344 7.007813-.890625 9.53125 1.597656l33.992188 33.570313c.867188.863281 2.046875 1.339844 3.269531 1.324218 1.226563-.019531 2.390625-.53125 3.230469-1.417968l54.558594-55.304688c.207031-.210937.394531-.433594.566406-.671875 1.507812-3.710937 5.425781-5.835937 9.359375-5.078125 3.929687.761719 6.777344 4.195313 6.792969 8.199219v.082031c.003906 1.058594-.195313 2.109375-.589844 3.09375-.933594 2.21875-2.285156 4.242188-3.980469 5.957032l-54.839843 55.597656c-8.328126 8.320312-21.808594 8.378906-30.207032.125l-29.828125-29.460938c-7.386719 3.246094-14.996093 5.957032-22.769531 8.113282-7.800781 2.15625-15.746094 3.742187-23.777344 4.753906l-10.542968 40.550781c-2.402344 9.402344-10.859376 15.988281-20.5625 16.011719zm0 0"/><path d="m320.015625 474.589844c-2.902344-.003906-5.753906-.753906-8.28125-2.183594l-43.722656-25.222656c-3.867188-2.234375-6.683594-5.917969-7.824219-10.234375-1.140625-4.316407-.507812-8.914063 1.75-12.761719l12.539062-21.746094c-5.722656-7.449218-10.433593-15.621094-14.011718-24.304687h-25.1875c-9.265625-.007813-16.777344-7.519531-16.789063-16.785157v-24.84375c0-4.636718 3.757813-8.394531 8.394531-8.394531 4.636719 0 8.394532 3.757813 8.394532 8.394531v24.84375h30.972656c3.574219 0 6.753906 2.265626 7.925781 5.644532 3.726563 10.695312 9.433594 20.597656 16.828125 29.183594 2.3125 2.703124 2.671875 6.570312.890625 9.652343l-15.441406 26.773438 43.597656 25.21875 15.390625-26.808594c1.765625-3.082031 5.292969-4.714844 8.785156-4.058594 11.210938 2.039063 22.695313 2.039063 33.902344 0 3.492188-.644531 7.015625.980469 8.785156 4.058594l15.445313 26.777344 43.59375-25.148438-15.492187-26.8125c-1.777344-3.082031-1.421876-6.949219.894531-9.652343 7.390625-8.585938 13.097656-18.488282 16.824219-29.183594 1.171874-3.378906 4.355468-5.644532 7.929687-5.644532h30.96875v-50.359374h-30.96875c-3.523437.003906-6.671875-2.199219-7.878906-5.503907-1.304688-3.761719-2.875-7.429687-4.699219-10.96875l-.058594-.121093c-1.5-2.652344-1.445312-5.917969.152344-8.519532 1.59375-2.601562 4.476562-4.132812 7.523438-3.996094 3.050781.132813 5.785156 1.914063 7.144531 4.644532 1.335937 2.492187 2.53125 5.054687 3.582031 7.675781h25.203125c9.269531.011719 16.777344 7.519531 16.789063 16.789063v50.359374c-.011719 9.265626-7.519532 16.777344-16.789063 16.785157h-25.1875c-3.578125 8.683593-8.292969 16.855469-14.015625 24.300781l12.566406 21.785156c2.242188 3.847656 2.863282 8.429688 1.722656 12.734375-1.140624 4.304688-3.945312 7.976563-7.796874 10.210938l-43.667969 25.195312c-3.863281 2.214844-8.445313 2.804688-12.746094 1.644531-4.324219-1.144531-8-4-10.183594-7.90625l-12.527343-21.714843c-9.335938 1.191406-18.789063 1.191406-28.128907 0l-12.574219 21.796875c-2.183593 3.875-5.839843 6.695312-10.140624 7.828125-1.429688.382812-2.902344.578125-4.382813.578125zm0 0"/><path d="m142.949219 210.269531c-37.085938 0-67.148438-30.0625-67.148438-67.148437 0-37.082032 30.0625-67.148438 67.148438-67.148438 15.3125-.050781 30.167969 5.207032 42.039062 14.875 3.605469 2.914063 4.167969 8.203125 1.25 11.808594-2.914062 3.605469-8.199219 4.164062-11.804687 1.25-8.890625-7.246094-20.015625-11.183594-31.484375-11.144531-27.8125 0-50.359375 22.546875-50.359375 50.359375s22.546875 50.363281 50.359375 50.363281c5.304687.023437 10.574219-.820313 15.605469-2.496094 4.382812-1.457031 9.117187.902344 10.597656 5.277344 1.476562 4.371094-.855469 9.121094-5.21875 10.621094-6.765625 2.265625-13.851563 3.40625-20.984375 3.382812zm0 0"/><path d="m101.785156 281.539062c-2.902344 0-5.753906-.753906-8.277344-2.179687l-43.726562-25.226563c-3.867188-2.230468-6.683594-5.914062-7.824219-10.234374-1.136719-4.316407-.507812-8.910157 1.75-12.761719l12.546875-21.75c-5.726562-7.445313-10.441406-15.613281-14.019531-24.296875h-25.1875c-9.265625-.011719-16.777344-7.519532-16.785156-16.789063v-50.359375c.007812-9.265625 7.519531-16.777344 16.785156-16.785156h25.1875c3.582031-8.683594 8.292969-16.855469 14.019531-24.300781l-12.566406-21.785157c-2.242188-3.847656-2.863281-8.429687-1.722656-12.734374 1.136718-4.304688 3.945312-7.976563 7.796875-10.210938l43.664062-25.195312c3.863281-2.214844 8.445313-2.804688 12.746094-1.644532 4.324219 1.144532 8.003906 4 10.1875 7.90625l12.523437 21.714844c9.339844-1.191406 18.792969-1.191406 28.132813 0l12.574219-21.796875c2.179687-3.875 5.839844-6.695313 10.136718-7.828125 4.269532-1.152344 8.816407-.578125 12.664063 1.601562l43.304687 24.972657c4.015626 2.316406 5.390626 7.453125 3.074219 11.46875-2.316406 4.015625-7.453125 5.390625-11.464843 3.074219l-43.226563-24.929688-15.390625 26.808594c-1.769531 3.082031-5.292969 4.710937-8.789062 4.058594-11.207032-2.039063-22.691407-2.039063-33.898438 0-3.496094.664062-7.027344-.96875-8.789062-4.058594l-15.445313-26.777344-43.589844 25.148438 15.496094 26.8125c1.777344 3.082031 1.417969 6.949218-.894531 9.652343-7.390625 8.585938-13.101563 18.488281-16.828125 29.183594-1.171875 3.378906-4.355469 5.644531-7.929688 5.644531h-30.972656v50.359375h30.972656c3.574219.003907 6.753907 2.269531 7.925781 5.644531 3.730469 10.699219 9.441407 20.601563 16.835938 29.183594 2.3125 2.703125 2.671875 6.570313.890625 9.652344l-15.441406 26.777344 43.589843 25.214844 15.390626-26.804688c1.765624-3.085938 5.292968-4.71875 8.789062-4.0625 11.207031 2.042969 22.691406 2.042969 33.898438 0 3.5-.664062 7.035156.96875 8.796874 4.066406l15.023438 26.101563c1.496094 2.601562 1.492188 5.804687-.011719 8.398437-1.503906 2.597656-4.277343 4.195313-7.277343 4.191406-3-.007812-5.773438-1.609374-7.269532-4.210937l-12.144531-21.117187c-9.339844 1.191406-18.792969 1.191406-28.132813 0l-12.574218 21.800781c-2.183594 3.871093-5.839844 6.695312-10.136719 7.824219-1.429687.382812-2.90625.578124-4.386719.578124zm0 0"/></svg>