<svg height="512pt" viewBox="-16 0 512 512.00379" width="512pt" xmlns="http://www.w3.org/2000/svg" xmlns:xlink="http://www.w3.org/1999/xlink"><linearGradient id="a" gradientTransform="matrix(.865581 .508587 -.508587 .865581 115.307469 -98.448599)" gradientUnits="userSpaceOnUse" x1="129.2728" x2="359.872" y1="313.3122" y2="313.3122"><stop offset="0" stop-color="#acc130"/><stop offset="1" stop-color="#97a03b"/></linearGradient><linearGradient id="b"><stop offset="0" stop-color="#97a03b" stop-opacity="0"/><stop offset="1" stop-color="#575c55"/></linearGradient><linearGradient id="c" gradientTransform="matrix(.865581 .508587 -.508587 .865581 115.307469 -98.448599)" gradientUnits="userSpaceOnUse" x1="318.877" x2="198.5146" xlink:href="#b" y1="315.1758" y2="315.1758"/><linearGradient id="d" gradientTransform="matrix(.865581 .508587 -.508587 .865581 115.307469 -98.448599)" gradientUnits="userSpaceOnUse" x1="190.5461" x2="261.9352" y1="380.8367" y2="397.6925"><stop offset="0" stop-color="#97a03b"/><stop offset="1" stop-color="#6c7d47"/></linearGradient><linearGradient id="e" gradientUnits="userSpaceOnUse" x1="287.2872952422" x2="180.608435286" xlink:href="#b" y1="331.5397841836" y2="155.2385319586"/><linearGradient id="f" gradientTransform="matrix(.939369 -.354083 .354083 .939369 -116.555144 158.59327)" gradientUnits="userSpaceOnUse" x1="282.4148" x2="513.0288" y1="209.0441" y2="209.0441"><stop offset="0" stop-color="#ff4b3e"/><stop offset="1" stop-color="#972e07"/></linearGradient><linearGradient id="g"><stop offset="0" stop-color="#972e07" stop-opacity="0"/><stop offset="1" stop-color="#582707"/></linearGradient><linearGradient id="h" gradientTransform="matrix(.939369 -.354083 .354083 .939369 -116.555144 158.59327)" gradientUnits="userSpaceOnUse" x1="472.0302" x2="351.6571" xlink:href="#g" y1="210.908" y2="210.908"/><linearGradient id="i" gradientTransform="matrix(.939369 -.354083 .354083 .939369 -116.555144 158.59327)" gradientUnits="userSpaceOnUse" x1="343.6924" x2="415.0837" y1="276.5723" y2="293.4286"><stop offset="0" stop-color="#972e07"/><stop offset="1" stop-color="#582707"/></linearGradient><linearGradient id="j" gradientTransform="matrix(.404279 .918889 -.918889 .404279 247.724122 -144.185258)" gradientUnits="userSpaceOnUse" x1="167.4864" x2="398.097" y1="101.99" y2="101.99"><stop offset="0" stop-color="#ffe548"/><stop offset="1" stop-color="#ffb211"/></linearGradient><linearGradient id="k" gradientTransform="matrix(.404279 .918889 -.918889 .404279 247.724122 -144.185258)" gradientUnits="userSpaceOnUse" x1="357.0996" x2="236.7305" y1="103.8538" y2="103.8538"><stop offset="0" stop-color="#ffb211" stop-opacity="0"/><stop offset=".214" stop-color="#ff951d" stop-opacity=".215686"/><stop offset=".5597" stop-color="#ff6d2f" stop-opacity=".560784"/><stop offset=".8338" stop-color="#ff543a" stop-opacity=".835294"/><stop offset="1" stop-color="#ff4b3e"/></linearGradient><linearGradient id="l" gradientTransform="matrix(.404279 .918889 -.918889 .404279 247.724122 -144.185258)" gradientUnits="userSpaceOnUse" x1="228.7628" x2="300.1548" y1="169.5176" y2="186.3741"><stop offset="0" stop-color="#ffb211"/><stop offset="1" stop-color="#ff4b3e"/></linearGradient><linearGradient id="m" gradientUnits="userSpaceOnUse" x1="352.1166627064" x2="315.3895818272" xlink:href="#g" y1="291.1126483812" y2="198.214625719"/><path d="m31.3125 464.546875s-43.117188-86.328125-14.125-139.671875 44.40625.285156 44.40625.285156-.761719-82.558594 37.667969-128.007812c38.433593-45.453125 39.808593 28.078125 39.808593 28.078125s15.847657-86.871094 64.65625-98.078125c48.8125-11.203125 18.183594 52.910156 18.183594 52.910156s50.726563-66.378906 84.886719-48.65625-32.570313 79.394531-32.570313 79.394531 42.140626-19.816406 54.871094 6.429688c12.730469 26.246093-91.648437 68.144531-91.648437 68.144531s56.917969 2.945312 48.222656 37.714844c-8.699219 34.769531-118.113281 57.289062-118.113281 57.289062s66.632812-2.941406 53.648437 24.480469c-32.101562 67.804687-189.894531 59.6875-189.894531 59.6875zm0 0" fill="url(#a)"/><path d="m221.210938 404.859375c12.984374-27.421875-53.648438-24.480469-53.648438-24.480469s109.410156-22.519531 118.109375-57.289062c8.699219-34.769532-48.21875-37.714844-48.21875-37.714844s104.375-41.898438 91.644531-68.144531c-12.730468-26.246094-54.871094-6.429688-54.871094-6.429688s49.746094-45.980469 41.335938-69.945312c-60.136719 46.066406-193.617188 159.390625-285.984375 320.011719 1.085937 2.375 1.734375 3.679687 1.734375 3.679687s157.792969 8.117187 189.898438-59.6875zm0 0" fill="url(#c)"/><path d="m121.648438 414.1875c-14.457032 7.714844-39.78125 11.855469-56.964844 13.890625 3.84375-5.386719 7.640625-10.796875 11.484375-16.175781 5.417969-7.3125 10.714843-14.703125 16.074219-22.050782 1.351562-1.824218 2.625-3.710937 3.996093-5.523437l4.089844-5.457031.207031-.277344c5.023438-6.707031 12.570313-11.007812 20.875-12.125 62.25-8.363281 104.046875-48.980469 77.128906-34.03125-22.273437 12.371094-63.34375 20.949219-81.820312 24.363281l8.207031-10.617187c5.515625-7.222656 10.980469-14.496094 16.542969-21.6875 2.851562-3.566406 6.800781-8.480469 10.5-13.082032 6.292969-7.824218 14.511719-13.925781 23.921875-17.433593 65.609375-24.46875 104.089844-79.675781 78.210937-56.804688-20.851562 18.425781-61.625 38.027344-80.335937 46.519531.539063-.65625 1.074219-1.320312 1.617187-1.976562 5.761719-7.046875 11.308594-14.300781 17.132813-21.3125 5.859375-6.972656 11.664063-14.019531 17.445313-21.101562l4.3125-5.339844c1.4375-1.78125 2.871093-3.566406 4.371093-5.289063 2.960938-3.484375 5.945313-6.945312 8.878907-10.46875.390624-.460937.78125-.925781 1.167968-1.386719 2.09375-2.488281-1.261718-5.851562-3.757812-3.769531-.46875.394531-.9375.789063-1.410156 1.183594-3.546876 2.941406-7.039063 5.941406-10.5625 8.921875-1.785157 1.464844-3.441407 3.054688-5.136719 4.613281l-5.066407 4.6875c-6.722656 6.285157-13.425781 12.609375-20.070312 19-3.398438 3.132813-6.488281 6.539063-9.714844 9.828125-3.195312 3.3125-6.40625 6.617188-9.566406 9.972656l-2.070312 2.183594c4.003906-21.644531 12.585937-62.027344 24.484374-85.21875 15.191407-29.601562-25.070312 16.578125-34.75 82.246094-1.589843 10.789062-6.195312 20.90625-13.355468 29.128906-4.214844 4.839844-8.5625 9.839844-11.175782 12.859375-1.53125 1.726563-2.980468 3.519531-4.414062 5.320313l-4.328125 5.386718-8.65625 10.777344-5.855469 7.429688c-1.058594-21.050782-1.589844-54.722656 3.953125-75.773438 7.582031-28.816406-19.363281 17.578125-14.519531 77.140625.597656 7.359375-1.546875 14.6875-5.933594 20.632813l-2.675781 3.628906c-2.730469 3.710938-5.492187 7.402344-8.070313 11.222656-5.203124 7.605469-10.472656 15.160156-15.617187 22.800782-4.222656 6.507812-8.417969 13.035156-12.5625 19.585937-2.34375-17.125-4.875-43.859375-.839844-60.308594 5.792969-23.621093-19.527343 15.578125-8.300781 66.613281.871094 3.972657.203125 8.132813-1.871094 11.632813-1.863281 3.144531-3.714844 6.289063-5.585937 9.421875-10.949219 18.929688-21.398438 38.1875-30.804688 57.941406-2.246093 4.726563 4.378907 8.527344 7.308594 4.191406 1.925781-2.847656 3.851563-5.695312 5.773437-8.542968l7.757813-11.296875c2.59375-3.757813 5.078125-7.578125 7.734375-11.296875 5.273438-7.453125 10.277344-15.0625 15.59375-22.472656l7.855469-11.179688.042969-.066406c2.800781-3.988282 7.25-6.484375 12.109374-6.863282 48.929688-3.804687 77.710938-35.238281 57.015626-24.195312zm0 0" fill="url(#d)"/><path d="m329.097656 217.230469c-12.730468-26.246094-54.871094-6.429688-54.871094-6.429688s66.730469-61.671875 32.570313-79.394531-84.886719 48.65625-84.886719 48.65625 30.628906-64.113281-18.179687-52.910156c-48.8125 11.207031-64.660157 98.078125-64.660157 98.078125s-1.371093-73.53125-39.804687-28.078125c-7.699219 9.101562-13.820313 19.695312-18.695313 30.816406-.128906.296875 137.371094 138.65625 137.371094 138.65625 29.992188-10.015625 63.105469-25.042969 67.730469-43.535156 8.699219-34.773438-48.21875-37.714844-48.21875-37.714844s104.375-41.898438 91.644531-68.144531zm0 0" fill="url(#e)"/><path d="m375.699219 425.382812s-94.257813-20.671874-117.554688-76.738281c-23.296875-56.066406 28.113281-34.375 28.113281-34.375s-64.714843-51.261719-75.945312-109.714843c-11.226562-58.453126 46.851562-13.339844 46.851562-13.339844s-57.640624-66.894532-35.699218-111.914063c21.9375-45.015625 52.585937 19.085938 52.585937 19.085938s-19.789062-81.167969 15.457031-96.613281c35.25-15.449219 41.324219 75.210937 41.324219 75.210937s11.046875-45.238281 39.46875-38.65625c28.417969 6.578125-4.539062 114.113281-4.539062 114.113281s38.039062-42.441406 59.632812-13.832031c21.59375 28.605469-29.609375 127.886719-29.609375 127.886719s39.566406-53.695313 52.746094-26.367188c32.597656 67.570313-72.832031 185.253906-72.832031 185.253906zm0 0" fill="url(#f)"/><path d="m448.53125 240.128906c-13.183594-27.328125-52.746094 26.367188-52.746094 26.367188s51.199219-99.277344 29.609375-127.886719c-21.59375-28.609375-59.632812 13.832031-59.632812 13.832031s32.957031-107.535156 4.539062-114.113281c-28.421875-6.582031-39.46875 38.65625-39.46875 38.65625s-4.535156-67.589844-28.464843-76.097656c-1.925782 75.726562 2.414062 250.773437 69.378906 423.535156 2.53125.648437 3.953125.960937 3.953125.960937s105.429687-117.683593 72.832031-185.253906zm0 0" fill="url(#h)"/><path d="m393.253906 323.460938c-3.078125 16.09375-15.761718 38.398437-24.972656 53.046874-1.773438-6.371093-3.601562-12.726562-5.375-19.09375-2.28125-8.808593-4.710938-17.574218-7.058594-26.355468-.570312-2.203125-1.238281-4.375-1.785156-6.582032l-1.679688-6.609374-.085937-.335938c-2.066406-8.121094-.671875-16.695312 3.675781-23.859375 32.59375-53.691406 27.238282-111.726563 21.964844-81.390625-4.363281 25.101562-23.484375 62.449219-32.433594 78.96875l-3.109375-13.050781c-2.152343-8.832031-4.382812-17.652344-6.480469-26.5-.984374-4.457031-2.332031-10.613281-3.585937-16.382813-2.136719-9.8125-1.71875-20.042968 1.460937-29.566406 22.171876-66.421875 3.382813-131.042969 4.921876-96.539062 1.242187 27.800781-9.113282 71.835937-14.257813 91.730468-.171875-.832031-.351563-1.664062-.523437-2.5-1.863282-8.910156-4.023438-17.78125-5.824219-26.714844-1.746094-8.945312-3.582031-17.886718-5.460938-26.832031l-1.445312-6.710937c-.484375-2.234375-.976563-4.472656-1.375-6.722656-.847657-4.492188-1.667969-8.992188-2.566407-13.484376-.113281-.59375-.230468-1.191406-.347656-1.78125-.621094-3.191406-5.347656-2.691406-5.292968.554688.011718.613281.023437 1.226562.035156 1.839844.0625 4.609375.203125 9.214844.308594 13.824218.015624 2.3125.214843 4.597657.363281 6.894532l.464843 6.886718c.667969 9.179688 1.378907 18.367188 2.179688 27.554688.300781 4.609375 1.011719 9.152344 1.542969 13.726562.574219 4.570313 1.125 9.144532 1.753906 13.710938l.398437 2.984375c-14.328124-16.710937-40.363281-48.753906-50.933593-72.578125-13.492188-30.414062-2.847657 29.921875 42.171875 78.699219 7.394531 8.011719 12.375 17.949219 14.277344 28.6875 1.117187 6.320312 2.277343 12.839843 2.984374 16.773437.382813 2.273438.867188 4.527344 1.367188 6.773438l1.476562 6.753906 2.949219 13.503906 2.097657 9.222656c-17.042969-12.398437-43.574219-33.132812-56.476563-50.667968-17.65625-24.003906 1.519531 26.105468 50.90625 59.746094 6.105469 4.160156 10.457031 10.433593 12.328125 17.578124l1.144531 4.363282c1.171875 4.457031 2.308594 8.921875 3.664063 13.328125 2.648437 8.828125 5.21875 17.675781 7.933594 26.476562 2.410156 7.375 4.851562 14.738281 7.347656 22.078125-14.796875-8.933594-37.191406-23.757812-47.457032-37.226562-14.742187-19.34375-.144531 24.976562 46.617188 48.300781 3.640625 1.816406 6.457031 4.949219 7.878906 8.761719 1.277344 3.421875 2.5625 6.839844 3.824219 10.265625 7.851563 20.40625 16.269531 40.636719 25.738281 60.359375 2.265625 4.71875 9.386719 1.949218 7.851563-3.050782-1.007813-3.289062-2.015625-6.574218-3.019531-9.863281l-3.921876-13.132812c-1.292968-4.378907-2.707031-8.710938-3.929687-13.109375-2.488281-8.785156-5.265625-17.460938-7.691406-26.25l-3.769531-13.136719-.023438-.074219c-1.34375-4.6875-.492188-9.714844 2.269531-13.734375 27.773438-40.460937 21.390625-82.601562 16.984375-59.558593zm0 0" fill="url(#i)"/><path d="m59.804688 212.871094s15.550781-95.234375 70.277343-121.527344c54.726563-26.289062 35.84375 26.214844 35.84375 26.214844s47.691407-67.390625 105.453125-81.757813c57.761719-14.367187 15.847656 46.0625 15.847656 46.0625s63.6875-61.167969 109.824219-41.695312c46.136719 19.476562-16.214843 53.542969-16.214843 53.542969s79.976562-24.140626 97.308593 10.21875c17.328125 34.363281-72.871093 45.324218-72.871093 45.324218s45.765624 8.589844 40.730468 37.324219-114.191406 1.628906-114.191406 1.628906 44.433594 35.695313 17.03125 58.800781c-27.398438 23.105469-129.300781-22.660156-129.300781-22.660156s55.753906 36.609375 29.179687 51.246094c-65.714844 36.195312-188.917968-62.722656-188.917968-62.722656zm0 0" fill="url(#j)"/><path d="m248.722656 275.59375c26.574219-14.636719-29.179687-51.246094-29.179687-51.246094s101.902343 45.765625 129.300781 22.660156c27.402344-23.105468-17.03125-58.800781-17.03125-58.800781s109.15625 27.101563 114.191406-1.628906c5.035156-28.734375-40.730468-37.324219-40.730468-37.324219s67.246093-8.175781 74.445312-32.53125c-75.71875 2.167969-250.273438 15.953125-419.167969 92.148438-.511719 2.5625-.746093 4-.746093 4s123.203124 98.917968 188.917968 62.722656zm0 0" fill="url(#k)"/><path d="m162.527344 224.894531c-16.234375-2.203125-39.195313-13.664062-54.320313-22.070312 6.269531-2.117188 12.515625-4.285157 18.777344-6.398438 8.671875-2.753906 17.292969-5.652343 25.9375-8.472656 2.164063-.6875 4.300781-1.472656 6.476563-2.136719l6.507812-2.035156.328125-.101562c8-2.5 16.636719-1.574219 24.023437 2.382812 55.375 29.644531 113.035157 21.164062 82.460938 17.535156-25.300781-3-63.628906-20.074218-80.609375-28.121094l12.867187-3.808593c8.703126-2.628907 17.386719-5.328125 26.109376-7.902344 4.398437-1.226563 10.472656-2.902344 16.167968-4.46875 9.679688-2.664063 19.917969-2.796875 29.601563-.136719 67.519531 18.550782 131.03125-3.699218 96.660156-.296875-27.6875 2.738281-72.222656-5.222656-92.363281-9.289062.820312-.214844 1.640625-.441407 2.464844-.65625 8.796874-2.339844 17.539062-4.980469 26.363281-7.253907 8.835937-2.230468 17.664062-4.542968 26.5-6.90625l6.621093-1.804687c2.207032-.605469 4.414063-1.214844 6.640626-1.734375 4.4375-1.089844 8.886718-2.152344 13.324218-3.292969.589844-.144531 1.175782-.292969 1.761719-.441406 3.152344-.792969 2.398437-5.484375-.839844-5.253906-.613281.042969-1.226562.089843-1.835937.132812-4.601563.308594-9.191406.699219-13.789063 1.054688-2.304687.140625-4.582031.460937-6.863281.734375l-6.851562.835937c-9.132813 1.160157-18.269532 2.367188-27.398438 3.664063-4.585938.550781-9.082031 1.503906-13.625 2.285156-4.53125.816406-9.070312 1.617188-13.59375 2.488281l-2.957031.558594c15.910156-15.210937 46.5-42.933594 69.722656-54.777344 29.640625-15.113281-30.03125-1.226562-76.308594 46.359375-7.601562 7.816406-17.257812 13.328125-27.875 15.804688-6.25 1.460937-12.699219 2.96875-16.589843 3.886718-2.25.507813-4.472657 1.113282-6.6875 1.734376l-19.992188 5.507812-9.097656 2.597656c11.464844-17.6875 30.734375-45.304687 47.546875-59.132812 23.011719-18.925782-25.984375 2.925781-56.910157 54.058594-3.824218 6.320312-9.851562 11.007812-16.886718 13.261718l-4.296875 1.375c-4.382813 1.414063-8.78125 2.789063-13.109375 4.378906-8.667969 3.121094-17.363282 6.164063-26.007813 9.351563-7.234375 2.804687-14.453125 5.640625-21.648437 8.527344 8.121094-15.257813 21.714844-38.417969 34.609375-49.394531 18.519531-15.765626-24.949219 1.207031-45.710938 49.160156-1.617187 3.730468-4.59375 6.710937-8.324219 8.339844-3.347656 1.457031-6.691406 2.925781-10.042968 4.371093-19.953125 8.941407-39.699219 18.441407-58.882813 28.960938-4.589843 2.515625-1.441406 9.476562 3.472657 7.675781 3.226562-1.1875 6.457031-2.367188 9.683593-3.550781l12.902344-4.621094c4.300781-1.53125 8.550781-3.175781 12.878906-4.636719 8.636719-2.957031 17.148438-6.199218 25.792969-9.097656l12.914062-4.472656.074219-.023438c4.605469-1.597656 9.675781-1.019531 13.835938 1.519532 41.902343 25.550781 83.636719 16.902343 60.390625 13.746093zm0 0" fill="url(#l)"/><path d="m395.785156 266.496094s16.9375-32.84375 27.21875-66.191406c-33.425781 3.246093-91.195312-11.09375-91.195312-11.09375s44.433594 35.695312 17.035156 58.800781-129.300781-22.660157-129.300781-22.660157 55.753906 36.609376 29.175781 51.246094c-.058594.035156-.125.0625-.183594.097656 19.03125 22.765626 37.722656 37.574219 37.722656 37.574219s-51.410156-21.691406-28.113281 34.375c23.296875 56.066407 117.554688 76.738281 117.554688 76.738281s105.429687-117.683593 72.832031-185.253906c-13.183594-27.328125-52.746094 26.367188-52.746094 26.367188zm0 0" fill="url(#m)"/></svg>