<?xml version="1.0" encoding="iso-8859-1"?>
<!-- Generator: Adobe Illustrator 19.0.0, SVG Export Plug-In . SVG Version: 6.00 Build 0)  -->
<svg version="1.1" id="Capa_1" xmlns="http://www.w3.org/2000/svg" xmlns:xlink="http://www.w3.org/1999/xlink" x="0px" y="0px"
	 viewBox="0 0 512 512" style="enable-background:new 0 0 512 512;" xml:space="preserve">
<path style="fill:#E8E8EA;" d="M255.9,8.965C119.461,8.965,8.865,119.561,8.865,256S119.461,503.035,255.9,503.035
	S502.935,392.439,502.935,256S392.34,8.965,255.9,8.965z M255.9,393.479c-75.931,0-137.48-61.549-137.48-137.479
	s61.549-137.48,137.48-137.48S393.38,180.069,393.38,256S331.831,393.479,255.9,393.479z"/>
<path style="fill:#D6D6D8;" d="M366.326,34.959C427.194,79.945,466.67,152.235,466.67,233.737
	c0,136.439-110.606,247.045-247.045,247.045c-39.686,0-77.191-9.361-110.416-25.994c41.026,30.324,91.763,48.247,146.691,48.247
	c136.439,0,247.035-110.596,247.035-247.035C502.935,159.256,447.327,75.494,366.326,34.959z"/>
<path style="fill:#EF503F;" d="M310.231,497.046c-17.481,3.926-35.661,5.993-54.331,5.993c-18.52,0-36.57-2.038-53.931-5.904
	c6.013-31.775,13.405-72.86,19.638-107.972c10.958,2.817,22.455,4.315,34.292,4.315c11.757,0,23.175-1.478,34.073-4.255
	C296.416,424.326,304.038,465.36,310.231,497.046z"/>
<path style="fill:#E54033;" d="M310.231,497.046c-6.323,1.428-12.736,2.607-19.239,3.526
	c-6.313-32.494-13.655-71.891-20.298-107.892c6.573-0.689,13.016-1.858,19.279-3.456
	C296.416,424.326,304.038,465.36,310.231,497.046z"/>
<path style="fill:#EF503F;" d="M310.231,14.954C292.75,11.029,274.57,8.961,255.9,8.961c-18.52,0-36.57,2.038-53.931,5.904
	c6.013,31.775,13.405,72.86,19.638,107.972c10.958-2.817,22.455-4.315,34.292-4.315c11.757,0,23.175,1.478,34.073,4.255
	C296.416,87.674,304.038,46.64,310.231,14.954z"/>
<path style="fill:#E54033;" d="M310.231,14.954c-6.323-1.428-12.736-2.607-19.239-3.526c-6.313,32.494-13.655,71.891-20.298,107.892
	c6.573,0.689,13.016,1.858,19.279,3.456C296.416,87.674,304.038,46.64,310.231,14.954z"/>
<path style="fill:#EF503F;" d="M15.054,310.131C11.129,292.65,9.061,274.47,9.061,255.8c0-18.52,2.038-36.57,5.904-53.931
	c31.775,6.013,72.86,13.405,107.972,19.638c-2.817,10.958-4.315,22.455-4.315,34.292c0,11.757,1.478,23.175,4.255,34.073
	C87.775,296.316,46.74,303.937,15.054,310.131z"/>
<path style="fill:#E54033;" d="M15.054,310.131c-1.428-6.323-2.607-12.736-3.526-19.239c32.494-6.313,71.891-13.655,107.892-20.298
	c0.689,6.573,1.858,13.016,3.456,19.279C87.775,296.316,46.74,303.937,15.054,310.131z"/>
<path style="fill:#EF503F;" d="M497.146,310.131c3.926-17.481,5.993-35.661,5.993-54.331c0-18.52-2.038-36.57-5.904-53.931
	c-31.775,6.013-72.86,13.405-107.972,19.638c2.817,10.958,4.315,22.455,4.315,34.292c0,11.757-1.478,23.175-4.255,34.073
	C424.426,296.316,465.461,303.937,497.146,310.131z"/>
<path style="fill:#E54033;" d="M497.146,310.131c1.428-6.323,2.607-12.736,3.526-19.239c-32.494-6.313-71.891-13.655-107.892-20.298
	c-0.689,6.573-1.858,13.016-3.456,19.279C424.426,296.316,465.461,303.937,497.146,310.131z"/>
<path d="M481.117,374.776c10.294-19.461,17.984-40.183,22.897-61.728c0.173-0.408,0.315-0.835,0.415-1.282
	c4.098-18.244,6.175-37.074,6.175-55.966c0-18.74-2.046-37.43-6.082-55.553c-0.131-0.589-0.335-1.141-0.59-1.66
	c-4.916-21.412-12.578-42.006-22.812-61.355c15.453-14.488,25.129-35.066,25.129-57.869C506.25,35.602,470.647,0,426.888,0
	c-23.729,0-45.052,10.473-59.607,27.035C333.016,10.333,295.14,1.496,255.9,1.496c-39.194,0-77.027,8.816-111.259,25.48
	C130.09,10.454,108.808,0,85.113,0C41.353,0,5.751,35.602,5.751,79.362c0,22.737,9.624,43.255,24.999,57.735
	C11.574,173.3,1.396,213.866,1.396,256c0,42.131,10.177,82.694,29.35,118.896c-15.374,14.481-24.995,35.005-24.995,57.742
	c0,43.76,35.602,79.362,79.362,79.362c23.695,0,44.983-10.451,59.535-26.972c23.926,11.646,49.615,19.443,76.294,23.092
	c0.014,0.002,0.028,0.004,0.042,0.005c9.105,1.21,18.662,2.029,27.783,2.279c4.737,0.13,9.586,0.13,14.3-0.001
	c17.443-0.485,34.696-2.732,51.746-6.763c9.148-2.163,18.177-4.828,27.031-7.987c2.357-0.841,25.073-11.128,25.453-10.696
	C381.85,501.518,403.16,512,426.888,512c43.76,0,79.362-35.602,79.362-79.362C506.25,409.835,496.57,389.263,481.117,374.776z
	 M401.044,255.8c0-9.541-0.929-19.031-2.768-28.313c37.503-6.673,68.681-12.338,92.915-16.884
	c2.825,14.808,4.284,29.989,4.284,45.396c0,15.397-1.457,30.569-4.279,45.369c-23.794-4.608-54.963-10.458-92.884-17.434
	C400.127,274.702,401.044,265.271,401.044,255.8z M426.888,14.93c35.528,0,64.432,28.904,64.432,64.432
	c0,17.218-6.803,32.866-17.845,44.436c-10.467-17.155-23.039-33.19-37.61-47.761c-16.575-16.574-35.034-30.579-54.893-41.818
	C392.666,22.322,408.927,14.93,426.888,14.93z M425.307,86.594c30.747,30.748,52.095,68.387,62.628,109.431
	c-24.404,4.575-55.812,10.279-93.61,17.002c-5.938-19.137-15.817-36.982-29.197-52.308c-2.71-3.105-7.426-3.425-10.532-0.714
	c-3.106,2.711-3.425,7.427-0.714,10.533c20.657,23.662,32.033,54.013,32.033,85.463c0,16.559-3.168,33.076-9.357,48.437
	c-10.582,26.263-29.837,48.703-54.133,63.23c-28.043,16.768-61.485,22.287-93.422,15.542
	c-59.634-12.595-102.917-66.672-102.917-127.409c0-18.768,3.892-37.261,11.795-54.307c3.111-6.71,6.798-13.151,11.003-19.235
	c8.362-12.098,18.771-22.765,30.66-31.421c13.63-9.924,29.183-17.142,45.562-21.139c8.242-2.011,16.68-3.21,25.156-3.577
	c23.907-1.035,47.751,4.49,68.739,16.176c3.603,2.006,8.149,0.708,10.152-2.895c2.003-3.603,0.708-8.148-2.896-10.152
	c-8.803-4.897-18.108-8.827-27.72-11.777c7.013-38.135,12.898-69.502,17.535-93.456C357.04,34.568,394.608,55.895,425.307,86.594z
	 M284.034,398.212c6.983,37.96,12.843,69.181,17.463,93.03c-29.756,5.728-61.039,5.755-90.834,0.069
	c4.544-24.219,10.224-55.475,16.925-93.135c-0.117,0.685,10.067,1.506,10.776,1.569c12.838,1.14,25.614,1.557,38.403-0.306
	C279.235,399.079,281.591,398.692,284.034,398.212z M227.588,113.824c-6.701-37.66-12.382-68.916-16.925-93.135
	c29.795-5.686,61.079-5.659,90.834,0.069c-4.62,23.849-10.48,55.07-17.463,93.03c0.156-0.849-19.757-2.237-21.362-2.322
	C250.761,110.831,239.375,111.487,227.588,113.824z M20.681,79.362c0-35.528,28.904-64.432,64.432-64.432
	c17.924,0,34.151,7.367,45.839,19.222c-19.905,11.251-38.407,25.277-55.015,41.885c-14.535,14.535-27.08,30.526-37.531,47.633
	C27.432,112.115,20.681,96.517,20.681,79.362z M86.494,86.594c30.787-30.787,68.481-52.15,109.586-62.669
	c4.563,24.334,10.269,55.746,17,93.589c-45.471,14.089-81.439,50.002-95.599,95.443c-6.576-1.17-13.319-2.373-20.137-3.594
	c-4.054-0.731-7.937,1.973-8.664,6.032c-0.727,4.058,1.973,7.937,6.032,8.664c6.451,1.156,12.835,2.295,19.073,3.405
	c-1.85,9.23-2.828,18.771-2.828,28.537c0,9.568,0.942,18.919,2.719,27.974c-37.896,6.971-69.046,12.819-92.817,17.423
	c-2.877-14.939-4.332-30.244-4.332-45.596c0-15.229,1.434-30.422,4.268-45.263c3.952,0.715,7.984,1.424,12.16,2.158
	c5.234,0.92,10.63,1.869,16.222,2.893c4.051,0.741,7.945-1.943,8.687-5.999c0.743-4.055-1.943-7.945-5.999-8.687
	c-5.627-1.03-11.057-1.985-16.324-2.912c-4.004-0.704-7.864-1.385-11.648-2.068C34.434,154.918,55.771,117.316,86.494,86.594z
	 M85.113,497.07c-35.528,0-64.432-28.904-64.432-64.432c0-17.154,6.759-32.743,17.73-44.299
	c10.45,17.104,22.994,33.092,37.526,47.625c16.608,16.608,35.11,30.635,55.015,41.886C119.263,489.703,103.037,497.07,85.113,497.07
	z M86.494,425.406c-30.737-30.737-52.08-68.36-62.617-109.387c23.898-4.628,55.257-10.513,93.437-17.534
	c14.039,45.703,50.109,81.855,95.766,96.002c-6.732,37.843-12.438,69.255-17,93.589C154.975,477.557,117.28,456.193,86.494,425.406z
	 M316.073,487.983c-4.637-23.95-10.522-55.313-17.533-93.443c45.765-14.114,81.925-50.329,95.967-96.125
	c38.153,7.016,69.511,12.899,93.436,17.531c-10.53,41.056-31.881,78.706-62.636,109.461
	C394.608,456.105,357.04,477.432,316.073,487.983z M426.888,497.07c-17.958,0-34.201-7.407-45.896-19.3
	c19.851-11.237,38.304-25.238,54.872-41.807c14.57-14.57,27.142-30.603,37.608-47.757c11.042,11.57,17.848,27.214,17.848,44.432
	C491.32,468.166,462.416,497.07,426.888,497.07z"/>
<g>
</g>
<g>
</g>
<g>
</g>
<g>
</g>
<g>
</g>
<g>
</g>
<g>
</g>
<g>
</g>
<g>
</g>
<g>
</g>
<g>
</g>
<g>
</g>
<g>
</g>
<g>
</g>
<g>
</g>
</svg>
