<?xml version="1.0"?>
<svg xmlns="http://www.w3.org/2000/svg" xmlns:xlink="http://www.w3.org/1999/xlink" version="1.1" id="Capa_1" x="0px" y="0px" viewBox="0 0 512 512" style="enable-background:new 0 0 512 512;" xml:space="preserve" width="512px" height="512px" class=""><g><path style="fill:#FAA589;" d="M182,175.183v-60c0-11.046-8.954-20-20-20s-21,8-23,20l-9,60H90v160h128.23v-160L182,175.183  L182,175.183z" data-original="#FAA589"/><g>
	<rect x="10" y="175.18" style="fill:#DAE2EF;" width="80" height="160" data-original="#DAE2EF" class=""/>
	<path style="fill:#DAE2EF;" d="M328,348.183c-15.699,0-30.486-3.896-43.456-10.764l-37.705,71.701   c24.233,12.803,51.847,20.063,81.161,20.063c25.57,0,49.851-5.517,71.72-15.423l-34.042-73.532   C354.16,345.338,341.413,348.183,328,348.183z" data-original="#DAE2EF" class=""/>
	<path style="fill:#DAE2EF;" d="M486.324,182.922l-73.518,34.036c5.264,11.66,8.194,24.6,8.194,38.225   c0,16.272-4.184,31.565-11.527,44.87l71.714,37.712C494.461,313.194,502,285.069,502,255.183   C502,229.401,496.386,204.932,486.324,182.922z" data-original="#DAE2EF" class=""/>
</g><g>
	<path style="fill:#0099FF" d="M243.989,295.114l-73.517,34.036c16.101,34.23,43.025,62.355,76.367,79.971l37.705-71.701   C266.887,328.069,252.603,313.204,243.989,295.114z" data-original="#F03C32" class="active-path" data-old_color="#0091FF"/>
	<path style="fill:#0099FF" d="M365.678,340.228l34.042,73.532c34.758-15.745,63.417-42.583,81.467-75.995l-71.714-37.712   C399.691,317.778,384.294,331.968,365.678,340.228z" data-original="#F03C32" class="active-path" data-old_color="#0091FF"/>
	<path style="fill:#0099FF" d="M412.806,216.958l73.518-34.036c-16.053-35.116-43.446-63.956-77.494-81.851l-37.705,71.701   C389.488,182.401,404.239,197.982,412.806,216.958z" data-original="#F03C32" class="active-path" data-old_color="#0091FF"/>
</g><g>
	<path style="fill:#DAE2EF;" d="M235,255.183c0-14.993,3.553-29.155,9.855-41.697l-71.716-37.713   C160.906,199.581,154,226.575,154,255.183c0,26.451,5.913,51.518,16.472,73.966l73.517-34.036   C238.228,283.014,235,269.476,235,255.183z" data-original="#DAE2EF" class=""/>
	<path style="fill:#DAE2EF;" d="M328,162.183c15.565,0,30.234,3.83,43.125,10.589l37.705-71.701   C384.677,88.376,357.18,81.183,328,81.183c-26.663,0-51.921,6.005-74.507,16.724l34.037,73.521   C299.766,165.505,313.495,162.183,328,162.183z" data-original="#DAE2EF" class=""/>
</g><path style="fill:#0099FF" d="M287.531,171.428l-34.037-73.521c-34.584,16.413-62.897,43.89-80.354,77.866l71.716,37.713  C254.045,195.197,269.088,180.356,287.531,171.428z" data-original="#F03C32" class="active-path" data-old_color="#0091FF"/><g>
	<path style="fill:#FAA589;" d="M234,175.183c-11.288,0-20.392,9.351-19.987,20.729c0.385,10.838,9.622,19.271,20.466,19.271H274   c11.046,0,20-8.954,20-20l0,0c0-11.046-8.954-20-20-20H234z" data-original="#FAA589"/>
	<path style="fill:#FAA589;" d="M234,215.183c-11.288,0-20.392,9.351-19.987,20.729c0.385,10.838,9.622,19.271,20.466,19.271H274   c11.046,0,20-8.954,20-20l0,0c0-11.046-8.954-20-20-20H234z" data-original="#FAA589"/>
	<path style="fill:#FAA589;" d="M234,255.183c-11.288,0-20.392,9.351-19.987,20.729c0.385,10.838,9.622,19.271,20.466,19.271H274   c11.046,0,20-8.954,20-20l0,0c0-11.046-8.954-20-20-20L234,255.183L234,255.183z" data-original="#FAA589"/>
	<path style="fill:#FAA589;" d="M234,295.183c-11.288,0-20.392,9.351-19.987,20.729c0.385,10.838,9.622,19.271,20.466,19.271H274   c11.046,0,20-8.954,20-20l0,0c0-11.046-8.954-20-20-20H234z" data-original="#FAA589"/>
</g><path d="M495.419,178.764c-12.947-28.322-33.101-53.003-58.028-71.498c3.596-10.432,4.769-21.149,3.296-30.836  c-2.025-13.309-9.047-23.663-19.268-28.409c-18.731-8.697-42.398,3.078-56.13,27c-12.239-2.529-24.747-3.838-37.289-3.838  c-14.089,0-27.903,1.567-41.35,4.658c-13.657-24.476-37.655-36.616-56.604-27.818c-10.22,4.745-17.242,15.1-19.267,28.408  c-1.601,10.527-0.081,22.269,4.282,33.54c-8.276,6.454-15.99,13.614-23.062,21.365v-16.152c0-16.542-13.458-30-30-30  c-16.304,0-30.125,11.925-32.864,28.356c-0.009,0.054-0.018,0.107-0.025,0.161l-7.723,51.483H10c-5.523,0-10,4.477-10,10v160  c0,5.523,4.477,10,10,10h157.524c12.115,21.508,28.545,40.489,48.043,55.601c-4.742,11.649-6.448,23.87-4.787,34.785  c2.025,13.309,9.047,23.663,19.267,28.408c4.17,1.936,8.583,2.858,13.079,2.858c16.348-0.001,33.762-12.203,44.349-32.192  c13.265,2.99,26.873,4.54,40.526,4.54c12.39,0,24.575-1.222,36.491-3.619c10.63,19.443,27.753,31.273,43.85,31.271  c4.494,0,8.91-0.923,13.079-2.858c10.22-4.745,17.242-15.1,19.267-28.408c1.535-10.088,0.192-21.292-3.762-32.128  c21.829-16.094,40.108-36.947,53.061-60.924C504.388,315.859,512,285.659,512,255.183C512,228.542,506.421,202.831,495.419,178.764z   M472.813,178.158l-55.503,25.696c-8.069-13.986-19.391-25.98-32.903-34.852l28.477-54.154  C438.096,130.151,458.939,152.17,472.813,178.158z M224.007,275.556c-0.199-5.591,4.401-10.374,9.993-10.374h0.479H274  c5.514,0,10,4.486,10,10s-4.486,10-10,10h-39.521C228.894,285.183,224.196,280.865,224.007,275.556z M226.803,228.241  c1.903-1.972,4.459-3.058,7.197-3.058h0.479H274c5.514,0,10,4.486,10,10s-4.486,10-10,10h-39.521  c-5.586,0-10.284-4.318-10.473-9.626C223.909,232.808,224.902,230.21,226.803,228.241z M274,185.183c5.514,0,10,4.486,10,10  s-4.486,10-10,10h-39.521c-5.586,0-10.284-4.318-10.473-9.626c-0.098-2.749,0.895-5.347,2.796-7.316  c1.903-1.972,4.459-3.058,7.197-3.058H274z M226.803,308.241c1.903-1.972,4.459-3.058,7.197-3.058h0.479H274c5.514,0,10,4.486,10,10  s-4.486,10-10,10h-39.521c-5.586,0-10.284-4.318-10.473-9.626C223.909,312.808,224.902,310.21,226.803,308.241z M296.337,295.183  c4.761-5.312,7.663-12.322,7.663-20s-2.902-14.688-7.663-20c4.761-5.312,7.663-12.322,7.663-20s-2.902-14.688-7.663-20  c4.761-5.312,7.663-12.322,7.663-20c0-6.447-2.051-12.421-5.526-17.317c9.23-3.657,19.197-5.683,29.525-5.683  c44.97,0,83,38.067,83,83c0,32.811-19.901,62.132-49.537,75.549c-10.546,4.775-22.004,7.451-33.462,7.451  c-10.247,0-20.19-2.084-29.427-5.822c3.415-4.87,5.427-10.792,5.427-17.178C304,307.505,301.098,300.495,296.337,295.183z   M412.997,66.162c5.521,2.564,7.331,9.418,7.917,13.277c0.757,4.979,0.393,10.625-0.985,16.34c-2.123-1.228-4.272-2.417-6.447-3.56  c-8.957-4.707-18.315-8.636-27.934-11.793C394.324,68.142,406.019,62.924,412.997,66.162z M328,91.183  c23.153,0,46.178,4.943,67.179,14.363l-28.485,54.169c-12.232-4.947-25.432-7.532-38.693-7.532c-12.266,0-24.151,2.103-35.46,6.263  l-25.686-55.483C286.256,95.141,306.778,91.183,328,91.183z M230.552,79.439c0.587-3.858,2.396-10.713,7.917-13.277  c7.201-3.344,19.432,2.321,28.289,15.471c-5.94,2.103-11.796,4.508-17.553,7.24c-5.851,2.777-11.539,5.868-17.047,9.242  C230.281,91.612,229.691,85.096,230.552,79.439z M248.792,111.557l24.827,53.626H234c-8.215,0-15.882,3.256-21.588,9.169  c-2.278,2.36-4.113,5.023-5.487,7.889l-20.095-10.567C201.727,146.586,223.272,125.685,248.792,111.557z M80,325.183H20v-140h60  V325.183z M100,185.183h30c4.95,0,9.155-3.622,9.889-8.517l8.987-59.91c1.151-6.71,6.66-11.573,13.124-11.573  c5.514,0,10,4.486,10,10v42.42c-2.773,4.416-5.367,8.95-7.756,13.6C150.811,197.348,144,225.602,144,255.183  c0,24.303,4.649,47.806,13.808,70H100V185.183z M164,255.183c0-22.963,4.6-45.022,13.69-65.718l27.634,14.532  c1.291,4.194,3.481,7.981,6.351,11.156c-5.219,5.804-7.935,13.257-7.656,21.114c0.259,7.284,3.107,13.853,7.656,18.886  c-5.219,5.804-7.935,13.257-7.656,21.114c0.259,7.284,3.107,13.853,7.656,18.886c-1.607,1.787-2.974,3.731-4.092,5.794  l-32.023,14.826C167.885,296.53,164,276.193,164,255.183z M184.089,333.865l21.245-9.836c3.81,12.327,15.389,21.154,29.145,21.154  h34.683l-26.366,50.139C218.299,380.367,197.892,359.004,184.089,333.865z M238.469,445.838c-5.521-2.564-7.331-9.418-7.917-13.277  c-0.921-6.056-0.185-13.097,2.02-20.051c3.141,1.912,6.34,3.732,9.596,5.452c8.193,4.329,16.717,8.02,25.475,11.052  C258.732,443.127,245.914,449.292,238.469,445.838z M328,419.183c-23.283,0-46.426-4.996-67.521-14.517l28.479-54.157  c12.33,5.04,25.65,7.674,39.041,7.674c11.185,0,22.091-1.762,32.54-5.249l25.739,55.598C367.72,415.604,348.16,419.183,328,419.183z   M420.915,432.561c-0.587,3.858-2.396,10.713-7.917,13.276c-7.22,3.353-19.48-2.342-28.339-15.546  c6.499-2.106,12.901-4.575,19.188-7.423c5.373-2.434,10.615-5.135,15.715-8.074C421.236,420.993,421.735,427.167,420.915,432.561z   M404.5,400.281l-25.693-55.497c13.614-7.753,25.401-18.602,34.266-31.541l54.229,28.517  C451.945,366.379,430.111,386.723,404.5,400.281z M476.82,324.169l-54.115-28.458c5.448-12.746,8.295-26.577,8.295-40.529  c0-11.399-1.825-22.497-5.436-33.112l55.565-25.725c7.218,18.729,10.87,38.475,10.87,58.836  C492,279.031,486.775,302.682,476.82,324.169z" data-original="#000000" class=""/><path d="M50,305.18c5.51,0,10-4.48,10-10c0-5.51-4.49-10-10-10s-10,4.49-10,10C40,300.7,44.49,305.18,50,305.18z" data-original="#000000" class=""/><path d="M50,265.18c5.51,0,10-4.48,10-10v-40c0-5.51-4.49-10-10-10s-10,4.49-10,10v40C40,260.7,44.49,265.18,50,265.18z" data-original="#000000" class=""/></g> </svg>
