<?xml version="1.0" encoding="iso-8859-1"?>
<!-- Generator: Adobe Illustrator 22.1.0, SVG Export Plug-In . SVG Version: 6.00 Build 0)  -->
<svg xmlns="http://www.w3.org/2000/svg" xmlns:xlink="http://www.w3.org/1999/xlink" version="1.1" id="Layer_1_1_" x="0px" y="0px" viewBox="0 0 64 64" style="enable-background:new 0 0 64 64;" xml:space="preserve" width="512" height="512">
<g>
	<g>
		<polygon style="fill:#FCD770;" points="52,58 52,62 44,62 44,58 48,58   "/>
		<polygon style="fill:#FCD770;" points="40,58 40,62 32,62 32,58 36,58   "/>
		<polygon style="fill:#FCD770;" points="28,58 28,62 20,62 20,58 24,58   "/>
		<polygon style="fill:#FCD770;" points="16,58 16,62 8,62 8,58 12,58   "/>
		<path style="fill:#FCD770;" d="M62,40v6c0,1.1-0.9,2-2,2h-2V38h2C61.1,38,62,38.9,62,40z"/>
		<polygon style="fill:#969FAA;" points="30,12 32,16 6,16 8,12   "/>
		<path style="fill:#E6E9ED;" d="M49,16h7c1.1,0,2,0.9,2,2v20v10v2c0,1.1-0.9,2-2,2h-8H36H24H12H4c-1.1,0-2-0.9-2-2V18    c0-1.1,0.9-2,2-2h2h26H49z"/>
		<polygon style="fill:#656D78;" points="6,20 6,24 26,24 28,26 26,28 24,28 24,32 21,32 18,32 18,28 6,28 6,48 10,48 12,44 21,44     32,44 32,20   "/>
		<polygon style="fill:#E6E9ED;" points="32,44 32,48 10,48 12,44 21,44   "/>
		<polygon style="fill:#E6E9ED;" points="24,28 24,32 21,32 18,32 18,28   "/>
		<polygon style="fill:#E6E9ED;" points="28,26 26,28 24,28 18,28 6,28 6,24 26,24   "/>
		<path style="fill:#FCD770;" d="M52,5v5h-3h-3V5c0-1.66,1.34-3,3-3c0.83,0,1.58,0.34,2.12,0.88C51.66,3.42,52,4.17,52,5z"/>
		<polygon style="fill:#69D6F4;" points="54,26 54,48 36,48 36,26 49,26   "/>
	</g>
	<g>
		<path d="M60,37h-1V18c0-1.654-1.346-3-3-3h-4v2h4c0.552,0,1,0.449,1,1v32c0,0.552-0.448,1-1,1H4c-0.552,0-1-0.448-1-1V18    c0-0.551,0.448-1,1-1h42v-2H32.618l-2-4H7.382l-2,4H4c-1.654,0-3,1.346-3,3v32c0,1.302,0.839,2.402,2,2.816V63h4h10h2h10h2h10h2    h10h4V52.816c1.161-0.414,2-1.514,2-2.816v-1h1c1.654,0,3-1.346,3-3v-6C63,38.346,61.654,37,60,37z M8.618,13h20.764l1,2H7.618    L8.618,13z M5,61v-8h6v4H7v4H5z M9,61v-2h6v2H9z M17,61v-4h-4v-4h10v4h-4v4H17z M21,61v-2h6v2H21z M29,61v-4h-4v-4h10v4h-4v4H29z     M33,61v-2h6v2H33z M41,61v-4h-4v-4h10v4h-4v4H41z M45,61v-2h6v2H45z M53,61v-4h-4v-4h6v8H53z M61,46c0,0.552-0.448,1-1,1h-1v-8h1    c0.552,0,1,0.448,1,1V46z"/>
		<path d="M48,25H35v24h20V25h-5V11h3V5c0-2.206-1.794-4-4-4s-4,1.794-4,4v6h3V25z M53,47H37V27h16V47z M47,5c0-1.103,0.897-2,2-2    s2,0.897,2,2v4h-4V5z"/>
		<path d="M33,49v-1v-5V19H5v30H33z M11.618,47l1-2H31v2H11.618z M31,21v22H11.382l-2,4H7V29h10v4h3v8h2v-8h3v-4h1.414l3-3l-3-3H7    v-2H31z M19,31v-2h4v2H19z M7,27v-2h18.586l1,1l-1,1H7z"/>
	</g>
</g>
</svg>
