<?xml version="1.0" encoding="iso-8859-1"?>
<!-- Generator: Adobe Illustrator 19.0.0, SVG Export Plug-In . SVG Version: 6.00 Build 0)  -->
<svg version="1.1" id="Capa_1" xmlns="http://www.w3.org/2000/svg" xmlns:xlink="http://www.w3.org/1999/xlink" x="0px" y="0px"
	 viewBox="0 0 460 460" style="enable-background:new 0 0 460 460;" xml:space="preserve">
<g id="XMLID_1505_">
	<path id="XMLID_1506_" style="fill:#404040;" d="M245,270v-27.29c0-22-18-40-40-40h-30V270H245z"/>
	<path id="XMLID_1507_" style="fill:#606060;" d="M175,202.71h-30c-22,0-40,18-40,40V270h70V202.71z"/>
	<polygon id="XMLID_1508_" style="fill:#606060;" points="175,270 175,300 245,300 245,330 175,330 175,390.71 275,390.71 275,270 	
		"/>
	<polygon id="XMLID_1509_" style="fill:#8F8F8F;" points="105,330 105,300 175,300 175,270 75,270 75,390.71 175,390.71 175,330 	
		"/>
	<rect id="XMLID_1510_" x="275" y="270" style="fill:#8F8F8F;" width="30" height="120.714"/>
	<rect id="XMLID_1511_" x="45" y="270" style="fill:#BFBFBF;" width="30" height="120.714"/>
	<rect id="XMLID_1512_" x="305" y="135" style="fill:#BFBFBF;" width="30" height="195.357"/>
	<rect id="XMLID_1513_" x="335" y="300" style="fill:#606060;" width="30" height="30.357"/>
	<rect id="XMLID_1514_" x="335" y="165" style="fill:#606060;" width="30" height="105"/>
	<rect id="XMLID_1515_" x="365" y="70" style="fill:#404040;" width="50" height="200"/>
	<rect id="XMLID_1516_" x="365" y="300" style="fill:#404040;" width="50" height="90"/>
	<polygon id="XMLID_1517_" style="fill:#404040;" points="15,460 45,460 45,420.714 305,420.714 305,460 335,460 335,390.714 
		15,390.714 	"/>
	<rect id="XMLID_1518_" x="335" y="270" style="fill:#8F8F8F;" width="110" height="30"/>
	<rect id="XMLID_1519_" x="305" y="70" style="fill:#606060;" width="30" height="35"/>
	<polygon id="XMLID_1520_" style="fill:#404040;" points="335,135 335,105 275,105 275,90 245,90 245,150 275,150 275,135 	"/>
	<rect id="XMLID_1521_" x="305" y="40" style="fill:#FF6A00;" width="110" height="30"/>
	<path id="XMLID_1522_" style="fill:#FFAA19;" d="M375,0h-30c-22,0-40,18-40,40h110C415,18,397,0,375,0z"/>
	<rect id="XMLID_1523_" x="175" y="300" style="fill:#FF6A00;" width="70" height="30"/>
	<rect id="XMLID_1524_" x="105" y="300" style="fill:#FFAA19;" width="70" height="30"/>
</g>
<g>
</g>
<g>
</g>
<g>
</g>
<g>
</g>
<g>
</g>
<g>
</g>
<g>
</g>
<g>
</g>
<g>
</g>
<g>
</g>
<g>
</g>
<g>
</g>
<g>
</g>
<g>
</g>
<g>
</g>
</svg>
