<svg height="512" viewBox="0 0 64 64" width="512" xmlns="http://www.w3.org/2000/svg"><g id="Filled_outline" data-name="Filled outline"><rect fill="#55b56a" height="58" rx="2" width="58" x="3" y="3"/><rect fill="#394d5c" height="24" rx="2" width="24" x="33" y="15"/><circle cx="45" cy="27" fill="#7d8d9c" r="8"/><path d="m9 15h6v16h-6z" fill="#394d5c"/><g fill="#fcf05a"><path d="m6 14h3v2h-3z"/><path d="m6 18h3v2h-3z"/><path d="m6 22h3v2h-3z"/><path d="m6 26h3v2h-3z"/><path d="m6 30h3v2h-3z"/><path d="m15 14h3v2h-3z"/><path d="m15 18h3v2h-3z"/><path d="m15 22h3v2h-3z"/><path d="m15 26h3v2h-3z"/><path d="m15 30h3v2h-3z"/></g><path d="m9 35h6v16h-6z" fill="#394d5c"/><path d="m6 34h3v2h-3z" fill="#fcf05a"/><path d="m6 38h3v2h-3z" fill="#fcf05a"/><path d="m6 42h3v2h-3z" fill="#fcf05a"/><path d="m6 46h3v2h-3z" fill="#fcf05a"/><path d="m6 50h3v2h-3z" fill="#fcf05a"/><path d="m15 34h3v2h-3z" fill="#fcf05a"/><path d="m15 38h3v2h-3z" fill="#fcf05a"/><path d="m15 42h3v2h-3z" fill="#fcf05a"/><path d="m15 46h3v2h-3z" fill="#fcf05a"/><path d="m15 50h3v2h-3z" fill="#fcf05a"/><circle cx="9" cy="9" fill="#c8d952" r="2"/><circle cx="55" cy="9" fill="#c8d952" r="2"/><path d="m14 58h-8v-4h2v2h6z" fill="#c8d952"/><path d="m16 56h2v2h-2z" fill="#c8d952"/><path d="m15 7h12v4h-12z" fill="#f4f4e6"/><path d="m31 7h12v4h-12z" fill="#f4f4e6"/><circle cx="23" cy="17" fill="#c8d952" r="2"/><circle cx="23" cy="25" fill="#c8d952" r="2"/><circle cx="23" cy="45" fill="#c8d952" r="2"/><circle cx="23" cy="53" fill="#c8d952" r="2"/><rect fill="#f4f4e6" height="8" rx="1" width="8" x="21" y="31"/><path d="m28 16h2v2h-2z" fill="#fcf05a"/><path d="m28 20h2v2h-2z" fill="#fcf05a"/><path d="m28 24h2v2h-2z" fill="#fcf05a"/><path d="m36 18h2v2h-2z" fill="#7d8d9c"/><path d="m52 18h2v2h-2z" fill="#7d8d9c"/><path d="m52 34h2v2h-2z" fill="#7d8d9c"/><path d="m36 34h2v2h-2z" fill="#7d8d9c"/><path d="m29 43h28v4h-28z" fill="#f4f4e6"/><path d="m29 47h28v4h-28z" fill="#7d8d9c"/><path d="m58 58h-11v-2h9v-2h2z" fill="#c8d952"/><path d="m43 56h2v2h-2z" fill="#c8d952"/><path d="m28 57h12v4h-12z" fill="#c8d952"/><circle cx="45" cy="27" fill="#5a6470" r="2"/><path d="m59 2h-54a3 3 0 0 0 -3 3v54a3 3 0 0 0 3 3h54a3 3 0 0 0 3-3v-54a3 3 0 0 0 -3-3zm-20 58h-10v-2h10zm21-1a1 1 0 0 1 -1 1h-18v-4h-14v4h-22a1 1 0 0 1 -1-1v-54a1 1 0 0 1 1-1h54a1 1 0 0 1 1 1z"/><path d="m6 14v2h2v2h-2v2h2v2h-2v2h2v2h-2v2h2v2h-2v2h12v-2h-2v-2h2v-2h-2v-2h2v-2h-2v-2h2v-2h-2v-2h2v-2zm8 16h-4v-14h4z"/><path d="m6 34v2h2v2h-2v2h2v2h-2v2h2v2h-2v2h2v2h-2v2h12v-2h-2v-2h2v-2h-2v-2h2v-2h-2v-2h2v-2h-2v-2h2v-2zm8 16h-4v-14h4z"/><path d="m9 12a3 3 0 1 0 -3-3 3 3 0 0 0 3 3zm0-4a1 1 0 1 1 -1 1 1 1 0 0 1 1-1z"/><path d="m55 6a3 3 0 1 0 3 3 3 3 0 0 0 -3-3zm0 4a1 1 0 1 1 1-1 1 1 0 0 1 -1 1z"/><path d="m8 54h-2v4h8v-2h-6z"/><path d="m16 56h2v2h-2z"/><path d="m28 6h-14v6h14zm-2 4h-10v-2h10z"/><path d="m44 6h-14v6h14zm-2 4h-10v-2h10z"/><path d="m23 14a3 3 0 1 0 3 3 3 3 0 0 0 -3-3zm0 4a1 1 0 1 1 1-1 1 1 0 0 1 -1 1z"/><path d="m23 22a3 3 0 1 0 3 3 3 3 0 0 0 -3-3zm0 4a1 1 0 1 1 1-1 1 1 0 0 1 -1 1z"/><path d="m23 42a3 3 0 1 0 3 3 3 3 0 0 0 -3-3zm0 4a1 1 0 1 1 1-1 1 1 0 0 1 -1 1z"/><path d="m23 50a3 3 0 1 0 3 3 3 3 0 0 0 -3-3zm0 4a1 1 0 1 1 1-1 1 1 0 0 1 -1 1z"/><path d="m30 38v-6a2 2 0 0 0 -2-2h-6a2 2 0 0 0 -2 2v6a2 2 0 0 0 2 2h6a2 2 0 0 0 2-2zm-8-6h6v6h-6z"/><path d="m55 14h-20a3 3 0 0 0 -3 3v20a3 3 0 0 0 3 3h20a3 3 0 0 0 3-3v-20a3 3 0 0 0 -3-3zm1 23a1 1 0 0 1 -1 1h-20a1 1 0 0 1 -1-1v-20a1 1 0 0 1 1-1h20a1 1 0 0 1 1 1z"/><path d="m28 16h2v2h-2z"/><path d="m28 20h2v2h-2z"/><path d="m28 24h2v2h-2z"/><path d="m45 18a9 9 0 1 0 9 9 9.01 9.01 0 0 0 -9-9zm0 16a7 7 0 1 1 7-7 7.009 7.009 0 0 1 -7 7z"/><path d="m47.7 25.715 2.008-2.008-1.414-1.414-2.009 2.007a2.746 2.746 0 0 0 -.285-.116v-2.184h-2v2.184a2.746 2.746 0 0 0 -.285.117l-2.008-2.008-1.414 1.414 2.007 2.008a2.746 2.746 0 0 0 -.117.285h-2.183v2h2.184a2.746 2.746 0 0 0 .117.285l-2.008 2.008 1.414 1.414 2.008-2.007a2.746 2.746 0 0 0 .285.117v2.183h2v-2.184a2.746 2.746 0 0 0 .285-.117l2.008 2.008 1.414-1.414-2.007-2.008a2.746 2.746 0 0 0 .116-.285h2.184v-2h-2.184a2.746 2.746 0 0 0 -.116-.285zm-2.7 2.285a1 1 0 1 1 1-1 1 1 0 0 1 -1 1z"/><path d="m36 18h2v2h-2z"/><path d="m52 18h2v2h-2z"/><path d="m52 34h2v2h-2z"/><path d="m36 34h2v2h-2z"/><path d="m28 52h30v-10h-30zm2-8h26v2h-26zm0 4h26v2h-26z"/><path d="m56 56h-9v2h11v-4h-2z"/><path d="m43 56h2v2h-2z"/></g></svg>