<svg height="464pt" viewBox="0 -80 464 464" width="464pt" xmlns="http://www.w3.org/2000/svg"><path d="m32 32h400v240h-400zm0 0" fill="#e97424"/><path d="m0 56h32v80h-32zm0 0" fill="#d9176c"/><path d="m0 168h32v80h-32zm0 0" fill="#d9176c"/><path d="m80 64h176v32h-176zm0 0" fill="#fcf05a"/><path d="m336 80c0 8.835938-7.164062 16-16 16s-16-7.164062-16-16 7.164062-16 16-16 16 7.164062 16 16zm0 0" fill="#195c85"/><path d="m400 80c0 8.835938-7.164062 16-16 16s-16-7.164062-16-16 7.164062-16 16-16 16 7.164062 16 16zm0 0" fill="#195c85"/><path d="m64 128h32v32h-32zm0 0" fill="#fcf05a"/><path d="m136 128h32v32h-32zm0 0" fill="#fcf05a"/><path d="m208 128h32v32h-32zm0 0" fill="#fcf05a"/><path d="m432 80h32v32h-32zm0 0" fill="#d9176c"/><path d="m432 144h32v32h-32zm0 0" fill="#d9176c"/><path d="m432 208h32v32h-32zm0 0" fill="#d9176c"/><path d="m288 0h32v32h-32zm0 0" fill="#d9176c"/><path d="m352 0h32v32h-32zm0 0" fill="#d9176c"/><path d="m96 272h96v32h-96zm0 0" fill="#d9176c"/><path d="m224 272h96v32h-96zm0 0" fill="#d9176c"/><path d="m304 144h64c4.417969 0 8 3.582031 8 8v64c0 4.417969-3.582031 8-8 8h-64c-4.417969 0-8-3.582031-8-8v-64c0-4.417969 3.582031-8 8-8zm0 0" fill="#394d5c"/><g fill="#aabece"><path d="m320 160c-4.417969 0-8-3.582031-8-8v-24c0-4.417969 3.582031-8 8-8s8 3.582031 8 8v24c0 4.417969-3.582031 8-8 8zm0 0"/><path d="m352 160c-4.417969 0-8-3.582031-8-8v-24c0-4.417969 3.582031-8 8-8s8 3.582031 8 8v24c0 4.417969-3.582031 8-8 8zm0 0"/><path d="m320 248c-4.417969 0-8-3.582031-8-8v-24c0-4.417969 3.582031-8 8-8s8 3.582031 8 8v24c0 4.417969-3.582031 8-8 8zm0 0"/><path d="m352 248c-4.417969 0-8-3.582031-8-8v-24c0-4.417969 3.582031-8 8-8s8 3.582031 8 8v24c0 4.417969-3.582031 8-8 8zm0 0"/><path d="m392 176h-24c-4.417969 0-8-3.582031-8-8s3.582031-8 8-8h24c4.417969 0 8 3.582031 8 8s-3.582031 8-8 8zm0 0"/><path d="m392 208h-24c-4.417969 0-8-3.582031-8-8s3.582031-8 8-8h24c4.417969 0 8 3.582031 8 8s-3.582031 8-8 8zm0 0"/><path d="m304 176h-24c-4.417969 0-8-3.582031-8-8s3.582031-8 8-8h24c4.417969 0 8 3.582031 8 8s-3.582031 8-8 8zm0 0"/><path d="m304 208h-24c-4.417969 0-8-3.582031-8-8s3.582031-8 8-8h24c4.417969 0 8 3.582031 8 8s-3.582031 8-8 8zm0 0"/></g><path d="m80 200h-8c-4.417969 0-8-3.582031-8-8s3.582031-8 8-8h8c4.417969 0 8 3.582031 8 8s-3.582031 8-8 8zm0 0" fill="#fff"/><path d="m120 200h-8c-4.417969 0-8-3.582031-8-8s3.582031-8 8-8h8c4.417969 0 8 3.582031 8 8s-3.582031 8-8 8zm0 0" fill="#fff"/><path d="m160 200h-8c-4.417969 0-8-3.582031-8-8s3.582031-8 8-8h8c4.417969 0 8 3.582031 8 8s-3.582031 8-8 8zm0 0" fill="#fff"/><path d="m200 200h-8c-4.417969 0-8-3.582031-8-8s3.582031-8 8-8h8c4.417969 0 8 3.582031 8 8s-3.582031 8-8 8zm0 0" fill="#fff"/><path d="m240 200h-8c-4.417969 0-8-3.582031-8-8s3.582031-8 8-8h8c4.417969 0 8 3.582031 8 8s-3.582031 8-8 8zm0 0" fill="#fff"/><path d="m240 240h-176c-4.417969 0-8-3.582031-8-8s3.582031-8 8-8h176c4.417969 0 8 3.582031 8 8s-3.582031 8-8 8zm0 0" fill="#fff"/></svg>