<?xml version="1.0" encoding="iso-8859-1"?>
<!-- Generator: Adobe Illustrator 22.1.0, SVG Export Plug-In . SVG Version: 6.00 Build 0)  -->
<svg xmlns="http://www.w3.org/2000/svg" xmlns:xlink="http://www.w3.org/1999/xlink" version="1.1" id="Layer_1_1_" x="0px" y="0px" viewBox="0 0 64 64" style="enable-background:new 0 0 64 64;" xml:space="preserve" width="512" height="512">
<g>
	<g>
		<path style="fill:#B4DD7F;" d="M62,22V10H5l-3,3v9h4v20H2v12h60V42l-4-2V24L62,22z"/>
		<polygon style="fill:#8CC152;" points="62,22 62,42 58,40 58,24   "/>
		<polygon style="fill:#CCD1D9;" points="54,16 54,22 52,22 48,22 44,22 40,22 36,22 34,22 34,20 34,16 36,16 40,16 44,16 48,16     52,16   "/>
		<polygon style="fill:#CCD1D9;" points="54,30 54,36 52,36 48,36 44,36 40,36 36,36 34,36 34,30 36,30 40,30 44,30 48,30 52,30       "/>
		<polygon style="fill:#CCD1D9;" points="28,36 28,40 28,44 28,48 28,50 20,50 20,48 20,44 20,40 20,36 20,34 28,34   "/>
		<polygon style="fill:#CCD1D9;" points="28,16 28,20 28,24 28,28 28,30 20,30 20,28 20,24 20,20 20,16 20,14 28,14   "/>
		<circle style="fill:#FCD770;" cx="50" cy="46" r="4"/>
		<circle style="fill:#FCD770;" cx="38" cy="46" r="4"/>
		<rect x="2" y="22" style="fill:#8CC152;" width="4" height="20"/>
	</g>
	<g>
		<path d="M4.586,9L1,12.586V55h62V9H4.586z M3,23h2v18H3V23z M3,53V43h4V21H3v-7.586L5.414,11H61v10.382l-4,2v17.236l4,2V53H3z     M61,23.618v16.764l-2-1V24.618L61,23.618z"/>
		<rect x="5" y="13" width="2" height="2"/>
		<rect x="57" y="13" width="2" height="2"/>
		<rect x="5" y="49" width="2" height="2"/>
		<rect x="57" y="49" width="2" height="2"/>
		<rect x="9" y="13" width="2" height="38"/>
		<rect x="13" y="13" width="2" height="38"/>
		<path d="M29,13H19v2h-2v2h2v2h-2v2h2v2h-2v2h2v2h-2v2h2v2h10v-2h2v-2h-2v-2h2v-2h-2v-2h2v-2h-2v-2h2v-2h-2V13z M27,29h-6V15h6V29z    "/>
		<rect x="23" y="17" width="2" height="10"/>
		<path d="M29,33H19v2h-2v2h2v2h-2v2h2v2h-2v2h2v2h-2v2h2v2h10v-2h2v-2h-2v-2h2v-2h-2v-2h2v-2h-2v-2h2v-2h-2V33z M27,49h-6V35h6V49z    "/>
		<rect x="23" y="37" width="2" height="10"/>
		<path d="M53,13h-2v2h-2v-2h-2v2h-2v-2h-2v2h-2v-2h-2v2h-2v-2h-2v2h-2v8h2v2h2v-2h2v2h2v-2h2v2h2v-2h2v2h2v-2h2v2h2v-2h2v-8h-2V13z     M53,21H35v-4h18V21z"/>
		<path d="M53,27h-2v2h-2v-2h-2v2h-2v-2h-2v2h-2v-2h-2v2h-2v-2h-2v2h-2v8h2v2h2v-2h2v2h2v-2h2v2h2v-2h2v2h2v-2h2v2h2v-2h2v-8h-2V27z     M53,35H35v-4h18V35z"/>
		<path d="M38,41c-2.757,0-5,2.243-5,5s2.243,5,5,5s5-2.243,5-5S40.757,41,38,41z M38,49c-1.654,0-3-1.346-3-3s1.346-3,3-3    s3,1.346,3,3S39.654,49,38,49z"/>
		<rect x="37" y="45" width="2" height="2"/>
		<path d="M50,41c-2.757,0-5,2.243-5,5s2.243,5,5,5s5-2.243,5-5S52.757,41,50,41z M50,49c-1.654,0-3-1.346-3-3s1.346-3,3-3    s3,1.346,3,3S51.654,49,50,49z"/>
		<rect x="49" y="45" width="2" height="2"/>
	</g>
</g>
</svg>
