<svg height="480pt" viewBox="0 -31 480 479" width="480pt" xmlns="http://www.w3.org/2000/svg"><path d="m8 24.5h464v384h-464zm0 0" fill="#95d441"/><path d="m40 280.5h128v64h-32v32h-96zm0 0" fill="#9196a9"/><path d="m40 56.5h32v192h-32zm0 0" fill="#dce1ea"/><path d="m304 120.5h48v32h-48zm0 0" fill="#9196a9"/><path d="m376 8.5h64v32h-64zm0 0" fill="#d12136"/><path d="m200 344.5h240v32h-240zm0 0" fill="#2d67c4"/><path d="m296 8.5h48v32h-48zm0 0" fill="#e38100"/><path d="m328 200.5h96v96h-96zm0 0" fill="#dce1ea"/><path d="m104 56.5h32v192h-32zm0 0" fill="#dce1ea"/><path d="m168 56.5h32v160h-32zm0 0" fill="#ffbc05"/><path d="m232 56.5h32v160h-32zm0 0" fill="#ffbc05"/><path d="m264 272.5c0 13.253906-10.746094 24-24 24s-24-10.746094-24-24 10.746094-24 24-24 24 10.746094 24 24zm0 0" fill="#dce1ea"/><path d="m360 232.5h32v32h-32zm0 0" fill="#9196a9"/><path d="m384 120.5h48v32h-48zm0 0" fill="#9196a9"/><path d="m472 16.5h-24v-8c0-4.417969-3.582031-8-8-8h-64c-4.417969 0-8 3.582031-8 8v8h-16v-8c0-4.417969-3.582031-8-8-8h-48c-4.417969 0-8 3.582031-8 8v8h-280c-4.417969 0-8 3.582031-8 8v384c0 4.417969 3.582031 8 8 8h464c4.417969 0 8-3.582031 8-8v-384c0-4.417969-3.582031-8-8-8zm-88 0h48v16h-48zm-80 0h32v16h-32zm160 384h-448v-368h272v8c0 4.417969 3.582031 8 8 8h48c4.417969 0 8-3.582031 8-8v-8h16v8c0 4.417969 3.582031 8 8 8h64c4.417969 0 8-3.582031 8-8v-8h16zm0 0"/><path d="m168 272.5h-128c-4.417969 0-8 3.582031-8 8v96c0 4.417969 3.582031 8 8 8h96c4.417969 0 8-3.582031 8-8v-24h24c4.417969 0 8-3.582031 8-8v-64c0-4.417969-3.582031-8-8-8zm-8 64h-24c-4.417969 0-8 3.582031-8 8v24h-80v-80h112zm0 0"/><path d="m40 256.5h32c4.417969 0 8-3.582031 8-8v-192c0-4.417969-3.582031-8-8-8h-32c-4.417969 0-8 3.582031-8 8v192c0 4.417969 3.582031 8 8 8zm8-192h16v176h-16zm0 0"/><path d="m304 160.5h48c4.417969 0 8-3.582031 8-8v-32c0-4.417969-3.582031-8-8-8h-48c-4.417969 0-8 3.582031-8 8v32c0 4.417969 3.582031 8 8 8zm8-32h32v16h-32zm0 0"/><path d="m440 336.5h-240c-4.417969 0-8 3.582031-8 8v32c0 4.417969 3.582031 8 8 8h240c4.417969 0 8-3.582031 8-8v-32c0-4.417969-3.582031-8-8-8zm-8 32h-224v-16h224zm0 0"/><path d="m306.320312 78.179688c2.289063 2.289062 5.742188 2.957031 8.71875 1.679687 2.011719-.726563 3.59375-2.308594 4.320313-4.320313.410156-.960937.628906-1.992187.640625-3.039062 0-4.417969-3.582031-8-8-8s-8 3.582031-8 8c-.027344 1.050781.191406 2.089844.640625 3.039062.40625.96875.976563 1.863282 1.679687 2.640626zm0 0"/><path d="m338.320312 78.179688c2.289063 2.289062 5.742188 2.957031 8.71875 1.679687 2.011719-.726563 3.59375-2.308594 4.320313-4.320313.410156-.960937.628906-1.992187.640625-3.039062 0-4.417969-3.582031-8-8-8s-8 3.582031-8 8c-.027344 1.050781.191406 2.089844.640625 3.039062.40625.96875.976563 1.863282 1.679687 2.640626zm0 0"/><path d="m370.320312 78.179688c2.289063 2.289062 5.742188 2.957031 8.71875 1.679687 2.011719-.726563 3.59375-2.308594 4.320313-4.320313.851563-1.9375.851563-4.140624 0-6.078124-.386719-.980469-.957031-1.875-1.679687-2.640626-2.300782-2.269531-5.742188-2.933593-8.71875-1.679687-.980469.386719-1.875.957031-2.640626 1.679687-1.464843 1.53125-2.292968 3.5625-2.320312 5.679688-.027344 1.050781.191406 2.089844.640625 3.039062.40625.96875.976563 1.863282 1.679687 2.640626zm0 0"/><path d="m402.320312 78.179688c2.289063 2.289062 5.742188 2.957031 8.71875 1.679687 2.011719-.726563 3.59375-2.308594 4.320313-4.320313.410156-.960937.628906-1.992187.640625-3.039062-.03125-2.117188-.859375-4.148438-2.320312-5.679688-2.300782-2.269531-5.742188-2.933593-8.71875-1.679687-.980469.386719-1.875.957031-2.640626 1.679687-1.464843 1.53125-2.292968 3.5625-2.320312 5.679688-.027344 1.050781.191406 2.089844.640625 3.039062.40625.96875.976563 1.863282 1.679687 2.640626zm0 0"/><path d="m322.320312 94.179688c2.289063 2.308593 5.746094 3 8.746094 1.753906 3.003906-1.246094 4.953125-4.183594 4.933594-7.433594 0-4.417969-3.582031-8-8-8s-8 3.582031-8 8c-.019531 2.128906.816406 4.175781 2.320312 5.679688zm0 0"/><path d="m354.320312 94.179688c1.503907 1.503906 3.550782 2.339843 5.679688 2.320312 1.039062.011719 2.074219-.175781 3.039062-.558594.972657-.4375 1.863282-1.03125 2.640626-1.761718 1.503906-1.507813 2.339843-3.550782 2.320312-5.679688-.03125-2.117188-.859375-4.148438-2.320312-5.679688-1.914063-1.886718-4.644532-2.695312-7.28125-2.160156-.5.085938-.984376.25-1.4375.480469-.511719.175781-1 .417969-1.449219.71875-.414063.296875-.8125.617187-1.191407.960937-1.480468 1.519532-2.3125 3.558594-2.320312 5.679688-.019531 2.128906.816406 4.175781 2.320312 5.679688zm0 0"/><path d="m386.320312 94.179688c1.503907 1.503906 3.550782 2.339843 5.679688 2.320312 1.039062.011719 2.074219-.175781 3.039062-.558594.957032-.46875 1.84375-1.058594 2.640626-1.761718 1.503906-1.507813 2.339843-3.550782 2.320312-5.679688-.03125-2.117188-.859375-4.148438-2.320312-5.679688-.394532-.363281-.820313-.683593-1.28125-.960937-.40625-.316406-.867188-.558594-1.359376-.71875-.476562-.242187-.996093-.40625-1.527343-.480469-2.609375-.523437-5.308594.285156-7.199219 2.160156-1.460938 1.53125-2.289062 3.5625-2.3125 5.679688-.019531 2.128906.816406 4.175781 2.320312 5.679688zm0 0"/><path d="m418.320312 94.179688c1.503907 1.503906 3.550782 2.339843 5.679688 2.320312 1.039062.011719 2.074219-.175781 3.039062-.558594.964844-.449218 1.855469-1.042968 2.640626-1.761718 1.503906-1.507813 2.339843-3.550782 2.320312-5.679688-.03125-2.117188-.859375-4.148438-2.320312-5.679688-.382813-.34375-.78125-.664062-1.199219-.960937-.445313-.300781-.929688-.542969-1.441407-.71875-.453124-.230469-.9375-.390625-1.4375-.480469-2.636718-.539062-5.367187.273438-7.28125 2.160156-1.464843 1.53125-2.292968 3.5625-2.320312 5.679688-.019531 2.128906.816406 4.175781 2.320312 5.679688zm0 0"/><path d="m64 304.5h80v16h-80zm0 0"/><path d="m64 336.5h48v16h-48zm0 0"/><path d="m432 200.5c0-4.417969-3.582031-8-8-8h-16v-16h-16v16h-8v-16h-16v16h-8v-16h-16v16h-16c-4.417969 0-8 3.582031-8 8v16h-16v16h16v8h-16v16h16v8h-16v16h16v16c0 4.417969 3.582031 8 8 8h16v16h16v-16h8v16h16v-16h8v16h16v-16h16c4.417969 0 8-3.582031 8-8v-16h16v-16h-16v-8h16v-16h-16v-8h16v-16h-16zm-16 88h-80v-80h80zm0 0"/><path d="m104 256.5h32c4.417969 0 8-3.582031 8-8v-192c0-4.417969-3.582031-8-8-8h-32c-4.417969 0-8 3.582031-8 8v192c0 4.417969 3.582031 8 8 8zm8-192h16v176h-16zm0 0"/><path d="m168 224.5h32c4.417969 0 8-3.582031 8-8v-160c0-4.417969-3.582031-8-8-8h-32c-4.417969 0-8 3.582031-8 8v160c0 4.417969 3.582031 8 8 8zm8-160h16v144h-16zm0 0"/><path d="m232 224.5h32c4.417969 0 8-3.582031 8-8v-160c0-4.417969-3.582031-8-8-8h-32c-4.417969 0-8 3.582031-8 8v160c0 4.417969 3.582031 8 8 8zm8-160h16v144h-16zm0 0"/><path d="m240 304.5c17.671875 0 32-14.328125 32-32s-14.328125-32-32-32-32 14.328125-32 32 14.328125 32 32 32zm0-48c8.835938 0 16 7.164062 16 16s-7.164062 16-16 16-16-7.164062-16-16 7.164062-16 16-16zm0 0"/><path d="m360 272.5h32c4.417969 0 8-3.582031 8-8v-32c0-4.417969-3.582031-8-8-8h-32c-4.417969 0-8 3.582031-8 8v32c0 4.417969 3.582031 8 8 8zm8-32h16v16h-16zm0 0"/><path d="m384 112.5c-4.417969 0-8 3.582031-8 8v32c0 4.417969 3.582031 8 8 8h48c4.417969 0 8-3.582031 8-8v-32c0-4.417969-3.582031-8-8-8zm40 32h-32v-16h32zm0 0"/></svg>