<svg height="464pt" viewBox="0 -31 464 463" width="464pt" xmlns="http://www.w3.org/2000/svg"><path d="m0 16.5h464v384h-464zm0 0" fill="#95d441"/><path d="m32 272.5h128v64h-32v32h-96zm0 0" fill="#9196a9"/><path d="m32 48.5h32v192h-32zm0 0" fill="#dce1ea"/><path d="m296 112.5h48v32h-48zm0 0" fill="#9196a9"/><path d="m368 .5h64v32h-64zm0 0" fill="#d12136"/><path d="m192 336.5h240v32h-240zm0 0" fill="#2d67c4"/><g fill="#dce1ea"><path d="m304 72.5c-2.128906.019531-4.175781-.816406-5.679688-2.320312-.703124-.777344-1.273437-1.671876-1.679687-2.640626-.449219-.949218-.667969-1.988281-.640625-3.039062 0-4.417969 3.582031-8 8-8s8 3.582031 8 8c-.011719 1.046875-.230469 2.078125-.640625 3.039062-.726563 2.011719-2.308594 3.59375-4.320313 4.320313-.960937.410156-1.992187.628906-3.039062.640625zm0 0"/><path d="m336 72.5c-2.128906.019531-4.175781-.816406-5.679688-2.320312-.703124-.777344-1.273437-1.671876-1.679687-2.640626-.449219-.949218-.667969-1.988281-.640625-3.039062 0-4.417969 3.582031-8 8-8s8 3.582031 8 8c-.011719 1.046875-.230469 2.078125-.640625 3.039062-.726563 2.011719-2.308594 3.59375-4.320313 4.320313-.960937.410156-1.992187.628906-3.039062.640625zm0 0"/><path d="m368 72.5c-2.128906.019531-4.175781-.816406-5.679688-2.320312-.703124-.777344-1.273437-1.671876-1.679687-2.640626-.449219-.949218-.667969-1.988281-.640625-3.039062.027344-2.117188.855469-4.148438 2.320312-5.679688.765626-.722656 1.660157-1.292968 2.640626-1.679687 2.976562-1.253906 6.417968-.589844 8.71875 1.679687.722656.765626 1.292968 1.660157 1.679687 2.640626.851563 1.9375.851563 4.140624 0 6.078124-.726563 2.011719-2.308594 3.59375-4.320313 4.320313-.960937.410156-1.992187.628906-3.039062.640625zm0 0"/><path d="m400 72.5c-2.128906.019531-4.175781-.816406-5.679688-2.320312-.703124-.777344-1.273437-1.671876-1.679687-2.640626-.449219-.949218-.667969-1.988281-.640625-3.039062.027344-2.117188.855469-4.148438 2.320312-5.679688.765626-.722656 1.660157-1.292968 2.640626-1.679687 2.976562-1.253906 6.417968-.589844 8.71875 1.679687 1.460937 1.53125 2.289062 3.5625 2.320312 5.679688-.011719 1.046875-.230469 2.078125-.640625 3.039062-.726563 2.011719-2.308594 3.59375-4.320313 4.320313-.960937.410156-1.992187.628906-3.039062.640625zm0 0"/><path d="m320 88.5c-2.128906.023438-4.175781-.8125-5.679688-2.320312-1.507812-1.503907-2.34375-3.550782-2.320312-5.679688 0-4.417969 3.582031-8 8-8s8 3.582031 8 8c.023438 2.128906-.8125 4.175781-2.320312 5.679688-1.503907 1.507812-3.550782 2.34375-5.679688 2.320312zm0 0"/><path d="m352 88.5c-2.128906.023438-4.175781-.8125-5.679688-2.320312-1.507812-1.503907-2.34375-3.550782-2.320312-5.679688.007812-2.121094.839844-4.160156 2.320312-5.679688.378907-.34375.777344-.664062 1.191407-.960937.449219-.300781.9375-.542969 1.449219-.71875.453124-.230469.9375-.394531 1.4375-.480469 2.636718-.535156 5.367187.273438 7.28125 2.160156 1.460937 1.53125 2.289062 3.5625 2.320312 5.679688.019531 2.128906-.816406 4.171875-2.320312 5.679688-.777344.730468-1.667969 1.324218-2.640626 1.761718-.964843.382813-2 .570313-3.039062.558594zm0 0"/><path d="m384 88.5c-2.128906.023438-4.175781-.8125-5.679688-2.320312-1.507812-1.503907-2.34375-3.550782-2.320312-5.679688.027344-2.117188.855469-4.148438 2.320312-5.679688 1.890626-1.875 4.589844-2.683593 7.199219-2.160156.53125.074219 1.050781.238282 1.527344.480469.492187.160156.953125.402344 1.359375.71875.460938.277344.886719.597656 1.28125.960937 1.460938 1.535157 2.285156 3.5625 2.3125 5.679688.019531 2.128906-.816406 4.171875-2.320312 5.679688-.796876.703124-1.683594 1.292968-2.640626 1.761718-.964843.382813-2 .570313-3.039062.558594zm0 0"/><path d="m416 88.5c-2.128906.023438-4.175781-.8125-5.679688-2.320312-1.507812-1.503907-2.34375-3.550782-2.320312-5.679688.027344-2.117188.855469-4.148438 2.320312-5.679688 1.914063-1.886718 4.644532-2.699218 7.28125-2.160156.5.089844.984376.25 1.4375.480469.511719.175781.996094.417969 1.441407.71875.417969.296875.816406.617187 1.199219.960937 1.460937 1.53125 2.289062 3.5625 2.320312 5.679688.019531 2.128906-.816406 4.171875-2.320312 5.679688-.785157.71875-1.675782 1.3125-2.640626 1.761718-.964843.382813-2 .570313-3.039062.558594zm0 0"/></g><path d="m288 .5h48v32h-48zm0 0" fill="#e38100"/><path d="m56 296.5h80v16h-80zm0 0" fill="#dce1ea"/><path d="m56 328.5h48v16h-48zm0 0" fill="#dce1ea"/><path d="m296 208.5h24v16h-24zm0 0" fill="#ffbc05"/><path d="m296 232.5h24v16h-24zm0 0" fill="#ffbc05"/><path d="m296 256.5h24v16h-24zm0 0" fill="#ffbc05"/><path d="m336 288.5h16v24h-16zm0 0" fill="#ffbc05"/><path d="m360 288.5h16v24h-16zm0 0" fill="#ffbc05"/><path d="m384 288.5h16v24h-16zm0 0" fill="#ffbc05"/><path d="m320 192.5h96v96h-96zm0 0" fill="#dce1ea"/><path d="m416 208.5h24v16h-24zm0 0" fill="#ffbc05"/><path d="m416 232.5h24v16h-24zm0 0" fill="#ffbc05"/><path d="m416 256.5h24v16h-24zm0 0" fill="#ffbc05"/><path d="m336 168.5h16v24h-16zm0 0" fill="#ffbc05"/><path d="m360 168.5h16v24h-16zm0 0" fill="#ffbc05"/><path d="m384 168.5h16v24h-16zm0 0" fill="#ffbc05"/><path d="m96 48.5h32v192h-32zm0 0" fill="#dce1ea"/><path d="m160 48.5h32v160h-32zm0 0" fill="#ffbc05"/><path d="m224 48.5h32v160h-32zm0 0" fill="#ffbc05"/><path d="m256 264.5c0 13.253906-10.746094 24-24 24s-24-10.746094-24-24 10.746094-24 24-24 24 10.746094 24 24zm0 0" fill="#dce1ea"/><path d="m352 224.5h32v32h-32zm0 0" fill="#9196a9"/><path d="m376 112.5h48v32h-48zm0 0" fill="#9196a9"/></svg>