<svg height="480pt" viewBox="0 -80 480 480" width="480pt" xmlns="http://www.w3.org/2000/svg"><path d="m40 40h400v240h-400zm0 0" fill="#e97424"/><path d="m8 64h32v80h-32zm0 0" fill="#d9176c"/><path d="m8 176h32v80h-32zm0 0" fill="#d9176c"/><path d="m88 72h176v32h-176zm0 0" fill="#fcf05a"/><path d="m344 88c0 8.835938-7.164062 16-16 16s-16-7.164062-16-16 7.164062-16 16-16 16 7.164062 16 16zm0 0" fill="#195c85"/><path d="m408 88c0 8.835938-7.164062 16-16 16s-16-7.164062-16-16 7.164062-16 16-16 16 7.164062 16 16zm0 0" fill="#195c85"/><path d="m72 136h32v32h-32zm0 0" fill="#fcf05a"/><path d="m144 136h32v32h-32zm0 0" fill="#fcf05a"/><path d="m216 136h32v32h-32zm0 0" fill="#fcf05a"/><path d="m440 88h32v32h-32zm0 0" fill="#d9176c"/><path d="m440 152h32v32h-32zm0 0" fill="#d9176c"/><path d="m440 216h32v32h-32zm0 0" fill="#d9176c"/><path d="m296 8h32v32h-32zm0 0" fill="#d9176c"/><path d="m360 8h32v32h-32zm0 0" fill="#d9176c"/><path d="m104 280h96v32h-96zm0 0" fill="#d9176c"/><path d="m232 280h96v32h-96zm0 0" fill="#d9176c"/><path d="m312 152h64c4.417969 0 8 3.582031 8 8v64c0 4.417969-3.582031 8-8 8h-64c-4.417969 0-8-3.582031-8-8v-64c0-4.417969 3.582031-8 8-8zm0 0" fill="#394d5c"/><g fill="#aabece"><path d="m328 168c-4.417969 0-8-3.582031-8-8v-24c0-4.417969 3.582031-8 8-8s8 3.582031 8 8v24c0 4.417969-3.582031 8-8 8zm0 0"/><path d="m360 168c-4.417969 0-8-3.582031-8-8v-24c0-4.417969 3.582031-8 8-8s8 3.582031 8 8v24c0 4.417969-3.582031 8-8 8zm0 0"/><path d="m328 256c-4.417969 0-8-3.582031-8-8v-24c0-4.417969 3.582031-8 8-8s8 3.582031 8 8v24c0 4.417969-3.582031 8-8 8zm0 0"/><path d="m360 256c-4.417969 0-8-3.582031-8-8v-24c0-4.417969 3.582031-8 8-8s8 3.582031 8 8v24c0 4.417969-3.582031 8-8 8zm0 0"/><path d="m400 184h-24c-4.417969 0-8-3.582031-8-8s3.582031-8 8-8h24c4.417969 0 8 3.582031 8 8s-3.582031 8-8 8zm0 0"/><path d="m400 216h-24c-4.417969 0-8-3.582031-8-8s3.582031-8 8-8h24c4.417969 0 8 3.582031 8 8s-3.582031 8-8 8zm0 0"/><path d="m312 184h-24c-4.417969 0-8-3.582031-8-8s3.582031-8 8-8h24c4.417969 0 8 3.582031 8 8s-3.582031 8-8 8zm0 0"/><path d="m312 216h-24c-4.417969 0-8-3.582031-8-8s3.582031-8 8-8h24c4.417969 0 8 3.582031 8 8s-3.582031 8-8 8zm0 0"/></g><path d="m88 208h-8c-4.417969 0-8-3.582031-8-8s3.582031-8 8-8h8c4.417969 0 8 3.582031 8 8s-3.582031 8-8 8zm0 0" fill="#fff"/><path d="m128 208h-8c-4.417969 0-8-3.582031-8-8s3.582031-8 8-8h8c4.417969 0 8 3.582031 8 8s-3.582031 8-8 8zm0 0" fill="#fff"/><path d="m168 208h-8c-4.417969 0-8-3.582031-8-8s3.582031-8 8-8h8c4.417969 0 8 3.582031 8 8s-3.582031 8-8 8zm0 0" fill="#fff"/><path d="m208 208h-8c-4.417969 0-8-3.582031-8-8s3.582031-8 8-8h8c4.417969 0 8 3.582031 8 8s-3.582031 8-8 8zm0 0" fill="#fff"/><path d="m248 208h-8c-4.417969 0-8-3.582031-8-8s3.582031-8 8-8h8c4.417969 0 8 3.582031 8 8s-3.582031 8-8 8zm0 0" fill="#fff"/><path d="m248 248h-176c-4.417969 0-8-3.582031-8-8s3.582031-8 8-8h176c4.417969 0 8 3.582031 8 8s-3.582031 8-8 8zm0 0" fill="#fff"/><path d="m328 112c13.253906 0 24-10.746094 24-24s-10.746094-24-24-24-24 10.746094-24 24 10.746094 24 24 24zm0-32c4.417969 0 8 3.582031 8 8s-3.582031 8-8 8-8-3.582031-8-8 3.582031-8 8-8zm0 0"/><path d="m392 64c-13.253906 0-24 10.746094-24 24s10.746094 24 24 24 24-10.746094 24-24-10.746094-24-24-24zm0 32c-4.417969 0-8-3.582031-8-8s3.582031-8 8-8 8 3.582031 8 8-3.582031 8-8 8zm0 0"/><path d="m72 176h32c4.417969 0 8-3.582031 8-8v-32c0-4.417969-3.582031-8-8-8h-32c-4.417969 0-8 3.582031-8 8v32c0 4.417969 3.582031 8 8 8zm8-32h16v16h-16zm0 0"/><path d="m184 168v-32c0-4.417969-3.582031-8-8-8h-32c-4.417969 0-8 3.582031-8 8v32c0 4.417969 3.582031 8 8 8h32c4.417969 0 8-3.582031 8-8zm-16-8h-16v-16h16zm0 0"/><path d="m248 128h-32c-4.417969 0-8 3.582031-8 8v32c0 4.417969 3.582031 8 8 8h32c4.417969 0 8-3.582031 8-8v-32c0-4.417969-3.582031-8-8-8zm-8 32h-16v-16h16zm0 0"/><path d="m472 80h-24v-40c0-4.417969-3.582031-8-8-8h-40v-24c0-4.417969-3.582031-8-8-8h-32c-4.417969 0-8 3.582031-8 8v24h-16v-24c0-4.417969-3.582031-8-8-8h-32c-4.417969 0-8 3.582031-8 8v24h-248c-4.417969 0-8 3.582031-8 8v16h-24c-4.417969 0-8 3.582031-8 8v80c0 4.417969 3.582031 8 8 8h24v16h-24c-4.417969 0-8 3.582031-8 8v80c0 4.417969 3.582031 8 8 8h24v16c0 4.417969 3.582031 8 8 8h56v24c0 4.417969 3.582031 8 8 8h96c4.417969 0 8-3.582031 8-8v-24h16v24c0 4.417969 3.582031 8 8 8h96c4.417969 0 8-3.582031 8-8v-24h104c4.417969 0 8-3.582031 8-8v-24h24c4.417969 0 8-3.582031 8-8v-32c0-4.417969-3.582031-8-8-8h-24v-16h24c4.417969 0 8-3.582031 8-8v-32c0-4.417969-3.582031-8-8-8h-24v-16h24c4.417969 0 8-3.582031 8-8v-32c0-4.417969-3.582031-8-8-8zm-104-64h16v16h-16zm-64 0h16v16h-16zm-288 120v-64h16v64zm0 112v-64h16v64zm176 56h-80v-16h80zm128 0h-80v-16h80zm112-32h-384v-224h384zm32-48v16h-16v-16zm0-64v16h-16v-16zm0-48h-16v-16h16zm0 0"/><path d="m400 184c4.417969 0 8-3.582031 8-8s-3.582031-8-8-8h-16v-8c0-4.417969-3.582031-8-8-8h-8v-16c0-4.417969-3.582031-8-8-8s-8 3.582031-8 8v16h-16v-16c0-4.417969-3.582031-8-8-8s-8 3.582031-8 8v16h-8c-4.417969 0-8 3.582031-8 8v8h-16c-4.417969 0-8 3.582031-8 8s3.582031 8 8 8h16v16h-16c-4.417969 0-8 3.582031-8 8s3.582031 8 8 8h16v8c0 4.417969 3.582031 8 8 8h8v16c0 4.417969 3.582031 8 8 8s8-3.582031 8-8v-16h16v16c0 4.417969 3.582031 8 8 8s8-3.582031 8-8v-16h8c4.417969 0 8-3.582031 8-8v-8h16c4.417969 0 8-3.582031 8-8s-3.582031-8-8-8h-16v-16zm-32 32h-48v-48h48zm0 0"/><path d="m80 192c-4.417969 0-8 3.582031-8 8s3.582031 8 8 8h8c4.417969 0 8-3.582031 8-8s-3.582031-8-8-8zm0 0"/><path d="m120 208h8c4.417969 0 8-3.582031 8-8s-3.582031-8-8-8h-8c-4.417969 0-8 3.582031-8 8s3.582031 8 8 8zm0 0"/><path d="m160 192c-4.417969 0-8 3.582031-8 8s3.582031 8 8 8h8c4.417969 0 8-3.582031 8-8s-3.582031-8-8-8zm0 0"/><path d="m208 208c4.417969 0 8-3.582031 8-8s-3.582031-8-8-8h-8c-4.417969 0-8 3.582031-8 8s3.582031 8 8 8zm0 0"/><path d="m248 192h-8c-4.417969 0-8 3.582031-8 8s3.582031 8 8 8h8c4.417969 0 8-3.582031 8-8s-3.582031-8-8-8zm0 0"/><path d="m280 96c4.417969 0 8-3.582031 8-8s-3.582031-8-8-8h-8v-8c0-4.417969-3.582031-8-8-8h-176c-4.417969 0-8 3.582031-8 8v8h-8c-4.417969 0-8 3.582031-8 8s3.582031 8 8 8h8v8c0 4.417969 3.582031 8 8 8h176c4.417969 0 8-3.582031 8-8v-8zm-24 0h-160v-16h160zm0 0"/><path d="m248 232h-176c-4.417969 0-8 3.582031-8 8s3.582031 8 8 8h176c4.417969 0 8-3.582031 8-8s-3.582031-8-8-8zm0 0"/></svg>