<?xml version="1.0" encoding="iso-8859-1"?>
<!-- Generator: Adobe Illustrator 19.0.0, SVG Export Plug-In . SVG Version: 6.00 Build 0)  -->
<svg version="1.1" id="Capa_1" xmlns="http://www.w3.org/2000/svg" xmlns:xlink="http://www.w3.org/1999/xlink" x="0px" y="0px"
	 viewBox="0 0 480 480" style="enable-background:new 0 0 480 480;" xml:space="preserve">
<path style="fill:#DBE6FD;" d="M239.238,156C278.582,156,312,186.445,312,224v40l32,40h-32v40h-64v40h-80V224
	C168.915,185.56,200.797,155.127,239.238,156z"/>
<path style="fill:#FCCC38;" d="M240,184c-22.091,0-40,14.327-40,32h80C280,198.327,262.091,184,240,184z"/>
<path style="fill:#24DB6A;" d="M104,8H40C22.327,8,8,22.327,8,40v8c0,17.673,14.327,32,32,32v32l32-32h32c17.673,0,32-14.327,32-32
	v-8C136,22.327,121.673,8,104,8z"/>
<path style="fill:#F4393D;" d="M376,8h64c17.673,0,32,14.327,32,32v8c0,17.673-14.327,32-32,32v32l-32-32h-32
	c-17.673,0-32-14.327-32-32v-8C344,22.327,358.327,8,376,8z"/>
<path style="fill:#FF7F00;" d="M40,400h64c17.673,0,32,14.327,32,32v8c0,17.673-14.327,32-32,32H40c-17.673,0-32-14.327-32-32v-8
	C8,414.327,22.327,400,40,400z"/>
<path style="fill:#17AFDC;" d="M376,400h64c17.673,0,32,14.327,32,32v8c0,17.673-14.327,32-32,32h-64c-17.673,0-32-14.327-32-32v-8
	C344,414.327,358.327,400,376,400z"/>
<path d="M256,240h40v16h-40V240z"/>
<path d="M248,392h-80c-4.416,0.003-7.997-3.575-8-7.991c0-0.003,0-0.006,0-0.009V224c0.961-42.837,36.394-76.825,79.234-76
	C283.766,148,320,182.094,320,224v37.195L350.25,299c2.76,3.451,2.2,8.487-1.251,11.247C347.58,311.382,345.817,312,344,312h-24v32
	c0.003,4.416-3.575,7.997-7.991,8c-0.003,0-0.006,0-0.009,0h-56v32c0.003,4.416-3.575,7.997-7.991,8
	C248.006,392,248.003,392,248,392z M176,376h64v-32c-0.003-4.416,3.575-7.997,7.991-8c0.003,0,0.006,0,0.009,0h56v-32
	c-0.003-4.416,3.575-7.997,7.991-8c0.003,0,0.006,0,0.009,0h15.352l-21.602-27c-1.133-1.42-1.751-3.183-1.75-5v-40
	c0-32.523-29.656-60-64.766-60c-34.006-0.831-62.281,25.997-63.234,60V376z"/>
<path d="M280,224h-80c-4.416,0.003-7.997-3.575-8-7.991c0-0.003,0-0.006,0-0.009c0-22.055,21.531-40,48-40s48,17.945,48,40
	c0.003,4.416-3.575,7.997-7.991,8C280.006,224,280.003,224,280,224z M209.828,208h60.344c-6.273-10.557-17.914-16.73-30.172-16
	C227.742,191.271,216.101,197.443,209.828,208L209.828,208z"/>
<path d="M40,120c-4.418,0-8-3.582-8-8V87.195C13.39,83.369,0.025,67,0,48v-8C0.026,17.919,17.919,0.026,40,0h64
	c22.081,0.026,39.974,17.919,40,40v8c-0.026,22.081-17.919,39.974-40,40H75.312l-29.656,29.656C44.156,119.157,42.122,120,40,120z
	 M40,16c-13.249,0.014-23.986,10.751-24,24v8c0.014,13.249,10.751,23.986,24,24c4.416-0.003,7.997,3.575,8,7.991
	c0,0.003,0,0.006,0,0.009v12.688l18.344-18.344C67.844,72.843,69.878,72,72,72h32c13.249-0.014,23.986-10.751,24-24v-8
	c-0.014-13.249-10.751-23.986-24-24H40z"/>
<path d="M440,120c-2.122,0-4.156-0.843-5.656-2.344L404.688,88H376c-22.081-0.026-39.974-17.919-40-40v-8
	c0.026-22.081,17.919-39.974,40-40h64c22.081,0.026,39.974,17.919,40,40v8c-0.025,19-13.39,35.369-32,39.195V112
	C448,116.418,444.418,120,440,120L440,120z M376,16c-13.249,0.014-23.986,10.751-24,24v8c0.014,13.249,10.751,23.986,24,24h32
	c2.122,0,4.156,0.843,5.656,2.344L432,92.688V80c-0.003-4.416,3.575-7.997,7.991-8c0.003,0,0.006,0,0.009,0
	c13.249-0.014,23.986-10.751,24-24v-8c-0.014-13.249-10.751-23.986-24-24H376z"/>
<path d="M32,32h48v16H32V32z"/>
<path d="M96,32h16v16H96V32z"/>
<path d="M104,480H40c-22.081-0.026-39.974-17.919-40-40v-8c0.026-22.081,17.919-39.974,40-40h64c22.081,0.026,39.974,17.919,40,40v8
	C143.974,462.081,126.081,479.974,104,480z M40,408c-13.249,0.014-23.986,10.751-24,24v8c0.014,13.249,10.751,23.986,24,24h64
	c13.249-0.014,23.986-10.751,24-24v-8c-0.014-13.249-10.751-23.986-24-24H40z"/>
<path d="M64,424h48v16H64V424z"/>
<path d="M32,424h16v16H32V424z"/>
<path d="M440,480h-64c-22.081-0.026-39.974-17.919-40-40v-8c0.026-22.081,17.919-39.974,40-40h64c22.081,0.026,39.974,17.919,40,40
	v8C479.974,462.081,462.081,479.974,440,480z M376,408c-13.249,0.014-23.986,10.751-24,24v8c0.014,13.249,10.751,23.986,24,24h64
	c13.249-0.014,23.986-10.751,24-24v-8c-0.014-13.249-10.751-23.986-24-24H376z"/>
<path d="M400,424h48v16h-48V424z"/>
<path d="M368,424h16v16h-16V424z"/>
<path d="M368,32h16v16h-16V32z"/>
<path d="M400,32h48v16h-48V32z"/>
<path d="M32,136h16v24H32V136z"/>
<path id="SVGCleanerId_0" d="M32,176h16v24H32V176z"/>
<g>
	<path id="SVGCleanerId_0_1_" d="M32,176h16v24H32V176z"/>
</g>
<path id="SVGCleanerId_1" d="M64,184h24v16H64V184z"/>
<g>
	<path id="SVGCleanerId_1_1_" d="M64,184h24v16H64V184z"/>
</g>
<path d="M100.797,222.398l-9.594-12.797L114.664,192l-23.461-17.602l9.594-12.797l32,24c3.534,2.645,4.254,7.653,1.61,11.187
	c-0.457,0.611-0.999,1.153-1.61,1.61L100.797,222.398z"/>
<path d="M224,128c-2.45,0-4.765-1.123-6.281-3.047l-24-30.477l12.563-9.906L224,107.07l17.719-22.5l12.563,9.906l-24,30.477
	C228.765,126.877,226.45,128,224,128z"/>
<path d="M32,352h16v24H32V352z"/>
<path id="SVGCleanerId_2" d="M32,312h16v24H32V312z"/>
<g>
	<path id="SVGCleanerId_2_1_" d="M32,312h16v24H32V312z"/>
</g>
<path id="SVGCleanerId_3" d="M32,272h16v24H32V272z"/>
<g>
	<path id="SVGCleanerId_3_1_" d="M32,272h16v24H32V272z"/>
</g>
<path id="SVGCleanerId_4" d="M64,272h24v16H64V272z"/>
<g>
	<path id="SVGCleanerId_4_1_" d="M64,272h24v16H64V272z"/>
</g>
<path d="M100.797,310.398l-9.594-12.797L114.664,280l-23.461-17.602l9.594-12.797l32,24c3.534,2.645,4.254,7.653,1.61,11.187
	c-0.457,0.611-0.999,1.153-1.61,1.61L100.797,310.398z"/>
<path d="M424,224h16v24h-16V224z"/>
<path id="SVGCleanerId_5" d="M424,184h16v24h-16V184z"/>
<g>
	<path id="SVGCleanerId_5_1_" d="M424,184h16v24h-16V184z"/>
</g>
<path d="M424,304h16v24h-16V304z"/>
<path id="SVGCleanerId_6" d="M424,264h16v24h-16V264z"/>
<g>
	<path id="SVGCleanerId_6_1_" d="M424,264h16v24h-16V264z"/>
</g>
<path id="SVGCleanerId_7" d="M424,344h16v24h-16V344z"/>
<g>
	<path id="SVGCleanerId_7_1_" d="M424,344h16v24h-16V344z"/>
</g>
<path d="M256,32h24v16h-24V32z"/>
<path d="M216,32h24v16h-24V32z"/>
<path d="M296,32h24v16h-24V32z"/>
<path id="SVGCleanerId_8" d="M216,64h16v24h-16V64z"/>
<g>
	<path id="SVGCleanerId_8_1_" d="M216,64h16v24h-16V64z"/>
</g>
<path id="SVGCleanerId_9" d="M384,184h24v16h-24V184z"/>
<g>
	<path id="SVGCleanerId_9_1_" d="M384,184h24v16h-24V184z"/>
</g>
<path d="M371.203,222.398l-32-24c-3.534-2.645-4.254-7.653-1.61-11.187c0.457-0.611,0.999-1.153,1.61-1.61l32-24l9.594,12.797
	L357.336,192l23.461,17.602L371.203,222.398z"/>
<g>
</g>
<g>
</g>
<g>
</g>
<g>
</g>
<g>
</g>
<g>
</g>
<g>
</g>
<g>
</g>
<g>
</g>
<g>
</g>
<g>
</g>
<g>
</g>
<g>
</g>
<g>
</g>
<g>
</g>
</svg>
