<?xml version="1.0"?>
<svg xmlns="http://www.w3.org/2000/svg" height="512px" viewBox="0 0 512 512" width="512px" class="hovered-paths"><g><path d="m458.667969 0h-405.335938c-29.394531 0-53.332031 23.914062-53.332031 53.332031v405.335938c0 29.417969 23.9375 53.332031 53.332031 53.332031h405.335938c29.394531 0 53.332031-23.914062 53.332031-53.332031v-405.335938c0-29.417969-23.9375-53.332031-53.332031-53.332031zm0 0" fill="#4caf50" data-original="#4CAF50" class="active-path" style="fill:#FFC477" data-old_color="#4caf50"/><path d="m458.667969 512h-405.335938c-29.394531 0-53.332031-23.914062-53.332031-53.332031v-405.335938c0-29.417969 23.9375-53.332031 53.332031-53.332031h405.335938c29.394531 0 53.332031 23.914062 53.332031 53.332031v405.335938c0 29.417969-23.9375 53.332031-53.332031 53.332031zm-405.335938-490.667969c-17.640625 0-32 14.359375-32 32v405.335938c0 17.640625 14.359375 32 32 32h405.335938c17.640625 0 32-14.359375 32-32v-405.335938c0-17.640625-14.359375-32-32-32zm0 0" data-original="#000000" class="hovered-path" style="fill:#3E3D42" data-old_color="#000000"/><path d="m202.667969 213.332031c-2.730469 0-5.460938-1.042969-7.554688-3.113281l-128-128c-4.160156-4.160156-4.160156-10.921875 0-15.082031 4.160157-4.160157 10.925781-4.160157 15.085938 0l128 128c4.15625 4.160156 4.15625 10.921875 0 15.082031-2.070313 2.070312-4.800781 3.113281-7.53125 3.113281zm0 0" data-original="#000000" class="hovered-path" style="fill:#3E3D42" data-old_color="#000000"/><path d="m74.667969 170.667969c-5.890625 0-10.667969-4.78125-10.667969-10.667969v-85.332031c0-5.890625 4.777344-10.667969 10.667969-10.667969h85.332031c5.886719 0 10.667969 4.777344 10.667969 10.667969 0 5.886719-4.78125 10.664062-10.667969 10.664062h-74.667969v74.667969c0 5.886719-4.777343 10.667969-10.664062 10.667969zm0 0" data-original="#000000" class="hovered-path" style="fill:#3E3D42" data-old_color="#000000"/><path d="m74.667969 448c-2.730469 0-5.460938-1.046875-7.554688-3.113281-4.160156-4.160157-4.160156-10.925781 0-15.085938l128-128c4.160157-4.15625 10.925781-4.15625 15.085938 0 4.15625 4.160157 4.15625 10.925781 0 15.085938l-128 128c-2.070313 2.066406-4.800781 3.113281-7.53125 3.113281zm0 0" data-original="#000000" class="hovered-path" style="fill:#3E3D42" data-old_color="#000000"/><path d="m160 448h-85.332031c-5.890625 0-10.667969-4.777344-10.667969-10.667969v-85.332031c0-5.886719 4.777344-10.667969 10.667969-10.667969 5.886719 0 10.664062 4.78125 10.664062 10.667969v74.667969h74.667969c5.886719 0 10.667969 4.777343 10.667969 10.664062 0 5.890625-4.78125 10.667969-10.667969 10.667969zm0 0" data-original="#000000" class="hovered-path" style="fill:#3E3D42" data-old_color="#000000"/><path d="m309.332031 213.332031c-2.730469 0-5.460937-1.042969-7.550781-3.113281-4.160156-4.160156-4.160156-10.921875 0-15.082031l128-128c4.160156-4.160157 10.921875-4.160157 15.082031 0 4.160157 4.160156 4.160157 10.921875 0 15.082031l-128 128c-2.070312 2.070312-4.800781 3.113281-7.53125 3.113281zm0 0" data-original="#000000" class="hovered-path" style="fill:#3E3D42" data-old_color="#000000"/><path d="m437.332031 170.667969c-5.886719 0-10.664062-4.78125-10.664062-10.667969v-74.667969h-74.667969c-5.886719 0-10.667969-4.777343-10.667969-10.664062 0-5.890625 4.78125-10.667969 10.667969-10.667969h85.332031c5.890625 0 10.667969 4.777344 10.667969 10.667969v85.332031c0 5.886719-4.777344 10.667969-10.667969 10.667969zm0 0" data-original="#000000" class="hovered-path" style="fill:#3E3D42" data-old_color="#000000"/><path d="m437.332031 448c-2.730469 0-5.460937-1.046875-7.550781-3.113281l-128-128c-4.160156-4.160157-4.160156-10.925781 0-15.085938 4.160156-4.15625 10.921875-4.15625 15.082031 0l128 128c4.160157 4.160157 4.160157 10.925781 0 15.085938-2.070312 2.066406-4.800781 3.113281-7.53125 3.113281zm0 0" data-original="#000000" class="hovered-path" style="fill:#3E3D42" data-old_color="#000000"/><path d="m437.332031 448h-85.332031c-5.886719 0-10.667969-4.777344-10.667969-10.667969 0-5.886719 4.78125-10.664062 10.667969-10.664062h74.667969v-74.667969c0-5.886719 4.777343-10.667969 10.664062-10.667969 5.890625 0 10.667969 4.78125 10.667969 10.667969v85.332031c0 5.890625-4.777344 10.667969-10.667969 10.667969zm0 0" data-original="#000000" class="hovered-path" style="fill:#3E3D42" data-old_color="#000000"/></g> </svg>
