<?xml version="1.0" encoding="iso-8859-1"?>
<!-- Generator: Adobe Illustrator 19.0.0, SVG Export Plug-In . SVG Version: 6.00 Build 0)  -->
<svg version="1.1" id="Capa_1" xmlns="http://www.w3.org/2000/svg" xmlns:xlink="http://www.w3.org/1999/xlink" x="0px" y="0px"
	 viewBox="0 0 512 512" style="enable-background:new 0 0 512 512;" xml:space="preserve">
<rect x="9.984" y="9.984" style="fill:#BBECFF;" width="492.037" height="492.037"/>
<g>
	<polygon style="fill:#FDCF84;" points="419.216,157.111 354.377,157.111 354.377,92.274 	"/>
	<polygon style="fill:#FDCF84;" points="92.755,353.895 157.594,353.895 157.594,418.734 	"/>
	<polygon style="fill:#FDCF84;" points="354.377,418.734 354.377,353.895 419.216,353.895 	"/>
	<polygon style="fill:#FDCF84;" points="157.594,92.274 157.594,157.111 92.755,157.111 	"/>
</g>
<circle style="fill:#FF5D5D;" cx="255.997" cy="255.997" r="92.667"/>
<circle style="fill:#FDCF84;" cx="255.997" cy="255.997" r="50.407"/>
<path d="M183.416,328.585c20.012,20.011,46.299,30.016,72.585,30.016c26.286,0,52.572-10.005,72.584-30.016
	c40.023-40.024,40.023-105.146,0-145.169c-40.024-40.023-105.145-40.021-145.169,0C143.393,223.439,143.393,288.561,183.416,328.585
	z M197.535,197.536c16.119-16.119,37.292-24.179,58.465-24.179s42.347,8.06,58.465,24.179c32.238,32.238,32.238,84.693,0,116.931
	c-32.238,32.237-84.693,32.238-116.931,0S165.297,229.773,197.535,197.536z"/>
<path d="M354.376,167.095h64.839c4.038,0,7.678-2.433,9.224-6.163c1.544-3.731,0.69-8.025-2.164-10.88l-25.36-25.36l47.301-47.301
	c3.899-3.899,3.899-10.22,0-14.12c-3.9-3.898-10.219-3.898-14.12,0l-47.301,47.301l-25.36-25.359
	c-2.855-2.855-7.15-3.708-10.88-2.164c-3.73,1.545-6.163,5.185-6.163,9.224v64.838C344.393,162.625,348.864,167.095,354.376,167.095
	z M364.36,116.376l30.753,30.753H364.36L364.36,116.376L364.36,116.376z"/>
<path d="M157.594,343.912H92.755c-4.037,0-7.678,2.433-9.224,6.163c-1.545,3.731-0.691,8.025,2.163,10.88l25.36,25.36l-47.3,47.301
	c-3.899,3.899-3.899,10.22,0,14.12c1.95,1.949,4.505,2.924,7.059,2.924c2.555,0,5.111-0.975,7.059-2.924l47.301-47.301l25.36,25.36
	c1.911,1.91,4.464,2.924,7.062,2.924c1.286,0,2.583-0.249,3.818-0.76c3.731-1.545,6.163-5.185,6.163-9.224v-64.84
	C167.577,348.381,163.107,343.912,157.594,343.912z M147.61,394.631l-30.753-30.752h30.753V394.631z"/>
<path d="M400.916,386.315l25.36-25.36c2.854-2.855,3.709-7.149,2.164-10.88c-1.545-3.73-5.185-6.163-9.224-6.163h-64.839
	c-5.513,0-9.984,4.471-9.984,9.984v64.839c0,4.038,2.433,7.678,6.163,9.224c1.235,0.511,2.533,0.76,3.819,0.76
	c2.599,0,5.151-1.014,7.061-2.924l25.36-25.36l47.3,47.301c1.95,1.949,4.505,2.924,7.059,2.924c2.555,0,5.11-0.975,7.059-2.924
	c3.899-3.899,3.899-10.22,0-14.12L400.916,386.315z M364.36,363.879h30.753l-30.753,30.753L364.36,363.879L364.36,363.879z"/>
<path d="M111.054,124.693l-25.359,25.359c-2.855,2.855-3.709,7.149-2.163,10.88c1.545,3.73,5.185,6.163,9.224,6.163h64.839
	c5.514,0,9.984-4.471,9.984-9.984V92.274c0-4.038-2.433-7.678-6.163-9.224c-3.729-1.542-8.024-0.691-10.88,2.164l-25.36,25.359
	L77.873,63.272c-3.899-3.897-10.219-3.898-14.12,0c-3.899,3.899-3.899,10.22,0,14.12L111.054,124.693z M147.61,147.128h-30.753
	l30.753-30.753V147.128z"/>
<path d="M213.301,298.7c11.773,11.772,27.236,17.659,42.699,17.659c15.463,0,30.927-5.886,42.699-17.659
	c6.67-6.67,11.563-14.558,14.546-23.445c1.754-5.226-1.061-10.887-6.289-12.641c-5.228-1.756-10.886,1.061-12.641,6.289
	c-1.992,5.936-5.267,11.21-9.736,15.679c-15.759,15.759-41.402,15.759-57.161,0c-15.76-15.759-15.76-41.402,0-57.161
	c15.759-15.759,41.402-15.759,57.161,0c3.9,3.898,10.219,3.898,14.12,0c3.899-3.899,3.899-10.22,0-14.12
	c-23.545-23.543-61.854-23.542-85.399,0C189.756,236.847,189.756,275.155,213.301,298.7z"/>
<path d="M502.017,0H9.984C4.47,0,0,4.471,0,9.984v492.033C0,507.529,4.47,512,9.984,512h492.033c5.513,0,9.983-4.471,9.983-9.983
	V9.984C512,4.471,507.53,0,502.017,0z M492.033,492.033H19.967V19.967h472.066V492.033z"/>
<path d="M294.334,244.19c0,5.513,4.471,9.984,9.983,9.984h0.407c5.513,0,9.983-4.471,9.983-9.984s-4.471-9.984-9.983-9.984h-0.407
	C298.803,234.206,294.334,238.677,294.334,244.19z"/>
<g>
</g>
<g>
</g>
<g>
</g>
<g>
</g>
<g>
</g>
<g>
</g>
<g>
</g>
<g>
</g>
<g>
</g>
<g>
</g>
<g>
</g>
<g>
</g>
<g>
</g>
<g>
</g>
<g>
</g>
</svg>
