<?xml version="1.0" encoding="iso-8859-1"?>
<!-- Generator: Adobe Illustrator 19.0.0, SVG Export Plug-In . SVG Version: 6.00 Build 0)  -->
<svg version="1.1" id="Layer_1" xmlns="http://www.w3.org/2000/svg" xmlns:xlink="http://www.w3.org/1999/xlink" x="0px" y="0px"
	 viewBox="0 0 512 512" style="enable-background:new 0 0 512 512;" xml:space="preserve">
<g>
	<rect x="10" y="92" style="fill:#FCE600;" width="492" height="328"/>
	<g>
		<path d="M502,82H10C4.477,82,0,86.477,0,92v328c0,5.523,4.477,10,10,10h492c5.522,0,10-4.477,10-10V92
			C512,86.477,507.522,82,502,82z M492,330.092c-22.047,2.517-79.35,8.821-101.04,8.908c-3.199,0.012-6.581-0.034-10.111-0.129
			c5.974-23.095,9.754-51.886,7.287-85.875c0.571,0.003,1.145,0.007,1.707,0.007c0.4,0,0.801-0.001,1.197-0.002
			c22.206-0.089,77.162-6.066,100.96-8.774L492,330.092L492,330.092z M492,224.093c-22.047,2.517-79.35,8.821-101.04,8.908
			c-0.36,0.001-0.72,0.002-1.084,0.002c-1.259,0-2.554-0.012-3.865-0.028c-2.177-15.653-5.677-32.265-10.852-49.806
			c-1.563-5.296-7.123-8.324-12.421-6.761c-5.297,1.563-8.324,7.124-6.761,12.421c4.499,15.247,7.636,29.712,9.704,43.394
			c-25.189-1.418-55.196-4.552-82.595-7.546c-5.489-0.598-10.427,3.364-11.026,8.854c-0.601,5.49,3.364,10.427,8.854,11.027
			c30.127,3.292,61.116,6.517,87.106,7.828c2.761,34.525-1.387,63.222-7.61,85.518c-28.47-1.819-62.974-5.632-96.637-9.357
			c-27.069-2.995-54.661-6.049-79.426-8.096c5.024-27.942,5.393-57.423,1.069-87.905c-5.938-41.86-20.789-85.712-44.189-130.548H492
			V224.093z M147.976,410c10.115-14.388,23.423-37.744,31.98-69.838c25.146,2.018,53.664,5.173,81.618,8.266
			c31.854,3.525,64.427,7.128,92.31,9.085c-10.948,28.149-24.942,45.931-30.671,52.487L147.976,410L147.976,410z M118.528,102
			c42.316,77.34,58.009,151.94,45.744,216.995c-10.702-0.653-20.589-1.022-29.302-0.995c-25.393,0.075-89.028,6.897-114.97,9.799
			v-85.87c23.992-2.69,90.173-9.854,115.03-9.928c5.522-0.017,9.986-4.507,9.97-10.03c-0.016-5.513-4.49-9.97-10-9.97
			c-0.01,0-0.021,0-0.03,0c-25.393,0.075-89.028,6.897-114.97,9.799V102H118.528z M20,347.928
			c23.992-2.69,90.173-9.854,115.03-9.928c0.272-0.001,0.541-0.001,0.816-0.001c7.14,0,15.131,0.275,23.751,0.756
			c-11.199,39.14-30.086,63.35-36.976,71.245H20V347.928z M348.552,410c7.417-10.556,16.559-25.928,24.289-46.034
			c0.656-1.705,1.303-3.478,1.946-5.284c5.318,0.206,10.37,0.321,15.084,0.321c0.391,0,0.783-0.001,1.169-0.002
			c22.206-0.089,77.162-6.066,100.96-8.774V410H348.552z"/>
		<path d="M213.988,237.302c8.03,0.817,16.904,1.758,27.927,2.961c0.369,0.04,0.735,0.06,1.098,0.06c5.036,0,9.37-3.794,9.929-8.916
			c0.6-5.49-3.365-10.427-8.855-11.026c-11.073-1.209-19.994-2.155-28.073-2.977c-5.493-0.558-10.402,3.442-10.961,8.937
			C204.493,231.835,208.494,236.743,213.988,237.302z"/>
		<path d="M345.276,157.631c1.541,3.952,5.318,6.369,9.319,6.369c1.208,0,2.437-0.221,3.631-0.687
			c5.146-2.007,7.689-7.805,5.683-12.95c-3.81-9.768-8.109-19.738-12.78-29.634c-2.356-4.995-8.32-7.134-13.311-4.775
			c-4.995,2.357-7.133,8.317-4.775,13.312C337.518,138.747,341.634,148.291,345.276,157.631z"/>
	</g>
</g>
<g>
</g>
<g>
</g>
<g>
</g>
<g>
</g>
<g>
</g>
<g>
</g>
<g>
</g>
<g>
</g>
<g>
</g>
<g>
</g>
<g>
</g>
<g>
</g>
<g>
</g>
<g>
</g>
<g>
</g>
</svg>
