<svg height="512pt" viewBox="0 -104 512.001 512" width="512pt" xmlns="http://www.w3.org/2000/svg"><g fill="#557983"><path d="m391.5 183v29.628906c0 5.523438 4.476562 10 10 10h7c5.523438 0 10-4.476562 10-10v-29.628906zm0 0"/><path d="m336.074219 183v29.628906c0 5.523438 4.476562 10 10 10h7c5.523437 0 10-4.476562 10-10v-29.628906zm0 0"/><path d="m290.707031 264.402344c-10.164062 0-18.402343-8.238282-18.402343-18.402344v-58.460938h-32.609376v58.460938c0 10.164062-8.238281 18.402344-18.402343 18.402344h-24.988281c-9.003907 0-16.304688 7.300781-16.304688 16.304687 0 9.003907 7.300781 16.304688 16.304688 16.304688h119.390624c9.003907 0 16.304688-7.300781 16.304688-16.304688 0-9.003906-7.300781-16.304687-16.304688-16.304687zm0 0"/><path d="m478.929688 69.214844v43.460937h-445.859376v-43.460937c0-5.519532 4.480469-10 10-10h425.859376c5.519531 0 10 4.480468 10 10zm0 0"/></g><path d="m33.070312 79.207031h445.859376v33.46875h-445.859376zm0 0" fill="#3f5959"/><path d="m478.929688 69.21875v43.460938h-23.570313v-43.460938c0-5.519531-4.480469-10-10-10h23.570313c5.519531 0 10 4.480469 10 10zm0 0" fill="#3f5959"/><path d="m494.5 195.273438h-477c-5.523438 0-10-4.476563-10-10v-81.0625c0-5.523438 4.476562-10 10-10h477c5.523438 0 10 4.476562 10 10v81.0625c0 5.523437-4.476562 10-10 10zm0 0" fill="#d6f1f2"/><path d="m504.5 104.210938v81.058593c0 5.53125-4.480469 10-10 10h-22.570312c5.519531 0 10-4.46875 10-10v-81.058593c0-5.519532-4.480469-10-10-10h22.570312c5.519531 0 10 4.480468 10 10zm0 0" fill="#a9d3d8"/><path d="m249.6875 144.808594c0 9.527344-7.722656 17.253906-17.253906 17.253906-9.527344 0-17.253906-7.726562-17.253906-17.253906 0-9.53125 7.726562-17.253906 17.253906-17.253906 9.53125 0 17.253906 7.722656 17.253906 17.253906zm0 0" fill="#00f2a9"/><path d="m311.023438 144.808594c0 9.527344-7.726563 17.253906-17.253907 17.253906-9.53125 0-17.253906-7.726562-17.253906-17.253906 0-9.53125 7.722656-17.253906 17.253906-17.253906 9.527344 0 17.253907 7.722656 17.253907 17.253906zm0 0" fill="#ff7d4d"/><path d="m405 94.210938h-59.332031v-76.710938c0-5.523438 4.476562-10 10-10h39.332031c5.523438 0 10 4.476562 10 10zm0 0" fill="#00f2a9"/><path d="m405 17.5v76.710938h-20.671875v-76.710938c0-5.519531-4.46875-10-10-10h20.671875c5.519531 0 10 4.480469 10 10zm0 0" fill="#00d292"/><path d="m405 17.5v25.339844h-59.328125v-25.339844c0-5.519531 4.46875-10 10-10h39.328125c5.519531 0 10 4.480469 10 10zm0 0" fill="#d6f1f2"/><path d="m405 17.5v25.339844h-20.671875v-25.339844c0-5.519531-4.46875-10-10-10h20.671875c5.519531 0 10 4.480469 10 10zm0 0" fill="#a9d3d8"/><path d="m494.5 86.710938h-8.074219v-17.492188c0-9.648438-7.851562-17.5-17.5-17.5h-56.425781v-34.21875c0-9.648438-7.851562-17.5-17.5-17.5h-39.332031c-9.648438 0-17.5 7.851562-17.5 17.5v34.21875h-11.90625c-4.140625 0-7.5 3.359375-7.5 7.5 0 4.144531 3.359375 7.5 7.5 7.5h11.90625v19.992188h-168.90625c-4.144531 0-7.5 3.355468-7.5 7.5 0 4.140624 3.355469 7.5 7.5 7.5h325.238281c1.378906 0 2.5 1.121093 2.5 2.5v17.785156c0 4.140625 3.359375 7.5 7.5 7.5s7.5-3.359375 7.5-7.5v-17.785156c0-9.652344-7.851562-17.5-17.5-17.5zm-25.574219-19.992188c1.378907 0 2.5 1.121094 2.5 2.5v17.492188h-58.925781v-19.992188zm-115.757812-49.21875c0-1.378906 1.121093-2.5 2.5-2.5h39.332031c1.378906 0 2.5 1.121094 2.5 2.5v17.84375h-44.332031zm0 69.210938v-36.367188h44.332031v36.367188zm0 0"/><path d="m504.5 149.019531c-4.140625 0-7.5 3.355469-7.5 7.5v28.757813c0 1.378906-1.121094 2.5-2.5 2.5h-477c-1.378906 0-2.5-1.121094-2.5-2.5v-81.066406c0-1.378907 1.121094-2.5 2.5-2.5h117.238281c4.144531 0 7.5-3.359376 7.5-7.5 0-4.144532-3.355469-7.5-7.5-7.5h-94.164062v-17.492188c0-1.378906 1.121093-2.5 2.5-2.5h248.664062c4.144531 0 7.5-3.355469 7.5-7.5 0-4.140625-3.355469-7.5-7.5-7.5h-248.664062c-9.648438 0-17.5 7.851562-17.5 17.5v17.492188h-8.074219c-9.648438 0-17.5 7.851562-17.5 17.5v81.066406c0 9.648437 7.851562 17.5 17.5 17.5h214.695312v43.226562c0 6.007813-4.890624 10.898438-10.902343 10.898438h-24.988281c-13.125 0-23.804688 10.679687-23.804688 23.804687 0 13.128907 10.679688 23.804688 23.804688 23.804688h119.390624c13.125 0 23.804688-10.675781 23.804688-23.804688 0-13.125-10.679688-23.804687-23.804688-23.804687h-24.996093c-6.007813 0-10.894531-4.886719-10.894531-10.894532v-43.230468h48.769531v9.851562c0 8.273438 5.777343 15.207032 13.5 17.023438v14.796875c0 17.675781 14.378906 32.054687 32.054687 32.054687h81.746094c17.671875 0 32.050781-14.378906 32.050781-32.054687v-41.671875h6.574219c9.648438 0 17.5-7.851563 17.5-17.5v-28.757813c0-4.144531-3.359375-7.5-7.5-7.5zm-77.5 112.269531c-8.191406-1.238281-14.5-8.308593-14.5-16.839843v-14.796875c7.726562-1.816406 13.5-8.75 13.5-17.023438v-9.851562h15.5v41.671875c0 8.53125-6.308594 15.601562-14.5 16.839843zm-16-48.660156c0 1.378906-1.121094 2.5-2.5 2.5h-7c-1.378906 0-2.5-1.121094-2.5-2.5v-9.851562h12zm-120.300781 59.273438h24.996093c4.855469 0 8.804688 3.949218 8.804688 8.804687s-3.949219 8.804688-8.804688 8.804688h-119.390624c-4.855469 0-8.804688-3.949219-8.804688-8.804688s3.949219-8.804687 8.804688-8.804687h24.988281c14.28125 0 25.902343-11.617188 25.902343-25.902344v-43.226562h17.609376v43.230468c0 14.28125 11.617187 25.898438 25.894531 25.898438zm64.875-69.125v9.851562c0 1.378906-1.121094 2.5-2.5 2.5h-7c-1.378907 0-2.5-1.121094-2.5-2.5v-9.851562zm1.5 41.671875v-14.800781c7.726562-1.816407 13.5-8.746094 13.5-17.019532v-9.855468h13.425781v9.855468c0 8.269532 5.773438 15.203125 13.5 17.019532v14.800781c0 6.261719 1.8125 12.109375 4.933594 17.050781h-28.304688c-9.40625 0-17.054687-7.648438-17.054687-17.050781zm115.851562 0c0 9.402343-7.648437 17.050781-17.054687 17.050781h-4.304688c3.121094-4.941406 4.933594-10.789062 4.933594-17.050781v-41.675781h16.425781zm0 0"/><path d="m63.089844 144.808594c0 4.140625 3.355468 7.5 7.5 7.5h108.207031c4.140625 0 7.5-3.359375 7.5-7.5 0-4.144532-3.359375-7.5-7.5-7.5h-108.207031c-4.144532 0-7.5 3.355468-7.5 7.5zm0 0"/><path d="m257.191406 144.808594c0-13.648438-11.105468-24.757813-24.753906-24.757813-13.652344 0-24.753906 11.105469-24.753906 24.757813 0 13.648437 11.101562 24.753906 24.753906 24.753906 13.648438 0 24.753906-11.105469 24.753906-24.753906zm-34.511718 0c0-5.378906 4.378906-9.757813 9.753906-9.757813 5.378906 0 9.753906 4.378907 9.753906 9.757813 0 5.375-4.375 9.753906-9.753906 9.753906-5.375 0-9.753906-4.378906-9.753906-9.753906zm0 0"/><path d="m318.523438 144.808594c0-13.648438-11.105469-24.757813-24.753907-24.757813-13.648437 0-24.753906 11.105469-24.753906 24.757813 0 13.648437 11.101563 24.753906 24.753906 24.753906 13.648438 0 24.753907-11.105469 24.753907-24.753906zm-34.507813 0c0-5.378906 4.375-9.757813 9.753906-9.757813 5.378907 0 9.753907 4.378907 9.753907 9.757813 0 5.375-4.375 9.753906-9.753907 9.753906-5.378906 0-9.753906-4.378906-9.753906-9.753906zm0 0"/><path d="m437.136719 144.863281v-.113281c0-4.144531-3.359375-7.5-7.5-7.5s-7.5 3.355469-7.5 7.5v.113281c0 4.144531 3.359375 7.5 7.5 7.5s7.5-3.355469 7.5-7.5zm0 0"/><path d="m412.5 144.863281v-.113281c0-4.144531-3.359375-7.5-7.5-7.5s-7.5 3.355469-7.5 7.5v.113281c0 4.144531 3.359375 7.5 7.5 7.5s7.5-3.355469 7.5-7.5zm0 0"/><path d="m387.863281 144.863281v-.113281c0-4.144531-3.359375-7.5-7.5-7.5s-7.5 3.355469-7.5 7.5v.113281c0 4.144531 3.359375 7.5 7.5 7.5s7.5-3.355469 7.5-7.5zm0 0"/></svg>