<?xml version="1.0" encoding="iso-8859-1"?>
<!-- Generator: Adobe Illustrator 19.0.0, SVG Export Plug-In . SVG Version: 6.00 Build 0)  -->
<svg version="1.1" id="Capa_1" xmlns="http://www.w3.org/2000/svg" xmlns:xlink="http://www.w3.org/1999/xlink" x="0px" y="0px"
	 viewBox="0 0 512 512" style="enable-background:new 0 0 512 512;" xml:space="preserve">
<path style="fill:#787780;" d="M316,286H196c-8.401,0-15,6.599-15,15v120c0,8.401,6.599,15,15,15h120c8.401,0,15-6.599,15-15V301
	C331,292.599,324.401,286,316,286z"/>
<g>
	<path style="fill:#57555C;" d="M331,301v120c0,8.401-6.599,15-15,15h-60V286h60C324.401,286,331,292.599,331,301z"/>
	<path style="fill:#57555C;" d="M376,406H136c-24.901,0-45,20.099-45,45l0,0c0,8.401,6.599,15,15,15h300c8.401,0,15-6.599,15-15l0,0
		C421,426.099,400.901,406,376,406z"/>
</g>
<path style="fill:#3C3A41;" d="M421,451L421,451c0,8.401-6.599,15-15,15H256v-60h120C400.901,406,421,426.099,421,451z"/>
<path style="fill:#57555C;" d="M376,226H136c-8.401,0-15,6.599-15,15c0,41.4,33.6,75,75,75h120c41.4,0,75-33.6,75-75
	C391,232.599,384.401,226,376,226z"/>
<path style="fill:#3C3A41;" d="M316,316h-60v-90h120c8.401,0,15,6.599,15,15C391,282.4,357.4,316,316,316z"/>
<path style="fill:#787780;" d="M436,46H75C33.6,46,0,79.6,0,121v60c0,41.4,33.6,75,75,75h361c41.4,0,76-33.6,76-75v-60
	C512,79.6,477.4,46,436,46z"/>
<path style="fill:#57555C;" d="M512,121v60c0,41.4-34.6,75-76,75H256V46h180C477.4,46,512,79.6,512,121z"/>
<circle style="fill:#3C3A41;" cx="316" cy="151" r="15"/>
<path style="fill:#FD3C65;" d="M106,196c-24.814,0-46-20.186-46-45s21.186-45,46-45s45,20.186,45,45S130.814,196,106,196z"/>
<path style="fill:#CAE8F9;" d="M256,117.7c-7.8-7.2-18.3-11.7-30-11.7c-24.901,0-45,20.099-45,45s20.099,45,45,45
	c11.7,0,22.2-4.501,30-11.7c9.3-8.099,15-20.099,15-33.3S265.3,125.799,256,117.7z"/>
<path style="fill:#1BD9DE;" d="M406,196c-24.814,0-45-20.186-45-45s20.186-45,45-45s45,20.186,45,45S430.814,196,406,196z"/>
<path style="fill:#B7E0F6;" d="M271,151c0,13.2-5.7,25.201-15,33.3v-66.6C265.3,125.799,271,137.8,271,151z"/>
<g>
</g>
<g>
</g>
<g>
</g>
<g>
</g>
<g>
</g>
<g>
</g>
<g>
</g>
<g>
</g>
<g>
</g>
<g>
</g>
<g>
</g>
<g>
</g>
<g>
</g>
<g>
</g>
<g>
</g>
</svg>
