<svg height="512pt" viewBox="0 0 512 512" width="512pt" xmlns="http://www.w3.org/2000/svg"><path d="m382.097656 209.96875 17.507813-17.507812-27.394531-27.390626 12.429687-12.429687-27.394531-27.390625-12.425782 12.425781-27.390624-27.390625-61.832032 61.832032-12.464844-12.464844-25.445312.519531-84.710938 84.707031-.242187 50.101563-26.285156 26.28125 80.453125 80.453125 26.40625-26.402344 50.101562.242188 142.140625-142.136719zm0 0" fill="#ffdaaa"/><g fill="#d7fc7e"><path d="m281.746094 464.214844c100.613281 0 182.46875-81.851563 182.46875-182.460938h40.285156c0 122.820313-99.925781 222.746094-222.753906 222.746094zm0 0"/><path d="m281.746094 399.722656c65.050781 0 117.972656-52.921875 117.972656-117.96875h40.289062c0 87.261719-70.996093 158.253906-158.261718 158.253906zm0 0"/><path d="m230.253906 47.785156c-100.613281 0-182.46875 81.851563-182.46875 182.460938h-40.285156c.003906-122.820313 99.925781-222.746094 222.753906-222.746094zm0 0"/><path d="m230.253906 112.277344c-65.050781 0-117.972656 52.921875-117.972656 117.96875h-40.289062c.003906-87.261719 70.996093-158.253906 158.261718-158.253906zm0 0"/></g><path d="m136.449219 321.261719 26.285156-26.28125.242187-50.101563 82.691407-82.691406-2.535157-2.535156-25.445312.519531-84.710938 84.707031-.242187 50.101563-26.285156 26.28125 80.457031 80.453125 15-15zm0 0" fill="#ffbb85"/><path d="m273.132812 159.652344 12.464844 12.464844 46.832032-46.832032-15-15-49.472657 49.472656zm0 0" fill="#ffbb85"/><path d="m311.746094 464.214844c100.613281 0 182.46875-81.851563 182.46875-182.460938h-30c0 100.609375-81.855469 182.460938-182.46875 182.460938v40.285156c10.175781 0 20.1875-.699219 30-2.027344zm0 0" fill="#55e072"/><path d="m311.746094 399.722656c65.050781 0 117.972656-52.921875 117.972656-117.96875h-30c0 65.046875-52.921875 117.96875-117.972656 117.96875v40.285156c10.257812 0 20.285156-.992187 30-2.863281zm0 0" fill="#55e072"/><path d="m230.253906 9.527344v-2.027344c-122.828125 0-222.753906 99.925781-222.753906 222.746094h30c0-112.648438 84.0625-206.019532 192.753906-220.71875zm0 0" fill="#55e072"/><path d="m230.253906 74.855469v-2.863281c-87.265625 0-158.261718 70.992187-158.261718 158.253906h30c.003906-77.007813 55.292968-141.332032 128.261718-155.390625zm0 0" fill="#55e072"/><path d="m392.21875 281.753906c0 60.910156-49.558594 110.46875-110.472656 110.46875h-7.5v55.285156h7.5c91.398437 0 165.757812-74.355468 165.761718-165.753906v-7.5h-55.289062zm40.101562 7.5c-3.800781 77.167969-65.90625 139.269532-143.074218 143.070313v-25.324219c63.222656-3.75 114.007812-54.523438 117.75-117.746094zm0 0"/><path d="m119.78125 230.246094c0-60.910156 49.558594-110.46875 110.472656-110.46875h7.5v-55.285156h-7.5c-91.398437 0-165.757812 74.355468-165.761718 165.753906v7.5h55.289062zm-40.101562-7.5c3.800781-77.167969 65.90625-139.269532 143.074218-143.070313v25.324219c-63.222656 3.75-114.007812 54.523438-117.75 117.746094zm0 0"/><path d="m306.824219 321.535156-46.507813 46.503906-50.097656-.242187-23.316406 23.3125-69.84375-69.847656 15.671875-15.675781 31.25 31.25 10.609375-10.605469-34.34375-34.34375.214844-43.886719 80.394531-80.394531 19.234375-.390625 4.898437 4.902344-40.664062 40.664062v31.253906l-22.859375 22.859375 10.609375 10.605469 27.25-27.253906v-31.25l98.105469-98.105469 16.785156 16.785156-69.871094 69.875 10.605469 10.605469 82.296875-82.300781 16.785156 16.785156-82.296875 82.300781 10.605469 10.605469 69.875-69.871094 16.78125 16.785157-69.871094 69.871093 10.609375 10.605469 52.363281-52.363281 12.84375 12.84375-73.972656 73.972656 10.605469 10.605469 84.582031-84.578125-23.449219-23.449219 17.503907-17.507812-27.390626-27.390626 12.425782-12.429687-38-37.996094-12.425782 12.425781-27.390624-27.390624-61.832032 61.828124-9.421875-9.417968-31.660156.644531-89.023437 89.023437-.246094 50.101563-29.402344 29.402344 91.058594 91.058593 29.496094-29.492187 50.105468.242187 50.929688-50.929687zm0 0"/><path d="m230.253906 55.285156h7.5v-55.285156h-7.5c-26.253906 0-52.019531 4.40625-76.585937 13.09375l5.003906 14.140625c20.609375-7.289063 42.132813-11.351563 64.082031-12.105469v25.304688c-98.882812 3.832031-178.496094 83.492187-182.320312 182.3125h-25.300782c2.84375-80.898438 51.515626-154.226563 125.621094-188.246094l-6.257812-13.632812c-80.746094 37.066406-134.496094 118.09375-134.496094 209.378906v7.5h55.285156v-7.5c0-96.546875 78.414063-174.960938 174.96875-174.960938zm0 0"/><path d="m456.714844 274.253906v7.5c0 96.546875-78.414063 174.960938-174.96875 174.960938h-7.5v55.285156h7.5c24.8125 0 49.234375-3.945312 72.59375-11.722656l-4.738282-14.230469c-19.472656 6.484375-39.738281 10.117187-60.355468 10.824219v-25.300782c98.882812-3.832031 178.496094-83.492187 182.320312-182.316406h25.304688c-2.871094 82.542969-52.929688 156.503906-129.183594 189.84375l6.011719 13.742188c84.011719-36.734375 138.300781-119.589844 138.300781-211.085938v-7.5zm0 0"/><path d="m256.195312 358.019531-53.226562-.257812.070312-15 46.976563.226562 21.882813-21.882812 10.605468 10.605469zm33.378907-33.375-10.605469-10.609375 10.605469-10.605468 10.605469 10.605468zm17.679687-17.679687-10.609375-10.605469 10.609375-10.605469 10.605469 10.605469zm0 0" fill="#fff"/><path d="m304.90625 490.589844-1.640625-14.910156c27.945313-3.082032 54.363281-11.988282 78.519531-26.472657l7.714844 12.863281c-26.023438 15.605469-54.484375 25.199219-84.59375 28.519532zm93.347656-34.066406-8.339844-12.46875c3.984376-2.664063 7.921876-5.515626 11.703126-8.464844l9.234374 11.820312c-4.070312 3.179688-8.308593 6.246094-12.597656 9.113282zm20.609375-15.691407-9.800781-11.355469c3.625-3.128906 7.1875-6.4375 10.582031-9.832031l10.605469 10.605469c-3.652344 3.652344-7.484375 7.214844-11.386719 10.582031zm0 0" fill="#fff"/><path d="m101.140625 211.324219-14.847656-2.148438c2.867187-19.816406 9.675781-38.472656 20.230469-55.445312l12.738281 7.917969c-9.453125 15.207031-15.550781 31.921874-18.121094 49.675781zm23.398437-57.515625-12.128906-8.824219c3.082032-4.234375 6.4375-8.359375 9.96875-12.257813l11.113282 10.074219c-3.171876 3.5-6.183594 7.203125-8.953126 11.007813zm15.558594-17.796875-10.375-10.832031c3.800782-3.640626 7.828125-7.109376 11.96875-10.304688l9.164063 11.878906c-3.722657 2.871094-7.34375 5.984375-10.757813 9.257813zm0 0" fill="#fff"/></svg>