<?xml version="1.0" encoding="iso-8859-1"?>
<!-- Generator: Adobe Illustrator 19.0.0, SVG Export Plug-In . SVG Version: 6.00 Build 0)  -->
<svg xmlns="http://www.w3.org/2000/svg" xmlns:xlink="http://www.w3.org/1999/xlink" version="1.1" id="Layer_1" x="0px" y="0px" viewBox="0 0 512 512" style="enable-background:new 0 0 512 512;" xml:space="preserve" width="512" height="512">
<g>
	<ellipse style="fill:#66D15F;" cx="256" cy="256" rx="248.459" ry="248.5"/>
	<path style="fill:#53BC77;" d="M409.43,60.529c33.211,42.252,53.02,95.54,53.02,153.455c0,137.243-111.239,248.5-248.459,248.5   c-57.906,0-111.184-19.812-153.43-53.029C106.051,467.329,176.685,504.5,256,504.5c137.22,0,248.46-111.257,248.46-248.5   C504.46,176.672,467.294,106.026,409.43,60.529z"/>
	<path style="fill:#D4FFDF;" d="M182.201,359.039V164.019c0-11.532,12.773-18.482,22.453-12.216l150.66,97.51   c8.86,5.734,8.86,18.699,0,24.433l-150.66,97.51C194.974,377.521,182.201,370.571,182.201,359.039z"/>
	<path style="fill:#B1FFC5;" d="M355.314,249.312l-150.66-97.51c-9.68-6.265-22.453,0.684-22.453,12.216v7.729l48.926,33.672   c40.59,27.935,39.811,88.146-1.488,115.021l-47.438,30.87v7.729c0,11.532,12.773,18.482,22.453,12.216l150.66-97.51   C364.174,268.011,364.174,255.046,355.314,249.312z"/>
</g>
<g>
	<path d="M436.991,74.98C388.646,26.629,324.369,0,256,0S123.354,26.629,75.009,74.98C26.665,123.333,0.041,187.62,0.041,256   c0,4.143,3.357,7.5,7.5,7.5s7.5-3.357,7.5-7.5c0-64.374,25.064-124.895,70.575-170.413S191.638,15,256,15   s124.873,25.068,170.384,70.587S496.959,191.626,496.959,256s-25.064,124.895-70.575,170.413S320.362,497,256,497   c-58.389,0-114.716-21.153-158.604-59.563c-43.479-38.052-71.872-90.344-79.95-147.243c-0.582-4.101-4.383-6.953-8.48-6.371   c-4.101,0.582-6.953,4.379-6.371,8.48c8.583,60.453,38.743,116.005,84.923,156.421C134.141,489.528,193.976,512,256,512   c68.369,0,132.646-26.629,180.991-74.98c48.344-48.353,74.968-112.64,74.968-181.02S485.335,123.333,436.991,74.98z"/>
	<path d="M193.383,157.824c1.104-0.603,4.02-1.781,7.196,0.273l51.346,33.232c3.479,2.252,8.121,1.257,10.371-2.221   c2.251-3.478,1.257-8.121-2.221-10.371l-51.347-33.233c-6.785-4.391-15.412-4.72-22.514-0.857   c-7.102,3.863-11.514,11.286-11.514,19.371v195.021c0,8.085,4.412,15.508,11.514,19.371c3.295,1.793,6.919,2.683,10.535,2.683   c4.176,0,8.343-1.187,11.979-3.541l150.66-97.51c6.305-4.081,10.069-11.001,10.069-18.512c0-7.512-3.764-14.433-10.069-18.514   l-67.126-43.445c-3.478-2.25-8.12-1.257-10.371,2.221s-1.257,8.121,2.221,10.371l67.126,43.445c2.046,1.325,3.22,3.482,3.22,5.921   c0,2.438-1.174,4.596-3.22,5.92l-150.659,97.51c-3.176,2.055-6.092,0.877-7.197,0.274c-1.107-0.602-3.682-2.411-3.682-6.194   V164.019C189.701,160.235,192.275,158.426,193.383,157.824z"/>
</g>















</svg>
