<svg height="512pt" viewBox="-54 0 512 512" width="512pt" xmlns="http://www.w3.org/2000/svg"><path d="m317.15625 181.453125h29.957031c9.132813 0 16.566407 7.429687 16.566407 16.566406v33.132813c0 9.136718-7.433594 16.566406-16.566407 16.566406l-149.097656.003906c-27.402344 0-49.699219 22.292969-49.699219 49.699219v38.578125h33.132813v-38.578125c0-9.136719 7.433593-16.566406 16.566406-16.566406l149.097656-.003907c27.402344 0 49.699219-22.292968 49.699219-49.699218v-33.132813c0-27.40625-22.296875-49.699219-49.699219-49.699219h-30.457031zm0 0" fill="#c3ddf4"/><path d="m347.113281 148.320312h-20c27.402344 0 49.699219 22.292969 49.699219 49.699219v33.132813c0 27.40625-22.296875 49.699218-49.699219 49.699218l-153.097656.003907c-9.132813 0-16.566406 7.429687-16.566406 16.5625v38.582031h24v-38.582031c0-9.132813 7.433593-16.5625 16.566406-16.5625l149.097656-.003907c27.402344 0 49.699219-22.292968 49.699219-49.699218v-33.132813c0-27.40625-22.296875-49.699219-49.699219-49.699219zm0 0" fill="#9cc2ed"/><path d="m131.75 345.5v153c0 3.3125 2.6875 6 6 6h54.265625c3.3125 0 6-2.6875 6-6v-153zm0 0" fill="#717b99"/><path d="m174.015625 345.5v153c0 3.3125-2.6875 6-6 6h24c3.3125 0 6-2.6875 6-6v-153zm0 0" fill="#5c647d"/><path d="m214.582031 328.265625v21.136719c0 3.3125-2.6875 6-6 6h-87.398437c-3.316406 0-6-2.6875-6-6v-21.136719c0-3.3125 2.683594-6 6-6h87.398437c3.3125 0 6 2.6875 6 6zm0 0" fill="#393e4d"/><path d="m7.5 192.019531v-54.265625c0-3.316406 2.6875-6 6-6h302.769531c3.3125 0 6 2.683594 6 6v54.265625c0 3.3125-2.6875 6-6 6h-302.769531c-3.3125 0-6-2.6875-6-6zm0 0" fill="#ffaf10"/><path d="m316.269531 131.753906h-26c3.3125 0 6 2.683594 6 6v54.265625c0 3.3125-2.6875 6-6 6h26c3.3125 0 6-2.6875 6-6v-54.265625c0-3.316406-2.6875-6-6-6zm0 0" fill="#ff890a"/><path d="m280.847656 127.613281v-95.261719c0-9.148437-7.417968-16.566406-16.566406-16.566406s-16.566406 7.414063-16.566406 16.566406v95.261719zm0 0" fill="#69cdff"/><path d="m214.585938 127.613281-.003907-78.695312c0-9.148438-7.417969-16.566407-16.566406-16.566407s-16.566406 7.417969-16.566406 16.566407v24.851562c0 9.148438-7.417969 16.566407-16.566407 16.566407-9.148437 0-16.566406-7.417969-16.566406-16.566407l-.003906-49.703125c0-9.148437-7.414062-16.566406-16.566406-16.566406-9.148438 0-16.566406 7.417969-16.566406 16.566406l.003906 33.136719c0 9.148437-7.417969 16.566406-16.570313 16.566406-9.148437 0-16.566406-7.417969-16.566406-16.566406v-8.285156c0-9.148438-7.417969-16.566407-16.566406-16.566407-9.152344 0-16.570313 7.417969-16.570313 16.566407v78.695312zm0 0" fill="#69cdff"/><g fill="#5fb4f5"><path d="m280.847656 32.351562c0-9.148437-7.417968-16.566406-16.566406-16.566406-3.761719 0-7.21875 1.265625-10 3.378906 3.980469 3.027344 6.566406 7.800782 6.566406 13.1875v95.261719h20zm0 0"/><path d="m194.582031 48.917969v78.695312h20v-78.695312c0-9.148438-7.417969-16.566407-16.566406-16.566407-3.761719 0-7.21875 1.269532-10 3.382813 3.984375 3.023437 6.566406 7.796875 6.566406 13.183594zm0 0"/><path d="m128.316406 24.066406v49.703125c0 9.148438 7.417969 16.566407 16.570313 16.566407 3.761719 0 7.21875-1.269532 10-3.382813-3.984375-3.023437-6.570313-7.796875-6.570313-13.183594v-49.703125c0-9.148437-7.417968-16.566406-16.566406-16.566406-3.761719 0-7.21875 1.265625-10 3.378906 3.980469 3.027344 6.566406 7.800782 6.566406 13.1875zm0 0"/><path d="m62.050781 48.917969v8.28125c0 9.152343 7.417969 16.570312 16.566407 16.570312 3.761718 0 7.21875-1.269531 10-3.382812-3.980469-3.027344-6.566407-7.796875-6.566407-13.1875v-8.28125c0-9.148438-7.417969-16.566407-16.570312-16.566407-3.761719 0-7.21875 1.265626-10 3.378907 3.984375 3.027343 6.570312 7.800781 6.570312 13.1875zm0 0"/></g><path d="m291.417969 222.871094h-253.066407c-3.316406 0-6-2.6875-6-6v-103.96875c0-3.3125 2.683594-6 6-6h253.066407c3.3125 0 6 2.6875 6 6v103.96875c0 3.3125-2.6875 6-6 6zm0 0" fill="#ffe2b8"/><path d="m291.417969 106.902344h-24c3.3125 0 6 2.6875 6 6v103.96875c0 3.3125-2.6875 6-6 6h24c3.3125 0 6-2.6875 6-6v-103.96875c0-3.3125-2.6875-6-6-6zm0 0" fill="#ffcaa1"/><path d="m208.582031 322.265625h-24c3.3125 0 6 2.6875 6 6v21.136719c0 3.3125-2.6875 6-6 6h24c3.3125 0 6-2.6875 6-6v-21.136719c0-3.3125-2.6875-6-6-6zm0 0" fill="#313542"/><path d="m172.382812 160.742188v-8.28125c0-4.140626-3.359374-7.5-7.5-7.5-4.140624 0-7.5 3.359374-7.5 7.5v8.28125c0 4.144531 3.359376 7.5 7.5 7.5 4.144532 0 7.5-3.355469 7.5-7.5zm0 0"/><path d="m98.617188 209.660156c4.140624 0 7.5-3.355468 7.5-7.5v-8.28125c0-4.144531-3.359376-7.5-7.5-7.5-4.140626 0-7.5 3.355469-7.5 7.5v8.28125c0 4.144532 3.359374 7.5 7.5 7.5zm0 0"/><path d="m255.214844 135.894531v-8.28125c0-4.144531-3.359375-7.5-7.5-7.5s-7.5 3.355469-7.5 7.5v8.28125c0 4.140625 3.359375 7.5 7.5 7.5s7.5-3.359375 7.5-7.5zm0 0"/><path d="m347.113281 140.820312h-17.347656v-9.066406c0-4.144531-3.355469-7.5-7.5-7.5h-17.351563v-17.351562c0-4.144532-3.355468-7.5-7.5-7.5h-9.066406v-67.050782c0-13.273437-10.796875-24.066406-24.066406-24.066406s-24.066406 10.792969-24.066406 24.066406v67.050782h-18.128906l-.003907-50.484375c0-13.269531-10.796875-24.066407-24.066406-24.066407s-24.066406 10.796876-24.066406 24.066407v24.851562c0 5-4.066407 9.066407-9.066407 9.066407-4.996093 0-9.066406-4.066407-9.066406-9.066407v-49.703125c0-13.269531-10.796875-24.066406-24.066406-24.066406-13.273438 0-24.066406 10.796875-24.066406 24.066406v33.132813c0 5-4.066406 9.066406-9.066406 9.066406s-9.066407-4.066406-9.066407-9.066406v-8.28125c0-13.269531-10.796875-24.066407-24.066406-24.066407-13.273437 0-24.070313 10.796876-24.070313 24.066407v50.484375h-9.0625c-4.140624 0-7.5 3.355468-7.5 7.5v17.351562h-17.351562c-4.140625 0-7.5 3.355469-7.5 7.5v66.265625c0 4.140625 3.359375 7.5 7.5 7.5h17.351562v17.351563c0 4.140625 3.359376 7.5 7.5 7.5h28.886719c4.144531 0 7.5-3.359375 7.5-7.5 0-4.144532-3.355469-7.5-7.5-7.5h-21.386719v-100.96875h9.042969.019531.019532 9.046875v.78125c0 4.144531 3.359375 7.5 7.5 7.5 4.144531 0 7.5-3.355469 7.5-7.5v-.78125h141.582031.019531.019531 33.09375.019532.019531 33.09375.019531.015625 9.050781v100.964844h-18.136718v-.78125c0-4.144532-3.355469-7.5-7.5-7.5-4.140625 0-7.5 3.355468-7.5 7.5v.78125h-165.488282c-4.144531 0-7.5 3.359374-7.5 7.5 0 4.144531 3.355469 7.5 7.5 7.5h206.125c4.144532 0 7.5-3.355469 7.5-7.5v-17.347657h17.351563c4.144531 0 7.5-3.359375 7.5-7.5v-9.066406h17.347656c5 0 9.066407 4.066406 9.066407 9.066406v33.132813c0 5-4.070313 9.066406-9.066407 9.066406h-149.097656c-31.539063 0-57.199219 25.660156-57.199219 57.199219v17.347656h-25.636718c-4.140626 0-7.5 3.359375-7.5 7.5v33.136719c0 4.140625 3.359374 7.5 7.5 7.5h9.066406v108.449218.015626.019531 33.113281c0 4.144531 3.359375 7.5 7.5 7.5h66.265625c4.144531 0 7.5-3.355469 7.5-7.5v-33.101562c0-.011719.003906-.019532.003906-.03125 0-.007813-.003906-.015626-.003906-.027344v-108.4375h9.066406c4.144531 0 7.5-3.359375 7.5-7.5v-33.136719c0-4.140625-3.355469-7.5-7.5-7.5h-25.628906v-17.34375c0-5 4.066406-9.066406 9.066406-9.066406l149.097656-.003907c31.539063 0 57.199219-25.660156 57.199219-57.199218v-33.132813c0-31.539062-25.660156-57.199219-57.199219-57.199219zm-332.113281 49.699219v-51.265625h9.851562v51.265625zm240.214844-158.167969c0-5 4.066406-9.066406 9.066406-9.066406s9.066406 4.066406 9.066406 9.066406v67.050782h-18.132812zm-198.800782 16.566407c0-5 4.070313-9.066407 9.070313-9.066407 4.996094 0 9.066406 4.066407 9.066406 9.070313v8.277344c0 13.273437 10.796875 24.066406 24.066407 24.066406 13.269531 0 24.066406-10.792969 24.066406-24.066406v-33.132813c0-5 4.066406-9.066406 9.066406-9.066406 4.996094 0 9.066406 4.066406 9.066406 9.066406v49.703125c0 13.269531 10.796875 24.066407 24.066406 24.066407 13.269532 0 24.066407-10.796876 24.066407-24.070313v-24.847656c0-5 4.066406-9.066407 9.066406-9.066407s9.066406 4.066407 9.066406 9.066407v50.484375h-150.667969zm258.355469 141.601562h-9.851562v-51.265625h9.851562zm-175.519531 306.480469v-18.132812h51.265625v18.132812zm51.265625-33.132812h-51.265625v-100.964844h51.265625zm16.566406-115.964844h-84.398437v-18.136719h84.398437zm182.230469-116.75c0 23.269531-18.929688 42.199218-42.199219 42.199218h-149.097656c-13.269531 0-24.066406 10.796876-24.066406 24.066407v17.347656h-18.132813v-17.34375c0-23.269531 18.929688-42.199219 42.199219-42.199219l149.097656-.003906c13.269531 0 24.066407-10.796875 24.066407-24.066406v-33.132813c0-13.273437-10.796876-24.066406-24.066407-24.066406h-17.34375v-18.132813h17.34375c23.269531 0 42.199219 18.929688 42.199219 42.199219zm0 0"/></svg>