<?xml version="1.0" encoding="iso-8859-1"?>
<!-- Generator: Adobe Illustrator 22.1.0, SVG Export Plug-In . SVG Version: 6.00 Build 0)  -->
<svg xmlns="http://www.w3.org/2000/svg" xmlns:xlink="http://www.w3.org/1999/xlink" version="1.1" id="Layer_1_1_" x="0px" y="0px" viewBox="0 0 64 64" style="enable-background:new 0 0 64 64;" xml:space="preserve" width="512" height="512">
<g>
	<g>
		<g>
			<path style="fill:#F0BC5E;" d="M31,43H13V21h18V43z"/>
		</g>
	</g>
	<g>
		<path d="M1,9v46h62V9H1z M5,17H3v-2h2V17z M5,19v2H3v-2H5z M5,11v2H3v-2H5z M5,49H3v-2h2V49z M5,45H3v-2h2V45z M3,51h2v2H3V51z     M7,53V41H3V23h4V11h54v2h-7c-2.785,0-5.189,1.639-6.315,4H46c-2.757,0-5,2.243-5,5v12c0,2.757,2.243,5,5,5h1v2.343L54.511,51H61    v2H7z M61,36h-7v8h7v5h-5.511L49,40.657V20c0-2.757,2.243-5,5-5h7v11V36z M61,38v4h-5v-4H61z M47,20v1h-2v2h2v10h-2v2h2v2h-1    c-1.654,0-3-1.346-3-3V22c0-1.654,1.346-3,3-3h1.08C47.033,19.328,47,19.66,47,20z"/>
		<path d="M27,25H17v14h10V25z M25,37h-6V27h6V37z"/>
		<rect x="19" y="17" width="2" height="4"/>
		<rect x="15" y="17" width="2" height="4"/>
		<rect x="23" y="17" width="2" height="4"/>
		<rect x="27" y="17" width="2" height="4"/>
		<rect x="19" y="43" width="2" height="4"/>
		<rect x="15" y="43" width="2" height="4"/>
		<rect x="23" y="43" width="2" height="4"/>
		<rect x="27" y="43" width="2" height="4"/>
		<rect x="9" y="33" width="4" height="2"/>
		<rect x="9" y="37" width="4" height="2"/>
		<rect x="9" y="29" width="4" height="2"/>
		<rect x="9" y="25" width="4" height="2"/>
		<rect x="31" y="33" width="4" height="2"/>
		<rect x="31" y="37" width="4" height="2"/>
		<rect x="31" y="29" width="4" height="2"/>
		<rect x="31" y="25" width="4" height="2"/>
		<rect x="5" y="25" width="2" height="2"/>
		<rect x="5" y="29" width="2" height="2"/>
		<rect x="5" y="33" width="2" height="2"/>
		<rect x="5" y="37" width="2" height="2"/>
		<rect x="37" y="25" width="2" height="2"/>
		<rect x="37" y="29" width="2" height="2"/>
		<rect x="37" y="33" width="2" height="2"/>
		<rect x="37" y="37" width="2" height="2"/>
		<rect x="15" y="13" width="2" height="2"/>
		<rect x="19" y="13" width="2" height="2"/>
		<rect x="23" y="13" width="2" height="2"/>
		<rect x="27" y="13" width="2" height="2"/>
		<rect x="15" y="49" width="2" height="2"/>
		<rect x="19" y="49" width="2" height="2"/>
		<rect x="23" y="49" width="2" height="2"/>
		<rect x="27" y="49" width="2" height="2"/>
		<path d="M56,21c-2.757,0-5,2.243-5,5s2.243,5,5,5s5-2.243,5-5S58.757,21,56,21z M56,29c-1.654,0-3-1.346-3-3s1.346-3,3-3    s3,1.346,3,3S57.654,29,56,29z"/>
	</g>
	<g>
		<circle style="fill:#F0BC5E;" cx="56" cy="26" r="2"/>
	</g>
</g>
</svg>
