<?xml version="1.0" encoding="iso-8859-1"?>
<!-- Generator: Adobe Illustrator 19.0.0, SVG Export Plug-In . SVG Version: 6.00 Build 0)  -->
<svg version="1.1" id="Capa_1" xmlns="http://www.w3.org/2000/svg" xmlns:xlink="http://www.w3.org/1999/xlink" x="0px" y="0px"
	 viewBox="0 0 480 480" style="enable-background:new 0 0 480 480;" xml:space="preserve">
<path style="fill:#726658;" d="M240,8C111.87,8,8,111.87,8,240s103.87,232,232,232s232-103.87,232-232S368.13,8,240,8z M240,440
	c-110.457,0-200-89.543-200-200S129.543,40,240,40s200,89.543,200,200S350.457,440,240,440z"/>
<path style="fill:#EBE5E9;" d="M240,40C129.543,40,40,129.543,40,240s89.543,200,200,200s200-89.543,200-200S350.457,40,240,40z
	 M112,264c-13.255,0-24-10.745-24-24c0-13.255,10.745-24,24-24s24,10.745,24,24C136,253.255,125.255,264,112,264z M144,168
	c-4.418,0-8-3.582-8-8s3.582-8,8-8s8,3.582,8,8S148.418,168,144,168z M184,376c-17.673,0-32-14.327-32-32s14.327-32,32-32
	s32,14.327,32,32S201.673,376,184,376z M224,256c-4.418,0-8-3.582-8-8s3.582-8,8-8s8,3.582,8,8S228.418,256,224,256z M224,112
	c0-13.255,10.745-24,24-24c13.255,0,24,10.745,24,24s-10.745,24-24,24C234.745,136,224,125.255,224,112z M280,192
	c-4.418,0-8-3.582-8-8s3.582-8,8-8s8,3.582,8,8S284.418,192,280,192z M320,344c-13.255,0-24-10.745-24-24s10.745-24,24-24
	s24,10.745,24,24S333.255,344,320,344z M360,232c-8.837,0-16-7.163-16-16s7.163-16,16-16s16,7.163,16,16S368.837,232,360,232z"/>
<g>
	<circle style="fill:#64C37D;" cx="112" cy="240" r="24"/>
	<circle style="fill:#64C37D;" cx="248" cy="112" r="24"/>
	<circle style="fill:#64C37D;" cx="320" cy="320" r="24"/>
</g>
<g>
	<circle style="fill:#78B9EB;" cx="224" cy="248" r="8"/>
	<circle style="fill:#78B9EB;" cx="144" cy="160" r="8"/>
</g>
<circle style="fill:#FF7754;" cx="184" cy="344" r="32"/>
<circle style="fill:#78B9EB;" cx="280" cy="184" r="8"/>
<circle style="fill:#FF9811;" cx="360" cy="216" r="16"/>
<g>
	<path style="fill:#231F20;" d="M240,480C107.452,480,0,372.548,0,240S107.452,0,240,0s240,107.452,240,240
		C479.85,372.486,372.486,479.85,240,480z M240,16C116.288,16,16,116.288,16,240s100.288,224,224,224s224-100.288,224-224
		C463.859,116.347,363.653,16.141,240,16z"/>
	<path style="fill:#231F20;" d="M240,448c-114.875,0-208-93.125-208-208S125.125,32,240,32s208,93.125,208,208
		C447.872,354.822,354.822,447.872,240,448z M240,48C133.961,48,48,133.961,48,240s85.961,192,192,192s192-85.961,192-192
		C431.877,134.012,345.987,48.123,240,48z"/>
	<path style="fill:#231F20;" d="M112,272c-17.673,0-32-14.327-32-32s14.327-32,32-32s32,14.327,32,32S129.673,272,112,272z M112,224
		c-8.837,0-16,7.163-16,16c0,8.837,7.163,16,16,16s16-7.163,16-16C128,231.163,120.837,224,112,224z"/>
	<path style="fill:#231F20;" d="M248,144c-17.673,0-32-14.327-32-32s14.327-32,32-32s32,14.327,32,32S265.673,144,248,144z M248,96
		c-8.837,0-16,7.163-16,16s7.163,16,16,16c8.837,0,16-7.163,16-16S256.837,96,248,96z"/>
	<path style="fill:#231F20;" d="M320,352c-17.673,0-32-14.327-32-32s14.327-32,32-32s32,14.327,32,32S337.673,352,320,352z M320,304
		c-8.837,0-16,7.163-16,16s7.163,16,16,16s16-7.163,16-16S328.837,304,320,304z"/>
	<path style="fill:#231F20;" d="M224,264c-8.837,0-16-7.163-16-16c0-8.837,7.163-16,16-16s16,7.163,16,16
		C240,256.837,232.837,264,224,264z"/>
	<path style="fill:#231F20;" d="M144,176c-8.837,0-16-7.163-16-16s7.163-16,16-16s16,7.163,16,16S152.837,176,144,176z"/>
	<path style="fill:#231F20;" d="M184,384c-22.091,0-40-17.909-40-40s17.909-40,40-40s40,17.909,40,40
		C223.974,366.08,206.08,383.974,184,384z M184,320c-13.255,0-24,10.745-24,24s10.745,24,24,24s24-10.745,24-24S197.255,320,184,320
		z"/>
	<path style="fill:#231F20;" d="M280,200c-8.837,0-16-7.163-16-16s7.163-16,16-16s16,7.163,16,16S288.837,200,280,200z"/>
	<path style="fill:#231F20;" d="M360,240c-13.255,0-24-10.745-24-24s10.745-24,24-24s24,10.745,24,24S373.255,240,360,240L360,240z
		 M360,208c-4.418,0-8,3.582-8,8s3.582,8,8,8s8-3.582,8-8S364.418,208,360,208z"/>
	<path style="fill:#231F20;" d="M184,216h-8c-4.418,0-8-3.582-8-8s3.582-8,8-8h8c4.418,0,8,3.582,8,8S188.418,216,184,216z"/>
	<path style="fill:#231F20;" d="M272,384h-8c-4.418,0-8-3.582-8-8s3.582-8,8-8h8c4.418,0,8,3.582,8,8S276.418,384,272,384z"/>
	<path style="fill:#231F20;" d="M336,152c-4.418,0-8-3.582-8-8v-8c0-4.418,3.582-8,8-8s8,3.582,8,8v8
		C344,148.418,340.418,152,336,152z"/>
	<path style="fill:#231F20;" d="M296,256c-4.418,0-8-3.582-8-8v-8c0-4.418,3.582-8,8-8s8,3.582,8,8v8
		C304,252.418,300.418,256,296,256z"/>
	<path style="fill:#231F20;" d="M112,320c-4.418,0-8-3.582-8-8v-8c0-4.418,3.582-8,8-8c4.418,0,8,3.582,8,8v8
		C120,316.418,116.418,320,112,320z"/>
	<path style="fill:#231F20;" d="M176,112h-8c-4.418,0-8-3.582-8-8s3.582-8,8-8h8c4.418,0,8,3.582,8,8S180.418,112,176,112z"/>
	<path style="fill:#231F20;" d="M392,288h-8c-4.418,0-8-3.582-8-8s3.582-8,8-8h8c4.418,0,8,3.582,8,8S396.418,288,392,288z"/>
</g>
<g>
</g>
<g>
</g>
<g>
</g>
<g>
</g>
<g>
</g>
<g>
</g>
<g>
</g>
<g>
</g>
<g>
</g>
<g>
</g>
<g>
</g>
<g>
</g>
<g>
</g>
<g>
</g>
<g>
</g>
</svg>
