<svg height="496pt" viewBox="0 -48 496 496" width="496pt" xmlns="http://www.w3.org/2000/svg"><path d="m488 392h-480v-264h144l40-40h112l40 40h144zm0 0" fill="#999"/><path d="m344 128h-32l-40-40h-80l-40 40h-144v264h448v-264zm0 0" fill="#bab8b9"/><path d="m8 328h480v64h-480zm0 0" fill="#bab8b9"/><path d="m8 328h448v64h-448zm0 0" fill="#d9d7d8"/><path d="m424 96v-32h32v32" fill="#bab8b9"/><path d="m472 128v-32h-64v32" fill="#999"/><path d="m24 128v-32h80v32" fill="#bc8f6f"/><path d="m24 128v-32h56v32" fill="#cb9e78"/><path d="m224 56h48v32h-48zm0 0" fill="#656665"/><path d="m176 8h144v48h-144zm0 0" fill="#999"/><path d="m176 8h112v48h-112zm0 0" fill="#bab8b9"/><path d="m72 176c0 8.835938-7.164062 16-16 16s-16-7.164062-16-16 7.164062-16 16-16 16 7.164062 16 16zm0 0" fill="#df9363"/><path d="m376 160h80v32h-80zm0 0" fill="#df9363"/><path d="m360 248c0 61.855469-50.144531 112-112 112s-112-50.144531-112-112 50.144531-112 112-112 112 50.144531 112 112zm0 0" fill="#656665"/><path d="m328 248c0 44.183594-35.816406 80-80 80s-80-35.816406-80-80 35.816406-80 80-80 80 35.816406 80 80zm0 0" fill="#999"/><path d="m296 248c0 26.507812-21.492188 48-48 48s-48-21.492188-48-48 21.492188-48 48-48 48 21.492188 48 48zm0 0" fill="#656665"/><path d="m488 400h-480c-4.414062 0-8-3.585938-8-8v-264c0-4.414062 3.585938-8 8-8h140.6875l37.65625-37.65625c1.496094-1.503906 3.535156-2.34375 5.65625-2.34375h112c2.121094 0 4.160156.839844 5.65625 2.34375l37.65625 37.65625h140.6875c4.414062 0 8 3.585938 8 8v264c0 4.414062-3.585938 8-8 8zm-472-16h464v-248h-136c-2.121094 0-4.160156-.839844-5.65625-2.34375l-37.65625-37.65625h-105.375l-37.65625 37.65625c-1.496094 1.503906-3.535156 2.34375-5.65625 2.34375h-136zm0 0"/><path d="m112 128h-16v-24h-64v24h-16v-32c0-4.414062 3.585938-8 8-8h80c4.414062 0 8 3.585938 8 8zm0 0"/><path d="m248 368c-66.167969 0-120-53.832031-120-120s53.832031-120 120-120 120 53.832031 120 120-53.832031 120-120 120zm0-224c-57.34375 0-104 46.65625-104 104s46.65625 104 104 104 104-46.65625 104-104-46.65625-104-104-104zm0 0"/><path d="m248 304c-30.878906 0-56-25.121094-56-56s25.121094-56 56-56 56 25.121094 56 56-25.121094 56-56 56zm0-96c-22.054688 0-40 17.945312-40 40s17.945312 40 40 40 40-17.945312 40-40-17.945312-40-40-40zm0 0"/><path d="m176 248h-16c0-48.519531 39.480469-88 88-88v16c-39.695312 0-72 32.304688-72 72zm0 0"/><path d="m248 336v-16c39.695312 0 72-32.304688 72-72h16c0 48.519531-39.480469 88-88 88zm0 0"/><path d="m56 200c-13.230469 0-24-10.769531-24-24s10.769531-24 24-24 24 10.769531 24 24-10.769531 24-24 24zm0-32c-4.40625 0-8 3.59375-8 8s3.59375 8 8 8 8-3.59375 8-8-3.59375-8-8-8zm0 0"/><path d="m8 320h160v16h-160zm0 0"/><path d="m328 320h160v16h-160zm0 0"/><path d="m456 200h-80c-4.414062 0-8-3.585938-8-8v-32c0-4.414062 3.585938-8 8-8h80c4.414062 0 8 3.585938 8 8v32c0 4.414062-3.585938 8-8 8zm-72-16h64v-16h-64zm0 0"/><path d="m480 128h-16v-24h-48v24h-16v-32c0-4.414062 3.585938-8 8-8h64c4.414062 0 8 3.585938 8 8zm0 0"/><path d="m464 96h-16v-24h-16v24h-16v-32c0-4.414062 3.585938-8 8-8h32c4.414062 0 8 3.585938 8 8zm0 0"/><path d="m320 64h-144c-4.414062 0-8-3.585938-8-8v-48c0-4.414062 3.585938-8 8-8h144c4.414062 0 8 3.585938 8 8v48c0 4.414062-3.585938 8-8 8zm-136-16h128v-32h-128zm0 0"/><path d="m216 56h16v32h-16zm0 0"/><path d="m264 56h16v32h-16zm0 0"/></svg>