<?xml version="1.0" encoding="iso-8859-1"?>
<!-- Generator: Adobe Illustrator 19.0.0, SVG Export Plug-In . SVG Version: 6.00 Build 0)  -->
<svg version="1.1" id="Layer_1" xmlns="http://www.w3.org/2000/svg" xmlns:xlink="http://www.w3.org/1999/xlink" x="0px" y="0px"
	 viewBox="0 0 511.999 511.999" style="enable-background:new 0 0 511.999 511.999;" xml:space="preserve">
<rect x="18.394" y="143.419" style="fill:#4ACFD9;" width="148.039" height="157.906"/>
<rect x="18.394" y="345.835" style="fill:#FD6A33;" width="148.039" height="157.906"/>
<rect x="213.582" y="143.419" style="fill:#FF8C29;" width="148.039" height="157.906"/>
<rect x="213.582" y="345.835" style="fill:#687F82;" width="148.039" height="157.906"/>
<polygon style="fill:#CDD4D5;" points="119.807,406.942 94.914,382.05 163.368,276.259 374.951,64.676 437.181,126.905 
	225.598,338.488 "/>
<path style="fill:#FF8C29;" d="M480.742,21.113c-17.184-17.184-45.046-17.184-62.231,0l-49.784,49.784l62.231,62.23l49.784-49.784
	C497.927,66.16,497.927,38.298,480.742,21.113z"/>
<rect x="308.727" y="83.122" transform="matrix(-0.7071 -0.7071 0.7071 -0.7071 602.9322 459.9901)" style="fill:#FD6A33;" width="176.012" height="44.003"/>
<rect x="384.132" y="114.364" transform="matrix(0.7071 0.7071 -0.7071 0.7071 221.7729 -262.6764)" style="fill:#F0353D;" width="87.665" height="44.003"/>
<g>
	<path style="fill:#FFFFFF;" d="M418.513,66.702c-2.111,0-4.223-0.805-5.835-2.416c-3.222-3.223-3.222-8.446,0-11.669l18.67-18.67
		c3.223-3.221,8.446-3.221,11.669,0c3.222,3.223,3.222,8.446,0,11.669l-18.668,18.67C422.736,65.897,420.624,66.702,418.513,66.702z
		"/>
	<path style="fill:#FFFFFF;" d="M194.483,290.732c-2.111,0-4.223-0.805-5.834-2.416c-3.223-3.222-3.223-8.446-0.001-11.669
		l24.892-24.893c3.223-3.223,8.448-3.222,11.668-0.001c3.223,3.222,3.223,8.446,0.001,11.668l-24.892,24.893
		C198.707,289.926,196.594,290.732,194.483,290.732z"/>
	<path style="fill:#FFFFFF;" d="M244.268,240.948c-2.111,0-4.223-0.805-5.835-2.416c-3.222-3.223-3.222-8.446,0-11.669
		l87.121-87.122c3.224-3.222,8.448-3.22,11.669,0c3.222,3.223,3.222,8.446,0,11.669l-87.121,87.122
		C248.491,240.143,246.379,240.948,244.268,240.948z"/>
</g>
<path d="M486.576,15.279c-20.374-20.371-53.522-20.371-73.898,0l-31.504,31.504l-25.28-25.281c-3.223-3.221-8.446-3.221-11.669,0
	l-31.116,31.116c-3.222,3.223-3.222,8.446,0,11.668l25.281,25.282l-45.606,45.605H213.58c-4.558,0-8.251,3.694-8.251,8.251v79.204
	l-30.645,30.645V143.423c0-4.557-3.693-8.251-8.251-8.251H18.394c-4.558,0-8.251,3.694-8.251,8.251v157.91
	c0,4.558,3.693,8.251,8.251,8.251h113.583l-18.121,28.005H18.394c-4.558,0-8.251,3.693-8.251,8.251v157.91
	c0,4.558,3.693,8.251,8.251,8.251h148.04c4.558,0,8.251-3.693,8.251-8.251V381.26l30.645-19.829v142.318
	c0,4.558,3.693,8.251,8.251,8.251h148.041c4.558,0,8.251-3.693,8.251-8.251V345.84c0-4.558-3.693-8.251-8.251-8.251H238.167
	l28.005-28.005h95.449c4.558,0,8.251-3.693,8.251-8.251v-95.449l42.418-42.419l25.281,25.281c1.548,1.547,3.647,2.416,5.835,2.416
	c2.188,0,4.287-0.869,5.835-2.417l31.114-31.116c3.222-3.222,3.222-8.445,0-11.669l-25.279-25.279l31.503-31.504
	C506.95,68.804,506.95,35.654,486.576,15.279z M355.786,196.632l-98.867,98.867l-36.536,36.537l-10.628,6.877
	c-0.072,0.046-0.135,0.099-0.205,0.147c-0.037,0.026-0.08,0.045-0.118,0.072c-0.048,0.029-0.091,0.065-0.14,0.094
	c-0.064,0.04-0.131,0.072-0.194,0.112l-47.146,30.505l-41.028,26.547l-15.46-15.457l19.806-30.611l28.798-44.506l15.751-24.342
	l2.448-2.448l47.146-47.145l82.622-82.622l48.021-48.021l50.561,50.56L355.786,196.632z M276.284,151.674l-54.452,54.452v-54.452
	H276.284z M26.644,151.674h131.538v118.101l-0.65,0.65c-0.41,0.411-0.776,0.864-1.091,1.352l-13.787,21.306H26.644V151.674z
	 M26.644,495.499V354.091h76.535l-15.191,23.478c-2.113,3.266-1.658,7.565,1.092,10.317l24.892,24.892
	c1.594,1.593,3.706,2.416,5.838,2.416c1.547,0,3.104-0.435,4.478-1.323l33.895-21.931V495.5H26.644V495.499z M353.37,495.499
	H221.831V354.091H353.37V495.499z M282.673,293.083l70.697-70.697v70.697H282.673z M443.405,171.245l-25.282-25.282l-62.23-62.229
	c-0.003-0.003-0.008-0.007-0.011-0.01l-25.27-25.271l19.447-19.447l25.28,25.281l62.231,62.231l25.28,25.279L443.405,171.245z
	 M474.909,77.512l-31.502,31.503l-50.562-50.562l31.503-31.504c13.941-13.94,36.623-13.939,50.562-0.001
	C488.848,40.887,488.848,63.571,474.909,77.512z"/>
<g>
</g>
<g>
</g>
<g>
</g>
<g>
</g>
<g>
</g>
<g>
</g>
<g>
</g>
<g>
</g>
<g>
</g>
<g>
</g>
<g>
</g>
<g>
</g>
<g>
</g>
<g>
</g>
<g>
</g>
</svg>
