<?xml version="1.0" encoding="iso-8859-1"?>
<!-- Generator: Adobe Illustrator 19.0.0, SVG Export Plug-In . SVG Version: 6.00 Build 0)  -->
<svg version="1.1" id="Layer_1" xmlns="http://www.w3.org/2000/svg" xmlns:xlink="http://www.w3.org/1999/xlink" x="0px" y="0px"
	 viewBox="0 0 512 512" style="enable-background:new 0 0 512 512;" xml:space="preserve">
<g>
	<rect x="375.467" y="238.933" style="fill:#664848;" width="34.133" height="34.133"/>
	<rect x="375.467" y="170.667" style="fill:#664848;" width="34.133" height="34.133"/>
	<rect x="375.467" y="102.4" style="fill:#664848;" width="34.133" height="34.133"/>
	<rect x="341.333" y="273.067" style="fill:#664848;" width="34.133" height="34.133"/>
	<rect x="341.333" y="204.8" style="fill:#664848;" width="34.133" height="34.133"/>
	<rect x="341.333" y="136.533" style="fill:#664848;" width="34.133" height="34.133"/>
	<rect x="341.333" y="68.267" style="fill:#664848;" width="34.133" height="34.133"/>
	<rect x="307.2" y="238.933" style="fill:#664848;" width="34.133" height="34.133"/>
	<rect x="307.2" y="170.667" style="fill:#664848;" width="34.133" height="34.133"/>
	<rect x="307.2" y="102.4" style="fill:#664848;" width="34.133" height="34.133"/>
	<rect x="273.067" y="273.067" style="fill:#664848;" width="34.133" height="34.133"/>
	<rect x="273.067" y="204.8" style="fill:#664848;" width="34.133" height="34.133"/>
	<rect x="273.067" y="136.533" style="fill:#664848;" width="34.133" height="34.133"/>
	<rect x="273.067" y="68.267" style="fill:#664848;" width="34.133" height="34.133"/>
</g>
<polygon style="fill:#99DDFF;" points="290.133,426.667 290.133,494.933 221.867,494.933 221.867,426.667 256,426.667 "/>
<g>
	<rect x="238.933" y="238.933" style="fill:#664848;" width="34.133" height="34.133"/>
	<rect x="238.933" y="170.667" style="fill:#664848;" width="34.133" height="34.133"/>
	<rect x="238.933" y="102.4" style="fill:#664848;" width="34.133" height="34.133"/>
</g>
<path style="fill:#99DDFF;" d="M256,358.4H17.067v34.133c0,18.773,15.36,34.133,34.133,34.133h170.667H256h34.133H460.8
	c18.773,0,34.133-15.36,34.133-34.133V358.4H256z"/>
<g>
	<rect x="204.8" y="273.067" style="fill:#664848;" width="34.133" height="34.133"/>
	<rect x="204.8" y="204.8" style="fill:#664848;" width="34.133" height="34.133"/>
	<rect x="204.8" y="136.533" style="fill:#664848;" width="34.133" height="34.133"/>
	<rect x="204.8" y="68.267" style="fill:#664848;" width="34.133" height="34.133"/>
	<rect x="170.667" y="238.933" style="fill:#664848;" width="34.133" height="34.133"/>
	<rect x="170.667" y="170.667" style="fill:#664848;" width="34.133" height="34.133"/>
	<rect x="170.667" y="102.4" style="fill:#664848;" width="34.133" height="34.133"/>
	<rect x="136.533" y="273.067" style="fill:#664848;" width="34.133" height="34.133"/>
	<rect x="136.533" y="204.8" style="fill:#664848;" width="34.133" height="34.133"/>
	<rect x="136.533" y="136.533" style="fill:#664848;" width="34.133" height="34.133"/>
	<rect x="136.533" y="68.267" style="fill:#664848;" width="34.133" height="34.133"/>
	<rect x="102.4" y="238.933" style="fill:#664848;" width="34.133" height="34.133"/>
	<rect x="102.4" y="170.667" style="fill:#664848;" width="34.133" height="34.133"/>
	<rect x="102.4" y="102.4" style="fill:#664848;" width="34.133" height="34.133"/>
	<path style="fill:#664848;" d="M507,5.001C503.825,1.826,499.422,0,494.933,0H17.067C12.578,0,8.175,1.826,5.001,5.001
		S0,12.578,0,17.067V358.4v68.267c0,4.489,1.826,8.892,5.001,12.066c3.174,3.174,7.578,5.001,12.066,5.001H204.8v34.133h-85.333
		c-9.421,0-17.067,7.646-17.067,17.067S110.046,512,119.467,512h102.4h68.267h102.4c9.421,0,17.067-7.646,17.067-17.067
		s-7.646-17.067-17.067-17.067H307.2v-34.133h187.733c4.489,0,8.892-1.826,12.066-5.001c3.174-3.174,5-7.578,5-12.066V358.4V17.067
		C512,12.578,510.174,8.175,507,5.001z M273.067,477.867h-34.133v-34.133H256h17.067V477.867z M477.867,409.6H290.133H256h-34.133
		H34.133v-34.133H256h221.867V409.6z M477.867,341.333H256H34.133v-307.2h443.733V341.333z"/>
</g>
<g>
</g>
<g>
</g>
<g>
</g>
<g>
</g>
<g>
</g>
<g>
</g>
<g>
</g>
<g>
</g>
<g>
</g>
<g>
</g>
<g>
</g>
<g>
</g>
<g>
</g>
<g>
</g>
<g>
</g>
</svg>
