<svg height="512pt" viewBox="0 -76 512 512" width="512pt" xmlns="http://www.w3.org/2000/svg"><path d="m72 268c0 6.628906-5.371094 12-12 12s-12-5.371094-12-12 5.371094-12 12-12 12 5.371094 12 12zm0 0" fill="#aab2bd"/><path d="m72 204c0 6.628906-5.371094 12-12 12s-12-5.371094-12-12 5.371094-12 12-12 12 5.371094 12 12zm0 0" fill="#aab2bd"/><path d="m64 328h88v24h-88zm0 0" fill="#434a54"/><path d="m360 328h88v24h-88zm0 0" fill="#434a54"/><path d="m192 120c26.480469 0 48 21.519531 48 48 0 26.488281-21.519531 48-48 48s-48-21.511719-48-48c0-26.480469 21.519531-48 48-48zm0 0" fill="#5d9cec"/><path d="m192 120c-5.617188 0-10.984375 1.015625-16 2.800781 18.617188 6.605469 32 24.34375 32 45.199219 0 20.863281-13.382812 38.59375-32 45.199219 5.015625 1.785156 10.382812 2.800781 16 2.800781 26.480469 0 48-21.511719 48-48 0-26.480469-21.519531-48-48-48zm0 0" fill="#4a89dc"/><path d="m265.359375 136c4.242187 9.769531 6.640625 20.640625 6.640625 32 0 44.167969-35.761719 80-80 80s-80-35.832031-80-80c0-11.359375 2.398438-22.230469 6.640625-32 12.320313-28.230469 40.480469-48 73.359375-48s61.039062 19.769531 73.359375 48zm-25.359375 32c0-26.480469-21.519531-48-48-48s-48 21.519531-48 48c0 26.488281 21.519531 48 48 48s48-21.511719 48-48zm0 0" fill="#ccd1d9"/><path d="m312 136h160v24h-160zm0 0" fill="#434a54"/><path d="m312 160h160v-24c17.601562 0 32 14.40625 32 32v128c0 17.601562-14.398438 32-32 32h-432c-17.601562 0-32-22.398438-32-40v-120c0-17.59375 14.398438-32 32-32h78.640625c-4.242187 9.769531-6.640625 20.640625-6.640625 32 0 44.167969 35.761719 80 80 80s80-35.832031 80-80c0-11.359375-2.398438-22.230469-6.640625-32h46.640625zm-240 44c0-6.632812-5.359375-12-12-12s-12 5.367188-12 12c0 6.640625 5.359375 12 12 12s12-5.359375 12-12zm0 64c0-6.632812-5.359375-12-12-12s-12 5.367188-12 12c0 6.640625 5.359375 12 12 12s12-5.359375 12-12zm0 0" fill="#656d78"/><path d="m192.238281 288c-4.421875 0-8.039062-3.574219-8.039062-8s3.535156-8 7.953125-8h.085937c4.417969 0 8 3.574219 8 8s-3.582031 8-8 8zm0 0"/><path d="m232.238281 288c-4.421875 0-8.039062-3.574219-8.039062-8s3.535156-8 7.953125-8h.085937c4.417969 0 8 3.574219 8 8s-3.582031 8-8 8zm0 0"/><path d="m152.238281 288c-4.421875 0-8.039062-3.574219-8.039062-8s3.535156-8 7.953125-8h.085937c4.417969 0 8 3.574219 8 8s-3.582031 8-8 8zm0 0"/><path d="m472 336h-432c-22.160156 0-40-26.257812-40-48v-120c0-22.054688 17.945312-40 40-40 4.425781 0 8 3.574219 8 8s-3.574219 8-8 8c-13.230469 0-24 10.769531-24 24v120c0 13.96875 11.640625 32 24 32h432c13.230469 0 24-10.769531 24-24v-128c0-13.230469-10.769531-24-24-24-4.425781 0-8-3.574219-8-8s3.574219-8 8-8c22.054688 0 40 17.945312 40 40v128c0 22.054688-17.945312 40-40 40zm0 0"/><path d="m192 256c-48.519531 0-88-39.480469-88-88s39.480469-88 88-88 88 39.480469 88 88-39.480469 88-88 88zm0-160c-39.703125 0-72 32.296875-72 72s32.296875 72 72 72 72-32.296875 72-72-32.296875-72-72-72zm0 0"/><path d="m192 224c-30.871094 0-56-25.128906-56-56s25.128906-56 56-56 56 25.128906 56 56-25.128906 56-56 56zm0-96c-22.054688 0-40 17.945312-40 40s17.945312 40 40 40 40-17.945312 40-40-17.945312-40-40-40zm0 0"/><path d="m60 224c-11.03125 0-20-8.96875-20-20s8.96875-20 20-20 20 8.96875 20 20-8.96875 20-20 20zm0-24c-2.199219 0-4 1.800781-4 4s1.800781 4 4 4 4-1.800781 4-4-1.800781-4-4-4zm0 0"/><path d="m60 288c-11.03125 0-20-8.96875-20-20s8.96875-20 20-20 20 8.96875 20 20-8.96875 20-20 20zm0-24c-2.199219 0-4 1.800781-4 4s1.800781 4 4 4 4-1.800781 4-4-1.800781-4-4-4zm0 0"/><path d="m312 168c-4.425781 0-8-3.574219-8-8v-24c0-4.425781 3.574219-8 8-8s8 3.574219 8 8v24c0 4.425781-3.574219 8-8 8zm0 0"/><path d="m472 168h-160c-4.425781 0-8-3.574219-8-8s3.574219-8 8-8h160c4.425781 0 8 3.574219 8 8s-3.574219 8-8 8zm0 0"/><path d="m472 168c-4.425781 0-8-3.574219-8-8v-24c0-4.425781 3.574219-8 8-8s8 3.574219 8 8v24c0 4.425781-3.574219 8-8 8zm0 0"/><path d="m504 224h-192c-4.425781 0-8-3.574219-8-8s3.574219-8 8-8h192c4.425781 0 8 3.574219 8 8s-3.574219 8-8 8zm0 0"/><path d="m504 256h-192c-4.425781 0-8-3.574219-8-8s3.574219-8 8-8h192c4.425781 0 8 3.574219 8 8s-3.574219 8-8 8zm0 0"/><path d="m504 288h-192c-4.425781 0-8-3.574219-8-8s3.574219-8 8-8h192c4.425781 0 8 3.574219 8 8s-3.574219 8-8 8zm0 0"/><path d="m64 360c-4.425781 0-8-3.574219-8-8v-24c0-4.425781 3.574219-8 8-8s8 3.574219 8 8v24c0 4.425781-3.574219 8-8 8zm0 0"/><path d="m152.007812 360h-88.007812c-4.425781 0-8-3.574219-8-8s3.574219-8 8-8h88.007812c4.425782 0 8 3.574219 8 8s-3.574218 8-8 8zm0 0"/><path d="m152.007812 360c-4.421874 0-8-3.574219-8-8v-24c0-4.425781 3.578126-8 8-8 4.425782 0 8 3.574219 8 8v24c0 4.425781-3.574218 8-8 8zm0 0"/><path d="m360 360c-4.425781 0-8-3.574219-8-8v-24c0-4.425781 3.574219-8 8-8s8 3.574219 8 8v24c0 4.425781-3.574219 8-8 8zm0 0"/><path d="m448.007812 360h-88.007812c-4.425781 0-8-3.574219-8-8s3.574219-8 8-8h88.007812c4.425782 0 8 3.574219 8 8s-3.574218 8-8 8zm0 0"/><path d="m448.007812 360c-4.421874 0-8-3.574219-8-8v-24c0-4.425781 3.578126-8 8-8 4.425782 0 8 3.574219 8 8v24c0 4.425781-3.574218 8-8 8zm0 0"/><path d="m118.664062 144h-78.664062c-4.425781 0-8-3.574219-8-8s3.574219-8 8-8h78.664062c4.425782 0 8 3.574219 8 8s-3.574218 8-8 8zm0 0"/><path d="m472 144h-206.65625c-4.421875 0-8-3.574219-8-8s3.578125-8 8-8h206.65625c4.425781 0 8 3.574219 8 8s-3.574219 8-8 8zm0 0"/><path d="m192 56c-4.425781 0-8-3.574219-8-8v-40c0-4.425781 3.574219-8 8-8s8 3.574219 8 8v40c0 4.425781-3.574219 8-8 8zm0 0"/><path d="m132.007812 72.078125c-2.769531 0-5.457031-1.429687-6.9375-4l-20-34.636719c-2.207031-3.832031-.894531-8.722656 2.929688-10.929687 3.816406-2.207031 8.710938-.902344 10.929688 2.929687l20 34.636719c2.207031 3.832031.894531 8.722656-2.929688 10.929687-1.257812.726563-2.632812 1.070313-3.992188 1.070313zm0 0"/><path d="m88.070312 116c-1.359374 0-2.734374-.34375-3.992187-1.070312l-34.636719-20c-3.832031-2.210938-5.144531-7.097657-2.9375-10.929688 2.207032-3.832031 7.113282-5.144531 10.929688-2.929688l34.636718 20c3.832032 2.210938 5.144532 7.105469 2.929688 10.929688-1.480469 2.566406-4.167969 4-6.929688 4zm0 0"/><path d="m295.929688 116c-2.769532 0-5.457032-1.433594-6.9375-4-2.207032-3.832031-.894532-8.71875 2.929687-10.929688l34.621094-20c3.816406-2.207031 8.714843-.902343 10.929687 2.929688 2.207032 3.832031.894532 8.71875-2.929687 10.929688l-34.621094 20c-1.257813.726562-2.632813 1.070312-3.992187 1.070312zm0 0"/><path d="m251.992188 72.078125c-1.359376 0-2.734376-.34375-3.992188-1.070313-3.832031-2.207031-5.144531-7.105468-2.929688-10.929687l19.984376-34.628906c2.210937-3.824219 7.113281-5.144531 10.929687-2.929688 3.832031 2.207031 5.144531 7.105469 2.925781 10.929688l-19.980468 34.628906c-1.480469 2.5625-4.167969 4-6.9375 4zm0 0"/></svg>