<svg height="496pt" viewBox="0 0 496 496" width="496pt" xmlns="http://www.w3.org/2000/svg"><path d="m488 408h-288v-400h224v64h64zm0 0" fill="#bab8b9"/><path d="m8 200h352v288h-352zm0 0" fill="#bc8f6f"/><path d="m8 200h320v288h-320zm0 0" fill="#cb9e78"/><path d="m264 392v-32h-18.097656c-1.421875-5.519531-3.574219-10.734375-6.328125-15.574219l16.425781-16.425781-24-24-16.425781 16.425781c-4.839844-2.746093-10.054688-4.90625-15.574219-6.328125v-18.097656h-32v18.097656c-5.527344 1.421875-10.769531 3.535156-15.609375 6.292969l-16.390625-16.390625-24 24 16.390625 16.390625c-2.757813 4.839844-4.871094 10.082031-6.292969 15.609375h-18.097656v32h18.097656c1.421875 5.519531 3.574219 10.734375 6.328125 15.574219l-16.425781 16.425781 24 24 16.425781-16.425781c4.839844 2.746093 10.054688 4.90625 15.574219 6.328125v18.097656h32v-18.097656c5.527344-1.421875 10.769531-3.535156 15.609375-6.292969l16.390625 16.390625 24-24-16.390625-16.390625c2.757813-4.839844 4.871094-10.082031 6.292969-15.609375zm0 0" fill="#699ce6"/><path d="m216 376c0 17.671875-14.328125 32-32 32s-32-14.328125-32-32 14.328125-32 32-32 32 14.328125 32 32zm0 0" fill="#fff"/><path d="m40 200v48l16 16h256l16-16v-48" fill="#bc8f6f"/><path d="m264 248h32v48h-32zm0 0" fill="#656665"/><path d="m72 248h32v48h-32zm0 0" fill="#656665"/><path d="m272 200v-56c0-13.257812-10.742188-24-24-24h-128c-13.257812 0-24 10.742188-24 24v56h32v-48h112v48zm0 0" fill="#7e4e4d"/><path d="m232 40h160v48h-160zm0 0" fill="#fff"/><path d="m488 72-64-64v64zm0 0" fill="#999"/><path d="m200 464h-32c-4.414062 0-8-3.574219-8-8v-12.183594c-2.039062-.726562-4.054688-1.550781-6.039062-2.464844l-12.304688 12.304688c-3 3-8.3125 3-11.3125 0l-24-24c-3.128906-3.128906-3.128906-8.183594 0-11.3125l12.304688-12.304688c-.914063-1.984374-1.738282-3.992187-2.464844-6.039062h-12.183594c-4.414062 0-8-3.574219-8-8v-32c0-4.425781 3.585938-8 8-8h12.175781c.726563-2.070312 1.542969-4.097656 2.449219-6.0625l-12.28125-12.28125c-1.503906-1.496094-2.34375-3.527344-2.34375-5.65625s.839844-4.160156 2.34375-5.65625l24-24c3.128906-3.128906 8.183594-3.128906 11.3125 0l12.28125 12.273438c1.972656-.898438 4-1.722657 6.0625-2.449219v-12.167969c0-4.425781 3.585938-8 8-8h32c4.414062 0 8 3.574219 8 8v12.183594c2.039062.726562 4.054688 1.550781 6.039062 2.464844l12.304688-12.304688c3-3 8.3125-3 11.3125 0l24 24c3.128906 3.128906 3.128906 8.183594 0 11.3125l-12.304688 12.304688c.914063 1.984374 1.738282 3.992187 2.464844 6.039062h12.183594c4.414062 0 8 3.574219 8 8v32c0 4.425781-3.585938 8-8 8h-12.175781c-.726563 2.070312-1.542969 4.097656-2.449219 6.0625l12.28125 12.28125c1.503906 1.496094 2.34375 3.527344 2.34375 5.65625s-.839844 4.160156-2.34375 5.65625l-24 24c-3.128906 3.128906-8.183594 3.128906-11.3125 0l-12.28125-12.273438c-1.972656.898438-4 1.722657-6.0625 2.449219v12.167969c0 4.425781-3.585938 8-8 8zm-24-16h16v-10.097656c0-3.644532 2.464844-6.832032 6-7.742188 4.847656-1.257812 9.441406-3.113281 13.648438-5.503906 3.144531-1.777344 7.070312-1.25 9.617187 1.296875l10.734375 10.734375 12.6875-12.6875-10.734375-10.734375c-2.554687-2.546875-3.082031-6.488281-1.296875-9.617187 2.398438-4.207032 4.246094-8.800782 5.503906-13.648438.910156-3.527344 4.097656-6 7.742188-6h10.097656v-16h-10.097656c-3.644532 0-6.832032-2.472656-7.742188-6.007812-1.214844-4.710938-3.070312-9.289063-5.535156-13.601563-1.785156-3.132813-1.25-7.070313 1.296875-9.613281l10.765625-10.777344-12.6875-12.6875-10.769531 10.777344c-2.542969 2.535156-6.488281 3.078125-9.605469 1.292968-4.328125-2.453124-8.90625-4.320312-13.632812-5.542968-3.527344-.917969-5.992188-4.097656-5.992188-7.742188v-10.097656h-16v10.097656c0 3.644532-2.464844 6.832032-6 7.742188-4.847656 1.257812-9.441406 3.113281-13.648438 5.503906-3.136718 1.785156-7.070312 1.242188-9.617187-1.296875l-10.734375-10.734375-12.6875 12.6875 10.734375 10.734375c2.554687 2.546875 3.082031 6.488281 1.296875 9.617187-2.398438 4.207032-4.246094 8.800782-5.503906 13.648438-.902344 3.527344-4.097656 6-7.742188 6h-10.097656v16h10.097656c3.644532 0 6.832032 2.472656 7.742188 6.007812 1.214844 4.710938 3.070312 9.289063 5.535156 13.601563 1.785156 3.132813 1.25 7.070313-1.296875 9.613281l-10.765625 10.777344 12.6875 12.6875 10.769531-10.777344c2.535157-2.535156 6.476563-3.085937 9.605469-1.292968 4.328125 2.453124 8.90625 4.320312 13.632812 5.542968 3.527344.917969 5.992188 4.097656 5.992188 7.742188zm0 0"/><path d="m184 416c-22.054688 0-40-17.945312-40-40s17.945312-40 40-40 40 17.945312 40 40-17.945312 40-40 40zm0-64c-13.230469 0-24 10.769531-24 24s10.769531 24 24 24 24-10.769531 24-24-10.769531-24-24-24zm0 0"/><path d="m360 496h-352c-4.414062 0-8-3.574219-8-8v-288c0-4.414062 3.585938-8 8-8h352c4.414062 0 8 3.585938 8 8v288c0 4.425781-3.585938 8-8 8zm-344-16h336v-272h-336zm0 0"/><path d="m312 272h-16v-16h12.6875l11.3125-11.3125v-44.6875h16v48c0 2.121094-.839844 4.160156-2.34375 5.65625l-16 16c-1.496094 1.503906-3.535156 2.34375-5.65625 2.34375zm0 0"/><path d="m72 272h-16c-2.121094 0-4.160156-.839844-5.65625-2.34375l-16-16c-1.503906-1.496094-2.34375-3.535156-2.34375-5.65625v-48h16v44.6875l11.3125 11.3125h12.6875zm0 0"/><path d="m296 304h-32c-4.414062 0-8-3.574219-8-8v-48c0-4.414062 3.585938-8 8-8h32c4.414062 0 8 3.585938 8 8v48c0 4.425781-3.585938 8-8 8zm-24-16h16v-32h-16zm0 0"/><path d="m104 304h-32c-4.414062 0-8-3.574219-8-8v-48c0-4.414062 3.585938-8 8-8h32c4.414062 0 8 3.585938 8 8v48c0 4.425781-3.585938 8-8 8zm-24-16h16v-32h-16zm0 0"/><path d="m104 256h160v16h-160zm0 0"/><path d="m248 200h-16v-40h-96v40h-16v-48c0-4.414062 3.585938-8 8-8h112c4.414062 0 8 3.585938 8 8zm0 0"/><path d="m280 200h-16v-56c0-8.824219-7.175781-16-16-16h-128c-8.824219 0-16 7.175781-16 16v56h-16v-56c0-17.648438 14.351562-32 32-32h128c17.648438 0 32 14.351562 32 32zm0 0"/><path d="m488 416h-128v-16h120v-320h-56c-4.414062 0-8-3.585938-8-8v-56h-208v104h-16v-112c0-4.414062 3.585938-8 8-8h224c4.414062 0 8 3.585938 8 8v56h56c4.414062 0 8 3.585938 8 8v336c0 4.425781-3.585938 8-8 8zm0 0"/><path d="m192 152h16v48h-16zm0 0"/><path d="m418.339844 13.660156 11.3125-11.3125 64 64-11.3125 11.3125zm0 0"/><path d="m392 96h-160c-4.414062 0-8-3.585938-8-8v-48c0-4.414062 3.585938-8 8-8h160c4.414062 0 8 3.585938 8 8v48c0 4.414062-3.585938 8-8 8zm-152-16h144v-32h-144zm0 0"/><path d="m296 112h168v16h-168zm0 0"/><path d="m296 144h168v16h-168zm0 0"/><path d="m384 176h80v16h-80zm0 0"/><path d="m384 208h80v16h-80zm0 0"/><path d="m384 240h80v16h-80zm0 0"/><path d="m384 272h80v16h-80zm0 0"/><path d="m384 304h80v16h-80zm0 0"/><path d="m384 336h80v16h-80zm0 0"/><path d="m384 368h80v16h-80zm0 0"/></svg>