<?xml version="1.0" encoding="iso-8859-1"?>
<!-- Generator: Adobe Illustrator 19.0.0, SVG Export Plug-In . SVG Version: 6.00 Build 0)  -->
<svg xmlns="http://www.w3.org/2000/svg" xmlns:xlink="http://www.w3.org/1999/xlink" version="1.1" id="Capa_1" x="0px" y="0px" viewBox="0 0 512 512" style="enable-background:new 0 0 512 512;" xml:space="preserve" width="512" height="512">
<g>
	<g>
		<path style="fill:#9FD479;" d="M236.332,146.078c-12.794,0-23.998-6.646-30.445-16.656c-2.442-3.791-6.504-6.191-10.948-6.66    v80.088H114.44c0.596-4.26,2.954-8.122,6.603-10.48c10.011-6.433,16.642-17.651,16.642-30.445    c0-20.774-17.494-37.473-38.567-36.153c-18.119,1.136-32.83,15.961-33.839,34.094c-0.753,13.675,6.078,25.787,16.685,32.56    c3.635,2.329,5.936,6.206,6.504,10.423H7.5V64.627c0-27.179,22.038-49.217,49.217-49.217h138.222v81.507    c4.402-0.454,8.477-2.797,10.891-6.574c6.773-10.593,18.886-17.438,32.575-16.685c18.133,1.008,32.958,15.719,34.094,33.853    C273.806,128.569,257.121,146.078,236.332,146.078z"/>
		<path style="fill:#F2DF33;" d="M382.378,202.849h-81.068c0.341,4.601,2.712,8.875,6.603,11.36    c10.607,6.773,17.438,18.9,16.685,32.575c-1.008,18.133-15.719,32.958-33.839,34.094c-21.073,1.321-38.567-15.378-38.567-36.167    c0-12.78,6.631-23.998,16.642-30.43c3.933-2.542,6.362-6.816,6.717-11.431h-80.613v-80.088c4.445,0.469,8.506,2.868,10.948,6.66    c6.447,10.011,17.651,16.656,30.445,16.656c20.789,0,37.474-17.509,36.167-38.567c-1.136-18.133-15.961-32.844-34.094-33.853    c-13.689-0.753-25.801,6.092-32.575,16.685c-2.414,3.777-6.489,6.12-10.891,6.574V15.41h138.222    c27.179,0,49.217,22.038,49.217,49.217V202.849z"/>
		<path style="fill:#D9B92C;" d="M333.161,15.41h-22.501c27.178,0,49.217,22.038,49.217,49.217v138.222h22.501V64.627    C382.378,37.448,360.34,15.41,333.161,15.41z"/>
		<path style="fill:#D9B92C;" d="M307.914,214.209c-3.891-2.485-6.262-6.759-6.603-11.36H278.81    c0.341,4.601,2.712,8.875,6.603,11.36c10.607,6.773,17.438,18.9,16.685,32.575c-0.837,15.05-11.117,27.813-24.946,32.37    c4.246,1.389,8.833,2.023,13.609,1.724c18.119-1.136,32.83-15.961,33.839-34.094C325.352,233.109,318.521,220.982,307.914,214.209    z"/>
		<path style="fill:#ED5575;" d="M504.5,309.151v138.222c0,27.179-22.038,49.217-49.217,49.217H317.061v-80.556    c-4.402,0.454-8.477,2.797-10.891,6.574c-6.773,10.593-18.886,17.438-32.575,16.671c-18.133-1.008-32.958-15.719-34.094-33.838    c-1.306-21.073,15.378-38.567,36.167-38.567c12.794,0,23.998,6.632,30.445,16.642c2.442,3.806,6.504,6.191,10.948,6.66v-81.025    h80.613c-0.355,4.615-2.783,8.889-6.717,11.431c-10.011,6.432-16.642,17.65-16.642,30.43c0,20.789,17.494,37.488,38.567,36.167    c18.119-1.136,32.83-15.961,33.839-34.094c0.753-13.674-6.078-25.801-16.685-32.575c-3.891-2.485-6.262-6.759-6.603-11.36H504.5z"/>
		<path style="fill:#CC3A60;" d="M368.457,320.582c-10.011,6.432-16.642,17.65-16.642,30.43c0,20.789,17.494,37.488,38.567,36.167    c3.081-0.193,6.059-0.791,8.892-1.724c-14.491-4.741-24.958-18.365-24.958-34.443c0-12.78,6.631-23.998,16.642-30.43    c3.933-2.542,6.361-6.816,6.716-11.431h-22.501C374.818,313.766,372.39,318.04,368.457,320.582z"/>
		<path style="fill:#CC3A60;" d="M481.999,309.151v138.222c0,27.179-22.038,49.217-49.217,49.217h22.501    c27.178,0,49.217-22.038,49.217-49.217V309.151H481.999z"/>
		<path style="fill:#5C9CEE;" d="M117.379,299.139c1.136,18.119,15.961,32.83,34.094,33.838    c13.689,0.767,25.801-6.078,32.575-16.671c2.414-3.777,6.489-6.12,10.891-6.574v80.556H56.717    c-27.179,0-49.217-22.038-49.217-49.217V202.849h80.968c-0.568-4.217-2.868-8.094-6.504-10.423    c-10.607-6.773-17.438-18.886-16.685-32.56c1.008-18.133,15.719-32.958,33.839-34.094c21.073-1.32,38.567,15.379,38.567,36.153    c0,12.794-6.631,24.012-16.642,30.445c-3.649,2.357-6.007,6.22-6.603,10.48h80.499v81.025c-4.445-0.469-8.506-2.854-10.948-6.66    c-6.447-10.011-17.651-16.642-30.445-16.642C132.758,260.572,116.073,278.066,117.379,299.139z"/>
	</g>
	<g>
		<path d="M504.5,301.651h-81.067c-2.085,0-4.076,0.868-5.496,2.396c-1.419,1.528-2.138,3.578-1.983,5.658    c0.521,7.04,4.276,13.442,10.046,17.127c8.732,5.577,13.804,15.479,13.233,25.837c-0.794,14.261-12.574,26.132-26.819,27.025    c-8.051,0.506-15.689-2.239-21.529-7.725c-5.848-5.493-9.068-12.936-9.068-20.958c0-9.794,4.933-18.812,13.212-24.131    c5.803-3.75,9.587-10.163,10.124-17.156c0.16-2.083-0.556-4.138-1.975-5.67c-1.42-1.533-3.414-2.404-5.503-2.404h-80.613    c-4.143,0-7.5,3.358-7.5,7.5v66.359c-8.263-10.184-20.611-16.136-33.893-16.136c-12.021,0-23.638,5.024-31.872,13.785    c-8.355,8.889-12.539,20.519-11.781,32.752c1.383,22.064,19.079,39.63,41.16,40.857c14.063,0.789,27.602-5.284,36.385-16.07    v65.893c0,4.142,3.357,7.5,7.5,7.5h88.128c4.143,0,7.5-3.358,7.5-7.5s-3.357-7.5-7.5-7.5h-80.628v-73.056    c0-2.123-0.9-4.147-2.477-5.569s-3.683-2.107-5.794-1.892c-6.839,0.707-12.831,4.35-16.438,9.995    c-5.586,8.736-15.465,13.8-25.841,13.223c-14.261-0.793-26.131-12.574-27.024-26.814c-0.5-8.052,2.249-15.704,7.739-21.545    c5.49-5.841,12.927-9.058,20.942-9.058c9.791,0,18.815,4.936,24.133,13.193c3.644,5.678,9.648,9.348,16.473,10.067    c2.121,0.223,4.224-0.462,5.805-1.884c1.58-1.422,2.482-3.449,2.482-5.575v-73.525h58.991    c-10.55,8.249-16.736,20.815-16.736,34.361c0,12.03,5.029,23.653,13.799,31.891c8.891,8.35,20.507,12.522,32.737,11.762    c22.064-1.384,39.629-19.08,40.857-41.167c0.79-14.333-5.522-28.09-16.668-36.847H497v130.722    c0,23.003-18.714,41.717-41.717,41.717h-20.099c-4.143,0-7.5,3.358-7.5,7.5s3.357,7.5,7.5,7.5h20.099    c31.273,0,56.717-25.443,56.717-56.717V309.151C512,305.009,508.643,301.651,504.5,301.651z"/>
		<path d="M153.546,268.072c9.792,0,18.815,4.936,24.133,13.193c3.644,5.678,9.648,9.348,16.473,10.067    c2.113,0.223,4.224-0.462,5.804-1.884c1.58-1.422,2.482-3.449,2.482-5.575v-73.525h58.992    c-10.55,8.248-16.737,20.814-16.737,34.361c0,12.03,5.029,23.653,13.799,31.89c8.198,7.701,18.721,11.853,29.893,11.852    c0.944,0,1.894-0.03,2.846-0.089c22.064-1.384,39.629-19.08,40.856-41.167c0.79-14.334-5.521-28.09-16.667-36.847h66.958    c4.143,0,7.5-3.358,7.5-7.5V64.627c0-31.274-25.443-56.717-56.717-56.717H194.939H105.56c-4.142,0-7.5,3.358-7.5,7.5    s3.358,7.5,7.5,7.5h81.879v74.007c0,2.123,0.9,4.146,2.476,5.569c1.577,1.422,3.686,2.11,5.793,1.892    c6.839-0.706,12.832-4.349,16.441-9.995c5.585-8.734,15.493-13.8,25.839-13.237c11.587,0.644,21.597,8.546,25.422,19.129    c0.147,0.407,0.285,0.818,0.414,1.233c0.514,1.659,0.878,3.377,1.074,5.138c0.049,0.44,0.088,0.883,0.116,1.328    c0.499,8.049-2.25,15.699-7.742,21.542c-5.491,5.842-12.928,9.06-20.939,9.06c-9.786,0-18.81-4.941-24.14-13.218    c-3.655-5.673-9.657-9.339-16.467-10.057c-0.529-0.056-1.057-0.055-1.577,0c-1.56,0.165-3.042,0.818-4.227,1.884    c-1.185,1.067-1.989,2.473-2.317,4.007c-0.109,0.511-0.166,1.036-0.166,1.568v72.588h-11.754c-4.142,0-7.5,3.358-7.5,7.5    s3.358,7.5,7.5,7.5h11.754v58.858c-8.263-10.182-20.612-16.136-33.893-16.136c-12.021,0-23.638,5.024-31.872,13.784    c-8.355,8.89-12.54,20.519-11.781,32.752c1.384,22.065,19.08,39.63,41.16,40.857c14.077,0.791,27.601-5.285,36.385-16.071v58.393    H56.717C33.714,382.788,15,364.074,15,341.071V210.349h73.468c2.164,0,4.222-0.935,5.646-2.563s2.075-3.794,1.786-5.938    c-0.881-6.538-4.486-12.274-9.9-15.743c-8.732-5.576-13.803-15.472-13.233-25.823c0.793-14.261,12.574-26.132,26.82-27.025    c8.044-0.511,15.692,2.24,21.533,7.726c5.846,5.491,9.065,12.928,9.065,20.941c0,9.803-4.934,18.826-13.212,24.145    c-5.42,3.501-9.051,9.238-9.961,15.74c-0.301,2.149,0.344,4.324,1.769,5.961c1.424,1.638,3.488,2.578,5.659,2.578h31.248    c4.142,0,7.5-3.358,7.5-7.5s-3.358-7.5-7.5-7.5h-16.065c9.833-8.248,15.563-20.381,15.563-33.424    c0-12.022-5.028-23.64-13.795-31.875c-8.892-8.352-20.516-12.527-32.741-11.764c-22.065,1.383-39.63,19.079-40.858,41.167    c-0.761,13.828,5.092,27.119,15.515,35.896H15V64.627C15,41.624,33.714,22.91,56.717,22.91h18.844c4.142,0,7.5-3.358,7.5-7.5    s-3.358-7.5-7.5-7.5H56.717C25.443,7.91,0,33.353,0,64.627v138.222v138.222c0,31.274,25.443,56.717,56.717,56.717h138.222    c4.142,0,7.5-3.358,7.5-7.5v-80.556c0-2.123-0.9-4.147-2.477-5.569c-1.577-1.422-3.683-2.108-5.794-1.892    c-6.839,0.707-12.832,4.35-16.439,9.995c-5.585,8.735-15.484,13.8-25.839,13.223c-14.261-0.793-26.132-12.574-27.025-26.814    c-0.5-8.053,2.25-15.705,7.74-21.546C138.095,271.289,145.532,268.072,153.546,268.072z M202.439,137.428    c8.267,10.192,20.616,16.149,33.893,16.149c12.019,0,23.634-5.025,31.869-13.787c8.357-8.892,12.542-20.521,11.783-32.749    c-1.383-22.073-19.079-39.644-41.167-40.873c-14.077-0.766-27.598,5.304-36.378,16.086V22.91h130.722    c23.003,0,41.717,18.714,41.717,41.717v130.722h-73.567c-2.085,0-4.076,0.868-5.496,2.396c-1.419,1.528-2.138,3.578-1.983,5.658    c0.521,7.04,4.277,13.442,10.047,17.127c8.732,5.576,13.803,15.478,13.232,25.837c-0.793,14.261-12.573,26.132-26.818,27.025    c-8.043,0.512-15.69-2.239-21.53-7.725c-5.848-5.493-9.068-12.936-9.068-20.957c0-9.794,4.934-18.812,13.213-24.131    c5.802-3.75,9.586-10.163,10.123-17.156c0.16-2.083-0.556-4.138-1.975-5.67c-1.42-1.533-3.414-2.404-5.503-2.404h-73.113V137.428z    "/>
	</g>
</g>















</svg>
