<?xml version="1.0" encoding="iso-8859-1"?>
<!-- Generator: Adobe Illustrator 19.0.0, SVG Export Plug-In . SVG Version: 6.00 Build 0)  -->
<svg version="1.1" id="Capa_1" xmlns="http://www.w3.org/2000/svg" xmlns:xlink="http://www.w3.org/1999/xlink" x="0px" y="0px"
	 viewBox="0 0 512 512" style="enable-background:new 0 0 512 512;" xml:space="preserve">
<path style="fill:#303C42;" d="M350.536,161.66c-2.707-18.501-8.939-35.781-18.212-50.417c9.715-5.349,20.365-13.393,28.384-20.887
	l68.677,76.758c2.063,2.302,4.969,3.552,7.948,3.552c1.281,0,2.563-0.229,3.802-0.698c4.135-1.583,6.865-5.542,6.865-9.969
	c0-13.542-16.292-160-67.927-160h-57.271c-20.677,0-43.193,38.118-56.635,65.234C262.784,64.758,259.444,64,256,64
	c-3.684,0-7.26,0.775-10.871,1.319C231.956,38.1,209.884,0,189.198,0h-57.271C80.292,0,64,146.458,64,160
	c0,4.427,2.729,8.385,6.865,9.969c1.24,0.469,2.521,0.698,3.802,0.698c2.979,0,5.885-1.25,7.948-3.552l68.677-76.758
	c8.02,7.493,18.669,15.538,28.384,20.887c-9.273,14.635-15.505,31.915-18.212,50.417C104.677,177.031,64,204.93,64,234.667
	c0,40.194,31.258,47.467,64,52.077v86.59c0,31.858-5.928,91.359-9.151,100.898c-0.904,1.811-1.516,3.706-1.516,5.768
	c0,27.844,86.875,32,138.667,32s138.667-4.156,138.667-32c0-1.991-0.555-3.829-1.398-5.586c-3.4-10.318-9.268-69.378-9.268-101.081
	v-86.59c32.742-4.609,64-11.883,64-52.077C448,204.93,407.323,177.031,350.536,161.66z"/>
<g>
	<path style="fill:#FAFAFA;" d="M322.802,21.333h57.271c18.448,0,36.031,63.448,43.208,106.969l-73.438-82.083
		c-3.917-4.385-10.656-4.76-15.063-0.833c-4.385,3.927-4.76,10.667-0.833,15.063l12.572,14.051
		c-8.411,7.96-20.217,16.159-27.323,19.654c-9.37-10.098-20.297-17.872-32.063-23.077C300.542,45.253,316.557,22.715,322.802,21.333
		z"/>
	<path style="fill:#FAFAFA;" d="M177.219,45.385c-4.406-3.927-11.125-3.552-15.063,0.833l-73.438,82.083
		c7.177-43.521,24.76-106.969,43.208-106.969l56.969-0.021c6.467,1.439,22.26,24.095,35.366,49.983
		c-11.539,5.208-22.243,12.928-31.456,22.854c-7.112-3.496-18.915-11.693-27.326-19.651l12.572-14.051
		C181.979,56.052,181.604,49.313,177.219,45.385z"/>
	<path style="fill:#FAFAFA;" d="M256,85.333c32.454,0,62.982,31.294,72.082,70.999c-9.655-1.909-19.69-3.385-29.913-4.539
		c0.198-0.811,0.497-1.587,0.497-2.46c0-5.892-4.776-10.667-10.667-10.667s-10.667,4.775-10.667,10.667
		c0,0.238,0.12,0.438,0.135,0.672c-7.098-0.406-14.247-0.672-21.469-0.672c-7.221,0-14.371,0.266-21.469,0.672
		c0.016-0.234,0.135-0.434,0.135-0.672c0-5.892-4.776-10.667-10.667-10.667s-10.667,4.775-10.667,10.667
		c0,0.872,0.299,1.648,0.497,2.46c-10.223,1.154-20.258,2.63-29.913,4.539C193.018,116.628,223.546,85.333,256,85.333z"/>
</g>
<path style="fill:#63554F;" d="M149.333,373.333v-79.936c10.371-5.195,39.996-16.064,106.667-16.064s96.296,10.868,106.667,16.064
	v79.936c0,17.475,2.517,58.086,6.259,85.677C339.212,449.849,290.077,448,256,448s-83.212,1.849-112.926,11.01
	C146.816,431.419,149.333,390.809,149.333,373.333z"/>
<path style="opacity:0.1;enable-background:new    ;" d="M336.604,284.818v89.728c0,16.259,1.081,48.73,2.823,78.329
	c10.854,1.551,21.01,3.518,29.499,6.135c-3.742-27.591-6.259-68.202-6.259-85.677v-79.936
	C358.176,291.147,349.76,287.852,336.604,284.818z"/>
<path style="opacity:0.2;fill:#FFFFFF;enable-background:new    ;" d="M175.396,374.546v-89.728
	c-13.156,3.034-21.572,6.329-26.063,8.579v79.936c0,17.475-2.517,58.086-6.259,85.677c8.488-2.617,18.645-4.585,29.499-6.135
	C174.315,423.276,175.396,390.805,175.396,374.546z"/>
<path style="fill:#63554F;" d="M362.667,270.178C344.952,263.505,312.565,256,256,256s-88.952,7.505-106.667,14.178v-24.085
	c0-4.833,1.802-8.656,3.583-9.938c11.865-8.531,41.031-22.823,103.083-22.823s91.219,14.292,103.073,22.813
	c1.792,1.292,3.594,5.115,3.594,9.948V270.178z"/>
<path style="opacity:0.2;fill:#FFFFFF;enable-background:new    ;" d="M170.667,247.721c0-6.647,1.441-11.905,2.867-13.667
	c3.095-3.826,7.861-8.486,14.332-13.04c-17.746,4.733-28.775,10.702-34.949,15.142c-1.781,1.281-3.583,5.104-3.583,9.938v24.085
	c5.521-2.079,12.674-4.22,21.333-6.21V247.721z"/>
<path style="opacity:0.1;enable-background:new    ;" d="M359.073,236.146c-6.169-4.435-17.191-10.398-34.932-15.13
	c6.466,4.551,11.227,9.204,14.318,13.025c1.434,1.776,2.875,7.034,2.875,13.681v16.247c8.659,1.99,15.813,4.13,21.333,6.21v-24.085
	C362.667,241.26,360.865,237.438,359.073,236.146z"/>
<g>
	<path style="fill:#63554F;" d="M256,490.667c-56.198,0-93.135-5.708-109.563-10.667c16.427-4.958,53.365-10.667,109.563-10.667
		s93.135,5.708,109.563,10.667C349.135,484.958,312.198,490.667,256,490.667z"/>
	<path style="fill:#63554F;" d="M384,265.112v-19.018c0-11.458-4.667-21.646-12.479-27.271C354.49,206.594,320.625,192,256,192
		s-98.49,14.594-115.531,26.833c-7.802,5.615-12.469,15.802-12.469,27.26v19.018c-34.893-5.447-42.667-11.621-42.667-30.445
		c0-21.979,66.458-64,170.667-64s170.667,42.021,170.667,64C426.667,253.491,418.893,259.665,384,265.112z"/>
</g>
<linearGradient id="SVGID_1_" gradientUnits="userSpaceOnUse" x1="-44.7867" y1="639.6054" x2="-25.1302" y2="630.4426" gradientTransform="matrix(21.3333 0 0 -21.3333 996.3334 13791.667)">
	<stop  offset="0" style="stop-color:#FFFFFF;stop-opacity:0.2"/>
	<stop  offset="1" style="stop-color:#FFFFFF;stop-opacity:0"/>
</linearGradient>
<path style="fill:url(#SVGID_1_);" d="M350.536,161.66c-2.707-18.501-8.939-35.781-18.212-50.417
	c9.715-5.349,20.365-13.393,28.384-20.887l68.677,76.758c2.063,2.302,4.969,3.552,7.948,3.552c1.281,0,2.563-0.229,3.802-0.698
	c4.135-1.583,6.865-5.542,6.865-9.969c0-13.542-16.292-160-67.927-160h-57.271c-20.677,0-43.193,38.118-56.635,65.234
	C262.784,64.758,259.444,64,256,64c-3.684,0-7.26,0.775-10.871,1.319C231.956,38.1,209.884,0,189.198,0h-57.271
	C80.292,0,64,146.458,64,160c0,4.427,2.729,8.385,6.865,9.969c1.24,0.469,2.521,0.698,3.802,0.698c2.979,0,5.885-1.25,7.948-3.552
	l68.677-76.758c8.02,7.493,18.669,15.538,28.384,20.887c-9.273,14.635-15.505,31.915-18.212,50.417
	C104.677,177.031,64,204.93,64,234.667c0,40.194,31.258,47.467,64,52.077v86.59c0,31.858-5.928,91.359-9.151,100.898
	c-0.904,1.811-1.516,3.706-1.516,5.768c0,27.844,86.875,32,138.667,32s138.667-4.156,138.667-32c0-1.991-0.555-3.829-1.398-5.586
	c-3.4-10.318-9.268-69.378-9.268-101.081v-86.59c32.742-4.609,64-11.883,64-52.077C448,204.93,407.323,177.031,350.536,161.66z"/>
<g>
</g>
<g>
</g>
<g>
</g>
<g>
</g>
<g>
</g>
<g>
</g>
<g>
</g>
<g>
</g>
<g>
</g>
<g>
</g>
<g>
</g>
<g>
</g>
<g>
</g>
<g>
</g>
<g>
</g>
</svg>
