<?xml version="1.0" encoding="iso-8859-1"?>
<!-- Generator: Adobe Illustrator 19.0.0, SVG Export Plug-In . SVG Version: 6.00 Build 0)  -->
<svg version="1.1" id="Capa_1" xmlns="http://www.w3.org/2000/svg" xmlns:xlink="http://www.w3.org/1999/xlink" x="0px" y="0px"
	 viewBox="0 0 512 512" style="enable-background:new 0 0 512 512;" xml:space="preserve">
<polygon style="fill:#C9F3FF;" points="502,502 392,392 392,120 502,10 "/>
<path style="fill:#7D9BFF;" d="M128,359v42.838C128,433.96,154.04,460,186.162,460h147.677C365.96,460,392,433.96,392,401.838
	V110.162C392,78.04,365.96,52,333.838,52H186.162C154.04,52,128,78.04,128,110.162v50.172V359z"/>
<path style="fill:#72D8FF;" d="M333.838,52h-15.55v408h15.55C365.96,460,392,433.96,392,401.838V110.162
	C392,78.04,365.96,52,333.838,52z"/>
<path style="fill:#FEDA9B;" d="M181.634,205.27h-45.13c-1.857,0-2.177-2.655-0.374-3.097l29.85-7.318
	c9.891-2.425,16.495-12.055,14.7-22.08c-1.887-10.539-12.05-17.489-22.561-15.416l-56.998,11.24
	c-13.205,2.604-25.343,9.058-34.887,18.548L40.549,212.69H10v102.23h30.549l20.364,20.251
	c12.776,12.705,30.061,19.836,48.079,19.836h44.53h28.113l0,0L181.634,205.27z"/>
<rect x="184.13" y="128" style="fill:#FFFFFF;" width="72" height="256"/>
<g>
	<path style="fill:#FEDA9B;" d="M175.567,241.894H128c-10.351,0-18.742-8.391-18.742-18.742l0,0
		c0-10.351,8.391-18.742,18.742-18.742h47.567c10.351,0,18.742,8.391,18.742,18.742l0,0
		C194.309,233.503,185.918,241.894,175.567,241.894z"/>
	<path style="fill:#FEDA9B;" d="M175.567,279.598H128c-10.351,0-18.742-8.391-18.742-18.742l0,0
		c0-10.351,8.391-18.742,18.742-18.742h47.567c10.351,0,18.742,8.391,18.742,18.742l0,0
		C194.309,271.207,185.918,279.598,175.567,279.598z"/>
	<path style="fill:#FEDA9B;" d="M175.567,317.303H128c-10.351,0-18.742-8.391-18.742-18.742l0,0
		c0-10.351,8.391-18.742,18.742-18.742h47.567c10.351,0,18.742,8.391,18.742,18.742l0,0
		C194.309,308.912,185.918,317.303,175.567,317.303z"/>
	<path style="fill:#FEDA9B;" d="M175.567,355.007H128c-10.351,0-18.742-8.391-18.742-18.742l0,0
		c0-10.351,8.391-18.742,18.742-18.742h47.567c10.351,0,18.742,8.391,18.742,18.742l0,0
		C194.309,346.616,185.918,355.007,175.567,355.007z"/>
</g>
<path d="M256.127,118h-72c-5.523,0-10,4.478-10,10s4.477,10,10,10h62v236h-62c-5.523,0-10,4.478-10,10s4.477,10,10,10h72
	c5.523,0,10-4.478,10-10V128C266.127,122.478,261.65,118,256.127,118z"/>
<path d="M318.29,415.17c-2.63,0-5.21,1.06-7.07,2.93c-1.87,1.86-2.93,4.44-2.93,7.07s1.06,5.2,2.93,7.07
	c1.86,1.859,4.43,2.93,7.07,2.93c2.63,0,5.21-1.07,7.07-2.93c1.86-1.87,2.93-4.44,2.93-7.07c0-2.64-1.07-5.21-2.93-7.07
	C323.5,416.229,320.92,415.17,318.29,415.17z"/>
<path d="M502,20c2.63,0,5.21-1.07,7.07-2.931C510.93,15.21,512,12.63,512,10s-1.07-5.21-2.93-7.07S504.63,0,502,0
	s-5.21,1.069-7.07,2.93C493.07,4.79,492,7.37,492,10s1.07,5.21,2.93,7.069C496.79,18.93,499.37,20,502,20z"/>
<path d="M402.571,388.429c-0.184-0.184-0.378-0.35-0.571-0.516V124.071c0.254-0.208,0.5-0.43,0.737-0.667l78.667-78.666
	c3.905-3.905,3.906-10.237,0-14.143c-3.905-3.903-10.237-3.904-14.142,0l-66.528,66.527C394.632,65.756,366.963,42,333.838,42
	H186.162C148.577,42,118,72.577,118,110.162v44.916l-18.813,3.709c-15.19,2.995-29.023,10.35-40.004,21.269L36.422,202.69H10
	c-5.523,0-10,4.478-10,10s4.477,10,10,10h30.548c2.643,0,5.178-1.046,7.051-2.909l25.687-25.543
	c8.171-8.126,18.466-13.599,29.771-15.827l56.999-11.241c2.435-0.477,4.9,0.029,6.946,1.431c2.046,1.401,3.41,3.52,3.841,5.962
	c0.834,4.732-2.168,9.337-6.836,10.481l-30.256,7.418c-1.482,0.363-2.797,1.048-3.908,1.949H128
	c-15.849,0-28.742,12.894-28.742,28.742c0,7.209,2.674,13.801,7.074,18.852c-4.4,5.051-7.074,11.643-7.074,18.852
	c0,7.209,2.674,13.802,7.074,18.853c-4.4,5.051-7.074,11.643-7.074,18.852c0,7.209,2.674,13.802,7.074,18.853
	c-4.4,5.051-7.074,11.643-7.074,18.853c0,2.819,0.415,5.542,1.175,8.119c-12.238-1.794-23.543-7.427-32.47-16.304L47.6,307.829
	c-1.874-1.863-4.409-2.909-7.051-2.909H10c-5.523,0-10,4.478-10,10s4.477,10,10,10h26.422l17.438,17.342
	c14.749,14.667,34.328,22.745,55.13,22.745H118v36.831C118,439.423,148.577,470,186.162,470h147.677
	c33.125,0,60.793-23.756,66.896-55.123l94.194,94.194c1.953,1.952,4.512,2.929,7.071,2.929s5.119-0.977,7.071-2.929
	c3.905-3.905,3.905-10.237,0-14.143L402.571,388.429z M128,214.41h47.567c4.82,0,8.742,3.922,8.742,8.742s-3.922,8.742-8.742,8.742
	H128c-4.82,0-8.742-3.922-8.742-8.742S123.18,214.41,128,214.41z M128,345.007c-4.82,0-8.742-3.921-8.742-8.741
	s3.922-8.742,8.742-8.742h47.567c4.82,0,8.742,3.922,8.742,8.742s-3.922,8.741-8.742,8.741H128z M128,252.114h47.567
	c4.82,0,8.742,3.922,8.742,8.742s-3.922,8.742-8.742,8.742H128c-4.82,0-8.742-3.922-8.742-8.742S123.18,252.114,128,252.114z
	 M128,289.819h47.567c4.82,0,8.742,3.921,8.742,8.741s-3.922,8.742-8.742,8.742H128c-4.82,0-8.742-3.922-8.742-8.742
	S123.18,289.819,128,289.819z M382,401.838C382,428.395,360.395,450,333.838,450H186.162C159.605,450,138,428.395,138,401.838
	v-36.831h37.567c15.849,0,28.742-12.894,28.742-28.741c0-7.209-2.674-13.802-7.074-18.853c4.4-5.051,7.074-11.643,7.074-18.853
	c0-7.209-2.674-13.801-7.074-18.852c4.4-5.051,7.074-11.643,7.074-18.853c0-7.209-2.674-13.801-7.074-18.852
	c4.4-5.051,7.074-11.643,7.074-18.852c0-13.077-8.782-24.134-20.755-27.604c5.75-6.462,8.584-15.384,6.984-24.459
	c-1.372-7.779-5.715-14.522-12.231-18.987c-6.516-4.466-14.373-6.084-22.121-4.554L138,151.134v-40.972
	C138,83.605,159.605,62,186.162,62h122.126v329c0,5.522,4.477,10,10,10s10-4.478,10-10V62h5.551C360.395,62,382,83.605,382,110.162
	V401.838z"/>
<g>
</g>
<g>
</g>
<g>
</g>
<g>
</g>
<g>
</g>
<g>
</g>
<g>
</g>
<g>
</g>
<g>
</g>
<g>
</g>
<g>
</g>
<g>
</g>
<g>
</g>
<g>
</g>
<g>
</g>
</svg>
