<?xml version="1.0" encoding="iso-8859-1"?>
<!-- Generator: Adobe Illustrator 19.0.0, SVG Export Plug-In . SVG Version: 6.00 Build 0)  -->
<svg version="1.1" id="Capa_1" xmlns="http://www.w3.org/2000/svg" xmlns:xlink="http://www.w3.org/1999/xlink" x="0px" y="0px"
	 viewBox="0 0 512 512" style="enable-background:new 0 0 512 512;" xml:space="preserve">
<rect x="9.999" y="10.019" style="fill:#EDF2FA;" width="491.973" height="491.963"/>
<polygon style="fill:#62CD4D;" points="256.034,94.407 176.082,138.705 176.082,293.301 256.034,337.599 335.987,293.301 
	335.987,138.705 "/>
<polygon style="fill:#A0E557;" points="176.082,293.304 255.952,337.557 255.952,183.006 176.082,138.754 "/>
<polygon style="fill:#D8FB93;" points="176.04,138.705 255.993,183.003 335.946,138.705 255.993,94.407 "/>
<rect x="9.999" y="421.989" style="fill:#7D9BFF;" width="491.973" height="79.994"/>
<path style="fill:#FFFFFF;" d="M78.006,347.993L78.006,347.993c-13.254,0-23.998-10.744-23.998-23.998V108.011
	c0-13.254,10.744-23.998,23.998-23.998l0,0c13.254,0,23.998,10.744,23.998,23.998v215.984
	C102.004,337.249,91.26,347.993,78.006,347.993z"/>
<rect x="9.999" y="164.508" style="fill:#898998;" width="44.007" height="102.992"/>
<path style="fill:#FFFFFF;" d="M433.994,84.013L433.994,84.013c13.254,0,23.998,10.744,23.998,23.998v215.984
	c0,13.254-10.744,23.998-23.998,23.998l0,0c-13.254,0-23.998-10.744-23.998-23.998V108.011
	C409.996,94.757,420.74,84.013,433.994,84.013z"/>
<rect x="457.996" y="164.508" style="fill:#898998;" width="44.007" height="102.992"/>
<path d="M171.153,302.048l79.952,44.299c1.507,0.835,3.177,1.253,4.846,1.253s3.339-0.418,4.846-1.253l79.953-44.299
	c3.181-1.762,5.154-5.111,5.154-8.746V138.705c0-3.636-1.973-6.984-5.153-8.746L260.799,85.66c-3.016-1.67-6.677-1.67-9.692,0
	l-79.953,44.299c-3.181,1.762-5.154,5.111-5.154,8.746V293.3C166,296.936,167.973,300.286,171.153,302.048z M185.998,155.676
	l59.954,33.218v131.733l-59.954-33.218V155.676z M265.951,320.627V188.895l59.955-33.219V287.41L265.951,320.627z M255.952,105.838
	l59.32,32.867l-59.321,32.868l-59.321-32.867L255.952,105.838z"/>
<path d="M54.008,411.988c-2.63,0-5.21,1.069-7.069,2.93c-1.86,1.86-2.93,4.44-2.93,7.069c0,2.63,1.07,5.21,2.93,7.068
	c1.86,1.86,4.44,2.931,7.069,2.931c2.63,0,5.21-1.07,7.069-2.931c1.86-1.859,2.93-4.439,2.93-7.068c0-2.63-1.07-5.21-2.93-7.069
	C59.218,413.058,56.638,411.988,54.008,411.988z"/>
<path d="M206.247,451.985c-2.63,0-5.21,1.069-7.069,2.93c-1.86,1.86-2.93,4.44-2.93,7.069c0,2.63,1.07,5.21,2.93,7.068
	c1.86,1.86,4.44,2.931,7.069,2.931s5.21-1.07,7.069-2.931c1.86-1.859,2.93-4.439,2.93-7.068c0-2.63-1.07-5.21-2.93-7.069
	C211.456,453.055,208.876,451.985,206.247,451.985z"/>
<path d="M255.993,451.985c-2.63,0-5.21,1.069-7.069,2.93c-1.86,1.86-2.93,4.44-2.93,7.069c0,2.63,1.07,5.21,2.93,7.068
	c1.86,1.86,4.44,2.931,7.069,2.931c2.63,0,5.21-1.07,7.069-2.931c1.86-1.859,2.93-4.439,2.93-7.068c0-2.63-1.07-5.21-2.93-7.069
	C261.203,453.055,258.633,451.985,255.993,451.985z"/>
<path d="M305.739,451.985c-2.63,0-5.21,1.069-7.069,2.93c-1.86,1.86-2.93,4.44-2.93,7.069c0,2.63,1.07,5.21,2.93,7.068
	c1.86,1.86,4.44,2.931,7.069,2.931c2.63,0,5.21-1.07,7.069-2.931c1.86-1.859,2.93-4.439,2.93-7.068c0-2.63-1.07-5.21-2.93-7.069
	C310.949,453.055,308.379,451.985,305.739,451.985z"/>
<path d="M369.485,130.009h7.582c5.523,0,9.999-4.478,9.999-9.999c0-5.522-4.477-9.999-9.999-9.999h-7.582
	c-5.523,0-9.999,4.478-9.999,9.999C359.485,125.532,363.962,130.009,369.485,130.009z"/>
<path d="M369.485,194.005h7.582c5.523,0,9.999-4.478,9.999-9.999s-4.477-9.999-9.999-9.999h-7.582c-5.523,0-9.999,4.478-9.999,9.999
	S363.962,194.005,369.485,194.005z"/>
<path d="M369.485,258h7.582c5.523,0,9.999-4.478,9.999-9.999s-4.477-9.999-9.999-9.999h-7.582c-5.523,0-9.999,4.478-9.999,9.999
	S363.962,258,369.485,258z"/>
<path d="M369.485,321.995h7.582c5.523,0,9.999-4.478,9.999-9.999c0-5.522-4.477-9.999-9.999-9.999h-7.582
	c-5.523,0-9.999,4.478-9.999,9.999C359.485,317.517,363.962,321.995,369.485,321.995z"/>
<path d="M134.919,130.009h7.582c5.523,0,9.999-4.478,9.999-9.999c0-5.522-4.477-9.999-9.999-9.999h-7.582
	c-5.523,0-9.999,4.478-9.999,9.999C124.92,125.532,129.396,130.009,134.919,130.009z"/>
<path d="M134.919,194.005h7.582c5.523,0,9.999-4.478,9.999-9.999s-4.477-9.999-9.999-9.999h-7.582c-5.523,0-9.999,4.478-9.999,9.999
	S129.396,194.005,134.919,194.005z"/>
<path d="M134.919,258h7.582c5.523,0,9.999-4.478,9.999-9.999s-4.477-9.999-9.999-9.999h-7.582c-5.523,0-9.999,4.478-9.999,9.999
	S129.396,258,134.919,258z"/>
<path d="M134.919,321.995h7.582c5.523,0,9.999-4.478,9.999-9.999c0-5.522-4.477-9.999-9.999-9.999h-7.582
	c-5.523,0-9.999,4.478-9.999,9.999C124.92,317.517,129.396,321.995,134.919,321.995z"/>
<path d="M512,164.507c0-0.173-0.017-0.342-0.026-0.512V10.018c0-5.522-4.477-9.999-9.999-9.999H9.999C4.477,0.019,0,4.497,0,10.018
	v154.489v102.992v234.483c0,5.522,4.477,9.999,9.999,9.999h491.975c5.523,0,9.999-4.478,9.999-9.999V268.011
	c0.009-0.171,0.026-0.34,0.026-0.512L512,164.507L512,164.507z M491.975,257.5h-23.984v-82.994h23.984V257.5z M64.007,267.499
	V164.507v-56.496c0-7.719,6.28-13.999,13.999-13.999s13.999,6.28,13.999,13.999v215.984c0,7.719-6.28,13.999-13.999,13.999
	s-13.999-6.28-13.999-13.999V267.499z M44.009,257.5h-24.01v-82.994h24.01V257.5z M19.999,491.982V277.498h24.01v46.497
	c0,18.747,15.251,33.997,33.997,33.997s33.997-15.251,33.997-33.997V108.011c0-18.747-15.251-33.997-33.997-33.997
	s-33.997,15.251-33.997,33.997v46.497h-24.01V20.018h471.977v134.49H467.99v-46.497c0-18.747-15.251-33.997-33.997-33.997
	c-18.747,0-33.997,15.251-33.997,33.997v68.328c0,5.522,4.477,9.999,9.999,9.999c5.523,0,9.999-4.478,9.999-9.999v-68.328
	c0-7.719,6.281-13.999,13.999-13.999s13.999,6.28,13.999,13.999v215.984c0,7.719-6.28,13.999-13.999,13.999
	s-13.999-6.28-13.999-13.999V254.87c0-5.522-4.477-9.999-9.999-9.999c-5.523,0-9.999,4.478-9.999,9.999v69.125
	c0,18.747,15.251,33.997,33.997,33.997c18.747,0,33.997-15.251,33.997-33.997v-46.497h23.985v134.49H94.471
	c-5.523,0-9.999,4.478-9.999,9.999c0,5.522,4.477,9.999,9.999,9.999h397.505v59.996H19.999z"/>
<path d="M409.992,226.002c2.63,0,5.21-1.07,7.069-2.931c1.87-1.859,2.93-4.439,2.93-7.068s-1.06-5.21-2.93-7.069
	c-1.86-1.86-4.43-2.93-7.069-2.93c-2.63,0-5.21,1.069-7.069,2.93c-1.86,1.861-2.93,4.44-2.93,7.069s1.07,5.21,2.93,7.068
	C404.782,224.932,407.362,226.002,409.992,226.002z"/>
<g>
</g>
<g>
</g>
<g>
</g>
<g>
</g>
<g>
</g>
<g>
</g>
<g>
</g>
<g>
</g>
<g>
</g>
<g>
</g>
<g>
</g>
<g>
</g>
<g>
</g>
<g>
</g>
<g>
</g>
</svg>
