<?xml version="1.0" encoding="iso-8859-1"?>
<!-- Generator: Adobe Illustrator 18.1.1, SVG Export Plug-In . SVG Version: 6.00 Build 0)  -->
<svg version="1.1" id="Capa_1" xmlns="http://www.w3.org/2000/svg" xmlns:xlink="http://www.w3.org/1999/xlink" x="0px" y="0px"
	 viewBox="0 0 100.001 100.001" style="enable-background:new 0 0 100.001 100.001;" xml:space="preserve">
<g>
	<path style="fill:#030104;" d="M95.001,46.001c-0.906,0-3.994,0-4.9,0c-2.762,0-5,1.791-5,4s2.238,4,5,4c0.906,0,3.994,0,4.9,0
		c2.762,0,5-1.791,5-4S97.762,46.001,95.001,46.001z M50,22.502c-15.252,0-27.5,12.248-27.5,27.499
		c0,15.252,12.248,27.501,27.5,27.501c15.25,0,27.5-12.249,27.5-27.501C77.501,34.75,65.251,22.502,50,22.502z M50.5,70.001
		c-11.551,0-20.5-8.95-20.5-20C30,38.952,38.95,30,50.5,30V70.001z M14.898,50.001c0-2.209-2.137-4-4.898-4c-0.922,0-4.08,0-5,0
		c-2.762,0-5,1.791-5,4s2.238,4,5,4c0.92,0,4.078,0,5,0C12.762,54.001,14.898,52.21,14.898,50.001z M50,15c2.209,0,4-2.238,4-5
		c0-0.915,0-4.084,0-5c0-2.762-1.791-5-4-5s-4,2.238-4,5c0,0.916,0,4.085,0,5C46,12.762,47.792,15,50,15z M50,85.001
		c-2.209,0-4,2.238-4,5c0,0.915,0,4.084,0,5c0,2.762,1.791,5,4,5s4-2.238,4-5c0-0.916,0-4.085,0-5
		C54,87.239,52.209,85.001,50,85.001z M86.829,18.83c1.953-1.952,2.27-4.803,0.707-6.365c-1.563-1.562-4.412-1.244-6.363,0.707
		c-0.539,0.539-2.961,2.961-3.5,3.5c-1.953,1.953-2.27,4.802-0.707,6.363c1.562,1.563,4.412,1.247,6.363-0.705
		C83.867,21.791,86.292,19.369,86.829,18.83z M16.67,77.673c-0.539,0.539-2.961,2.963-3.5,3.5c-1.951,1.951-2.268,4.801-0.707,6.363
		c1.562,1.562,4.412,1.244,6.363-0.707c0.539-0.537,2.963-2.959,3.5-3.498c1.953-1.952,2.27-4.803,0.707-6.365
		S18.622,75.722,16.67,77.673z M18.83,13.172c-1.953-1.952-4.803-2.27-6.365-0.707s-1.244,4.412,0.707,6.364
		c0.539,0.538,2.961,2.962,3.5,3.5c1.953,1.952,4.801,2.269,6.363,0.706s1.246-4.411-0.705-6.363
		C21.792,16.133,19.369,13.711,18.83,13.172z M77.673,83.331c0.539,0.539,2.963,2.961,3.502,3.499
		c1.951,1.951,4.801,2.269,6.361,0.707c1.562-1.562,1.246-4.412-0.705-6.363c-0.539-0.538-2.961-2.962-3.5-3.5
		c-1.951-1.952-4.803-2.27-6.365-0.707S75.721,81.379,77.673,83.331z"/>
</g>
<g>
</g>
<g>
</g>
<g>
</g>
<g>
</g>
<g>
</g>
<g>
</g>
<g>
</g>
<g>
</g>
<g>
</g>
<g>
</g>
<g>
</g>
<g>
</g>
<g>
</g>
<g>
</g>
<g>
</g>
</svg>
