<svg height="512pt" viewBox="0 0 512.00024 512" width="512pt" xmlns="http://www.w3.org/2000/svg" xmlns:xlink="http://www.w3.org/1999/xlink"><linearGradient id="a" gradientTransform="matrix(.709873 .709873 -.709873 .709873 1038.916016 218.003291)" gradientUnits="userSpaceOnUse" x1="-552.3576" x2="-497.1898" y1="753.7089" y2="753.7089"><stop offset="0" stop-color="#fffcf8"/><stop offset=".1875" stop-color="#faf8f6"/><stop offset=".4041" stop-color="#eceef2"/><stop offset=".6353" stop-color="#d5dcea"/><stop offset=".875" stop-color="#b5c4df"/><stop offset="1" stop-color="#a1b5d8"/></linearGradient><linearGradient id="b" gradientTransform="matrix(.709873 .709873 -.709873 .709873 1038.916016 218.003291)" gradientUnits="userSpaceOnUse" x1="-499.4871" x2="-542.0163" y1="761.8522" y2="700.4211"><stop offset="0" stop-color="#a1b5d8" stop-opacity="0"/><stop offset=".0343" stop-color="#9fb3d5" stop-opacity=".035294"/><stop offset=".4515" stop-color="#8898af" stop-opacity=".45098"/><stop offset=".788" stop-color="#798898" stop-opacity=".788235"/><stop offset="1" stop-color="#748290"/></linearGradient><linearGradient id="c"><stop offset="0" stop-color="#ffc738"/><stop offset=".4286" stop-color="#ffbb23"/><stop offset="1" stop-color="#ffa700"/></linearGradient><linearGradient id="d" gradientTransform="matrix(.709873 .709873 -.709873 .709873 1038.916016 218.003291)" gradientUnits="userSpaceOnUse" x1="-534.4381" x2="-509.9511" xlink:href="#c" y1="711.8221" y2="711.8221"/><linearGradient id="e"><stop offset="0" stop-color="#3b395f"/><stop offset=".0633" stop-color="#37355a"/><stop offset=".4033" stop-color="#232543"/><stop offset=".7232" stop-color="#171b35"/><stop offset="1" stop-color="#131830"/></linearGradient><linearGradient id="f" gradientTransform="matrix(.709873 .709873 -.709873 .709873 1038.916016 218.003291)" gradientUnits="userSpaceOnUse" x1="-530.7385" x2="-515.6254" xlink:href="#e" y1="908.6953" y2="908.6953"/><linearGradient id="g" gradientTransform="matrix(.709873 .709873 -.709873 .709873 1038.916016 218.003291)" gradientUnits="userSpaceOnUse" x1="-508.6403" x2="-545.5069" y1="718.9878" y2="665.736"><stop offset="0" stop-color="#e58200" stop-opacity="0"/><stop offset=".0396" stop-color="#e27f04" stop-opacity=".039216"/><stop offset=".4671" stop-color="#c15d2f" stop-opacity=".466667"/><stop offset=".8016" stop-color="#ad4949" stop-opacity=".8"/><stop offset="1" stop-color="#a64153"/></linearGradient><linearGradient id="h" gradientTransform="matrix(.709873 .709873 -.709873 .709873 1038.916016 218.003291)" gradientUnits="userSpaceOnUse" x1="-506.1128" x2="-531.8132" y1="916.437" y2="890.7366"><stop offset="0" stop-color="#131830" stop-opacity="0"/><stop offset="1" stop-color="#131830"/></linearGradient><linearGradient id="i" gradientTransform="matrix(.709873 .709873 -.709873 .709873 1038.916016 218.003291)" gradientUnits="userSpaceOnUse" x1="-532.9417" x2="-512.2464" xlink:href="#c" y1="849.1385" y2="849.1385"/><linearGradient id="j" gradientUnits="userSpaceOnUse" x1="100.0513849898" x2="512.0004372932" xlink:href="#e" y1="205.9746885982" y2="205.9746885982"/><linearGradient id="k" gradientTransform="matrix(-1.003922 0 0 -1.003922 589.729682 2673.447169)" gradientUnits="userSpaceOnUse" x1="108.1532" x2="457.0381" xlink:href="#e" y1="2457.834" y2="2457.834"/><radialGradient id="l" cx="238.3637267738" cy="86.313109338" gradientUnits="userSpaceOnUse" r="291.701082203"><stop offset="0" stop-color="#fffcf8"/><stop offset=".2239" stop-color="#fbf9f7"/><stop offset=".4254" stop-color="#f0f1f3"/><stop offset=".6183" stop-color="#dee3ed"/><stop offset=".8059" stop-color="#c4d0e4"/><stop offset=".9882" stop-color="#a3b7d9"/><stop offset="1" stop-color="#a1b5d8"/></radialGradient><linearGradient id="m"><stop offset="0" stop-color="#a1b5d8" stop-opacity="0"/><stop offset=".2632" stop-color="#8ea0ba" stop-opacity=".262745"/><stop offset=".5306" stop-color="#808fa3" stop-opacity=".529412"/><stop offset=".7822" stop-color="#778595" stop-opacity=".780392"/><stop offset="1" stop-color="#748290"/></linearGradient><linearGradient id="n" gradientUnits="userSpaceOnUse" x1="413.4565580874" x2="360.3663517458" xlink:href="#m" y1="293.8851263722" y2="130.2513619432"/><linearGradient id="o" gradientUnits="userSpaceOnUse" x1="330.3353302144" x2="280.1542890444" xlink:href="#m" y1="128.5773220082" y2="78.3962808382"/><linearGradient id="p"><stop offset="0" stop-color="#00e7b2"/><stop offset=".2459" stop-color="#05e5b1"/><stop offset=".5301" stop-color="#13ddac"/><stop offset=".8322" stop-color="#2ad1a5"/><stop offset="1" stop-color="#3ac9a0"/></linearGradient><linearGradient id="q" gradientUnits="userSpaceOnUse" x1="381.8957602124" x2="450.3457723696" xlink:href="#p" y1="172.1016575728" y2="202.1781567708"/><linearGradient id="r" gradientUnits="userSpaceOnUse" x1="151.5258792646" x2="231.981393051" xlink:href="#p" y1="200.624185907" y2="281.0796996934"/><linearGradient id="s" gradientUnits="userSpaceOnUse" x1="299.671335862" x2="315.228111174" xlink:href="#p" y1="314.8409942002" y2="352.1774557334"/><linearGradient id="t" gradientUnits="userSpaceOnUse" x1="288.0345747834" x2="315.8251435874" xlink:href="#p" y1="86.2755626552" y2="114.0661314592"/><path d="m120.316406 430.722656-39.164062-39.164062 61.246094-61.242188 39.160156 39.160156zm0 0" fill="url(#a)"/><path d="m121.449219 351.265625v78.324219l60.109375-60.113282-39.160156-39.160156zm0 0" fill="url(#b)"/><path d="m156.632812 387.300781-32.058593-32.058593c-7.5625-7.566407-7.5625-19.828126 0-27.390626l27.277343-27.277343 59.449219 59.449219-27.277343 27.277343c-7.5625 7.5625-19.824219 7.5625-27.390626 0zm0 0" fill="url(#d)"/><path d="m10.554688 505.046875-3.726563-3.730469c-9.105469-9.101562-9.105469-23.859375 0-32.960937l8.804687-8.804688 36.691407 36.691407-8.804688 8.804687c-9.105469 9.101563-23.863281 9.101563-32.964843 0zm0 0" fill="url(#f)"/><path d="m133.789062 318.648438v45.808593l22.84375 22.84375c7.566407 7.5625 19.828126 7.5625 27.390626 0l27.277343-27.277343-59.449219-59.449219-18.058593 18.058593zm0 0" fill="url(#g)"/><path d="m43.519531 505.046875 8.804688-8.804687-36.691407-36.691407-8.804687 8.804688c-.339844.339843-.664063.691406-.980469 1.046875v30.867187c.316406.355469.640625.707031.976563 1.046875l3.730469 3.730469c9.101562 9.101563 23.859374 9.101563 32.964843 0zm0 0" fill="url(#h)"/><path d="m26.3125 498.222656-12.660156-12.660156c-10.378906-10.378906-10.378906-27.203125 0-37.582031l49.679687-49.683594c10.378907-10.378906 27.203125-10.378906 37.582031 0l12.660157 12.660156c10.378906 10.378907 10.378906 27.207031 0 37.585938l-49.679688 49.679687c-10.378906 10.378906-27.203125 10.378906-37.582031 0zm0 0" fill="url(#i)"/><path d="m512 205.976562c0 113.753907-92.21875 205.972657-205.972656 205.972657-113.757813 0-205.976563-92.21875-205.976563-205.972657 0-113.757812 92.21875-205.976562 205.976563-205.976562 113.753906 0 205.972656 92.21875 205.972656 205.976562zm0 0" fill="url(#j)"/><path d="m481.152344 205.976562c0 96.71875-78.40625 175.125-175.125 175.125-96.722656 0-175.128906-78.40625-175.128906-175.125 0-96.722656 78.40625-175.128906 175.128906-175.128906 96.71875 0 175.125 78.40625 175.125 175.128906zm0 0" fill="url(#k)"/><path d="m464.707031 205.976562c0 87.632813-71.042969 158.679688-158.679687 158.679688-87.636719 0-158.679688-71.046875-158.679688-158.679688 0-87.636718 71.042969-158.683593 158.679688-158.683593 87.636718 0 158.679687 71.046875 158.679687 158.683593zm0 0" fill="url(#l)"/><path d="m464.707031 205.972656c0 10.066406-.9375 19.914063-2.734375 29.457032-2.460937 13.148437-6.554687 25.71875-12.050781 37.507812-8.785156 18.847656-21.167969 35.6875-36.269531 49.628906l-68.824219-68.824218c-2.320313-1.335938-4.101563-3.480469-4.964844-6.054688l-35.144531-35.289062c-7.800781-6.652344-12.746094-16.546876-12.746094-27.601563v-26.671875c0-12 4.464844-22.957031 11.832032-31.292969 8.269531-9.386719 20.210937-15.457031 33.582031-15.988281.625-.023438 1.269531-.035156 1.902343-.035156h29.308594c6.085938 0 11.019532-4.933594 11.019532-11.019532v-2c0-6.085937 4.9375-11.019531 11.023437-11.019531h20.117187c.824219.726563 1.640626 1.460938 2.449219 2.199219.769531.710938 1.539063 1.425781 2.292969 2.144531.039062.03125.070312.058594.101562.097657 1.585938 1.519531 3.132813 3.066406 4.65625 4.644531l.160157.160156c27.433593 28.511719 44.289062 67.261719 44.289062 109.957031zm0 0" fill="url(#n)"/><path d="m461.972656 235.429688c-2.460937 13.148437-6.554687 25.722656-12.050781 37.507812l-146.117187-146.105469-18.460938-18.460937c-4.480469-3.226563-7.394531-8.480469-7.394531-14.417969 0-9.808594 7.953125-17.761719 17.761719-17.761719 5.9375 0 11.191406 2.914063 14.417968 7.394532l27.257813 27.261718zm0 0" fill="url(#o)"/><path d="m464.707031 205.972656c0 17.1875-2.734375 33.738282-7.792969 49.242188h-106.605468c-6.085938 0-11.019532-4.9375-11.019532-11.023438v-12.082031c0-3.042969-1.238281-5.800781-3.230468-7.796875-1.992188-1.992188-4.75-3.222656-7.792969-3.222656-20.042969 0-36.292969-16.25-36.292969-36.292969v-26.671875c0-26.136719 21.183594-47.316406 47.316406-47.316406h29.308594c6.085938 0 11.019532-4.933594 11.019532-11.019532v-2c0-6.085937 4.9375-11.019531 11.023437-11.019531h20.117187c33.074219 29.074219 53.949219 71.703125 53.949219 119.203125zm0 0" fill="url(#q)"/><path d="m220.226562 226.261719c0 30.019531-24.015624 54.425781-53.886718 55.042969-12.113282-22.410157-18.992188-48.066407-18.992188-75.332032 0-11.269531 1.167969-22.246094 3.40625-32.851562v-.007813c4.589844-1.246093 9.421875-1.910156 14.414063-1.910156 30.410156 0 55.058593 24.648437 55.058593 55.058594zm0 0" fill="url(#r)"/><path d="m306.027344 364.65625c31.527344 0 60.902344-9.195312 85.601562-25.050781-10.058594-10.867188-24.441406-17.671875-40.417968-17.671875-.542969 0-1.085938.007812-1.625.023437-11.992188.347657-23.890626-2.722656-33.773438-9.523437-8.863281-6.09375-19.597656-9.664063-31.164062-9.664063-26.273438 0-48.226563 18.402344-53.722657 43.015625 22.359375 12.035156 47.929688 18.871094 75.101563 18.871094zm0 0" fill="url(#s)"/><path d="m306.027344 364.65625c31.527344 0 60.902344-9.195312 85.601562-25.050781-10.058594-10.867188-24.441406-17.671875-40.417968-17.671875-.542969 0-1.085938.007812-1.625.023437-11.992188.347657-23.890626-2.722656-33.773438-9.523437-8.863281-6.09375-19.597656-9.664063-31.164062-9.664063-26.273438 0-48.226563 18.402344-53.722657 43.015625 22.359375 12.035156 47.929688 18.871094 75.101563 18.871094zm0 0" fill="url(#s)"/><path d="m313.46875 93.949219c0 9.808593-7.953125 17.761719-17.761719 17.761719-9.808593 0-17.757812-7.953126-17.757812-17.761719 0-9.808594 7.949219-17.761719 17.757812-17.761719 9.808594 0 17.761719 7.953125 17.761719 17.761719zm0 0" fill="url(#t)"/></svg>