<svg height="512pt" viewBox="0 0 512 512.00012" width="512pt" xmlns="http://www.w3.org/2000/svg"><path d="m437.835938 10.09375h63.988281v63.988281h-63.988281zm0 0" fill="#91def5"/><path d="m373.847656 138.070312h63.988282v63.988282h-63.988282zm0 0" fill="#cff1fb"/><path d="m309.863281 10.09375h63.984375v63.988281h-63.984375zm0 0" fill="#f6838d"/><path d="m437.835938 266.046875h63.988281v63.988281h-63.988281zm0 0" fill="#f6838d"/><path d="m373.847656 394.023438h63.988282v63.988281h-63.988282zm0 0" fill="#91def5"/><path d="m309.863281 266.046875h63.984375v63.988281h-63.984375zm0 0" fill="#91def5"/><path d="m245.875 394.023438h63.988281v63.988281h-63.988281zm0 0" fill="#cff1fb"/><path d="m121.90625 298.039062v171.96875c0 17.667969 14.324219 31.996094 31.996094 31.996094 17.667968 0 31.992187-14.328125 31.992187-31.996094v-171.96875zm0 0" fill="#ffd89e"/><path d="m121.90625 298.039062h63.988281v50.421876h-63.988281zm0 0" fill="#becfcf"/><path d="m297.871094 154.066406c0 79.515625-64.457032 143.972656-143.972656 143.972656-79.511719 0-143.972657-64.457031-143.972657-143.972656 0-79.511718 64.460938-143.972656 143.972657-143.972656 79.515624 0 143.972656 64.460938 143.972656 143.972656zm0 0" fill="#91def5"/><path d="m291.09375 84.089844c-2.511719-4.917969-8.535156-6.871094-13.449219-4.359375-4.917969 2.507812-6.871093 8.53125-4.359375 13.449219 26.46875 51.871093 16.5625 114.410156-24.648437 155.621093-52.238281 52.238281-137.234375 52.238281-189.472657 0-52.234374-52.234375-52.234374-137.230469 0-189.46875 41.035157-41.035156 103.382813-51.039062 155.140626-24.894531 4.925781 2.492188 10.941406.511719 13.429687-4.414062 2.492187-4.929688.515625-10.941407-4.414063-13.433594-59.488281-30.046875-131.136718-18.554688-178.296874 28.605468-60.03125 60.03125-60.03125 157.710938 0 217.746094 19.25 19.25 42.375 32.316406 66.882812 39.222656v167.84375c0 23.15625 18.839844 41.992188 41.992188 41.992188 23.15625 0 41.992187-18.835938 41.992187-41.992188v-167.847656c24.507813-6.902344 47.632813-19.96875 66.882813-39.21875 23.464843-23.464844 38.464843-53.167968 43.382812-85.890625 4.8125-32.066406-.394531-64.214843-15.0625-92.960937zm-137.191406 407.914062c-12.128906 0-21.996094-9.867187-21.996094-21.996094v-111.550781h43.992188v111.550781c0 12.128907-9.867188 21.996094-21.996094 21.996094zm21.996094-153.542968h-43.992188v-32.0625c7.289062 1.042968 14.640625 1.566406 21.992188 1.566406 7.355468 0 14.707031-.523438 22-1.566406zm0 0"/><path d="m253.878906 154.066406c0 55.21875-44.761718 99.984375-99.980468 99.984375s-99.980469-44.765625-99.980469-99.984375c0-55.214844 44.761719-99.980468 99.980469-99.980468s99.980468 44.765624 99.980468 99.980468zm0 0" fill="#fff"/><path d="m111.898438 112.074219h83.984374v83.984375h-83.984374zm0 0" fill="#f6838d"/><path d="m153.898438 264.046875c-60.640626 0-109.976563-49.335937-109.976563-109.980469 0-60.640625 49.335937-109.976562 109.976563-109.976562 60.644531 0 109.980468 49.335937 109.980468 109.976562 0 60.644532-49.335937 109.980469-109.980468 109.980469zm0-199.960937c-49.613282 0-89.980469 40.367187-89.980469 89.980468 0 49.617188 40.367187 89.984375 89.980469 89.984375 49.617187 0 89.984374-40.367187 89.984374-89.984375 0-49.613281-40.367187-89.980468-89.984374-89.980468zm0 0"/><path d="m501.824219 84.082031h-63.988281c-5.519532 0-9.996094-4.476562-9.996094-10v-63.988281c0-5.519531 4.476562-9.9960938 9.996094-9.9960938h63.988281c5.523437 0 10 4.4765628 10 9.9960938v63.988281c0 5.523438-4.476563 10-10 10zm-53.988281-19.996093h43.992187v-43.992188h-43.992187zm0 0"/><path d="m437.835938 212.058594h-63.988282c-5.519531 0-9.996094-4.476563-9.996094-10v-63.988282c0-5.519531 4.476563-9.996093 9.996094-9.996093h63.988282c5.523437 0 10 4.476562 10 9.996093v63.988282c0 5.519531-4.476563 10-10 10zm-53.988282-19.996094h43.992188v-43.992188h-43.992188zm0 0"/><path d="m195.882812 206.058594h-83.984374c-5.519532 0-9.996094-4.476563-9.996094-10v-83.984375c0-5.519531 4.476562-9.996094 9.996094-9.996094h83.984374c5.519532 0 10 4.476563 10 9.996094v83.984375c0 5.523437-4.476562 10-10 10zm-73.984374-19.996094h63.988281v-63.988281h-63.988281zm0 0"/><path d="m373.847656 84.082031h-63.984375c-5.523437 0-10-4.476562-10-10v-63.988281c0-5.519531 4.476563-9.9960938 10-9.9960938h63.984375c5.523438 0 10 4.4765628 10 9.9960938v63.988281c0 5.523438-4.476562 10-10 10zm-53.988281-19.996093h43.992187v-43.992188h-43.992187zm0 0"/><path d="m501.824219 340.03125h-63.988281c-5.519532 0-9.996094-4.476562-9.996094-9.996094v-63.988281c0-5.519531 4.476562-10 9.996094-10h63.988281c5.523437 0 10 4.480469 10 10v63.988281c0 5.519532-4.476563 9.996094-10 9.996094zm-53.988281-19.996094h43.992187v-43.992187h-43.992187zm0 0"/><path d="m437.835938 468.007812h-63.988282c-5.519531 0-9.996094-4.476562-9.996094-9.996093v-63.988281c0-5.523438 4.476563-10 9.996094-10h63.988282c5.523437 0 10 4.476562 10 10v63.988281c0 5.519531-4.476563 9.996093-10 9.996093zm-53.988282-19.996093h43.992188v-43.992188h-43.992188zm0 0"/><path d="m373.847656 340.03125h-63.984375c-5.523437 0-10-4.476562-10-9.996094v-63.988281c0-5.519531 4.476563-10 10-10h63.984375c5.523438 0 10 4.480469 10 10v63.988281c0 5.519532-4.476562 9.996094-10 9.996094zm-53.988281-19.996094h43.992187v-43.992187h-43.992187zm0 0"/><path d="m309.863281 468.007812h-63.988281c-5.523438 0-10-4.476562-10-9.996093v-63.988281c0-5.523438 4.476562-10 10-10h63.988281c5.519531 0 9.996094 4.476562 9.996094 10v63.988281c0 5.519531-4.476563 9.996093-9.996094 9.996093zm-53.992187-19.996093h43.992187v-43.992188h-43.992187zm0 0"/><path d="m255.703125 62.265625c-2.632813 0-5.210937-1.070313-7.070313-2.929687-1.859374-1.859376-2.929687-4.441407-2.929687-7.070313s1.070313-5.207031 2.929687-7.066406c1.859376-1.871094 4.4375-2.929688 7.070313-2.929688 2.628906 0 5.207031 1.058594 7.066406 2.929688 1.859375 1.859375 2.929688 4.425781 2.929688 7.066406 0 2.628906-1.070313 5.210937-2.929688 7.070313-1.859375 1.859374-4.4375 2.929687-7.066406 2.929687zm0 0"/></svg>