<svg id="icons" enable-background="new 0 0 64 64" height="512" viewBox="0 0 64 64" width="512" xmlns="http://www.w3.org/2000/svg"><g><g><path d="m41.969 8.029c-9.37-9.37-24.569-9.37-33.939 0s-9.37 24.569 0 33.939c8.89 8.891 23.04 9.351 32.46 1.351.51-.42 1-.87 1.479-1.351.48-.479.931-.97 1.351-1.479 7.999-9.42 7.539-23.57-1.351-32.46z" fill="#e6e9ed"/></g><g><circle cx="24.999" cy="24.999" fill="#5d9cec" r="21.001"/></g><g><path d="m44.589 50.249 1.42-1.42 2.82-2.82 1.42-1.42 11.58 11.58c1.56 1.561 1.56 4.1 0 5.66-1.561 1.56-4.1 1.56-5.66 0z" fill="#656d78"/></g><g><path d="m35.609 14.389c-5.86-5.85-15.36-5.85-21.221 0-5.85 5.86-5.85 15.36 0 21.221 5.86 5.85 15.36 5.85 21.221 0 5.85-5.861 5.85-15.361 0-21.221z" fill="#ffce54"/></g><g><path d="m41.969 41.969c.48-.479.931-.97 1.351-1.479l5.51 5.52-2.82 2.82-5.51-5.5-.01-.01c.509-.421.999-.871 1.479-1.351z" fill="#ccd1d9"/></g><g><g><path d="m23.009 24.999h4v4h-4z" fill="#656d78"/></g><g><path d="m31.009 24.999h4v4h-4z" fill="#656d78"/></g><g><path d="m27.009 20.999h4v4h-4z" fill="#656d78"/></g><g><path d="m19.009 20.999h4v4h-4z" fill="#656d78"/></g><g><path d="m15.009 24.999h4v4h-4z" fill="#656d78"/></g></g></g><g><g><path d="m25 46.998c-5.877 0-11.401-2.288-15.557-6.443-4.155-4.154-6.443-9.678-6.443-15.556 0-5.877 2.288-11.401 6.443-15.556 4.156-4.155 9.68-6.443 15.557-6.443s11.401 2.288 15.557 6.443c8.577 8.577 8.577 22.534 0 31.111-4.156 4.156-9.68 6.444-15.557 6.444zm0-41.998c-5.343 0-10.365 2.08-14.143 5.857-3.777 3.777-5.857 8.799-5.857 14.142s2.08 10.365 5.857 14.142 8.8 5.857 14.143 5.857 10.365-2.08 14.143-5.857c7.798-7.798 7.798-20.485 0-28.283-3.778-3.778-8.8-5.858-14.143-5.858z"/></g><g><path d="m25 40.999c-4.274-.001-8.293-1.665-11.314-4.687-3.022-3.02-4.687-7.038-4.686-11.313 0-4.274 1.664-8.293 4.686-11.313 3.021-3.022 7.04-4.686 11.314-4.686s8.293 1.664 11.314 4.686c3.021 3.021 4.685 7.039 4.685 11.313s-1.664 8.293-4.685 11.313c-3.021 3.022-7.04 4.687-11.314 4.687zm0-29.999c-3.74 0-7.256 1.456-9.9 4.1s-4.1 6.159-4.1 9.899c0 3.741 1.456 7.257 4.1 9.899 2.645 2.644 6.16 4.101 9.9 4.101s7.256-1.457 9.9-4.101c2.643-2.644 4.099-6.159 4.099-9.899s-1.456-7.256-4.099-9.899c-2.644-2.644-6.16-4.1-9.9-4.1z"/></g><g><path d="m25 49.998c-6.678 0-12.956-2.6-17.678-7.321s-7.321-11-7.322-17.678c0-6.678 2.601-12.956 7.322-17.677 4.723-4.721 11.001-7.322 17.678-7.322 6.678 0 12.956 2.601 17.678 7.322 9.747 9.747 9.747 25.606 0 35.354-4.723 4.722-11.001 7.322-17.678 7.322zm0-47.998c-6.143 0-11.919 2.393-16.264 6.736-4.343 4.344-6.736 10.119-6.736 16.263.001 6.144 2.393 11.92 6.736 16.264s10.12 6.735 16.264 6.735c6.143 0 11.919-2.392 16.264-6.735 8.967-8.968 8.967-23.56 0-32.526-4.344-4.344-10.12-6.737-16.264-6.737z"/></g><g><path d="m46.006 49.834c-.256 0-.512-.098-.707-.293l-5.508-5.509c-.391-.391-.391-1.023 0-1.414s1.023-.391 1.414 0l5.508 5.509c.391.391.391 1.023 0 1.414-.195.195-.451.293-.707.293z"/></g><g><path d="m48.834 47.006c-.256 0-.512-.098-.707-.293l-5.514-5.515c-.391-.391-.391-1.023 0-1.414s1.023-.391 1.414 0l5.514 5.515c.391.391.391 1.023 0 1.414-.195.195-.451.293-.707.293z"/></g><g><path d="m44.592 51.248c-.256 0-.512-.098-.707-.293-.391-.391-.391-1.023 0-1.414l5.656-5.658c.391-.391 1.023-.391 1.414 0s.391 1.023 0 1.414l-5.656 5.658c-.195.195-.451.293-.707.293z"/></g><g><path d="m56.172 62.828c-.256 0-.512-.098-.707-.293l-11.58-11.58c-.391-.391-.391-1.023 0-1.414s1.023-.391 1.414 0l11.58 11.58c.391.391.391 1.023 0 1.414-.195.195-.451.293-.707.293z"/></g><g><path d="m61.828 57.173c-.256 0-.512-.098-.707-.293l-11.58-11.583c-.391-.391-.391-1.023 0-1.414s1.023-.391 1.414 0l11.58 11.583c.391.391.391 1.023 0 1.414-.195.195-.451.293-.707.293z"/></g><g><path d="m59.001 64c-1.336 0-2.592-.521-3.536-1.465-.391-.391-.391-1.023 0-1.414s1.023-.391 1.414 0c1.132 1.132 3.109 1.136 4.241 0 .567-.566.88-1.32.88-2.122 0-.801-.312-1.553-.878-2.118-.392-.391-.392-1.023-.002-1.414.391-.393 1.025-.391 1.414-.002.945.943 1.466 2.198 1.466 3.534s-.521 2.592-1.465 3.536c-.943.944-2.198 1.465-3.534 1.465z"/></g><g><g><path d="m19.007 29.998h-4c-.553 0-1-.447-1-1v-4c0-.553.447-1 1-1h4c.553 0 1 .447 1 1v4c0 .553-.447 1-1 1zm-3-2h2v-2h-2z"/></g><g><path d="m23.007 25.998h-4c-.553 0-1-.447-1-1v-4c0-.553.447-1 1-1h4c.553 0 1 .447 1 1v4c0 .553-.447 1-1 1zm-3-2h2v-2h-2z"/></g><g><path d="m31.007 25.998h-4c-.553 0-1-.447-1-1v-4c0-.553.447-1 1-1h4c.553 0 1 .447 1 1v4c0 .553-.447 1-1 1zm-3-2h2v-2h-2z"/></g><g><path d="m27.007 29.998h-4c-.553 0-1-.447-1-1v-4c0-.553.447-1 1-1h4c.553 0 1 .447 1 1v4c0 .553-.447 1-1 1zm-3-2h2v-2h-2z"/></g><g><path d="m35.007 29.998h-4c-.553 0-1-.447-1-1v-4c0-.553.447-1 1-1h4c.553 0 1 .447 1 1v4c0 .553-.447 1-1 1zm-3-2h2v-2h-2z"/></g></g></g></svg>