<svg height="480pt" viewBox="0 0 480.04752 480" width="480pt" xmlns="http://www.w3.org/2000/svg"><path d="m320.003906 240.023438h112v168h-112zm0 0" fill="#bddbff"/><path d="m240.003906 168.023438-90 72h10v168h160v-168h10zm0 0" fill="#57a4ff"/><path d="m272.003906 408.023438h-240v32h416v-32zm0 0" fill="#7ed63e"/><path d="m208.003906 288.023438h64v120h-64zm0 0" fill="#ffcd00"/><path d="m352.003906 304.023438h48v48h-48zm0 0" fill="#ff7956"/><path d="m80.003906 304.023438h48v48h-48zm0 0" fill="#ffcd00"/><path d="m8.003906 440.023438v32h464v-32zm0 0" fill="#4e901e"/><path d="m48.003906 240.023438h112v168h-112zm0 0" fill="#bddbff"/><path d="m124.683594 228.28125 105.320312-84.257812h-174l-48 96h112.289063c-.152344-.648438-.246094-1.304688-.289063-1.96875-.011718-3.800782 1.710938-7.398438 4.679688-9.773438zm0 0" fill="#ed1c24"/><path d="m355.324219 228.28125-105.320313-84.257812h174l48 96h-112.289062c.152344-.648438.246094-1.304688.289062-1.96875.011719-3.800782-1.710937-7.398438-4.679687-9.773438zm0 0" fill="#ed1c24"/><path d="m80.003906 304.023438h48v48h-48zm0 0" fill="#ff7956"/><path d="m433.285156 122.664062v.078126l24.238282 24.160156-22.640626 22.640625-24.238281-24.238281c-3.386719 1.824218-6.953125 3.300781-10.640625 4.398437v34.320313h-32v-34.320313c-3.6875-1.097656-7.253906-2.574219-10.640625-4.398437l-24.238281 24.238281-22.640625-22.640625 24.238281-24.160156v-.078126c-1.824218-3.386718-3.300781-6.953124-4.398437-10.640624h-34.320313v-32h34.320313c1.097656-3.6875 2.574219-7.253907 4.398437-10.640626l-24.238281-24.238281 22.640625-22.640625 24.160156 24.238282h.078125c3.386719-1.824219 6.953125-3.300782 10.640625-4.398438v-34.320312h32v34.320312c3.6875 1.097656 7.253906 2.574219 10.640625 4.398438h.078125l24.160156-24.238282 22.640626 22.640625-24.238282 24.238281c1.824219 3.386719 3.300782 6.953126 4.398438 10.640626h34.320312v32h-34.320312c-1.097656 3.6875-2.574219 7.253906-4.398438 10.640624zm0 0" fill="#ffcd00"/><path d="m408.003906 96.023438c0 13.253906-10.746094 24-24 24s-24-10.746094-24-24c0-13.253907 10.746094-24 24-24s24 10.746093 24 24zm0 0" fill="#f1f2f2"/><path d="m120.003906 238.023438c0 4.800781 2.75 9.171874 7.074219 11.25 4.324219 2.078124 9.460937 1.492187 13.207031-1.503907l9.71875-7.746093 90-72 90 72 9.71875 7.777343c3.746094 3 8.878906 3.582031 13.207032 1.503907 4.324218-2.078126 7.074218-6.449219 7.074218-11.25 0-3.789063-1.71875-7.375-4.679687-9.742188l-25.320313-20.289062-90-72-10 8-105.320312 84.257812c-2.960938 2.367188-4.679688 5.953125-4.679688 9.742188zm0 0" fill="#ff5023"/><path d="m48.003906 264.023438v144h112c-61.902344 0-112-51.144532-112-144zm0 0" fill="#9bc9ff"/><path d="m8.003906 440.023438h464v16h-464zm0 0" fill="#5eac24"/><path d="m32.003906 408.023438h416v16h-416zm0 0" fill="#91dc5a"/><path d="m240.003906 344.023438h16v16h-16zm0 0"/><path d="m352.003906 296.023438c-4.417968 0-8 3.582031-8 8v48c0 4.417968 3.582032 8 8 8h48c4.417969 0 8-3.582032 8-8v-48c0-4.417969-3.582031-8-8-8zm40 48h-32v-32h32zm0 0"/><path d="m128.003906 296.023438h-48c-4.417968 0-8 3.582031-8 8v48c0 4.417968 3.582032 8 8 8h48c4.417969 0 8-3.582032 8-8v-48c0-4.417969-3.582031-8-8-8zm-8 48h-32v-32h32zm0 0"/><path d="m472.003906 120.023438c4.417969 0 8-3.582032 8-8v-32c0-4.417969-3.582031-8-8-8h-28.65625c-.132812-.335938-.269531-.664063-.40625-.984376l20.238282-20.238281c3.125-3.125 3.125-8.1875 0-11.3125l-22.640626-22.664062c-1.5-1.5-3.535156-2.34375-5.65625-2.34375-2.101562.109375-4.101562.941406-5.664062 2.351562l-20.183594 20.273438-1.03125-.425781v-28.65625c0-4.417969-3.582031-8.0000005-8-8.0000005h-32c-4.417968 0-8 3.5820315-8 8.0000005v28.65625l-1.03125.425781-20.183594-20.28125c-1.5-1.503907-3.535156-2.351563-5.65625-2.351563-2.113281.0625-4.128906.894532-5.664062 2.34375l-22.664062 22.671875c-3.125 3.125-3.125 8.1875 0 11.3125l20.238281 20.238281c-.136719.320313-.273438.648438-.40625.984376h-28.632813c-4.417968 0-8 3.582031-8 8v32c0 4.417968 3.582032 8 8 8h28.65625l.421875 1.03125-15.015625 14.96875h-57.261718l-7.800782-6.246094c-2.921875-2.339844-7.078125-2.339844-10 0l-7.800781 6.246094h-171.199219c-3.03125 0-5.804687 1.710937-7.160156 4.425781l-48 96c-1.238281 2.480469-1.105469 5.425781.351562 7.78125 1.460938 2.359375 4.035157 3.792969 6.808594 3.792969h32v152h-8c-4.417968 0-8 3.582031-8 8v24h-16c-4.417968 0-7.99999975 3.582031-7.99999975 8v32c0 4.417968 3.58203175 8 7.99999975 8h464c4.417969 0 8-3.582032 8-8v-32c0-4.417969-3.582031-8-8-8h-16v-24c0-4.417969-3.582031-8-8-8h-8v-152h32c2.78125.015624 5.367188-1.414063 6.835938-3.773438 1.46875-2.363281 1.605468-5.316406.363281-7.800781l-33.269531-66.609375 17.285156-17.28125c1.503906-1.5 2.347656-3.535156 2.347656-5.660156 0-2.121094-.84375-4.15625-2.347656-5.660157l-20.246094-20.183593.375-1.03125zm-121.679687 114.503906c1.070312.855468 1.691406 2.15625 1.679687 3.527344 0 1.722656-.988281 3.292968-2.539062 4.039062-1.554688.746094-3.398438.535156-4.742188-.542969l-8.984375-7.199219-90.734375-72.574218c-2.921875-2.339844-7.078125-2.339844-10 0l-99.71875 79.773437c-1.351562 1.082031-3.199218 1.289063-4.753906.535157-1.554688-.753907-2.539062-2.335938-2.527344-4.0625 0-1.363282.617188-2.652344 1.679688-3.503907l110.320312-88.246093zm-38.320313 165.496094h-32v-112c0-4.417969-3.582031-8-8-8h-64c-4.417968 0-8 3.582031-8 8v112h-32v-164.160157l72-57.597656 72 57.597656zm-48 0h-48v-104h48zm-235.054687-184h83.054687c4.417969 0 8-3.582032 8-8 0-4.417969-3.582031-8-8-8h-75.054687l8-16h43.054687c4.417969 0 8-3.582032 8-8 0-4.417969-3.582031-8-8-8h-35.054687l8-16h146.253906l-20 16h-67.199219c-4.417968 0-8 3.582031-8 8 0 4.417968 3.582032 8 8 8h47.199219l-47.503906 38c-3.191407 2.578124-5.523438 6.066406-6.6875 10h-92.0625zm27.054687 32h58.695313c2.019531 3.6875 5.132812 6.65625 8.914062 8.496093 2.777344 1.339844 5.820313 2.035157 8.902344 2.039063 4.644531-.003906 9.144531-1.597656 12.761719-4.511719l6.726562-5.382813v151.359376h-96zm408 216h-448v-16h448zm-424-32v-16h400v16zm384-32h-96v-151.359376l6.726563 5.382813c4.679687 3.789063 10.792969 5.304687 16.699219 4.140625 5.902343-1.160156 10.988281-4.886719 13.878906-10.164062h58.695312zm-57.007812-168c-1.164063-3.929688-3.496094-7.414063-6.679688-9.992188l-7.511718-6.007812h39.199218c4.417969 0 8-3.582032 8-8 0-4.417969-3.582031-8-8-8h-59.199218l-60-48h31.664062c.144531.167968.207031.382812.359375.535156l22.640625 22.640625c3.121094 3.125 8.1875 3.125 11.3125 0l20.238281-20.238281.984375.40625v28.65625c0 4.417968 3.582032 8 8 8h32c4.417969 0 8-3.582032 8-8v-28.65625l.984375-.40625 20.238281 20.238281c.640626.605469 1.378907 1.09375 2.183594 1.449219l11.671875 23.375h-19.078125c-4.417968 0-8 3.582031-8 8 0 4.417968 3.582032 8 8 8h27.070313l8 16zm60.640625-103.617188 18.558593 18.503906-11.3125 11.320313-18.582031-18.582031c-2.511719-2.511719-6.378906-3.066407-9.496093-1.359376-2.910157 1.5625-5.972657 2.820313-9.136719 3.757813-3.367188 1.027344-5.667969 4.136719-5.664063 7.65625v26.320313h-16v-26.320313c0-3.519531-2.296875-6.628906-5.664062-7.65625-3.167969-.9375-6.226563-2.195313-9.136719-3.757813-3.117187-1.707031-6.984375-1.152343-9.496094 1.359376l-18.582031 18.582031-11.3125-11.320313 18.558594-18.503906c1.507812-1.53125 2.351562-3.59375 2.351562-5.742188 0-1.34375-.339844-2.664062-.984375-3.839843-1.5625-2.910157-2.820312-5.96875-3.757812-9.136719-1.027344-3.367188-4.136719-5.664062-7.65625-5.664062h-26.320313v-16h26.320313c3.519531.003906 6.628906-2.296876 7.65625-5.664063.9375-3.164063 2.195312-6.226563 3.757812-9.136719 1.707031-3.113281 1.152344-6.984375-1.359375-9.496094l-18.582031-18.582031 11.320313-11.3125 18.503906 18.558594c2.570312 2.472656 6.4375 3.027344 9.597656 1.367187 2.910156-1.558593 5.972656-2.820312 9.136719-3.757812 3.359375-1.035156 5.652343-4.140625 5.648437-7.65625v-26.320312h16v26.320312c-.003906 3.519531 2.296875 6.628906 5.664063 7.65625 3.164062.9375 6.226562 2.199219 9.136719 3.757812 3.160156 1.660157 7.027343 1.105469 9.597656-1.367187l18.503906-18.558594 11.304688 11.3125-18.582032 18.582031c-2.511718 2.511719-3.066406 6.382813-1.359375 9.496094 1.5625 2.910156 2.820313 5.972656 3.757813 9.136719 1.027344 3.367187 4.136718 5.667969 7.65625 5.664063h26.320312v16h-26.320312c-3.519532 0-6.628906 2.296874-7.65625 5.664062-.9375 3.167969-2.195313 6.226562-3.757813 9.136719-.644531 1.207031-.984375 2.550781-.984375 3.917969 0 2.128906.84375 4.164062 2.351563 5.664062zm0 0"/><path d="m384.003906 64.023438c-17.671875 0-32 14.328124-32 32 0 17.671874 14.328125 32 32 32s32-14.328126 32-32c0-17.671876-14.328125-32-32-32zm0 48c-8.835937 0-16-7.164063-16-16 0-8.835938 7.164063-16 16-16 8.835938 0 16 7.164062 16 16 0 8.835937-7.164062 16-16 16zm0 0"/></svg>