<svg height="480pt" viewBox="0 0 480 480.00053" width="480pt" xmlns="http://www.w3.org/2000/svg"><path d="m376 280c-7.246094-.035156-14.472656.796875-21.519531 2.480469l-156.960938-156.960938c1.6875-7.046875 2.519531-14.273437 2.480469-21.519531 0-53.019531-42.980469-96-96-96-8.402344-.019531-16.769531 1.082031-24.878906 3.28125l38.398437 38.398438-14.320312 53.519531-53.519531 14.320312-38.398438-38.398437c-2.199219 8.109375-3.300781 16.476562-3.28125 24.878906 0 53.019531 42.980469 96 96 96 7.246094.039062 14.472656-.796875 21.519531-2.480469l156.960938 156.960938c-1.683594 7.046875-2.515625 14.273437-2.480469 21.519531 0 53.019531 42.980469 96 96 96 8.402344.019531 16.769531-1.082031 24.878906-3.28125l-38.398437-38.398438 14.320312-53.519531 53.519531-14.320312 38.398438 38.398437c2.199219-8.109375 3.300781-16.476562 3.28125-24.878906 0-53.019531-42.980469-96-96-96zm-72 56-152-152 32-32 152 152zm0 0" fill="#c8c7cb"/><path d="m446.304688 67.640625 14.550781-14.550781-33.941407-33.945313-14.554687 14.550781c-3.964844-2.070312-8.097656-3.800781-12.359375-5.167968v-20.527344h-48v20.527344c-4.257812 1.367187-8.394531 3.097656-12.359375 5.167968l-14.550781-14.550781-33.945313 33.945313 14.550781 14.550781c-2.070312 3.964844-3.800781 8.101563-5.167968 12.359375h-20.527344v48h20.527344c1.367187 4.261719 3.097656 8.394531 5.167968 12.359375l-14.550781 14.554687 33.945313 33.941407 14.550781-14.550781c3.964844 2.070312 8.101563 3.800781 12.359375 5.167968v20.527344h48v-20.527344c4.261719-1.367187 8.394531-3.097656 12.359375-5.167968l14.554687 14.550781 33.941407-33.941407-14.550781-14.554687c2.070312-3.964844 3.800781-8.097656 5.167968-12.359375h20.527344v-48h-20.527344c-1.367187-4.257812-3.097656-8.394531-5.167968-12.359375zm-70.304688 68.359375c-17.671875 0-32-14.328125-32-32s14.328125-32 32-32 32 14.328125 32 32-14.328125 32-32 32zm0 0" fill="#ff5023"/><path d="m408 104c0 17.671875-14.328125 32-32 32s-32-14.328125-32-32 14.328125-32 32-32 32 14.328125 32 32zm0 0" fill="#ffda44"/><path d="m174.304688 339.640625 14.550781-14.550781-33.941407-33.945313-14.554687 14.550781c-3.964844-2.070312-8.097656-3.800781-12.359375-5.167968v-20.527344h-48v20.527344c-4.257812 1.367187-8.394531 3.097656-12.359375 5.167968l-14.550781-14.550781-33.945313 33.945313 14.550781 14.550781c-2.070312 3.964844-3.800781 8.101563-5.167968 12.359375h-20.527344v48h20.527344c1.367187 4.261719 3.097656 8.394531 5.167968 12.359375l-14.550781 14.554687 33.945313 33.941407 14.550781-14.550781c3.964844 2.070312 8.101563 3.800781 12.359375 5.167968v20.527344h48v-20.527344c4.261719-1.367187 8.394531-3.097656 12.359375-5.167968l14.554687 14.550781 33.941407-33.941407-14.550781-14.554687c2.070312-3.964844 3.800781-8.097656 5.167968-12.359375h20.527344v-48h-20.527344c-1.367187-4.257812-3.097656-8.394531-5.167968-12.359375zm-70.304688 68.359375c-17.671875 0-32-14.328125-32-32s14.328125-32 32-32 32 14.328125 32 32-14.328125 32-32 32zm0 0" fill="#ff5023"/><path d="m136 376c0 17.671875-14.328125 32-32 32s-32-14.328125-32-32 14.328125-32 32-32 32 14.328125 32 32zm0 0" fill="#ffda44"/><path d="m152.003906 183.996094 32-32 152 152-32 32zm0 0" fill="#6c6b6f"/><g fill="#231f20"><path d="m376 272c-6.355469-.015625-12.703125.566406-18.953125 1.734375l-150.78125-150.78125c1.171875-6.25 1.75-12.59375 1.734375-18.953125-.066406-57.410156-46.589844-103.9335938-104-104-9.117188-.0195312-18.191406 1.175781-26.992188 3.558594l-13.289062 3.640625 44.882812 44.882812-11.929687 44.597657-44.597656 11.921874-44.875-44.882812-3.628907 13.289062c-2.386718 8.796876-3.5898432 17.875-3.570312 26.992188.0664062 57.410156 46.589844 103.933594 104 104 6.359375.015625 12.703125-.5625 18.953125-1.734375l150.785156 150.78125c-1.171875 6.25-1.753906 12.59375-1.738281 18.953125.066406 57.410156 46.589844 103.933594 104 104 9.117188.019531 18.195312-1.175781 26.992188-3.558594l13.289062-3.632812-44.878906-44.878906 11.925781-44.601563 44.601563-11.929687 44.878906 44.882812 3.632812-13.289062c2.382813-8.796876 3.578125-17.875 3.558594-26.992188-.066406-57.410156-46.589844-103.933594-104-104zm87.601562 112.457031-30.890624-30.90625-62.445313 16.714844-16.714844 62.445313 30.90625 30.890624c-2.792969.261719-5.601562.398438-8.457031.398438-48.578125-.058594-87.941406-39.421875-88-88-.03125-6.605469.722656-13.195312 2.25-19.625l1.0625-4.375-163.3125-163.3125-4.375 1.066406c-6.429688 1.523438-13.015625 2.277344-19.625 2.246094-48.578125-.058594-87.941406-39.421875-88-88 0-2.839844.136719-5.664062.402344-8.457031l30.886718 30.90625 62.449219-16.714844 16.710938-62.445313-30.90625-30.890624c2.792969-.261719 5.601562-.398438 8.457031-.398438 48.578125.058594 87.941406 39.421875 88 88 .03125 6.609375-.722656 13.195312-2.246094 19.625l-1.066406 4.375 163.3125 163.3125 4.375-1.0625c6.429688-1.527344 13.019531-2.28125 19.625-2.25 48.578125.058594 87.941406 39.421875 88 88 0 2.839844-.136719 5.664062-.398438 8.457031zm0 0"/><path d="m140.6875 184 163.3125 163.3125 43.3125-43.3125-163.3125-163.3125zm163.3125 140.6875-140.6875-140.6875 20.6875-20.6875 140.6875 140.6875zm0 0"/><path d="m376 64c-22.089844 0-40 17.910156-40 40s17.910156 40 40 40c22.09375 0 40-17.910156 40-40-.027344-22.082031-17.917969-39.972656-40-40zm0 64c-13.253906 0-24-10.746094-24-24s10.746094-24 24-24 24 10.746094 24 24-10.746094 24-24 24zm0 0"/><path d="m457.097656 72c-.359375-.902344-.746094-1.808594-1.136718-2.710938l16.207031-16.199218-45.253907-45.257813-16.203124 16.207031c-.902344-.390624-1.804688-.796874-2.710938-1.136718v-22.902344h-64v22.902344c-.902344.363281-1.808594.746094-2.710938 1.136718l-16.199218-16.207031-45.257813 45.257813 16.207031 16.199218c-.390624.902344-.796874 1.808594-1.132812 2.710938h-22.90625v64h22.90625c.359375.902344.742188 1.808594 1.132812 2.703125l-16.207031 16.210937 45.257813 45.253907 16.199218-16.167969c.902344.390625 1.808594.800781 2.710938 1.136719v22.863281h64v-22.902344c.90625-.363281 1.808594-.746094 2.710938-1.136718l16.203124 16.207031 45.253907-45.253907-16.167969-16.210937c.390625-.894531.800781-1.800781 1.136719-2.703125h22.863281v-64zm6.902344 48h-18.398438l-1.777343 5.601562c-1.222657 3.824219-2.773438 7.539063-4.640625 11.09375l-2.695313 5.199219 13.03125 13.042969-22.625 22.621094-13.03125-13.03125-5.199219 2.695312c-3.5625 1.863282-7.277343 3.417969-11.105468 4.640625l-5.558594 1.738281v18.398438h-32v-18.398438l-5.597656-1.777343c-3.828125-1.226563-7.542969-2.777344-11.105469-4.640625l-5.199219-2.695313-13.03125 13.03125-22.625-22.625 13.03125-13.039062-2.695312-5.199219c-1.867188-3.558594-3.417969-7.269531-4.640625-11.097656l-1.734375-5.558594h-18.402344v-32h18.402344l1.773437-5.601562c1.226563-3.824219 2.777344-7.539063 4.640625-11.101563l2.695313-5.199219-13.046875-13.007812 22.625-22.625 13.03125 13.03125 5.199218-2.695313c3.554688-1.863281 7.261719-3.414062 11.082032-4.640625l5.597656-1.761718v-18.398438h32v18.398438l5.601562 1.777343c3.828126 1.226563 7.542969 2.777344 11.101563 4.640625l5.203125 2.695313 13.03125-13.03125 22.621094 22.625-13.03125 13.03125 2.695312 5.199219c1.863282 3.5625 3.417969 7.277343 4.640625 11.105468l1.777344 5.597656h18.359375zm0 0"/><path d="m104 336c-22.089844 0-40 17.910156-40 40s17.910156 40 40 40c22.09375 0 40-17.910156 40-40-.027344-22.082031-17.917969-39.972656-40-40zm0 64c-13.253906 0-24-10.746094-24-24s10.746094-24 24-24 24 10.746094 24 24-10.746094 24-24 24zm0 0"/><path d="m184 341.289062 16.207031-16.199218-45.253906-45.257813-16.199219 16.207031c-.90625-.390624-1.808594-.796874-2.714844-1.136718v-22.902344h-64.039062v22.902344c-.902344.363281-1.808594.746094-2.710938 1.136718l-16.199218-16.207031-45.257813 45.257813 16.207031 16.199218c-.390624.902344-.796874 1.808594-1.132812 2.710938h-22.90625v64h22.90625c.359375.902344.742188 1.808594 1.132812 2.703125l-16.207031 16.210937 45.257813 45.253907 16.199218-16.167969c.902344.390625 1.808594.800781 2.710938 1.136719v22.863281h64v-22.902344c.90625-.363281 1.808594-.746094 2.710938-1.136718l16.203124 16.207031 45.253907-45.253907-16.167969-16.210937c.390625-.894531.800781-1.800781 1.136719-2.703125h22.863281v-64h-22.902344c-.359375-.902344-.746094-1.808594-1.097656-2.710938zm8 50.710938h-18.398438l-1.777343 5.601562c-1.222657 3.824219-2.773438 7.539063-4.640625 11.09375l-2.695313 5.199219 13.03125 13.042969-22.625 22.621094-13.03125-13.03125-5.199219 2.695312c-3.5625 1.863282-7.277343 3.417969-11.105468 4.640625l-5.558594 1.738281v18.398438h-32v-18.398438l-5.597656-1.777343c-3.828125-1.226563-7.542969-2.777344-11.105469-4.640625l-5.199219-2.695313-13.007812 13.046875-22.625-22.621094 13.03125-13.042968-2.695313-5.199219c-1.863281-3.546875-3.417969-7.253906-4.640625-11.070313l-1.757812-5.601562h-18.402344v-32h18.402344l1.773437-5.601562c1.226563-3.824219 2.777344-7.539063 4.640625-11.101563l2.695313-5.199219-13.046875-13.007812 22.625-22.625 13.03125 13.03125 5.199218-2.695313c3.5625-1.863281 7.277344-3.414062 11.105469-4.640625l5.574219-1.761718v-18.398438h32v18.398438l5.601562 1.777343c3.828126 1.226563 7.542969 2.777344 11.101563 4.640625l5.203125 2.695313 13.03125-13.03125 22.621094 22.625-13.03125 13.03125 2.695312 5.199219c1.863282 3.5625 3.417969 7.277343 4.640625 11.105468l1.777344 5.597656h18.359375zm0 0"/></g></svg>