<?xml version="1.0" encoding="iso-8859-1"?>
<!-- Generator: Adobe Illustrator 19.0.0, SVG Export Plug-In . SVG Version: 6.00 Build 0)  -->
<svg version="1.1" id="Capa_1" xmlns="http://www.w3.org/2000/svg" xmlns:xlink="http://www.w3.org/1999/xlink" x="0px" y="0px"
	 viewBox="0 0 512.002 512.002" style="enable-background:new 0 0 512.002 512.002;" xml:space="preserve">
<path style="fill:#2A8EE6;" d="M425.009,296.773l-5.89-15.061c14.94-9.645,27.508-21.964,37.399-36.02l14.867,6.506
	c7.024,3.074,15.203-0.129,18.277-7.149l10.766-24.607c3.074-7.02-0.129-15.203-7.149-18.277l-14.866-6.506
	c3.617-16.798,4.135-34.394,1.083-51.913l15.061-5.89c7.136-2.794,10.659-10.839,7.869-17.979l-9.783-25.012
	c-2.794-7.14-10.844-10.663-17.979-7.869l-15.061,5.89c-9.645-14.94-21.964-27.508-36.02-37.399l6.506-14.867
	c3.074-7.024-0.129-15.203-7.149-18.277l-24.607-10.766c-7.024-3.074-15.203,0.129-18.277,7.149l-6.506,14.867
	c-16.798-3.617-34.394-4.135-51.913-1.083l-5.89-15.061c-2.794-7.14-10.844-10.663-17.979-7.869l-25.012,9.783
	c-7.136,2.794-10.663,10.844-7.869,17.979l5.89,15.061c-14.94,9.645-27.508,21.964-37.399,36.02l-14.867-6.506
	c-7.024-3.074-15.203,0.129-18.277,7.149l-10.766,24.607c-3.074,7.02,0.129,15.203,7.149,18.277l14.867,6.506
	c-3.617,16.798-4.135,34.394-1.083,51.913l-15.061,5.89c-7.136,2.794-10.663,10.844-7.869,17.979l9.783,25.012
	c2.794,7.14,10.844,10.659,17.979,7.869l15.061-5.89c9.645,14.94,21.964,27.508,36.02,37.399l-6.506,14.867
	c-3.074,7.02,0.129,15.203,7.149,18.277l24.607,10.766c7.024,3.074,15.203-0.129,18.277-7.149l6.506-14.867
	c16.798,3.617,34.394,4.135,51.913,1.083l5.89,15.061c2.794,7.14,10.844,10.659,17.979,7.869l25.012-9.783
	C424.281,311.959,427.802,303.909,425.009,296.773z M300.444,184.466c-9.615-24.576,2.514-52.297,27.094-61.911
	c24.581-9.615,52.297,2.514,61.911,27.094c9.614,24.581-2.514,52.297-27.094,61.911
	C337.779,221.176,310.059,209.047,300.444,184.466z"/>
<path d="M387.101,334.112c-9.002,0-17.516-5.436-20.981-14.303l-3.389-8.662c-13.693,1.697-27.517,1.407-41.239-0.867l-3.752,8.569
	c-4.977,11.36-18.262,16.565-29.634,11.591l-24.607-10.767c-5.506-2.409-9.743-6.822-11.933-12.417
	c-2.192-5.6-2.069-11.714,0.342-17.222l3.75-8.564c-10.988-8.544-20.575-18.497-28.619-29.709l-8.663,3.389
	c-11.559,4.516-24.634-1.206-29.15-12.761l-9.785-25.011c-4.52-11.548,1.202-24.626,12.756-29.153l8.663-3.387
	c-1.697-13.698-1.409-27.517,0.867-41.241l-8.567-3.75c-11.369-4.981-16.567-18.276-11.591-29.636l10.765-24.605
	c4.981-11.367,18.274-16.558,29.639-11.59l8.567,3.75c8.541-10.988,18.495-20.577,29.704-28.622l-3.387-8.663
	c-4.518-11.55,1.204-24.628,12.756-29.15l25.015-9.785c11.537-4.512,24.628,1.198,29.155,12.758l3.385,8.662
	c13.705-1.695,27.517-1.41,41.239,0.869l3.752-8.569c4.99-11.36,18.278-16.563,29.634-11.591l24.607,10.765
	c11.365,4.981,16.565,18.276,11.591,29.636l-3.747,8.569c10.989,8.544,20.577,18.497,28.619,29.709l8.662-3.389
	c5.596-2.19,11.71-2.069,17.217,0.342c5.508,2.411,9.748,6.822,11.933,12.421l9.785,25.009c4.514,11.559-1.213,24.632-12.754,29.15
	l-8.665,3.389c1.697,13.698,1.407,27.517-0.867,41.241l8.569,3.747c5.508,2.413,9.743,6.822,11.933,12.419
	c2.19,5.598,2.071,11.714-0.342,17.22l-10.767,24.605c-4.981,11.367-18.262,16.567-29.634,11.59l-8.569-3.75
	c-8.548,10.988-18.497,20.579-29.707,28.622l3.385,8.662c2.19,5.596,2.071,11.71-0.342,17.217
	c-2.408,5.508-6.821,9.748-12.417,11.933l-25.011,9.785C392.588,333.615,389.822,334.112,387.101,334.112z M368.264,292.983
	c3.499,0,6.716,2.135,8.026,5.483l5.891,15.062c1.056,2.699,4.11,4.038,6.813,2.977L414,306.722
	c1.309-0.513,2.337-1.503,2.901-2.787c0.561-1.284,0.589-2.712,0.08-4.021l0,0l-5.891-15.062c-1.494-3.819-0.093-8.165,3.352-10.387
	c13.719-8.851,25.504-20.203,35.024-33.733c2.358-3.355,6.749-4.582,10.51-2.939l14.868,6.505c2.644,1.16,5.761-0.05,6.922-2.71
	l10.767-24.601c1.163-2.655-0.055-5.761-2.712-6.922l-14.864-6.503c-3.756-1.644-5.836-5.707-4.972-9.716
	c3.478-16.162,3.823-32.521,1.015-48.619c-0.703-4.04,1.537-8.017,5.356-9.511l15.062-5.891c2.695-1.054,4.034-4.112,2.977-6.813
	l-9.782-25.005c-0.513-1.309-1.503-2.34-2.787-2.901c-1.28-0.562-2.712-0.593-4.017-0.08l-15.066,5.893
	c-3.832,1.499-8.16,0.089-10.387-3.355c-8.851-13.719-20.203-25.502-33.735-35.024c-3.352-2.36-4.582-6.754-2.935-10.51
	l6.505-14.866c1.163-2.655-0.055-5.761-2.712-6.922l-24.603-10.765c-2.648-1.163-5.761,0.055-6.922,2.712l-6.505,14.861
	c-1.642,3.761-5.714,5.834-9.714,4.972c-16.161-3.48-32.515-3.821-48.616-1.019c-4.089,0.703-8.017-1.539-9.511-5.356l-5.887-15.06
	c-1.061-2.699-4.135-4.038-6.808-2.979l-25.015,9.785c-2.699,1.054-4.034,4.11-2.981,6.806l5.891,15.062
	c1.494,3.819,0.093,8.163-3.352,10.386c-13.723,8.859-25.506,20.209-35.024,33.737c-2.358,3.355-6.751,4.585-10.51,2.937
	l-14.866-6.505c-2.653-1.158-5.758,0.053-6.922,2.707l-10.765,24.605c-1.164,2.655,0.053,5.758,2.71,6.922l14.861,6.505
	c3.758,1.642,5.836,5.706,4.972,9.714c-3.48,16.162-3.821,32.521-1.017,48.619c0.705,4.04-1.535,8.017-5.353,9.511l-15.06,5.889
	c-2.696,1.054-4.036,4.11-2.981,6.806l9.785,25.013c1.053,2.696,4.103,4.034,6.808,2.979l15.06-5.891
	c3.819-1.487,8.163-0.093,10.386,3.353c8.857,13.721,20.209,25.504,33.737,35.024c3.352,2.358,4.582,6.754,2.935,10.51
	l-6.505,14.868c-1.163,2.657,0.055,5.761,2.712,6.922l24.603,10.767c2.661,1.166,5.764-0.055,6.922-2.712l6.505-14.864
	c1.647-3.756,5.722-5.823,9.714-4.972c16.157,3.482,32.519,3.827,48.616,1.015C367.278,293.025,367.774,292.983,368.264,292.983z
	 M345.012,223.472c-22.552,0-43.9-13.623-52.599-35.865l0,0c-5.49-14.032-5.187-29.361,0.855-43.163
	c6.042-13.805,17.095-24.43,31.13-29.921c28.965-11.324,61.758,3.019,73.085,31.986c11.331,28.97-3.019,61.754-31.984,73.085
	C358.769,222.225,351.838,223.472,345.012,223.472z M308.472,181.324c7.874,20.114,30.637,30.079,50.742,22.205
	c20.11-7.866,30.072-30.626,22.207-50.738c-7.869-20.108-30.633-30.074-50.743-22.205c-9.743,3.811-17.42,11.187-21.613,20.771
	C304.872,160.941,304.661,171.583,308.472,181.324L308.472,181.324z"/>
<path style="fill:#777777;" d="M256.378,352.463h-12.767c-2.794-13.759-8.235-26.543-15.725-37.857l9.059-9.059
	c4.277-4.277,4.277-11.215,0-15.496l-14.996-14.992c-4.277-4.277-11.215-4.277-15.496,0l-9.059,9.059
	c-11.314-7.489-24.098-12.93-37.857-15.725v-12.767c0-6.05-4.907-10.956-10.956-10.956h-21.203c-6.05,0-10.956,4.907-10.956,10.956
	v12.767c-13.759,2.794-26.543,8.235-37.857,15.725l-9.059-9.059c-4.277-4.277-11.215-4.277-15.496,0L39.011,290.05
	c-4.277,4.277-4.277,11.215,0,15.496l9.059,9.059c-7.489,11.314-12.93,24.098-15.725,37.857H19.58
	c-6.05,0-10.956,4.907-10.956,10.956v21.205c0,6.05,4.907,10.956,10.956,10.956h12.767c2.794,13.759,8.235,26.543,15.725,37.857
	l-9.059,9.059c-4.277,4.277-4.277,11.215,0,15.496l14.996,14.996c4.277,4.277,11.215,4.277,15.496,0l9.059-9.059
	c11.314,7.489,24.098,12.93,37.857,15.725v12.767c0,6.05,4.907,10.956,10.956,10.956h21.205c6.05,0,10.956-4.907,10.956-10.956
	v-12.767c13.759-2.794,26.543-8.235,37.857-15.725l9.059,9.059c4.277,4.277,11.215,4.277,15.496,0l14.996-14.996
	c4.277-4.277,4.277-11.215,0-15.496l-9.059-9.059c7.489-11.314,12.93-24.098,15.725-37.857h12.767
	c6.05,0,10.956-4.907,10.956-10.956v-21.205C267.335,357.365,262.431,352.463,256.378,352.463z M137.983,411.749
	c-20.835,0-37.728-16.893-37.728-37.728c0-20.839,16.893-37.728,37.728-37.728s37.728,16.889,37.728,37.728
	C175.71,394.856,158.821,411.749,137.983,411.749z"/>
<path d="M148.581,511.999h-21.205c-10.797,0-19.58-8.783-19.58-19.58v-5.941c-9.773-2.614-19.135-6.505-27.965-11.621l-4.229,4.228
	c-7.638,7.629-20.062,7.629-27.691,0l-14.996-14.994c-7.629-7.643-7.629-20.064-0.002-27.693l4.229-4.228
	c-5.111-8.829-9.002-18.19-11.621-27.967H19.58c-10.797,0-19.58-8.783-19.58-19.58v-21.205c0-10.797,8.783-19.58,19.58-19.58h5.941
	c2.619-9.777,6.509-19.142,11.621-27.967l-4.228-4.228c-7.629-7.638-7.627-20.059-0.002-27.689l14.998-14.994
	c7.645-7.634,20.062-7.622,27.689-0.004l4.231,4.236c8.826-5.111,18.186-9.007,27.965-11.625v-5.941
	c0-10.797,8.783-19.58,19.58-19.58h21.205c10.797,0,19.58,8.783,19.58,19.58v5.941c9.782,2.619,19.142,6.514,27.965,11.625
	l4.228-4.231c7.645-7.634,20.064-7.622,27.691-0.004l14.998,14.998c7.629,7.638,7.627,20.059,0.002,27.689l-4.229,4.228
	c5.111,8.826,9.002,18.19,11.621,27.967h5.941c10.797,0,19.58,8.783,19.58,19.58v21.205c0,10.797-8.783,19.58-19.58,19.58h-5.941
	c-2.619,9.777-6.509,19.138-11.621,27.967l4.228,4.228c7.629,7.643,7.629,20.064,0.002,27.693l-14.998,14.994
	c-7.638,7.629-20.062,7.629-27.691,0l-4.229-4.228c-8.827,5.116-18.19,9.007-27.965,11.621v5.941
	C168.161,503.216,159.377,511.999,148.581,511.999z M78.566,455.308c1.647,0,3.303,0.472,4.756,1.432
	c10.701,7.082,22.415,11.946,34.814,14.464c4.019,0.817,6.908,4.349,6.908,8.451v12.767c0,1.284,1.047,2.333,2.333,2.333h21.205
	c1.286,0,2.333-1.049,2.333-2.333v-12.767c0-4.101,2.888-7.634,6.908-8.451c12.403-2.518,24.114-7.381,34.811-14.464
	c3.419-2.257,7.96-1.806,10.857,1.095l9.059,9.057c0.91,0.91,2.392,0.905,3.305-0.004l14.994-14.99
	c0.91-0.91,0.908-2.395-0.004-3.31l-9.055-9.053c-2.899-2.897-3.358-7.436-1.095-10.855c7.08-10.699,11.947-22.409,14.465-34.814
	c0.815-4.021,4.35-6.91,8.451-6.91h12.767c1.286,0,2.333-1.049,2.333-2.333v-21.205c0-1.284-1.047-2.333-2.333-2.333H243.61
	c-4.101,0-7.634-2.888-8.451-6.906c-2.52-12.409-7.387-24.123-14.465-34.818c-2.263-3.419-1.804-7.958,1.095-10.855l9.059-9.057
	c0.908-0.91,0.905-2.392-0.004-3.305l-14.992-14.99c-0.916-0.905-2.398-0.91-3.309,0.009l-9.05,9.053
	c-2.903,2.901-7.444,3.352-10.859,1.095c-10.687-7.078-22.401-11.946-34.814-14.467c-4.017-0.817-6.906-4.35-6.906-8.451v-12.767
	c0-1.286-1.047-2.333-2.333-2.333h-21.205c-1.286,0-2.333,1.047-2.333,2.333v12.767c0,4.101-2.888,7.634-6.906,8.451
	c-12.411,2.522-24.123,7.39-34.814,14.467c-3.415,2.257-7.958,1.806-10.859-1.095l-9.059-9.061c-0.91-0.905-2.394-0.91-3.307,0.009
	l-14.99,14.985c-0.908,0.91-0.905,2.392,0.004,3.305l9.055,9.053c2.899,2.897,3.358,7.436,1.095,10.855
	c-7.078,10.695-11.946,22.409-14.465,34.818c-0.817,4.017-4.35,6.906-8.451,6.906H19.58c-1.286,0-2.333,1.049-2.333,2.333v21.205
	c0,1.284,1.047,2.333,2.333,2.333h12.767c4.101,0,7.636,2.888,8.451,6.91c2.518,12.405,7.385,24.114,14.465,34.814
	c2.263,3.419,1.804,7.958-1.095,10.855l-9.059,9.057c-0.91,0.91-0.908,2.395,0.004,3.309l14.992,14.99
	c0.91,0.91,2.392,0.905,3.305-0.004l9.057-9.053C74.132,456.166,76.341,455.308,78.566,455.308z M137.982,420.371
	c-25.558,0-46.35-20.792-46.35-46.35s20.792-46.35,46.35-46.35s46.35,20.792,46.35,46.35
	C184.334,399.579,163.542,420.371,137.982,420.371z M137.982,344.917c-16.049,0-29.104,13.057-29.104,29.104
	s13.055,29.104,29.104,29.104s29.104-13.057,29.104-29.104C167.087,357.974,154.032,344.917,137.982,344.917z"/>
<g>
</g>
<g>
</g>
<g>
</g>
<g>
</g>
<g>
</g>
<g>
</g>
<g>
</g>
<g>
</g>
<g>
</g>
<g>
</g>
<g>
</g>
<g>
</g>
<g>
</g>
<g>
</g>
<g>
</g>
</svg>
