<svg height="512.001pt" viewBox="0 0 512.001 512.001" width="512.001pt" xmlns="http://www.w3.org/2000/svg"><g fill-rule="evenodd"><path d="m291.144531 12.527344c-38.230469 5.511718-73.65625 19.875-104.144531 40.921875 21.664062-7.417969 44.875-11.449219 69-11.449219 117.867188 0 214 96.132812 214 214s-96.132812 214-214 214c-24.125 0-47.335938-4.03125-69-11.449219 30.488281 21.046875 65.914062 35.410157 104.144531 40.921875 118.945313-17.144531 210.855469-119.910156 210.855469-243.472656s-91.910156-226.328125-210.855469-243.472656zm0 0" fill="#4dbcd6"/><path d="m288.234375 44.433594c-102.664063 15.625-181.761719 104.652344-181.761719 211.566406s79.097656 195.945312 181.765625 211.566406c102.664063-15.625 181.765625-104.652344 181.765625-211.566406s-79.101562-195.941406-181.769531-211.566406zm38.050781 211.566406v40.578125l-35.140625 20.292969-35.144531 20.289062-35.140625-20.289062-35.144531-20.292969v-81.15625l35.144531-20.289063 35.140625-20.292968 35.144531 20.292968 35.140625 20.289063zm0 0" fill="#abc7ff"/><path d="m279.957031 188.671875-11.191406 6.460937-35.140625 20.289063v81.15625l35.140625 20.292969 11.191406 6.457031 11.1875-6.457031 35.140625-20.292969v-81.15625l-35.140625-20.289063zm0 0" fill="#43609b"/></g><path d="m437.019531 74.980469c-48.351562-48.351563-112.640625-74.980469-181.019531-74.980469s-132.667969 26.628906-181.019531 74.980469c-48.351563 48.351562-74.980469 112.640625-74.980469 181.019531s26.628906 132.667969 74.980469 181.019531c48.351562 48.355469 112.640625 74.980469 181.019531 74.980469 42.707031 0 85.09375-10.808594 122.585938-31.257812 4.847656-2.644532 6.632812-8.71875 3.988281-13.566407-2.644531-4.847656-8.71875-6.632812-13.566407-3.988281-34.5625 18.851562-73.636718 28.816406-113.007812 28.816406-130.128906-.003906-236-105.871094-236-236.003906 0-130.128906 105.871094-236 236-236 130.132812 0 236 105.871094 236 236 0 63.039062-24.546875 122.304688-69.121094 166.878906-3.90625 3.902344-3.90625 10.234375 0 14.140625 3.902344 3.90625 10.234375 3.90625 14.140625 0 23.894531-23.890625 42.5625-51.835937 55.496094-83.050781 12.929687-31.21875 19.484375-64.179688 19.484375-97.96875 0-68.378906-26.628906-132.667969-74.980469-181.019531zm0 0"/><path d="m143.453125 73.710938c-3.121094-4.558594-9.34375-5.726563-13.898437-2.609376-24.40625 16.691407-44.972657 37.707032-61.132813 62.464844-16.160156 24.757813-27.121094 52.046875-32.574219 81.105469-11.042968 58.804687 1.480469 118.390625 35.253906 167.777344 27.308594 39.929687 65.871094 69.324219 110.714844 84.953125.359375.152344.734375.277344 1.117188.390625 10.273437 3.519531 20.871094 6.324219 31.738281 8.363281 13.9375 2.617188 27.917969 3.910156 41.800781 3.910156 44.675782 0 88.296875-13.398437 125.976563-39.167968 49.386719-33.773438 82.667969-84.761719 93.707031-143.566407 11.039062-58.804687-1.480469-118.390625-35.257812-167.777343-27.320313-39.949219-65.90625-69.355469-110.777344-84.976563-.335938-.140625-.6875-.257813-1.039063-.363281-10.277343-3.519532-20.878906-6.324219-31.75-8.367188-33.996093-6.382812-69.542969-4.738281-102.804687 4.753906-5.308594 1.515626-8.386719 7.050782-6.871094 12.359376 1.515625 5.3125 7.046875 8.386718 12.359375 6.871093 30.292969-8.644531 62.664063-10.140625 93.625-4.328125 7.707031 1.445313 15.257813 3.328125 22.644531 5.59375v137.003906l-182.546875-105.394531c2.328125-1.738281 4.691407-3.445312 7.101563-5.09375 4.5625-3.121093 5.730468-9.34375 2.613281-13.902343zm-55.839844 297.449218c-14.722656-21.53125-25-45.1875-30.621093-69.875l118.722656-68.542968v210.863281c-35.40625-15.066407-65.855469-39.917969-88.101563-72.445313zm168.386719-184.773437 60.285156 34.808593v69.609376l-60.285156 34.808593-60.285156-34.808593v-69.609376zm-37.636719 270.113281c-7.707031-1.449219-15.261719-3.328125-22.648437-5.597656v-137.003906l182.550781 105.394531c-2.328125 1.742187-4.691406 3.445312-7.105469 5.097656-44.980468 30.757813-99.242187 42.160156-152.796875 32.109375zm238.136719-162.859375c-8.1875 43.605469-29.800781 82.488281-61.828125 112.035156l-118.671875-68.515625 182.636719-105.445312c2.417969 20.363281 1.753906 41.195312-2.136719 61.925781zm-32.109375-152.800781c14.722656 21.527344 24.996094 45.1875 30.621094 69.871094l-118.726563 68.546874v-210.863281c35.410156 15.066407 65.859375 39.917969 88.105469 72.445313zm-188.390625 34-182.636719 105.445312c-2.414062-20.363281-1.753906-41.195312 2.140625-61.925781 8.183594-43.605469 29.800782-82.484375 61.824219-112.03125zm0 0"/><path d="m160.070312 74.707031c1.476563 0 2.972657-.328125 4.386719-1.015625 4.980469-2.390625 7.074219-8.367187 4.683594-13.34375-2.394531-4.980468-8.367187-7.074218-13.34375-4.683594-.042969.019532-.152344.074219-.199219.097657-4.9375 2.429687-6.953125 8.378906-4.539062 13.332031 1.726562 3.550781 5.300781 5.613281 9.011718 5.613281zm0 0"/><path d="m402.3125 441.175781-.160156.125c-4.339844 3.414063-5.089844 9.703125-1.671875 14.042969 1.972656 2.503906 4.902343 3.8125 7.863281 3.8125 2.164062 0 4.34375-.699219 6.179688-2.140625l.15625-.125c4.339843-3.414063 5.089843-9.703125 1.675781-14.042969-3.417969-4.339844-9.703125-5.089844-14.042969-1.671875zm0 0"/></svg>