<?xml version="1.0" encoding="iso-8859-1"?>
<!-- Generator: Adobe Illustrator 19.0.0, SVG Export Plug-In . SVG Version: 6.00 Build 0)  -->
<svg version="1.1" id="Layer_1" xmlns="http://www.w3.org/2000/svg" xmlns:xlink="http://www.w3.org/1999/xlink" x="0px" y="0px"
	 viewBox="0 0 512 512" style="enable-background:new 0 0 512 512;" xml:space="preserve">
<circle style="fill:#FAB617;" cx="255.939" cy="413.735" r="64.779"/>
<circle style="fill:#0092E0;" cx="255.939" cy="125.373" r="91.948"/>
<circle style="fill:#45AD02;" cx="75.971" cy="413.735" r="64.779"/>
<circle style="fill:#FF4A2B;" cx="435.771" cy="413.735" r="64.779"/>
<path d="M120.941,470.051c-2.681,0-5.362-1.025-7.404-3.076c-4.071-4.089-4.058-10.705,0.03-14.776l0.122-0.122
	c4.09-4.071,10.706-4.057,14.778,0.031c4.072,4.089,4.058,10.705-0.03,14.776l-0.122,0.122
	C126.275,469.036,123.607,470.051,120.941,470.051z"/>
<path d="M301.706,470.051c-2.681,0-5.362-1.025-7.404-3.076c-4.071-4.089-4.058-10.705,0.03-14.776l0.122-0.122
	c4.09-4.071,10.706-4.057,14.778,0.031c4.072,4.089,4.058,10.705-0.03,14.776l-0.122,0.122
	C307.041,469.036,304.373,470.051,301.706,470.051z"/>
<path d="M482.471,470.051c-2.681,0-5.362-1.025-7.404-3.076c-4.071-4.089-4.058-10.705,0.03-14.776l0.122-0.122
	c4.09-4.071,10.706-4.057,14.778,0.031s4.058,10.705-0.03,14.776l-0.122,0.122C487.806,469.036,485.138,470.051,482.471,470.051z"/>
<path d="M190.871,200.893c-2.659,0-5.319-1.008-7.357-3.028c-4.098-4.063-4.126-10.679-0.064-14.776
	c4.065-4.097,10.708-4.158,14.807-0.093c4.098,4.062,4.156,10.648,0.093,14.746l-0.06,0.06
	C196.249,199.862,193.56,200.893,190.871,200.893z"/>
<path d="M489.921,360.539c-12.208-12.207-27.602-19.315-43.529-21.362v-61.282c0-5.771-4.679-10.449-10.449-10.449h-169.55v-40.209
	c1.247-0.126,2.491-0.272,3.732-0.445c22.201-3.09,42.335-13.12,58.224-29.01c39.924-39.924,39.924-104.887,0-144.812
	c-39.925-39.924-104.886-39.923-144.811,0c-15.889,15.889-25.921,36.023-29.01,58.224c-2.987,21.467,1.002,43.745,11.232,62.733
	c2.739,5.081,9.078,6.979,14.155,4.242c5.08-2.738,6.98-9.075,4.243-14.154c-16.928-31.417-11.107-71.005,14.157-96.268
	c31.778-31.776,83.481-31.776,115.257-0.001c31.776,31.778,31.776,83.482,0,115.259c-25.264,25.266-64.849,31.085-96.268,14.156
	c-5.083-2.738-11.417-0.838-14.156,4.242c-2.737,5.08-0.838,11.417,4.242,14.155c11.764,6.339,24.79,10.271,38.105,11.644v40.244
	H75.969c-5.77,0-10.449,4.678-10.449,10.449v61.282c-15.925,2.048-31.317,9.156-43.522,21.361
	c-29.331,29.333-29.331,77.059,0,106.391c14.33,14.33,33.503,22.043,53.164,22.041c7.271,0,14.61-1.055,21.793-3.221
	c5.525-1.666,8.654-7.494,6.988-13.019c-1.666-5.525-7.497-8.654-13.019-6.988c-19.226,5.795-39.973,0.588-54.149-13.59
	c-21.184-21.185-21.184-55.655,0-76.838c21.185-21.186,55.656-21.185,76.838,0c14.627,14.627,19.659,35.925,13.135,55.581
	c-1.817,5.477,1.149,11.39,6.626,13.208c5.477,1.819,11.39-1.147,13.209-6.624c9.031-27.207,2.059-56.688-18.192-76.941
	c-11.81-11.809-26.601-18.855-41.973-21.155v-51.04h159.078v50.892c-16.124,2.231-31.02,9.592-42.731,21.304
	c-14.209,14.209-22.035,33.101-22.035,53.196c0,20.095,7.826,38.987,22.035,53.196c14.33,14.329,33.503,22.041,53.165,22.041
	c7.27,0,14.609-1.055,21.792-3.22c5.525-1.665,8.654-7.495,6.988-13.02c-1.666-5.525-7.498-8.654-13.019-6.988
	c-19.224,5.797-39.972,0.588-54.149-13.59c-10.263-10.262-15.914-23.905-15.914-38.42c0-14.513,5.652-28.157,15.914-38.42
	c10.262-10.262,23.905-15.913,38.419-15.913c14.514,0,28.157,5.652,38.42,15.914c14.627,14.627,19.661,35.924,13.136,55.581
	c-1.817,5.477,1.149,11.39,6.625,13.208c5.478,1.819,11.389-1.147,13.209-6.624c9.031-27.207,2.059-56.689-18.193-76.941
	c-11.718-11.719-26.625-19.081-42.763-21.308v-50.888h159.103v51.042c-15.369,2.302-30.158,9.347-41.966,21.154
	c-29.331,29.333-29.331,77.059,0,106.391c14.331,14.329,33.504,22.041,53.166,22.041c7.27,0,14.609-1.055,21.792-3.22
	c5.525-1.665,8.654-7.495,6.988-13.02c-1.666-5.525-7.496-8.654-13.019-6.988c-19.224,5.797-39.973,0.588-54.15-13.589
	c-21.184-21.185-21.184-55.655,0-76.838c10.262-10.263,23.907-15.914,38.42-15.914c14.513,0,28.157,5.652,38.42,15.914
	c14.628,14.627,19.66,35.924,13.136,55.581c-1.818,5.476,1.147,11.39,6.624,13.208c5.474,1.816,11.389-1.148,13.208-6.624
	C517.145,410.273,510.174,380.791,489.921,360.539z"/>
<g>
</g>
<g>
</g>
<g>
</g>
<g>
</g>
<g>
</g>
<g>
</g>
<g>
</g>
<g>
</g>
<g>
</g>
<g>
</g>
<g>
</g>
<g>
</g>
<g>
</g>
<g>
</g>
<g>
</g>
</svg>
