<?xml version="1.0" encoding="iso-8859-1"?>
<!-- Generator: Adobe Illustrator 19.0.0, SVG Export Plug-In . SVG Version: 6.00 Build 0)  -->
<svg version="1.1" id="Layer_1" xmlns="http://www.w3.org/2000/svg" xmlns:xlink="http://www.w3.org/1999/xlink" x="0px" y="0px"
	 viewBox="0 0 511.996 511.996" style="enable-background:new 0 0 511.996 511.996;" xml:space="preserve">
<path style="fill:#E8B33F;" d="M222.018,368.564L98.179,492.403c-14.848,14.848-39.13,14.634-53.704-0.64
	c-14.137-14.838-13.365-38.429,1.127-52.922L168.944,315.5c2.498-2.498,6.53-2.498,9.018,0l1.96,1.95l13.02,13.02v0.01
	l27.116,27.116l1.96,1.95C224.506,362.034,224.506,366.076,222.018,368.564z"/>
<rect x="169.455" y="235.43" transform="matrix(-0.7071 0.7071 -0.7071 -0.7071 653.7679 256.8315)" style="fill:#92949B;" width="208.475" height="56.77"/>
<g>
	<path style="fill:#484B54;" d="M461.596,184.381c30.887,30.887,39.719,79.791,16.208,119.819
		c-16.287-36.696-53.974-78.089-80.329-93.327l14.334-14.334l30.994-30.951l0.014,0.014
		C453.223,176.008,460.785,183.57,461.596,184.381z"/>
	<path style="fill:#484B54;" d="M383.809,86.991l-65.478,65.478l-2.284-1.522c4.474-8.984,1.738-21.63-7.418-30.786
		c-9.099-9.099-21.651-11.856-30.621-7.483l-0.445-0.977l65.478-65.478l1.063,0.488c-4.216,8.955-1.429,21.364,7.59,30.384
		c9.171,9.171,21.859,11.907,30.843,7.389L383.809,86.991z"/>
</g>
<g>
	<path style="fill:#92949B;" d="M344.104,46.711l-1.063-0.488l-65.478,65.478l0.445,0.977c-1.723,0.833-3.318,1.939-4.725,3.304
		l-34.074-34.076l74.289-74.289l34.075,34.075C346.115,43.178,344.96,44.866,344.104,46.711z"/>
	<path style="fill:#92949B;" d="M457.151,151.27l-14.348,14.32l-30.994,30.951l-14.334,14.334l-14.65,14.65l-15.346-15.346
		l0.007-0.007l-40.143-40.143l-0.007,0.007l-14.521-14.521c1.328-1.372,2.406-2.909,3.232-4.567l2.284,1.522l65.478-65.478
		l-1.272-2.506c1.667-0.833,3.203-1.925,4.567-3.26C387.106,81.223,431.055,125.172,457.151,151.27z"/>
</g>
<path style="fill:#D39F37;" d="M192.942,330.47v0.01c0,0-131.029,107.905-148.467,161.283
	c-14.137-14.838-13.365-38.429,1.127-52.922L168.944,315.5c2.498-2.498,6.53-2.498,9.018,0l1.96,1.95L192.942,330.47z"/>
<polygon style="fill:#484B54;" points="309.414,305.974 330.458,327.017 288.324,369.151 267.28,348.107 276.144,339.244 
	300.552,314.837 "/>
<path style="fill:#EA3D3D;" d="M465.685,465.714c0,9.892-3.778,19.794-11.324,27.339c-15.102,15.102-39.587,15.102-54.689,0
	L323.2,416.591c7.109-7.109,7.109-18.626,0-25.735c-7.109-7.109-18.626-7.109-25.724,0l-15.427-15.427l6.276-6.276l18.24-18.23
	l23.896-23.907l6.276-6.276l15.427,15.427c-7.109,7.099-7.109,18.626,0,25.725c7.109,7.109,18.626,7.109,25.735,0l76.463,76.473
	C461.907,445.91,465.685,455.812,465.685,465.714z"/>
<polygon style="fill:#B5B6BA;" points="46.787,59.434 98.738,85.338 103.283,117.569 300.552,314.837 276.144,339.244 
	78.876,141.976 46.646,137.43 20.741,85.48 "/>
<path style="fill:#D33333;" d="M454.361,493.053c-15.102,15.102-39.587,15.102-54.689,0L323.2,416.591
	c7.109-7.109,7.109-18.626,0-25.735c-7.109-7.109-18.626-7.109-25.724,0l-15.427-15.427l6.276-6.276l18.24-18.23
	C307.773,352.467,395.671,464.505,454.361,493.053z"/>
<path d="M235.467,331.417l-15.404,15.404l-29.369-29.369l15.409-15.409c2.975-2.975,2.975-7.797,0-10.771
	c-2.975-2.975-7.798-2.975-10.771,0l-16.03,16.03c-1.812-0.835-3.791-1.29-5.846-1.29c-3.737,0-7.252,1.456-9.896,4.1
	l-89.334,89.334c-2.975,2.975-2.975,7.797,0,10.771c2.975,2.975,7.798,2.975,10.771,0l88.458-88.458l42.297,42.297L92.789,487.021
	c-5.732,5.732-13.37,8.821-21.505,8.74c-8.131-0.095-15.695-3.384-21.298-9.257c-11.108-11.651-10.66-30.616,1-42.276l14.621-14.621
	c2.975-2.975,2.975-7.797,0-10.771c-2.975-2.975-7.798-2.974-10.771,0l-14.621,14.621c-17.46,17.461-18.023,45.974-1.252,63.562
	c8.46,8.868,19.874,13.831,32.142,13.975c0.185,0.002,0.367,0.003,0.55,0.003c12.066,0,23.379-4.677,31.905-13.205l123.839-123.839
	c4.248-4.248,5.173-10.565,2.806-15.732l16.032-16.032c2.975-2.975,2.975-7.798,0-10.771
	C243.264,328.443,238.441,328.443,235.467,331.417z"/>
<path d="M484.709,202.29c-2.076-3.66-6.725-4.944-10.383-2.869c-3.659,2.075-4.944,6.723-2.869,10.382
	c13.771,24.288,15.84,52.236,6.224,77.194c-17.578-31.491-45.834-61.628-68.148-77.389l33.275-33.243l13.402,13.402
	c1.488,1.488,3.437,2.232,5.387,2.232c1.949,0,3.898-0.743,5.385-2.23c2.976-2.974,2.976-7.797,0.002-10.772l-13.398-13.398
	l8.946-8.938c1.431-1.428,2.235-3.366,2.236-5.388c0.001-2.021-0.801-3.96-2.231-5.39l-70.045-70.045
	c-2.952-2.952-7.732-2.978-10.714-0.057c-0.786,0.77-1.676,1.406-2.66,1.897c-6.193,3.116-15.462,0.603-22.036-5.971
	c-6.536-6.535-9.038-15.48-6.064-21.797c0.497-1.071,1.167-2.043,1.995-2.886c2.925-2.983,2.901-7.765-0.053-10.718L318.884,2.231
	c-2.975-2.975-7.798-2.975-10.771,0L233.823,76.52c-2.975,2.975-2.975,7.797,0,10.771l34.075,34.075
	c2.941,2.942,7.7,2.979,10.688,0.083c0.806-0.782,1.727-1.426,2.761-1.926c6.181-3.015,15.392-0.482,21.897,6.022
	c6.555,6.555,9.071,15.808,5.985,22.005c-0.487,0.979-1.121,1.875-1.883,2.661c-2.895,2.988-2.858,7.745,0.084,10.687l9.132,9.132
	l-65.375,65.384c-2.975,2.975-2.974,7.798,0.001,10.772c1.487,1.487,3.436,2.23,5.386,2.23c1.95,0,3.899-0.743,5.387-2.231
	l65.374-65.383l29.373,29.373l-65.384,65.384c-2.975,2.975-2.975,7.797,0,10.771c1.487,1.488,3.437,2.231,5.386,2.231
	c1.949,0,3.899-0.743,5.386-2.231l65.384-65.384l9.961,9.961c1.428,1.428,3.366,2.231,5.386,2.231s3.958-0.802,5.386-2.231
	l10.371-10.361c24.057,16.096,57.176,52.756,72.26,86.742c1.159,2.61,3.679,4.353,6.53,4.515c0.145,0.008,0.289,0.012,0.433,0.012
	c2.689,0,5.194-1.422,6.566-3.759C503.586,275.346,503.712,235.807,484.709,202.29z M249.981,81.906l63.517-63.517l23.303,23.303
	l-63.517,63.518L249.981,81.906z M295.89,104.146l39.805-39.806c1.711,6.492,5.3,12.827,10.614,18.14
	c5.816,5.816,12.977,9.575,20.205,11.033l-41.472,41.472c-1.457-7.235-5.215-14.4-11.026-20.212
	C308.69,109.449,302.364,105.859,295.89,104.146z M382.825,214.751l-58.003-58.003l63.518-63.517l58.033,58.033L382.825,214.751z"/>
<path d="M447.522,420.751c-2.975-2.975-7.798-2.975-10.771,0c-2.975,2.975-2.975,7.797,0,10.771l12.227,12.227
	c5.862,5.862,9.09,13.66,9.09,21.961c0,8.299-3.228,16.098-9.09,21.96c-5.866,5.866-13.666,9.096-21.961,9.096
	c-8.295,0-16.095-3.231-21.961-9.096l-71.886-71.885c1.947-3.672,2.979-7.788,2.979-12.062c0-6.894-2.685-13.376-7.561-18.251
	c-4.875-4.876-11.357-7.561-18.251-7.561c-4.274,0-8.39,1.032-12.062,2.978l-5.458-5.458l43.921-43.921l5.465,5.465
	c-5.14,9.746-3.614,22.116,4.575,30.306c4.876,4.876,11.357,7.561,18.252,7.561c4.274,0,8.39-1.032,12.062-2.978l40.358,40.358
	c2.975,2.975,7.798,2.975,10.771,0c2.975-2.975,2.975-7.797,0-10.771l-44.94-44.94c-1.428-1.429-3.366-2.231-5.386-2.231
	s-3.958,0.802-5.386,2.231c-1.999,1.999-4.654,3.099-7.48,3.099s-5.481-1.101-7.48-3.099c-4.124-4.124-4.124-10.835,0-14.959
	c2.975-2.975,2.974-7.798,0-10.771l-15.426-15.426c-1.428-1.429-3.366-2.231-5.386-2.231s-3.958,0.802-5.386,2.231l-0.894,0.894
	l-15.657-15.657c-1.428-1.429-3.366-2.231-5.386-2.231s-3.958,0.802-5.386,2.231l-3.477,3.477L110.47,113.984l-4.19-29.709
	c-0.35-2.483-1.899-4.634-4.144-5.753L50.186,52.618c-2.931-1.46-6.468-0.887-8.785,1.431L15.355,80.094
	c-2.317,2.317-2.892,5.854-1.431,8.785l25.905,51.951c1.119,2.243,3.27,3.793,5.753,4.144l29.709,4.19l21.559,21.559
	c2.975,2.975,7.798,2.975,10.771,0c2.975-2.975,2.975-7.798,0-10.771l-23.358-23.358c-1.169-1.169-2.686-1.926-4.322-2.156
	l-28.265-3.987l-21.67-43.461l18.292-18.292l43.458,21.67l3.987,28.265c0.231,1.637,0.987,3.153,2.156,4.322l191.882,191.882
	l-13.636,13.636L122.852,175.18c-2.975-2.975-7.798-2.975-10.771,0c-2.975,2.975-2.975,7.797,0,10.771l153.292,153.292l-3.477,3.477
	c-1.429,1.428-2.231,3.366-2.231,5.386s0.802,3.958,2.231,5.386l15.658,15.657l-0.893,0.894c-2.975,2.975-2.975,7.797,0,10.771
	l15.426,15.426c2.975,2.975,7.798,2.975,10.771,0c1.999-1.999,4.654-3.1,7.48-3.1c2.825,0,5.481,1.101,7.48,3.1
	c1.999,1.999,3.099,4.654,3.099,7.48s-1.1,5.481-3.099,7.48c-1.429,1.428-2.231,3.366-2.231,5.386c0,2.02,0.802,3.958,2.231,5.386
	l76.469,76.468c8.743,8.743,20.367,13.558,32.732,13.558c12.365,0,23.989-4.815,32.732-13.558
	c8.739-8.739,13.552-20.363,13.552-32.732c0-12.369-4.813-23.993-13.552-32.732L447.522,420.751z M278.052,348.107l27.885-27.885
	l0,0l0,0l3.477-3.477l10.272,10.272l-31.362,31.362L278.052,348.107z"/>
<g>
</g>
<g>
</g>
<g>
</g>
<g>
</g>
<g>
</g>
<g>
</g>
<g>
</g>
<g>
</g>
<g>
</g>
<g>
</g>
<g>
</g>
<g>
</g>
<g>
</g>
<g>
</g>
<g>
</g>
</svg>
