<svg id="Capa_1" enable-background="new 0 0 511.9 511.9" height="512" viewBox="0 0 511.9 511.9" width="512" xmlns="http://www.w3.org/2000/svg"><path d="m353.443 466.755h-194.986c-13.826 0-25.034-11.208-25.034-25.034v-371.442c0-13.826 11.208-25.034 25.034-25.034h194.987c13.826 0 25.034 11.208 25.034 25.034v371.442c-.001 13.826-11.209 25.034-25.035 25.034z" fill="#5e6b75"/><path d="m353.444 45.245h-24.454c13.826 0 25.034 11.208 25.034 25.034v371.442c0 13.826-11.208 25.034-25.034 25.034h24.454c13.826 0 25.034-11.208 25.034-25.034v-371.442c-.001-13.826-11.209-25.034-25.034-25.034z" fill="#4d5961"/><path d="m336.442 45.245h-160.984v-15.928c0-12.049 9.768-21.817 21.817-21.817h117.349c12.049 0 21.817 9.768 21.817 21.817v15.928z" fill="#efecef"/><path d="m314.625 7.5h-24.454c12.049 0 21.817 9.768 21.817 21.817v15.928h24.454v-15.928c0-12.049-9.768-21.817-21.817-21.817z" fill="#d3ced5"/><path d="m175.458 466.655h160.983v37.745h-160.983z" fill="#efecef"/><path d="m311.988 466.655h24.454v37.745h-24.454z" fill="#d3ced5"/><circle cx="255.95" cy="156.128" fill="#d82e3d" r="80.646"/><path d="m255.95 75.482c-3.956 0-7.841.298-11.645.848 39.02 5.645 69.001 39.214 69.001 79.798s-29.981 74.152-69.001 79.798c3.804.55 7.689.848 11.645.848 44.54 0 80.646-36.107 80.646-80.646s-36.106-80.646-80.646-80.646z" fill="#c32430"/><circle cx="255.95" cy="355.872" fill="#9bd069" r="80.646"/><path d="m255.95 275.226c-3.956 0-7.841.298-11.645.848 39.02 5.645 69.001 39.214 69.001 79.798s-29.981 74.152-69.001 79.798c3.804.55 7.689.848 11.645.848 44.54 0 80.646-36.107 80.646-80.646 0-44.54-36.106-80.646-80.646-80.646z" fill="#7dbe3b"/><path d="m255.95 67.982c-48.604 0-88.146 39.542-88.146 88.146s39.542 88.146 88.146 88.146 88.146-39.542 88.146-88.146-39.542-88.146-88.146-88.146zm0 161.292c-40.333 0-73.146-32.813-73.146-73.146s32.813-73.146 73.146-73.146 73.146 32.813 73.146 73.146-32.813 73.146-73.146 73.146z"/><path d="m293.58 118.499c-2.93-2.929-7.678-2.929-10.607 0l-27.022 27.022-27.022-27.022c-2.93-2.929-7.678-2.929-10.607 0s-2.929 7.678 0 10.606l27.023 27.023-27.023 27.023c-2.929 2.929-2.929 7.678 0 10.606 1.465 1.464 3.385 2.197 5.304 2.197s3.839-.732 5.304-2.197l27.022-27.022 27.022 27.022c1.465 1.464 3.385 2.197 5.304 2.197s3.839-.732 5.304-2.197c2.929-2.929 2.929-7.678 0-10.606l-27.023-27.023 27.023-27.023c2.926-2.929 2.926-7.678-.002-10.606z"/><path d="m305.144 355.872c0-27.126-22.068-49.194-49.194-49.194-27.125 0-49.193 22.068-49.193 49.194s22.068 49.194 49.193 49.194c27.126 0 49.194-22.068 49.194-49.194zm-83.388 0c0-18.854 15.339-34.194 34.193-34.194s34.194 15.34 34.194 34.194-15.34 34.194-34.194 34.194-34.193-15.339-34.193-34.194z"/><path d="m185.27 374.728c-1.065-4.004-5.176-6.384-9.176-5.32-4.003 1.065-6.385 5.174-5.32 9.176 10.25 38.527 45.275 65.435 85.176 65.435 48.604 0 88.146-39.542 88.146-88.146s-39.542-88.146-88.146-88.146c-44.856 0-82.499 33.574-87.56 78.097-.468 4.115 2.489 7.831 6.605 8.299 4.102.462 7.83-2.489 8.299-6.605 4.198-36.937 35.433-64.79 72.655-64.79 40.333 0 73.146 32.813 73.146 73.146s-32.813 73.146-73.146 73.146c-33.111-.002-62.175-22.328-70.679-54.292z"/><path d="m378.477 139.112c4.143 0 7.5-3.358 7.5-7.5v-61.333c0-17.939-14.595-32.534-32.533-32.534h-9.502v-8.428c0-16.166-13.151-29.317-29.317-29.317h-55.326c-4.143 0-7.5 3.358-7.5 7.5s3.357 7.5 7.5 7.5h55.326c7.895 0 14.317 6.422 14.317 14.317v8.428h-145.984v-8.428c0-7.895 6.423-14.317 14.317-14.317h32.036c4.143 0 7.5-3.358 7.5-7.5s-3.357-7.5-7.5-7.5h-32.036c-16.166 0-29.317 13.151-29.317 29.317v8.428h-9.502c-17.938 0-32.533 14.595-32.533 32.534v371.442c0 17.939 14.595 32.534 32.533 32.534h9.502v30.145c0 4.143 3.357 7.5 7.5 7.5h160.983c4.143 0 7.5-3.357 7.5-7.5v-30.146h9.502c17.938 0 32.533-14.595 32.533-32.534v-280.121c0-4.142-3.357-7.5-7.5-7.5s-7.5 3.358-7.5 7.5v280.122c0 9.668-7.865 17.534-17.533 17.534-10.571 0-186.376 0-194.987 0-9.668 0-17.533-7.866-17.533-17.534v-371.442c0-9.668 7.865-17.534 17.533-17.534h194.987c9.668 0 17.533 7.866 17.533 17.534v61.333c.001 4.142 3.358 7.5 7.501 7.5zm-49.535 357.788h-145.984v-22.646h145.983v22.646z"/></svg>