<?xml version="1.0" encoding="iso-8859-1"?>
<!-- Generator: Adobe Illustrator 19.0.0, SVG Export Plug-In . SVG Version: 6.00 Build 0)  -->
<svg version="1.1" id="Layer_1" xmlns="http://www.w3.org/2000/svg" xmlns:xlink="http://www.w3.org/1999/xlink" x="0px" y="0px"
	 viewBox="0 0 512 512" style="enable-background:new 0 0 512 512;" xml:space="preserve">
<g transform="translate(1)">
	<path style="fill:#7383BF;" d="M421.4,285.867H88.6c-11.947,0-21.333,9.387-21.333,21.333v149.333h375.467V307.2
		C442.733,295.253,433.347,285.867,421.4,285.867"/>
	<path style="fill:#556080;" d="M502.467,473.6H7.533c-5.12,0-8.533-3.413-8.533-8.533c0-5.12,3.413-8.533,8.533-8.533h494.933
		c5.12,0,8.533,3.413,8.533,8.533C511,470.187,507.587,473.6,502.467,473.6z"/>
	<path style="fill:#25B99A;" d="M131.267,46.933h248.32c11.093,0,20.48,9.387,20.48,21.333V217.6H109.933V68.267
		C109.933,56.32,119.32,46.933,131.267,46.933"/>
	<path style="fill:#556080;" d="M502.467,234.667H7.533c-5.12,0-8.533-3.413-8.533-8.533c0-5.12,3.413-8.533,8.533-8.533h494.933
		c5.12,0,8.533,3.413,8.533,8.533C511,231.253,507.587,234.667,502.467,234.667z"/>
	<path d="M502.467,226.133H7.533C2.413,226.133-1,222.72-1,217.6c0-5.12,3.413-8.533,8.533-8.533h494.933
		c5.12,0,8.533,3.413,8.533,8.533C511,222.72,507.587,226.133,502.467,226.133z"/>
	<path d="M502.467,465.067H7.533c-5.12,0-8.533-3.413-8.533-8.533S2.413,448,7.533,448h494.933c5.12,0,8.533,3.413,8.533,8.533
		S507.587,465.067,502.467,465.067z"/>
	<path d="M400.067,226.133H109.933c-5.12,0-8.533-3.413-8.533-8.533V68.267c0-16.213,13.653-29.867,29.867-29.867h248.32
		c15.36,0,29.013,13.653,29.013,29.867V217.6C408.6,222.72,405.187,226.133,400.067,226.133z M118.467,209.067h273.067v-140.8
		c0-6.827-5.973-12.8-12.8-12.8H131.267c-6.827,0-12.8,5.973-12.8,12.8V209.067z"/>
	<path d="M442.733,465.067H67.267c-5.12,0-8.533-3.413-8.533-8.533V307.2c0-17.067,13.653-29.867,29.867-29.867h333.653
		c16.213,0,29.867,13.653,29.867,29.867v149.333C451.267,461.653,447.853,465.067,442.733,465.067z M75.8,448h358.4V307.2
		c0-6.827-5.973-12.8-12.8-12.8H88.6c-6.827,0-12.8,5.973-12.8,12.8V448z"/>
</g>
<g>
</g>
<g>
</g>
<g>
</g>
<g>
</g>
<g>
</g>
<g>
</g>
<g>
</g>
<g>
</g>
<g>
</g>
<g>
</g>
<g>
</g>
<g>
</g>
<g>
</g>
<g>
</g>
<g>
</g>
</svg>
