<svg height="496pt" viewBox="0 -24 496.076 496" width="496pt" xmlns="http://www.w3.org/2000/svg"><path d="m248.03125 126.765625c-54.921875-.015625-109.296875-10.890625-160-32v250.671875c102.398438-42.667969 217.597656-42.667969 320 0v-250.671875c-50.703125 21.109375-105.078125 31.984375-160 32zm0 0" fill="#cc7400"/><path d="m104.03125 144.101562-1.546875 2.140626-14.453125 19.402343v-70.71875l10.871094 4.183594c47.578125 18.328125 98.140625 27.695313 149.128906 27.628906 50.988281.066407 101.546875-9.300781 149.125-27.628906l10.875-4.183594v70.71875l-16-21.542969-93.34375 66.597657-42.65625-42.597657-63.753906 58.789063zm0 0" fill="#5aaae7"/><g fill="#acabb1"><path d="m40.03125 8.101562-8 24-24 8 48 16zm0 0"/><path d="m456.03125 8.101562-16 48 48-16-24-8zm0 0"/><path d="m40.03125 440.101562 16-48-48 16 24 8zm0 0"/><path d="m456.03125 440.101562 8-24 24-8-48-16zm0 0"/></g><path d="m412.429688 88.101562c-2.203126-1.464843-4.996094-1.734374-7.441407-.722656-49.722656 20.75-103.078125 31.410156-156.957031 31.359375-53.882812.050781-107.234375-10.609375-156.960938-31.359375-2.4375-1.054687-5.25-.78125-7.441406.722656-2.226562 1.476563-3.574218 3.964844-3.597656 6.636719v250.722657c.023438 2.671874 1.371094 5.160156 3.597656 6.640624 2.207032 1.464844 4.996094 1.734376 7.441406.71875 100.460938-41.8125 213.457032-41.8125 313.917969 0 2.441407 1.0625 5.253907.789063 7.441407-.71875 2.226562-1.480468 3.574218-3.96875 3.601562-6.640624v-250.722657c-.027344-2.671875-1.375-5.160156-3.601562-6.636719zm-12.398438 245.519532c-97.855469-37.546875-206.144531-37.546875-304 0v-165.519532l9.039062-12.082031 75.519532 70.800781-34 31.441407c-3.214844 3.007812-3.394532 8.050781-.398438 11.277343 1.433594 1.5625 3.4375 2.480469 5.554688 2.554688 2.121094.078125 4.179687-.699219 5.722656-2.152344l98.320312-90.722656 66.5625 66.5625c3.136719 3.136719 8.222657 3.136719 11.359376 0 3.136718-3.136719 3.136718-8.222656 0-11.359375l-22.722657-22.640625 79.363281-56.640625 9.679688 12.960937zm0-192.160156-1.601562-2.160157c-2.617188-3.460937-7.511719-4.207031-11.039063-1.679687l-87.839844 62.640625-37.839843-37.839844c-3.058594-3.042969-7.976563-3.113281-11.121094-.160156l-58.238282 53.679687-82.882812-77.679687c-1.640625-1.582031-3.890625-2.371094-6.160156-2.160157-2.257813.222657-4.316406 1.382813-5.679688 3.199219l-1.597656 2.160157v-34.882813c48.492188 18.6875 100.027344 28.234375 152 28.160156 51.96875.074219 103.503906-9.472656 152-28.160156zm0 0"/><path d="m376.03125 296.101562h16v16h-16zm0 0"/><path d="m352.03125 296.101562h16v16h-16zm0 0"/><path d="m376.03125 272.101562h16v16h-16zm0 0"/><path d="m104.03125 296.101562h16v16h-16zm0 0"/><path d="m128.03125 296.101562h16v16h-16zm0 0"/><path d="m104.03125 272.101562h16v16h-16zm0 0"/><path d="m47.621094 5.570312c-1.078125-3.28125-4.144532-5.4999995-7.597656-5.4999995-3.457032 0-6.523438 2.2187495-7.601563 5.4999995l-6.71875 20.203126-20.199219 6.742187c-3.285156 1.078125-5.503906 4.144531-5.503906 7.601563 0 3.453124 2.21875 6.519531 5.503906 7.597656l48 16c.8125.265625 1.667969.394531 2.527344.386718 2.570312 0 4.984375-1.238281 6.488281-3.324218 1.503907-2.082032 1.914063-4.765625 1.101563-7.207032zm-14.296875 34.53125 1.234375-.417968c2.390625-.792969 4.265625-2.667969 5.0625-5.054688l.410156-1.234375 3.351562 10.058594zm0 0"/><path d="m440.03125 64.101562c.859375 0 1.710938-.140624 2.527344-.417968l48-16c3.28125-1.078125 5.5-4.144532 5.5-7.597656 0-3.457032-2.21875-6.523438-5.5-7.601563l-20.199219-6.746094-6.738281-20.199219c-1.078125-3.28125-4.144532-5.4999995-7.597656-5.4999995-3.457032 0-6.523438 2.2187495-7.601563 5.4999995l-16 48c-.828125 2.449219-.421875 5.140626 1.089844 7.238282 1.507812 2.09375 3.9375 3.332031 6.519531 3.324218zm16-30.707031.40625 1.234375c.796875 2.386719 2.675781 4.261719 5.066406 5.054688l1.230469.417968-10.054687 3.351563zm0 0"/><path d="m53.503906 384.515625-48 16c-3.285156 1.078125-5.503906 4.144531-5.503906 7.601563 0 3.453124 2.21875 6.519531 5.503906 7.597656l20.199219 6.746094 6.734375 20.199218c1.078125 3.28125 4.144531 5.5 7.601562 5.5 3.453126 0 6.519532-2.21875 7.597657-5.5l16-48c.957031-2.875.207031-6.039062-1.9375-8.179687-2.140625-2.140625-5.308594-2.890625-8.179688-1.933594zm-13.472656 30.289063-.410156-1.234376c-.796875-2.386718-2.671875-4.261718-5.0625-5.054687l-1.234375-.414063 10.058593-3.355468zm0 0"/><path d="m490.558594 400.515625-48-16c-2.875-.957031-6.039063-.210937-8.183594 1.929687-2.140625 2.140626-2.890625 5.308594-1.9375 8.183594l16 48c1.078125 3.28125 4.144531 5.5 7.601562 5.5 3.453126 0 6.519532-2.21875 7.597657-5.5l6.738281-20.199218 20.199219-6.746094c3.28125-1.078125 5.5-4.144532 5.5-7.597656 0-3.457032-2.21875-6.523438-5.5-7.601563zm-29.054688 8c-2.390625.792969-4.269531 2.667969-5.066406 5.054687l-.40625 1.234376-3.351562-10.058594 10.054687 3.355468zm0 0"/></svg>