<svg height="512.00001pt" viewBox="0 0 512.00001 512.00001" width="512.00001pt" xmlns="http://www.w3.org/2000/svg"><path d="m432 16h-352c-35.347656 0-64 28.652344-64 64v352c0 35.347656 28.652344 64 64 64h352c35.347656 0 64-28.652344 64-64v-352c0-35.347656-28.652344-64-64-64zm-156.113281 259.886719c-37.488281 37.496093-98.269531 37.5-135.765625.011719-37.492188-37.484376-37.496094-98.269532-.011719-135.765626 37.488281-37.492187 98.273437-37.496093 135.765625-.011718 18.003906 18.003906 28.121094 42.417968 28.125 67.878906.03125 25.46875-10.085938 49.898438-28.113281 67.886719l124.113281 124.113281zm0 0" fill="#ffc477"/><path d="m208 112c-53.019531 0-96 42.980469-96 96s42.980469 96 96 96 96-42.980469 96-96-42.980469-96-96-96zm0 0" fill="#00ddc2"/><g fill="#3e3d42"><path d="m432 0h-352c-44.160156.0546875-79.9453125 35.839844-80 80v352c.0546875 44.160156 35.839844 79.945312 80 80h352c44.160156-.054688 79.945312-35.839844 80-80v-352c-.054688-44.160156-35.839844-79.9453125-80-80zm48 432c0 26.507812-21.492188 48-48 48h-352c-26.511719 0-48-21.488281-48-48v-352c0-26.507812 21.488281-48 48-48h352c26.507812 0 48 21.488281 48 48zm0 0"/><path d="m320 208c.230469-62.101562-49.925781-112.632812-112.03125-112.863281-62.101562-.230469-112.632812 49.925781-112.863281 112.03125-.230469 62.101562 49.929687 112.632812 112.03125 112.863281 24.4375.089844 48.242187-7.785156 67.808593-22.433594l113.742188 113.746094 22.625-22.625-113.710938-113.773438c14.535157-19.292968 22.398438-42.789062 22.398438-66.945312zm-192 0c0-44.183594 35.816406-80 80-80s80 35.816406 80 80-35.816406 80-80 80c-44.160156-.054688-79.949219-35.839844-80-80zm0 0"/><path d="m224 160h-32v32h-32v32h32v32h32v-32h32v-32h-32zm0 0"/></g></svg>